<svg xmlns="http://www.w3.org/2000/svg">
<defs>
<font id="CaviarDreams" horiz-adv-x="430" >
  <font-face 
    font-family="Caviar Dreams"
    font-weight="400"
    font-stretch="normal"
    units-per-em="2048"
    panose-1="2 11 4 2 2 2 4 2 5 4"
    ascent="1638"
    descent="-410"
    x-height="982"
    cap-height="1600"
    bbox="-400 -375 2239 2005"
    underline-thickness="150"
    underline-position="-142"
    unicode-range="U+0020-FB05"
  />
<missing-glyph horiz-adv-x="1835" 
d="M418 811v-41h-25v8h-18v-33q0 -8 14 -8v-16h-61v16q12 0 12 4v90q0 5 -12 5v18h100v-43h-10zM537 221q0 -4 18 -4v-16h-55v16q8 0 8 4v82q0 14 -8 14v17h28l60 -70v49q0 4 -19 4v17h56v-17q-11 0 -11 -4v-112h-18l-59 67v-47zM735 201q-63 -1 -63 67t64 68t65 -70
q-1 -28 -17 -46t-49 -19zM1180 334v-17q-9 0 -9 -14v-82q0 -4 9 -4v-16h-54v16q9 0 9 4v29l-23 -49h-22l-27 51v-31q0 -4 8 -4v-16h-47v16q8 0 8 4v82q0 14 -8 14v17h37l43 -84l37 84h39zM350 383q0 -4 19 -4v-19h-56v19q11 0 11 4v82q0 10 -11 10v19h29l59 -70v47
q0 4 -16 4v19h55v-19q-10 0 -10 -4v-111h-18l-62 68v-45zM375 674q65 0 65 -68t-63 -67q-35 0 -47 18q-17 18 -17 49t15 47q14 21 47 21zM455 1034v-16q-9 0 -9 -14v-82q0 -4 9 -4v-19h-54v19q11 0 11 4v28l-25 -51h-25l-24 53v-30q0 -4 6 -4v-19h-45v19q8 0 8 4v82
q0 14 -8 14v16h39l41 -84l37 84h39zM430 336v-43h-25q0 20 -6 20h-4v-90q0 -4 13 -4v-16h-62v16q12 0 12 4v90h-4q-6 0 -6 -20h-24v43h106zM1432 1112q0 -4 18 -4v-18h-57v18q10 0 10 4v82q0 12 -10 12v19h30l58 -72v49q0 4 -17 4v19h58v-19q-11 0 -11 -4v-112h-20l-59 67
v-45zM1454 1047q68 0 68 -69t-64 -69t-65 69q0 69 61 69zM1536 684v-18q-8 0 -8 -13v-82q0 -4 8 -4v-16h-55v16q10 0 10 2v29l-25 -47h-22l-27 51v-31q0 -4 8 -4v-16h-47v16q8 0 8 4v82q0 13 -8 13v18h39l41 -86l37 86h41zM1432 221q0 -4 18 -4v-16h-57v16q10 0 10 4v82
q0 12 -10 12v19h30l58 -70v47q0 4 -17 4v19h58v-19q-11 0 -11 -4v-110h-20l-59 67v-47zM917 1309v-33q0 -8 15 -8v-19h-64v19q13 0 13 4v90q0 4 -13 4v18h101v-45h-27q0 23 -4 23h-21v-33h19v8h22v-37h-22v9h-19zM1511 1384v-45h-26q0 23 -6 23h-4v-90q0 -4 12 -4v-19h-60

<glyph glyph-name=".notdef" horiz-adv-x="1835" 
d="M418 811v-41h-25v8h-18v-33q0 -8 14 -8v-16h-61v16q12 0 12 4v90q0 5 -12 5v18h100v-43h-10zM537 221q0 -4 18 -4v-16h-55v16q8 0 8 4v82q0 14 -8 14v17h28l60 -70v49q0 4 -19 4v17h56v-17q-11 0 -11 -4v-112h-18l-59 67v-47zM735 201q-63 -1 -63 67t64 68t65 -70
q-1 -28 -17 -46t-49 -19zM1180 334v-17q-9 0 -9 -14v-82q0 -4 9 -4v-16h-54v16q9 0 9 4v29l-23 -49h-22l-27 51v-31q0 -4 8 -4v-16h-47v16q8 0 8 4v82q0 14 -8 14v17h37l43 -84l37 84h39zM350 383q0 -4 19 -4v-19h-56v19q11 0 11 4v82q0 10 -11 10v19h29l59 -70v47
q0 4 -16 4v19h55v-19q-10 0 -10 -4v-111h-18l-62 68v-45zM375 674q65 0 65 -68t-63 -67q-35 0 -47 18q-17 18 -17 49t15 47q14 21 47 21zM455 1034v-16q-9 0 -9 -14v-82q0 -4 9 -4v-19h-54v19q11 0 11 4v28l-25 -51h-25l-24 53v-30q0 -4 6 -4v-19h-45v19q8 0 8 4v82
q0 14 -8 14v16h39l41 -84l37 84h39zM430 336v-43h-25q0 20 -6 20h-4v-90q0 -4 13 -4v-16h-62v16q12 0 12 4v90h-4q-6 0 -6 -20h-24v43h106zM1432 1112q0 -4 18 -4v-18h-57v18q10 0 10 4v82q0 12 -10 12v19h30l58 -72v49q0 4 -17 4v19h58v-19q-11 0 -11 -4v-112h-20l-59 67
v-45zM1454 1047q68 0 68 -69t-64 -69t-65 69q0 69 61 69zM1536 684v-18q-8 0 -8 -13v-82q0 -4 8 -4v-16h-55v16q10 0 10 2v29l-25 -47h-22l-27 51v-31q0 -4 8 -4v-16h-47v16q8 0 8 4v82q0 13 -8 13v18h39l41 -86l37 86h41zM1432 221q0 -4 18 -4v-16h-57v16q10 0 10 4v82
q0 12 -10 12v19h30l58 -70v47q0 4 -17 4v19h58v-19q-11 0 -11 -4v-110h-20l-59 67v-47zM917 1309v-33q0 -8 15 -8v-19h-64v19q13 0 13 4v90q0 4 -13 4v18h101v-45h-27q0 23 -4 23h-21v-33h19v8h22v-37h-22v9h-19zM1511 1384v-45h-26q0 23 -6 23h-4v-90q0 -4 12 -4v-19h-60
v19q13 0 13 4v90h-4q-7 0 -7 -23h-26v45h108zM1251 1272q0 -4 19 -4v-19h-58v19q9 0 9 4v82q0 12 -9 12v18h31l57 -69v47q0 4 -16 4v18h55v-18q-8 0 -8 -4v-113h-22l-58 70v-47zM1102 1384q65 0 65 -67q0 -29 -16 -49t-49 -21q-34 1 -50 21t-16 49t16 48t50 19zM815 1384
v-18q-10 0 -10 -12v-82q0 -4 10 -4v-19h-53v19q6 0 6 2v30l-20 -51h-25l-27 54v-31q0 -4 9 -4v-19h-46v19q9 0 9 4v82q0 12 -9 12v18h37l43 -86l35 86h41zM350 1272q0 -4 19 -4v-19h-56v19q11 0 11 4v82q0 12 -11 12v18h29l59 -69v47q0 4 -16 4v18h55v-18q-10 0 -10 -4v-113
h-18l-62 70v-47zM1466 485v19h50v-19q-11 0 -13 -6l-28 -51v-37q0 -4 12 -4v-16h-60v16q13 0 13 4v37l-29 51q-4 6 -12 6v19h55v-19h-6l12 -26l15 26h-9zM1497 819v-39h-24v8h-19v-32q0 -8 14 -8v-19h-61v19q12 0 12 4v90q0 4 -12 4v18h100v-45h-10zM387 1196v18h47v-18
q-8 0 -10 -6l-29 -51v-37q0 -4 13 -4v-19h-62v19q12 0 12 4v37l-26 51q-4 6 -13 6v18h56v-18h-8l14 -29l14 29h-8zM573 1366v18h45v-18q-8 0 -12 -6l-24 -53v-37q0 -4 12 -4v-17h-64v17q15 0 15 4v37l-31 53q-2 6 -8 6v18h53v-18h-8l16 -29l13 29h-7zM1286 315v19h49v-19
q-10 0 -12 -6l-29 -51v-37q0 -4 13 -4v-16h-60v16q13 0 13 4v37l-29 51q-4 6 -12 6v19h57v-19h-8l12 -26l14 26h-8zM958 291v-41h-22v10h-19v-35q0 -8 15 -8v-16h-64v16q13 0 13 4v92q0 4 -13 4v17h101v-43h-11zM401 811q0 20 -6 20h-20v-30h18v10h8zM735 219q29 0 29 48
t-26 48t-27 -48q0 -48 24 -48zM403 605q-1 48 -27 48t-26 -48t26 -48t27 48zM1458 930q26 0 25 48q1 48 -25 48t-26 -48t26 -48zM1076 1316q3 -48 28 -48t23 48q-3 48 -25 48q-29 0 -26 -48zM1481 819q0 23 -6 23h-21v-31h19v8h8zM942 291q0 22 -4 22h-21v-32h19v10h6z" />
    <glyph glyph-name=".null" horiz-adv-x="200" 
 />
    <glyph glyph-name="nonmarkingreturn" horiz-adv-x="708" 
 />
    <glyph glyph-name="space" unicode=" " horiz-adv-x="708" 
 />
    <glyph glyph-name="space" unicode="&#xa0;" horiz-adv-x="708" 
 />
    <glyph glyph-name="exclam" unicode="!" 
d="M258 1600v-1324h-90v1324h90zM305 76q-1 -38 -27 -64t-63 -26t-63 26t-27 64q1 38 27 63q26 26 63 26t63 -26q26 -25 27 -63z" />
    <glyph glyph-name="quotedbl" unicode="&#x22;" horiz-adv-x="575" 
d="M360 997v600h90v-600h-90zM125 997v600h90v-600h-90z" />
    <glyph glyph-name="numbersign" unicode="#" horiz-adv-x="1653" 
d="M970 895h-230l-57 -230h230zM763 985h230l111 445h90l-111 -445h445l-23 -90h-445l-57 -230h445l-23 -90h-445l-111 -445h-90l111 445h-230l-111 -445h-90l111 445h-445l23 90h445l57 230h-445l23 90h445l111 445h90z" />
    <glyph glyph-name="dollar" unicode="$" horiz-adv-x="1011" 
d="M210 1210q0 118 79 198t177 91v163h90v-165q88 -15 145 -71t77 -118l-78 -31q-16 46 -54 83t-90 50v-464q137 -54 246 -162t109 -277t-110 -279t-245 -126v-140h-90v139q-144 11 -245 113t-121 231l82 30q12 -115 94 -196t190 -92v704q-256 111 -256 319zM297 1210
q0 -86 51 -137t118 -88v428q-62 -9 -116 -63t-53 -140zM826 508q0 134 -84 217q-84 84 -186 131v-667q100 15 185 100t85 219z" />
    <glyph glyph-name="percent" unicode="%" horiz-adv-x="1221" 
d="M910 528q-60 0 -101 -42q-42 -42 -42 -102t42 -102q41 -42 101 -42t102 42t43 102q-1 60 -43 102t-102 42zM1142 384q0 -96 -68 -164t-163 -67q-95 -1 -163 67t-68 164t68 164t163 67q95 1 163 -67t68 -164zM310 1128q-60 0 -101 -42q-42 -42 -42 -102t42 -102
q41 -42 101 -42t102 42t43 102q-1 60 -43 102t-102 42zM542 984q0 -96 -68 -164t-163 -67q-95 -1 -163 67t-68 164t68 164t163 67q95 1 163 -67t68 -164zM1107 1314l-918 -1311l-74 51l918 1311z" />
    <glyph glyph-name="ampersand" unicode="&#x26;" horiz-adv-x="1304" 
d="M671 512q-26 0 -50 -6q-23 -6 -39 -34q-16 -27 -16 -44q0 -92 95 -92q18 0 41 3l-9 -82q-25 -7 -57 -7t-71 21q-86 47 -86 163q0 34 24 75q52 90 156 90q45 0 85 -23t104 -90q58 -53 86 -69t54 -16q84 0 122 66q17 31 17 55q0 82 -65 121q-28 16 -58 16t-59 -8l-1 89
q28 8 68 8t92 -29q110 -63 110 -203q0 -42 -29 -91q-59 -105 -182 -110q-33 -108 -119 -194q-139 -140 -335 -140t-335 139q-139 140 -139 336t137 342q94 101 244 151q-72 31 -148 111t-75 220q0 140 99 240q100 100 240 99q140 0 240 -99q55 -53 76 -119l-81 -32
q-18 49 -59 90q-73 72 -176 72q-103 -1 -176 -73t-73 -176q1 -104 71 -178q70 -75 130 -98t150 -24v-84l-72 -2q-219 -41 -329 -161q-110 -119 -110 -279t113 -273q112 -113 272 -113t273 113q66 66 94 148q-13 5 -43 22t-102 92q-73 67 -99 67z" />
    <glyph glyph-name="quotesingle" unicode="'" horiz-adv-x="340" 
d="M125 997v600h90v-600h-90z" />
    <glyph glyph-name="parenleft" unicode="(" horiz-adv-x="703" 
d="M178 800q0 -402 181 -630q109 -137 244 -202v-85q-168 58 -299 223q-204 254 -204 694t204 694q131 165 299 223v-89q-135 -62 -244 -199q-181 -227 -181 -629z" />
    <glyph glyph-name="parenright" unicode=")" horiz-adv-x="703" 
d="M603 800q0 -440 -204 -694q-131 -165 -299 -223v85q135 65 244 202q181 228 181 630t-181 629q-109 137 -244 199v89q168 -58 299 -223q204 -254 204 -694z" />
    <glyph glyph-name="asterisk" unicode="*" horiz-adv-x="800" 
d="M445 997h-90v214l-175 -123l-52 74l193 135l-193 135l52 74l175 -123v214h90v-213l174 122l52 -74l-193 -135l193 -135l-52 -74l-174 122v-213z" />
    <glyph glyph-name="plus" unicode="+" horiz-adv-x="1050" 
d="M480 547h-355v90h355v355h90v-355h355v-90h-355v-355h-90v355z" />
    <glyph glyph-name="comma" unicode="," horiz-adv-x="379" 
d="M279 166l-185 -385h-84l103 385h166z" />
    <glyph glyph-name="hyphen" unicode="-" horiz-adv-x="840" 
d="M125 637h590v-90h-590v90z" />
    <glyph glyph-name="hyphen" unicode="&#xad;" horiz-adv-x="840" 
d="M125 637h590v-90h-590v90z" />
    <glyph glyph-name="period" unicode="." horiz-adv-x="380" 
d="M280 76q0 -38 -26 -64t-64 -26t-64 26t-26 64t26 63q26 26 64 26t64 -26q26 -25 26 -63z" />
    <glyph glyph-name="slash" unicode="/" horiz-adv-x="727" 
d="M674 1600h103l-725 -1600h-102z" />
    <glyph glyph-name="zero" unicode="0" horiz-adv-x="1250" 
d="M1174 521q0 -227 -160 -388t-388 -161t-389 161t-161 388v530q0 227 161 388t389 161t388 -161t160 -388v-530zM1079 1051q0 189 -133 321t-321 132t-321 -132t-133 -321v-530q0 -189 133 -321t321 -132t321 132t133 321v530z" />
    <glyph glyph-name="one" unicode="1" horiz-adv-x="1250" 
d="M717 1600v-1600h-90v1442h-95l123 158h62z" />
    <glyph glyph-name="two" unicode="2" horiz-adv-x="1250" 
d="M1005 1144q0 158 -112 271q-112 112 -270 112q-159 0 -263 -104t-118 -237l-91 33q23 150 134 262q139 141 337 141t338 -140t139 -338q0 -198 -137 -344q-93 -101 -220 -196t-286 -214t-198 -300h841v-90h-943q46 310 212 434t292 218q127 96 236 215t109 277z" />
    <glyph glyph-name="three" unicode="3" horiz-adv-x="1250" 
d="M845 1282q0 102 -72 174q-71 72 -173 72t-175 -71q-40 -41 -59 -92l-86 34q22 70 77 123q101 100 243 100t242 -100t99 -242q0 -140 -76 -222t-142 -108q144 -48 239 -150q137 -146 137 -344q1 -198 -139 -338t-338 -140t-337 141q-111 112 -134 262l91 33
q14 -133 118 -237t263 -104q158 0 270 112q112 113 112 271t-109 277t-327 160l-75 2v90q92 1 152 24t130 97t69 176z" />
    <glyph glyph-name="four" unicode="4" horiz-adv-x="1250" 
d="M833 558v848l-505 -848h505zM923 1600v-1042h153v-90h-153v-468h-90v468h-660l660 1132h90z" />
    <glyph glyph-name="five" unicode="5" horiz-adv-x="1250" 
d="M519 1144q109 0 210 -35q226 -77 336 -284q69 -129 69 -264q0 -84 -26 -169q-69 -225 -276 -336q-126 -67 -236 -67t-197 27q-180 55 -282 194l64 71q85 -126 246 -175q72 -22 163 -22t197 56q173 92 231 280q22 72 22 163t-57 198q-92 172 -280 238q-81 28 -193 28
t-267 -49l-72 63l184 507v32h500v-90h-425l-148 -407q128 41 237 41z" />
    <glyph glyph-name="six" unicode="6" horiz-adv-x="1250" 
d="M640 1071q216 0 376 -161q160 -160 161 -388q-1 -228 -161 -389t-388 -161t-385 158q-158 158 -164 374h-6q10 353 170 577t396 488q14 16 27 31h124q-20 -25 -42 -50q-263 -294 -417 -513q-33 -46 -59 -97q152 131 368 131zM174 521q0 -189 133 -321t321 -132t321 132
t133 321q0 188 -133 321t-321 133t-321 -133t-133 -321z" />
    <glyph glyph-name="seven" unicode="7" horiz-adv-x="1250" 
d="M153 1510v90h943q-6 -260 -268 -554t-417 -513q-154 -219 -164 -533h-94q10 353 170 577t396 488t275 445h-841z" />
    <glyph glyph-name="eight" unicode="8" horiz-adv-x="1250" 
d="M607 1528q-102 0 -174 -72t-72 -174q-1 -102 69 -176t114 -91t81 -23q37 6 81 23t114 91t69 176q0 102 -72 174t-174 72q-9 0 -17 -1h-2q-8 1 -17 1zM584 -22q-198 0 -338 140t-139 338q0 198 137 344q95 102 239 150q-66 26 -142 108t-76 222q-1 140 99 242
q100 100 243 100h36q143 0 243 -100t99 -242q0 -140 -76 -222t-142 -108q144 -48 239 -150q137 -146 137 -344q1 -198 -139 -338t-338 -140h-82zM666 73q159 0 271 112q112 113 112 271q1 158 -107 276t-317 159q-209 -41 -317 -159t-107 -276q0 -158 112 -271
q112 -112 271 -112q20 0 40 2h2q20 -2 40 -2z" />
    <glyph glyph-name="nine" unicode="9" horiz-adv-x="1250" 
d="M610 501q-216 0 -376 161q-160 160 -161 388q1 228 161 389t388 161t385 -158q158 -158 164 -374h6q-10 -353 -170 -577t-396 -488q-14 -16 -27 -31h-124q20 25 42 50q263 294 417 513q33 46 59 97q-152 -131 -368 -131zM1076 1051q0 189 -133 321t-321 132t-321 -132
t-133 -321q0 -188 133 -321t321 -133t321 133t133 321z" />
    <glyph glyph-name="colon" unicode=":" 
d="M305 692q-1 -38 -27 -63q-26 -26 -63 -26t-63 26q-26 25 -27 63q1 38 27 64t63 26t63 -26t27 -64zM305 76q-1 -38 -27 -64t-63 -26t-63 26t-27 64q1 38 27 63q26 26 63 26t63 -26q26 -25 27 -63z" />
    <glyph glyph-name="semicolon" unicode=";" horiz-adv-x="477" 
d="M305 692q-1 -38 -27 -63q-26 -26 -63 -26t-63 26q-26 25 -27 63q1 38 27 64t63 26t63 -26t27 -64zM352 166l-185 -385h-84l103 385h166z" />
    <glyph glyph-name="semicolon" unicode="&#x37e;" horiz-adv-x="477" 
d="M305 692q-1 -38 -27 -63q-26 -26 -63 -26t-63 26q-26 25 -27 63q1 38 27 64t63 26t63 -26t27 -64zM352 166l-185 -385h-84l103 385h166z" />
    <glyph glyph-name="less" unicode="&#x3c;" horiz-adv-x="1349" 
d="M1249 145l-1149 418l1149 418v-96l-886 -322l886 -322v-96z" />
    <glyph glyph-name="equal" unicode="=" horiz-adv-x="1050" 
d="M125 477h800v-90h-800v90zM125 797h800v-90h-800v90z" />
    <glyph glyph-name="greater" unicode="&#x3e;" horiz-adv-x="1349" 
d="M100 241l886 322l-886 322v96l1149 -418l-1149 -418v96z" />
    <glyph glyph-name="question" unicode="?" horiz-adv-x="956" 
d="M416 76q0 -38 -26 -64t-64 -26t-64 26t-26 64t26 63q26 26 64 26t64 -26q26 -25 26 -63zM350 433q0 -74 23 -139l-83 -29q-28 80 -28 171t49 191q80 167 241 289q162 157 162 286q0 41 -14 82q-35 98 -128 143q-52 25 -100 25t-90 -15q-97 -34 -142 -126
q-25 -52 -25 -105l-88 4v8q0 65 32 129q62 127 194 173q58 20 123 20t137 -34q126 -61 172 -192q20 -57 20 -122t-35 -137q-61 -127 -203 -237q-117 -103 -177 -229q-40 -82 -40 -156z" />
    <glyph glyph-name="at" unicode="@" horiz-adv-x="1626" 
d="M814 186q-150 0 -257 107t-107 257t107 256q107 107 257 107t272 -127v114h81v-648q19 -43 59 -43q40 1 118 111t78 227q0 251 -178 429t-430 179q-250 -1 -428 -179t-178 -429t178 -429t428 -177q172 0 251 49l57 -60q-120 -70 -308 -70q-284 0 -486 202t-203 486
q1 284 203 486t486 202t486 -202q201 -202 201 -487q-1 -127 -93 -272t-204 -145q-13 0 -25 2q-86 18 -93 100v81q-122 -127 -272 -127zM816 830q-116 0 -198 -82t-81 -199q-1 -116 81 -198t198 -82t198 82q57 57 74 132v132q-17 75 -74 132q-82 83 -198 83z" />
    <glyph glyph-name="A" unicode="A" horiz-adv-x="1291" 
d="M923 613h-554l-223 -613h-96l596 1637l595 -1637h-95zM890 703l-244 671l-244 -671h488z" />
    <glyph glyph-name="B" unicode="B" horiz-adv-x="1066" 
d="M240 1510v-409h217q75 7 132 59t57 143t-61 149t-151 58h-194zM240 1005v-915h220v-1q167 11 294 143t127 319q0 188 -133 321t-321 133h-187zM434 1600q122 0 210 -87t88 -211t-127 -230q112 -23 211 -132q160 -160 160 -388t-154 -388t-362 -163v-1h-310v1600h284z" />
    <glyph glyph-name="C" unicode="C" horiz-adv-x="1595" 
d="M932 -19q-328 -1 -568 239t-239 580q-1 340 239 579q240 240 568 240t563 -213l-68 -62q-206 183 -495 183t-502 -213q-213 -212 -213 -514t213 -515t502 -213t495 183l68 -61q-235 -213 -563 -213z" />
    <glyph glyph-name="D" unicode="D" horiz-adv-x="1199" 
d="M240 1598h7q395 0 612 -218q240 -240 240 -580t-240 -580q-217 -218 -612 -218h-7v-2h-90v1600h90v-2zM240 1506v-1413h7q356 0 547 192q213 213 213 515t-213 515q-191 191 -547 191h-7z" />
    <glyph glyph-name="E" unicode="E" horiz-adv-x="1075" 
d="M950 1600v-90h-710v-665h710v-90h-710v-665h710v-90h-800v1600h800z" />
    <glyph glyph-name="F" unicode="F" horiz-adv-x="975" 
d="M850 1600v-90h-610v-665h610v-90h-610v-755h-90v1600h700z" />
    <glyph glyph-name="G" unicode="G" horiz-adv-x="1620" 
d="M932 -19q-328 -1 -568 239t-239 580q-1 340 239 579q240 240 568 240t563 -213l-68 -62q-206 183 -495 183t-502 -213q-213 -212 -213 -514t213 -515t514 -213q258 0 455 159v488h90v-520q-229 -218 -557 -218z" />
    <glyph glyph-name="H" unicode="H" horiz-adv-x="1150" 
d="M240 717v-717h-90v1600h90v-793h670v793h90v-1600h-90v717h-670z" />
    <glyph glyph-name="I" unicode="I" 
d="M260 1600v-1600h-90v1600h90z" />
    <glyph glyph-name="J" unicode="J" horiz-adv-x="857" 
d="M702 304q0 -152 -82 -235t-204 -83q-121 0 -206 86t-85 187l59 23q20 -108 80 -158t127 -50q12 0 25 2q84 0 140 56t56 182v1286h90v-1296z" />
    <glyph glyph-name="K" unicode="K" horiz-adv-x="1097" 
d="M240 0h-90v1600h90v-681l511 681h116l-480 -644l620 -956h-111l-568 884l-88 -109v-775z" />
    <glyph glyph-name="L" unicode="L" horiz-adv-x="950" 
d="M150 0v1600h90v-1510h620v-90h-710z" />
    <glyph glyph-name="M" unicode="M" horiz-adv-x="1707" 
d="M1553 0h-90v1437l-609 -1054l-610 1054v-1437h-90v1593l-4 7h103l601 -1040l600 1040h103l-4 -7v-1593z" />
    <glyph glyph-name="N" unicode="N" horiz-adv-x="1311" 
d="M150 1600h99l822 -1423v1423h90v-1600h-90l-831 1437v-1437h-90v1600z" />
    <glyph glyph-name="O" unicode="O" horiz-adv-x="1892" 
d="M946 1531q-302 1 -516 -213t-213 -516q-1 -302 213 -516t516 -214t516 214t213 516q1 302 -213 516t-516 213zM1767 802q-1 -340 -241 -580t-580 -241q-340 1 -580 241t-241 580q1 340 241 580t580 241q340 -1 580 -241t241 -580z" />
    <glyph glyph-name="P" unicode="P" horiz-adv-x="1089" 
d="M240 1509v-863h272q178 0 304 126t127 306q-1 179 -127 305t-304 126h-272zM240 555v-555h-90v1600h420q183 -25 311 -153q153 -153 153 -369t-153 -370q-153 -153 -369 -153h-272z" />
    <glyph glyph-name="Q" unicode="Q" horiz-adv-x="1892" 
d="M125 802q1 340 241 580t580 241q340 -1 580 -241t241 -580q0 -340 -240 -580q-174 -174 -399 -222q5 -2 10 -3q73 -20 197 -98q114 -61 154 -61q41 0 85 24q60 34 65 115h91q-10 -134 -122 -197q-54 -31 -100 -31t-92 13q-47 13 -157 83q-102 54 -138 64t-75 10t-85 -26
q-74 -42 -96 -123q-4 -12 -5 -24h-91q2 24 9 49q33 116 139 176l20 10q-334 3 -573 242t-239 579zM946 1531q-302 1 -516 -213t-213 -516q-1 -302 213 -516t516 -214t516 214t213 516q1 302 -213 516t-516 213z" />
    <glyph glyph-name="R" unicode="R" horiz-adv-x="1089" 
d="M512 555h-272v-555h-90v1600h420q183 -25 311 -153q153 -153 153 -369t-153 -370q-106 -106 -243 -139l369 -569h-111l-357 556q-13 -1 -27 -1zM240 1509v-863h272q178 0 304 126t127 306q-1 179 -127 305t-304 126h-272z" />
    <glyph glyph-name="S" unicode="S" horiz-adv-x="1042" 
d="M179 1280q0 140 99 240q100 100 240 99q140 0 240 -99q55 -53 76 -119l-81 -32q-18 49 -59 90q-73 72 -176 72q-103 -1 -176 -73t-73 -176q1 -104 71 -173q70 -70 190 -126q192 -63 327 -197t135 -330t-139 -336q-139 -139 -335 -139t-335 140q-111 111 -133 258l85 31
q14 -130 119 -235q104 -105 264 -105t273 113t113 273t-106 265q-106 106 -250 165q-171 57 -270 156q-99 98 -99 238z" />
    <glyph glyph-name="T" unicode="T" horiz-adv-x="1000" 
d="M545 1510v-1510h-90v1510h-405v90h900v-90h-405z" />
    <glyph glyph-name="U" unicode="U" horiz-adv-x="1345" 
d="M1104 1600h91v-1150q-25 -183 -153 -311q-154 -153 -370 -153t-369 153t-153 369v1092h91v-1092q1 -178 127 -304t305 -127q179 1 305 127t126 304v1092z" />
    <glyph glyph-name="V" unicode="V" horiz-adv-x="1291" 
d="M145 1600l500 -1374l500 1374h96l-596 -1637l-595 1637h95z" />
    <glyph glyph-name="W" unicode="W" horiz-adv-x="1672" 
d="M791 1600h90v-1360q23 -43 57 -77q90 -87 214 -87t214 88t91 214v1222h90v-1230q-3 -156 -117 -270t-278 -114t-279 115q-21 20 -37 41q-16 -21 -37 -41q-115 -115 -279 -115t-278 114t-117 270v1230h90v-1222q1 -126 91 -214t214 -88t214 87q34 34 57 77v1360z" />
    <glyph glyph-name="X" unicode="X" horiz-adv-x="1218" 
d="M50 0l507 879l-416 721h103l364 -632l366 632h103l-418 -721l509 -879h-103l-457 790l-456 -790h-102z" />
    <glyph glyph-name="Y" unicode="Y" horiz-adv-x="1291" 
d="M690 0h-90v647l-550 953h103l492 -853l493 853h103l-551 -953v-647z" />
    <glyph glyph-name="Z" unicode="Z" horiz-adv-x="1327" 
d="M150 1510v90h1027l-873 -1510h873v-90h-1027l872 1510h-872z" />
    <glyph glyph-name="bracketleft" unicode="[" horiz-adv-x="560" 
d="M215 -285h220v-90h-310v1975h310v-90h-220v-1795z" />
    <glyph glyph-name="backslash" unicode="\" horiz-adv-x="727" 
d="M777 0h-102l-725 1600h103z" />
    <glyph glyph-name="bracketright" unicode="]" horiz-adv-x="560" 
d="M345 1510h-220v90h310v-1975h-310v90h220v1795z" />
    <glyph glyph-name="asciicircum" unicode="^" horiz-adv-x="921" 
d="M513 1600l308 -534h-104l-256 443l-256 -443h-105l309 534h104z" />
    <glyph glyph-name="underscore" unicode="_" horiz-adv-x="1050" 
d="M25 -30h1000v-90h-1000v90z" />
    <glyph glyph-name="grave" unicode="`" horiz-adv-x="629" 
d="M316 1387l163 -187h-84l-245 187h166z" />
    <glyph glyph-name="a" unicode="a" horiz-adv-x="1360" 
d="M674 975q-188 0 -321 -133t-133 -321q0 -189 133 -321t321 -132t321 133q100 100 125 231v178q-25 132 -125 232q-133 133 -321 133zM674 1071q277 0 446 -228v139h90v-982h-90v200q-169 -228 -446 -228q-227 0 -388 161t-161 389t161 388q161 161 388 161z" />
    <glyph glyph-name="b" unicode="b" horiz-adv-x="1359" 
d="M685 68q188 0 321 132t133 321q0 188 -133 321t-321 133t-321 -133q-98 -98 -124 -227v-188q26 -128 124 -226q133 -133 321 -133zM150 1600h90v-756q25 34 57 66q161 161 389 161t388 -161q160 -160 160 -388t-160 -389t-388 -161t-389 161q-32 32 -57 66v-199h-90v1600
z" />
    <glyph glyph-name="c" unicode="c" horiz-adv-x="1177" 
d="M652 68q200 0 340 168l95 -34q-26 -36 -59 -69q-160 -161 -388 -161t-389 161t-161 389t161 388q161 161 389 161q277 0 447 -229l-95 -35q-140 168 -340 168q-200 -1 -333 -133t-133 -320t133 -321t333 -133z" />
    <glyph glyph-name="d" unicode="d" horiz-adv-x="1360" 
d="M674 975q-188 0 -321 -133t-133 -321q0 -189 133 -321t321 -132t321 133q100 100 125 231v178q-25 132 -125 232q-133 133 -321 133zM674 1071q277 0 446 -228v757h90v-1600h-90v200q-169 -228 -446 -228q-227 0 -388 161t-161 389t161 388q161 161 388 161z" />
    <glyph glyph-name="e" unicode="e" horiz-adv-x="1177" 
d="M623 975q-171 -1 -304 -133t-133 -304t90 -288l635 635q-117 90 -288 90zM639 68q213 0 353 168l95 -34q-26 -36 -59 -69q-160 -161 -388 -161t-389 161t-161 389t161 388q161 161 372 161q263 0 422 -179l-708 -708q127 -116 302 -116z" />
    <glyph glyph-name="f" unicode="f" horiz-adv-x="523" 
d="M280 892v-892h-90v892h-100v90h100v266q6 111 85 191q82 76 189 76q56 0 118 -21l-28 -80q-42 18 -81 18q-71 0 -134 -57q-56 -55 -59 -133v-260h200v-90h-200z" />
    <glyph glyph-name="g" unicode="g" horiz-adv-x="1364" 
d="M674 -28q-227 0 -388 161t-161 389t161 388t388 160q277 0 446 -227v139h90v-763q0 -221 -159 -380t-387 -159t-388 161q-33 33 -59 69l95 34q140 -168 340 -168t327 127t138 292q-174 -223 -443 -223zM674 975q-188 0 -321 -133t-133 -321t133 -321t321 -133t321 133
q97 97 124 225v190q-26 129 -124 227q-133 133 -321 133z" />
    <glyph glyph-name="h" unicode="h" horiz-adv-x="1059" 
d="M150 1600h90v-669q114 110 281 110t276 -109t112 -275v-657h-90v649q-1 125 -91 213t-214 89q-124 0 -214 -87q-40 -40 -60 -83v-781h-90v1600z" />
    <glyph glyph-name="i" unicode="i" 
d="M305 1240q-1 -38 -27 -63q-26 -26 -63 -26t-63 26q-26 25 -27 63q1 38 27 64t63 26t63 -26t27 -64zM260 982v-982h-90v982h90z" />
    <glyph glyph-name="j" unicode="j" horiz-adv-x="455" 
d="M305 1240q-1 -38 -27 -63q-26 -26 -63 -26t-63 26q-26 25 -27 63q1 38 27 64t63 26t63 -26t27 -64zM170 -2v984h90v-982q0 -211 -211 -228v90q121 14 121 136z" />
    <glyph glyph-name="k" unicode="k" horiz-adv-x="823" 
d="M240 0h-90v1400h90v-755l273 337h116l-242 -300l386 -682h-112l-333 610l-88 -109v-501z" />
    <glyph glyph-name="l" unicode="l" horiz-adv-x="390" 
d="M240 1600v-1600h-90v1600h90z" />
    <glyph glyph-name="m" unicode="m" horiz-adv-x="1375" 
d="M934 1040q121 0 204 -84t87 -198v-758h-90v758h1q-4 78 -62 135t-140 57t-142 -59t-60 -147v-744h-90v758h1q-3 78 -61 135t-141 57t-139 -55t-62 -129v-766h-90v982h90v-23q84 81 203 81t204 -85q23 -23 40 -50q88 135 247 135z" />
    <glyph glyph-name="n" unicode="n" horiz-adv-x="1071" 
d="M240 0h-90v982h90v-63q124 122 292 122t277 -109t112 -275v-657h-90v649q-1 125 -91 213t-214 89q-124 0 -214 -87q-49 -49 -72 -101v-763z" />
    <glyph glyph-name="o" unicode="o" horiz-adv-x="1278" 
d="M185 521q0 -189 133 -321t321 -132t321 132t133 321q0 188 -133 321t-321 133t-321 -133t-133 -321zM640 1071q228 0 388 -161q160 -160 160 -388t-160 -389t-388 -161t-389 161t-161 389t161 388q161 161 389 161z" />
    <glyph glyph-name="p" unicode="p" horiz-adv-x="1334" 
d="M685 67q188 0 321 133t133 321t-133 321t-321 133t-321 -133q-98 -98 -124 -227v-188q26 -129 124 -227q133 -133 321 -133zM150 982h90v-138q25 34 57 66q161 160 389 160t388 -160t160 -388t-160 -389t-388 -161t-389 161q-32 32 -57 66v-574h-90v1357z" />
    <glyph glyph-name="q" unicode="q" horiz-adv-x="1335" 
d="M649 975q-188 0 -321 -133t-133 -321t133 -321t321 -133t321 133q100 100 125 232v178q-25 132 -125 232q-133 133 -321 133zM649 1070q277 0 446 -227v139h90v-1357h-90v575q-169 -228 -446 -228q-227 0 -388 161t-161 389t161 388t388 160z" />
    <glyph glyph-name="r" unicode="r" horiz-adv-x="599" 
d="M150 982h90v-179q28 40 65 77q119 119 244 125v-98q-85 -4 -176 -95q-128 -127 -133 -305v-507h-90v982z" />
    <glyph glyph-name="s" unicode="s" horiz-adv-x="802" 
d="M427 923q-60 -1 -103 -43t-43 -102t34 -95q34 -34 115 -85q128 -70 182 -124q85 -86 85 -206t-85 -206t-206 -86t-206 86t-85 187l89 23q0 -88 60 -147t142 -59t142 59t60 143t-59 143q-32 32 -129 94q-115 62 -159 106q-69 69 -69 167t69 166q69 70 167 70t160 -64
q63 -64 63 -143v-5l-78 -31q-20 152 -146 152z" />
    <glyph glyph-name="t" unicode="t" horiz-adv-x="670" 
d="M290 982v418h90v-418h200v-90h-200v-892h-90v892h-200v90h200z" />
    <glyph glyph-name="u" unicode="u" horiz-adv-x="1099" 
d="M550 -14q-178 0 -288 109q-109 109 -112 275v612h90v-604q0 -126 90 -214t220 -88q128 0 218 88t91 214v604h90v-612q-3 -166 -112 -275t-287 -109z" />
    <glyph glyph-name="v" unicode="v" horiz-adv-x="1064" 
d="M532 164l378 818h104l-482 -1009l-482 1009h104z" />
    <glyph glyph-name="w" unicode="w" horiz-adv-x="1375" 
d="M934 -14q-155 0 -246 134q-17 -25 -41 -48q-85 -86 -206 -86t-204 84t-87 198v714h90v-714h-1q3 -78 61 -135t141 -57t139 55t62 129v722h90v-700q0 -88 60 -147t142 -59t140 57t62 135h-1v714h90v-714q-4 -114 -87 -198t-204 -84z" />
    <glyph glyph-name="x" unicode="x" horiz-adv-x="871" 
d="M741 982l-256 -443l311 -539h-104l-256 443l-256 -443h-105l312 539l-256 443h104l201 -347l200 347h105z" />
    <glyph glyph-name="y" unicode="y" horiz-adv-x="1005" 
d="M930 982l-649 -1357h-88l265 556l-383 801h102l326 -704l326 704h101z" />
    <glyph glyph-name="z" unicode="z" horiz-adv-x="1000" 
d="M150 892v90h662l-508 -892h546v-90h-700l507 892h-507z" />
    <glyph glyph-name="braceleft" unicode="{" horiz-adv-x="866" 
d="M511 1034q0 -314 -241 -421q18 -9 35 -18q141 -81 185 -239q21 -80 21 -159t-16 -155q-3 -34 -3 -84q0 -167 112 -230q52 -28 86 -28t51 2v-74q-19 -3 -38 -3q-71 0 -136 38q-149 84 -149 297q0 64 10 122t10 120t-19 134q-36 129 -151 195q-77 44 -123 44q-11 0 -20 -3
v81q9 -3 20 -3q46 0 123 44q115 66 151 195q19 72 19 134t-10 121t-10 124q0 210 149 294q65 38 136 38q19 0 38 -3v-75q-18 3 -53 3t-84 -27q-112 -64 -112 -231q0 -50 3 -84q16 -76 16 -149z" />
    <glyph glyph-name="bar" unicode="|" horiz-adv-x="390" 
d="M240 1600v-1975h-90v1975h90z" />
    <glyph glyph-name="braceright" unicode="}" horiz-adv-x="866" 
d="M355 1034q0 73 16 149q3 34 3 84q0 167 -112 231q-49 27 -84 27t-53 -3v75q19 3 38 3q71 0 136 -38q149 -84 149 -296q0 -63 -10 -122t-10 -121t19 -134q36 -129 151 -195q77 -44 123 -44q11 0 20 3v-81q-9 3 -20 3q-46 0 -123 -44q-115 -66 -151 -195q-19 -72 -19 -134
t10 -120t10 -124q0 -211 -149 -295q-65 -38 -136 -38q-19 0 -38 3v74q17 -2 51 -2t86 28q112 63 112 230q0 50 -3 84q-16 76 -16 155t21 159q44 158 185 239q17 9 35 18q-241 107 -241 421z" />
    <glyph glyph-name="asciitilde" unicode="~" horiz-adv-x="1277" 
d="M911 752q15 0 27 3q77 23 108 100q15 38 15 77l91 -14q-4 -48 -23 -97q-46 -111 -156 -148q-25 -8 -56 -8q-105 0 -287 104t-265 104q-14 0 -26 -3q-77 -23 -108 -100q-15 -39 -16 -77l-90 14q2 48 22 97q46 111 157 148q25 8 55 8q107 0 287 -104t265 -104z" />
    <glyph glyph-name="exclamdown" unicode="&#xa1;" 
d="M172 4v1324h90v-1324h-90zM125 1528q1 38 27 64t63 26t63 -26t27 -64q-1 -38 -27 -63q-26 -26 -63 -26t-63 26q-26 25 -27 63z" />
    <glyph glyph-name="cent" unicode="&#xa2;" horiz-adv-x="1013" 
d="M188 1062q0 -148 105 -252q73 -74 168 -96v696q-95 -22 -168 -95q-105 -105 -105 -253zM551 462h-90v161q-131 23 -231 124q-131 131 -131 315t131 315q100 100 231 124v161h90v-154q216 -2 361 -192l-87 -33q-111 134 -274 136v-714q163 2 274 136l87 -32
q-142 -191 -361 -193v-154z" />
    <glyph glyph-name="sterling" unicode="&#xa3;" horiz-adv-x="1130" 
d="M455 468q0 -204 -170 -405q125 45 221 45t182 -20t170 -19q84 0 155 18l17 -89q-81 -20 -169 -20t-184 22q-95 22 -167 21q-72 1 -148 -27t-175 -77l-87 103q124 110 156 149q108 128 108 292q0 44 -8 94h-228v90h209q-26 95 -75 189q-127 206 -127 363t104 281t292 125
q139 0 265 -106t127 -297q0 -63 -22 -114l-86 29q15 43 15 76q0 159 -108 250q-84 70 -190 70q-142 0 -232 -107q-70 -84 -70 -196t79 -279q86 -138 122 -284h197v-90h-180q7 -49 7 -87z" />
    <glyph glyph-name="currency" unicode="&#xa4;" horiz-adv-x="1112" 
d="M542 829q175 0 267 127q63 81 63 198t-92 215q-98 92 -226 92q-130 -1 -222 -93t-92 -225t93 -221q87 -93 209 -93zM556 1551q145 0 253 -89l139 139l64 -64l-139 -139q89 -108 89 -253t-89 -253l139 -139l-64 -64l-139 139q-108 -89 -253 -89t-253 89l-139 -139l-64 64
l139 139q-89 108 -89 253t89 253l-139 139l64 64l139 -139q108 89 253 89z" />
    <glyph glyph-name="yen" unicode="&#xa5;" horiz-adv-x="1291" 
d="M1046 755v-90h-346l-10 -18v-102h356v-90h-356v-455h-90v455h-354v90h354v102l-10 18h-344v90h292l-488 845h103l487 -845h10l488 845h103l-489 -845h294z" />
    <glyph glyph-name="brokenbar" unicode="&#xa6;" horiz-adv-x="390" 
d="M240 474v-849h-90v849h90zM240 1600v-849h-90v849h90z" />
    <glyph glyph-name="section" unicode="&#xa7;" horiz-adv-x="1158" 
d="M245 1423q0 137 99 237q100 100 240 100t240 -99q55 -53 76 -119l-81 -32q-18 49 -59 90q-73 72 -176 72t-176 -72t-73 -176q1 -104 71 -174t190 -126q192 -62 327 -196t135 -332q0 -196 -89 -285q-36 -36 -61 -51q5 -29 5 -61q0 -137 -99 -237q-100 -100 -240 -100
t-240 99q-55 53 -76 119l81 32q18 -49 59 -90q73 -72 176 -72t176 72t73 176q-1 104 -71 174t-190 126q-192 62 -327 196t-135 332q0 196 89 285q36 36 61 51q-5 29 -5 61zM970 596q0 160 -106 266t-250 165q-171 57 -270 156q-43 43 -67 94q-11 -14 -26 -29
q-63 -62 -63 -222t106 -266t250 -165q171 -57 270 -156q43 -43 67 -94q11 14 26 29q63 62 63 222z" />
    <glyph glyph-name="dieresis" unicode="&#xa8;" horiz-adv-x="730" 
d="M605 1240q-1 -38 -27 -63q-26 -26 -63 -26t-63 26q-26 25 -27 63q1 38 27 64t63 26t63 -26t27 -64zM305 1240q-1 -38 -27 -63q-26 -26 -63 -26t-63 26q-26 25 -27 63q1 38 27 64t63 26t63 -26t27 -64z" />
    <glyph glyph-name="copyright" unicode="&#xa9;" horiz-adv-x="1405" 
d="M700 1133q-220 0 -375 -155q-155 -154 -155 -374t155 -376t375 -155q220 -1 374 155q155 156 155 376t-155 374q-154 155 -374 155zM1300 603q0 -249 -176 -425t-424 -176t-425 176q-176 176 -176 425t176 425q177 176 425 176t424 -176t176 -425zM711 272
q-137 0 -234 97t-97 234t97 234t234 97q170 0 274 -145l-68 -25q-79 101 -197 101q-117 -1 -194 -77t-77 -184t77 -186q77 -77 194 -77t197 101l68 -25q-104 -145 -274 -145z" />
    <glyph glyph-name="ordfeminine" unicode="&#xaa;" horiz-adv-x="878" 
d="M514 1542q-88 0 -152 -62q-62 -62 -62 -152q0 -88 62 -150t152 -62q88 0 143 54t66 116v85q-11 63 -66 117t-143 54zM778 1071h-55v85q-2 -3 -17 -19q-80 -79 -192 -79t-192 80q-79 80 -79 191t79 191q80 80 192 80t192 -79q15 -16 17 -19v55h55v-486zM131 944h575v-31
h-606v628h31v-597z" />
    <glyph glyph-name="guillemotleft" unicode="&#xab;" horiz-adv-x="980" 
d="M100 462l429 460v-104l-331 -356l331 -356v-105zM444 462l436 460v-104l-331 -356l331 -356v-105z" />
    <glyph glyph-name="registered" unicode="&#xae;" horiz-adv-x="1161" 
d="M581 638q-201 0 -341 141t-140 340t140 340t340 141q199 0 340 -141t141 -340q-1 -290 -279 -435q-88 -46 -201 -46zM467 936v-155h-55v644h198q86 -11 152 -77t65 -168t-61 -162t-114 -73l130 -200q53 30 98 74q124 125 124 301t-124 299q-124 124 -300 124t-299 -124
q-124 -123 -124 -299t124 -301q126 -124 300 -124q78 0 149 26l-138 215h-125zM467 1371v-378h116q77 -1 133 55t56 134t-56 134t-133 55h-116z" />
    <glyph glyph-name="macron" unicode="&#xaf;" horiz-adv-x="840" 
d="M125 1427h590v-90h-590v90z" />
    <glyph glyph-name="degree" unicode="&#xb0;" horiz-adv-x="762" 
d="M381 1529q-66 0 -113 -47t-47 -113t47 -113t113 -47t113 47t47 113t-47 113t-113 47zM612 1369q0 -95 -68 -163t-163 -68t-163 68t-68 163t68 163t163 68t163 -68t68 -163z" />
    <glyph glyph-name="plusminus" unicode="&#xb1;" horiz-adv-x="1050" 
d="M125 90h800v-90h-800v90zM480 547h-355v90h355v355h90v-355h355v-90h-355v-355h-90v355z" />
    <glyph glyph-name="uni00B2" unicode="&#xb2;" horiz-adv-x="899" 
d="M681 1326q0 92 -69 156q-70 64 -164 63q-94 0 -158 -59t-75 -152l-90 31q15 97 101 177t222 80t232 -88q94 -88 94 -208q0 -121 -91 -212q-62 -62 -145 -119q-82 -57 -184 -127t-124 -165h544v-74h-646q32 199 142 275t191 132q82 56 151 127t69 163z" />
    <glyph glyph-name="uni00B3" unicode="&#xb3;" horiz-adv-x="899" 
d="M433 1546q-99 0 -141 -103l-84 30q17 51 55 84q71 65 171 65t168 -64t69 -151t-51 -138t-73 -59q71 -22 136 -86q91 -91 91 -212q0 -120 -94 -208t-232 -88q-136 0 -222 79t-101 178l90 30q11 -93 75 -151t158 -59t164 63q69 64 69 156q1 92 -67 161q-68 68 -202 92
l-63 1v74q73 0 108 12t77 55q42 42 43 101q-1 58 -43 98t-101 40z" />
    <glyph glyph-name="acute" unicode="&#xb4;" horiz-adv-x="629" 
d="M479 1387l-245 -187h-84l163 187h166z" />
    <glyph glyph-name="mu" unicode="&#xb5;" horiz-adv-x="1046" 
d="M521 -9q-167 0 -281 110v-476h-90v1357h90v-731q20 -43 60 -83q90 -87 214 -87t215 89q58 57 79 130v682h88v-982h-88v111l-11 -11q-109 -109 -276 -109z" />
    <glyph glyph-name="paragraph" unicode="&#xb6;" horiz-adv-x="1135" 
d="M815 1602v-1977h-90v1021h-152q-216 0 -369 153t-153 369t153 370q128 128 311 153h80v1h491v-90h-88v-1977h-90v1977h-93z" />
    <glyph glyph-name="periodcentered" unicode="&#xb7;" horiz-adv-x="403" 
d="M278 800q0 -32 -22 -54t-54 -22t-54 22t-23 54q1 32 23 54t54 22t54 -22t22 -54z" />
    <glyph glyph-name="periodcentered" unicode="&#x2219;" horiz-adv-x="403" 
d="M278 800q0 -32 -22 -54t-54 -22t-54 22t-23 54q1 32 23 54t54 22t54 -22t22 -54z" />
    <glyph glyph-name="cedilla" unicode="&#xb8;" horiz-adv-x="257" 
d="M247 -198q0 -45 -47 -81q-48 -36 -104 -36t-86 7l11 55q21 -7 56 -7t62 21t27 48v7q-5 32 -40 54t-77 23l43 107h64l-3 -29l-1 -6h1l-3 -40q97 -49 97 -123z" />
    <glyph glyph-name="uni00B9" unicode="&#xb9;" horiz-adv-x="899" 
d="M530 1600v-980h-90v865h-72l97 115h65z" />
    <glyph glyph-name="ordmasculine" unicode="&#xba;" horiz-adv-x="914" 
d="M131 944h575v-31h-606v628h31v-597zM514 1058q-113 0 -192 80t-79 191t79 191t192 80h29q113 0 192 -80t79 -191t-79 -191t-192 -80h-29zM757 1328q0 88 -60 149q-60 60 -168 65q-109 -5 -169 -65q-60 -61 -60 -149t60 -148t169 -64q108 4 168 64t60 148z" />
    <glyph glyph-name="guillemotright" unicode="&#xbb;" horiz-adv-x="980" 
d="M451 1v105l331 356l-331 356v104l429 -460zM100 1v105l331 356l-331 356v104l436 -460z" />
    <glyph glyph-name="questiondown" unicode="&#xbf;" horiz-adv-x="956" 
d="M540 1528q0 38 26 64t64 26t64 -26t26 -64t-26 -63q-26 -26 -64 -26t-64 26q-26 25 -26 63zM606 1171q0 74 -23 139l83 29q28 -80 28 -171t-49 -191q-80 -167 -241 -289q-162 -157 -162 -286q0 -41 14 -82q35 -98 128 -143q52 -25 100 -25t90 15q97 34 142 126
q25 52 25 105l88 -4v-8q0 -65 -32 -129q-62 -127 -194 -173q-58 -20 -123 -20t-137 34q-126 61 -172 192q-20 57 -20 122t35 137q61 127 203 237q117 103 177 229q40 82 40 156z" />
    <glyph glyph-name="Agrave" unicode="&#xc0;" horiz-adv-x="1291" 
d="M923 613h-554l-223 -613h-96l596 1637l595 -1637h-95zM890 703l-244 671l-244 -671h488zM592 2005l163 -187h-84l-245 187h166z" />
    <glyph glyph-name="Aacute" unicode="&#xc1;" horiz-adv-x="1291" 
d="M923 613h-554l-223 -613h-96l596 1637l595 -1637h-95zM890 703l-244 671l-244 -671h488zM865 2005l-245 -187h-84l163 187h166z" />
    <glyph glyph-name="Acircumflex" unicode="&#xc2;" horiz-adv-x="1291" 
d="M923 613h-554l-223 -613h-96l596 1637l595 -1637h-95zM890 703l-244 671l-244 -671h488zM693 1942l238 -234h-104l-186 143l-176 -143h-105l229 234h104z" />
    <glyph glyph-name="Atilde" unicode="&#xc3;" horiz-adv-x="1291" 
d="M923 613h-554l-223 -613h-96l596 1637l595 -1637h-95zM890 703l-244 671l-244 -671h488zM764 1813h5q50 3 70 84h69q-26 -158 -141 -158q-57 1 -123 53t-116 52h-5q-50 -3 -70 -84h-70q27 158 142 158q57 0 123 -52t116 -53z" />
    <glyph glyph-name="Adieresis" unicode="&#xc4;" horiz-adv-x="1291" 
d="M923 613h-554l-223 -613h-96l596 1637l595 -1637h-95zM890 703l-244 671l-244 -671h488zM886 1858q0 -38 -26 -63q-26 -26 -64 -26t-64 26q-26 25 -26 63t26 64t64 26t64 -26t26 -64zM586 1858q0 -38 -26 -63q-26 -26 -64 -26t-64 26q-26 25 -26 63t26 64t64 26t64 -26
t26 -64z" />
    <glyph glyph-name="Aring" unicode="&#xc5;" horiz-adv-x="1291" 
d="M923 613h-554l-223 -613h-96l596 1637l595 -1637h-95zM890 703l-244 671l-244 -671h488zM646 1915q-24 0 -41 -17q-17 -16 -17 -40t17 -41t41 -17t40 17q17 17 17 41t-17 40q-16 17 -40 17zM769 1858q0 -50 -36 -87q-36 -36 -87 -36t-87 36q-36 37 -36 87t36 86t87 36
t87 -36t36 -86z" />
    <glyph glyph-name="AE" unicode="&#xc6;" horiz-adv-x="1676" 
d="M751 703v670l-289 -670h289zM1551 1600v-90h-710v-665h710v-90h-710v-665h710v-90h-800v613h-322l-263 -613h-126l711 1597v3h800z" />
    <glyph glyph-name="Ccedilla" unicode="&#xc7;" horiz-adv-x="1595" 
d="M929 -198q0 -45 -47 -81q-48 -36 -104 -36t-86 7l11 55q21 -7 56 -7t62 21t27 48v7q-5 32 -40 54t-77 23l42 104q-232 47 -408 224q-240 239 -240 579q-1 340 239 579q240 240 568 240t563 -213l-68 -62q-206 183 -495 183t-502 -213q-213 -212 -213 -514t213 -515
t502 -213t495 183l68 -61q-234 -213 -551 -213q-55 0 -107 6l-2 -16l-1 -6h1l-3 -40q97 -49 97 -123z" />
    <glyph glyph-name="Egrave" unicode="&#xc8;" horiz-adv-x="1075" 
d="M950 1600v-90h-710v-665h710v-90h-710v-665h710v-90h-800v1600h800zM497 2005l163 -187h-84l-245 187h166z" />
    <glyph glyph-name="Eacute" unicode="&#xc9;" horiz-adv-x="1075" 
d="M950 1600v-90h-710v-665h710v-90h-710v-665h710v-90h-800v1600h800zM769 2005l-245 -187h-84l163 187h166z" />
    <glyph glyph-name="Ecircumflex" unicode="&#xca;" horiz-adv-x="1075" 
d="M950 1600v-90h-710v-665h710v-90h-710v-665h710v-90h-800v1600h800zM598 1942l238 -234h-104l-186 143l-176 -143h-105l229 234h104z" />
    <glyph glyph-name="Edieresis" unicode="&#xcb;" horiz-adv-x="1075" 
d="M950 1600v-90h-710v-665h710v-90h-710v-665h710v-90h-800v1600h800zM790 1858q0 -38 -26 -63q-26 -26 -64 -26t-64 26q-26 25 -26 63t26 64t64 26t64 -26t26 -64zM490 1858q0 -38 -26 -63q-26 -26 -64 -26t-64 26q-26 25 -26 63t26 64t64 26t64 -26t26 -64z" />
    <glyph glyph-name="Igrave" unicode="&#xcc;" 
d="M260 1600v-1600h-90v1600h90zM162 2005l163 -187h-84l-245 187h166z" />
    <glyph glyph-name="Iacute" unicode="&#xcd;" 
d="M260 1600v-1600h-90v1600h90zM434 2005l-245 -187h-84l163 187h166z" />
    <glyph glyph-name="Icircumflex" unicode="&#xce;" 
d="M261 1600v-1600h-90v1600h90zM263 1942l238 -234h-104l-186 143l-176 -143h-105l229 234h104z" />
    <glyph glyph-name="Idieresis" unicode="&#xcf;" 
d="M260 1600v-1600h-90v1600h90zM455 1858q-1 -38 -27 -63q-26 -26 -63 -26t-63 26q-26 25 -27 63q1 38 27 64t63 26t63 -26t27 -64zM155 1858q-1 -38 -27 -63q-26 -26 -63 -26t-63 26q-26 25 -27 63q1 38 27 64t63 26t63 -26t27 -64z" />
    <glyph glyph-name="Eth" unicode="&#xd0;" horiz-adv-x="1284" 
d="M300 845h370v-90h-370v-662h7q356 0 547 192q213 213 213 515t-213 515q-191 191 -547 191h-7v-661zM210 845v755h90v-2h7q395 0 612 -218q240 -240 240 -580t-240 -580q-217 -218 -612 -218h-7v-2h-90v755h-160v90h160z" />
    <glyph glyph-name="Ntilde" unicode="&#xd1;" horiz-adv-x="1311" 
d="M150 1600h99l822 -1423v1423h90v-1600h-90l-831 1437v-1437h-90v1600zM535 1918q57 0 123 -52t116 -53h5q50 3 70 84h69q-26 -158 -141 -158q-57 1 -123 53t-116 52h-5q-50 -3 -70 -84h-70q27 158 142 158z" />
    <glyph glyph-name="Ograve" unicode="&#xd2;" horiz-adv-x="1892" 
d="M946 1531q-302 1 -516 -213t-213 -516q-1 -302 213 -516t516 -214t516 214t213 516q1 302 -213 516t-516 213zM1767 802q-1 -340 -241 -580t-580 -241q-340 1 -580 241t-241 580q1 340 241 580t580 241q340 -1 580 -241t241 -580zM893 2005l163 -187h-84l-245 187h166z
" />
    <glyph glyph-name="Oacute" unicode="&#xd3;" horiz-adv-x="1892" 
d="M946 1531q-302 1 -516 -213t-213 -516q-1 -302 213 -516t516 -214t516 214t213 516q1 302 -213 516t-516 213zM1767 802q-1 -340 -241 -580t-580 -241q-340 1 -580 241t-241 580q1 340 241 580t580 241q340 -1 580 -241t241 -580zM1165 2005l-245 -187h-84l163 187h166z
" />
    <glyph glyph-name="Ocircumflex" unicode="&#xd4;" horiz-adv-x="1892" 
d="M946 1531q-302 1 -516 -213t-213 -516q-1 -302 213 -516t516 -214t516 214t213 516q1 302 -213 516t-516 213zM1767 802q-1 -340 -241 -580t-580 -241q-340 1 -580 241t-241 580q1 340 241 580t580 241q340 -1 580 -241t241 -580zM994 1942l238 -234h-104l-186 143
l-176 -143h-105l229 234h104z" />
    <glyph glyph-name="Otilde" unicode="&#xd5;" horiz-adv-x="1892" 
d="M946 1531q-302 1 -516 -213t-213 -516q-1 -302 213 -516t516 -214t516 214t213 516q1 302 -213 516t-516 213zM1767 802q-1 -340 -241 -580t-580 -241q-340 1 -580 241t-241 580q1 340 241 580t580 241q340 -1 580 -241t241 -580zM1065 1813h5q50 3 70 84h69
q-26 -158 -141 -158q-58 1 -124 53t-115 52h-5q-50 -3 -70 -84h-70q27 158 142 158q58 0 124 -52t115 -53z" />
    <glyph glyph-name="Odieresis" unicode="&#xd6;" horiz-adv-x="1892" 
d="M946 1531q-302 1 -516 -213t-213 -516q-1 -302 213 -516t516 -214t516 214t213 516q1 302 -213 516t-516 213zM1767 802q-1 -340 -241 -580t-580 -241q-340 1 -580 241t-241 580q1 340 241 580t580 241q340 -1 580 -241t241 -580zM1186 1858q0 -38 -26 -63
q-26 -26 -64 -26t-64 26q-26 25 -26 63t26 64t64 26t64 -26t26 -64zM886 1858q0 -38 -26 -63q-26 -26 -64 -26t-64 26q-26 25 -26 63t26 64t64 26t64 -26t26 -64z" />
    <glyph glyph-name="multiply" unicode="&#xd7;" horiz-adv-x="1050" 
d="M525 528l-251 -251l-64 64l251 251l-251 251l64 64l251 -251l251 251l63 -64l-251 -251l251 -251l-63 -64z" />
    <glyph glyph-name="Oslash" unicode="&#xd8;" horiz-adv-x="1892" 
d="M1767 802q-1 -340 -241 -580t-580 -241q-165 0 -306 57l-86 -184l-82 38l86 184q-103 56 -192 146q-241 240 -241 580q1 340 241 580t580 241q165 0 306 -57l86 184l82 -38l-86 -184q103 -56 193 -145q240 -241 240 -581zM946 72q302 0 516 214t213 516q0 302 -213 516
q-78 77 -167 126l-617 -1323q124 -49 268 -49zM946 1531q-302 1 -516 -213t-213 -516q0 -302 214 -516q77 -77 166 -127l616 1324q-123 48 -267 48z" />
    <glyph glyph-name="Ugrave" unicode="&#xd9;" horiz-adv-x="1345" 
d="M1104 1600h91v-1150q-25 -183 -153 -311q-154 -153 -370 -153t-369 153t-153 369v1092h91v-1092q1 -178 127 -304t305 -127q179 1 305 127t126 304v1092zM619 2005l163 -187h-84l-245 187h166z" />
    <glyph glyph-name="Uacute" unicode="&#xda;" horiz-adv-x="1345" 
d="M1104 1600h91v-1150q-25 -183 -153 -311q-154 -153 -370 -153t-369 153t-153 369v1092h91v-1092q1 -178 127 -304t305 -127q179 1 305 127t126 304v1092zM892 2005l-245 -187h-84l163 187h166z" />
    <glyph glyph-name="Ucircumflex" unicode="&#xdb;" horiz-adv-x="1345" 
d="M1104 1600h91v-1150q-25 -183 -153 -311q-154 -153 -370 -153t-369 153t-153 369v1092h91v-1092q1 -178 127 -304t305 -127q179 1 305 127t126 304v1092zM720 1942l238 -234h-104l-186 143l-176 -143h-105l229 234h104z" />
    <glyph glyph-name="Udieresis" unicode="&#xdc;" horiz-adv-x="1345" 
d="M1104 1600h91v-1150q-25 -183 -153 -311q-154 -153 -370 -153t-369 153t-153 369v1092h91v-1092q1 -178 127 -304t305 -127q179 1 305 127t126 304v1092zM913 1858q-1 -38 -27 -63q-26 -26 -63 -26t-63 26q-26 25 -27 63q1 38 27 64t63 26t63 -26t27 -64zM613 1858
q-1 -38 -27 -63q-26 -26 -63 -26t-63 26q-26 25 -27 63q1 38 27 64t63 26t63 -26t27 -64z" />
    <glyph glyph-name="Yacute" unicode="&#xdd;" horiz-adv-x="1291" 
d="M690 0h-90v647l-550 953h103l492 -853l493 853h103l-551 -953v-647zM865 2005l-245 -187h-84l163 187h166z" />
    <glyph glyph-name="Thorn" unicode="&#xde;" horiz-adv-x="1124" 
d="M240 369h272q178 1 304 127t127 305q-1 179 -127 305t-304 126h-272v-863zM240 1323h330q183 -25 311 -153q153 -154 153 -370t-153 -369t-369 -153h-272v-278h-90v1600h90v-277z" />
    <glyph glyph-name="germandbls" unicode="&#xdf;" horiz-adv-x="1084" 
d="M447 1608q121 0 209 -72t96 -225v-17q0 -140 -129 -222q358 -143 371 -521q0 -227 -154 -387t-362 -163v-1h-167v90h167v-1q167 11 294 143t127 319q0 188 -133 321t-355 133v96q139 7 196 59t57 142q0 88 -54 150t-153 62h-11q-106 -4 -158 -66t-58 -182v-1266h-90v1281
q20 317 291 327h16z" />
    <glyph glyph-name="agrave" unicode="&#xe0;" horiz-adv-x="1360" 
d="M674 975q-188 0 -321 -133t-133 -321q0 -189 133 -321t321 -132t321 133q100 100 125 231v178q-25 132 -125 232q-133 133 -321 133zM674 1071q277 0 446 -228v139h90v-982h-90v200q-169 -228 -446 -228q-227 0 -388 161t-161 389t161 388q161 161 388 161zM614 1387
l163 -187h-84l-245 187h166z" />
    <glyph glyph-name="aacute" unicode="&#xe1;" horiz-adv-x="1360" 
d="M674 975q-188 0 -321 -133t-133 -321q0 -189 133 -321t321 -132t321 133q100 100 125 231v178q-25 132 -125 232q-133 133 -321 133zM674 1071q277 0 446 -228v139h90v-982h-90v200q-169 -228 -446 -228q-227 0 -388 161t-161 389t161 388q161 161 388 161zM887 1387
l-245 -187h-84l163 187h166z" />
    <glyph glyph-name="acircumflex" unicode="&#xe2;" horiz-adv-x="1360" 
d="M674 975q-188 0 -321 -133t-133 -321q0 -189 133 -321t321 -132t321 133q100 100 125 231v178q-25 132 -125 232q-133 133 -321 133zM674 1071q277 0 446 -228v139h90v-982h-90v200q-169 -228 -446 -228q-227 0 -388 161t-161 389t161 388q161 161 388 161zM715 1324
l238 -234h-104l-186 143l-176 -143h-105l229 234h104z" />
    <glyph glyph-name="atilde" unicode="&#xe3;" horiz-adv-x="1360" 
d="M674 975q-188 0 -321 -133t-133 -321q0 -189 133 -321t321 -132t321 133q100 100 125 231v178q-25 132 -125 232q-133 133 -321 133zM674 1071q277 0 446 -228v139h90v-982h-90v200q-169 -228 -446 -228q-227 0 -388 161t-161 389t161 388q161 161 388 161zM786 1195h5
q50 3 70 84h69q-26 -158 -141 -158q-57 1 -123 53t-116 52h-5q-50 -3 -70 -84h-70q27 158 142 158q57 0 123 -52t116 -53z" />
    <glyph glyph-name="adieresis" unicode="&#xe4;" horiz-adv-x="1360" 
d="M674 975q-188 0 -321 -133t-133 -321q0 -189 133 -321t321 -132t321 133q100 100 125 231v178q-25 132 -125 232q-133 133 -321 133zM674 1071q277 0 446 -228v139h90v-982h-90v200q-169 -228 -446 -228q-227 0 -388 161t-161 389t161 388q161 161 388 161zM908 1240
q0 -38 -26 -63q-26 -26 -64 -26t-64 26q-26 25 -26 63t26 64t64 26t64 -26t26 -64zM608 1240q0 -38 -26 -63q-26 -26 -64 -26t-64 26q-26 25 -26 63t26 64t64 26t64 -26t26 -64z" />
    <glyph glyph-name="aring" unicode="&#xe5;" horiz-adv-x="1360" 
d="M674 975q-188 0 -321 -133t-133 -321q0 -189 133 -321t321 -132t321 133q100 100 125 231v178q-25 132 -125 232q-133 133 -321 133zM674 1071q277 0 446 -228v139h90v-982h-90v200q-169 -228 -446 -228q-227 0 -388 161t-161 389t161 388q161 161 388 161zM668 1297
q-24 0 -41 -17q-17 -16 -17 -40t17 -41t41 -17t40 17q17 17 17 41t-17 40q-16 17 -40 17zM791 1240q0 -50 -36 -87q-36 -36 -87 -36t-87 36q-36 37 -36 87t36 86t87 36t87 -36t36 -86z" />
    <glyph glyph-name="ae" unicode="&#xe6;" horiz-adv-x="2171" 
d="M639 1071q277 0 446 -228v139h90v-54q155 143 376 143t373 -152t157 -347l-906 1v-317q21 -29 48 -55q133 -133 321 -133q219 0 364 181l96 -34q-17 -28 -71 -82q-161 -161 -382 -161t-376 143v-115h-90v200q-169 -228 -446 -228q-227 0 -388 161t-161 389t161 388
q161 161 388 161zM1544 975q-228 0 -369 -188v-124h798q-32 103 -108 179q-133 133 -321 133zM639 975q-188 0 -321 -133t-133 -321q0 -189 133 -321t321 -132t321 133q100 100 125 231v178q-25 132 -125 232q-133 133 -321 133z" />
    <glyph glyph-name="ccedilla" unicode="&#xe7;" horiz-adv-x="1177" 
d="M707 -198q0 -45 -47 -81q-48 -36 -104 -36t-86 7l11 55q21 -7 56 -7t62 21t27 48v7q-5 32 -40 54t-77 23l35 87q-167 27 -293 153q-161 161 -161 389t161 388q161 161 389 161q277 0 447 -229l-95 -35q-140 168 -340 168q-200 -1 -333 -133t-133 -320t133 -321t333 -133
t340 168l95 -34q-26 -36 -59 -69q-161 -161 -389 -161q-13 0 -26 1v-2l-1 -6h1l-3 -40q97 -49 97 -123z" />
    <glyph glyph-name="egrave" unicode="&#xe8;" horiz-adv-x="1177" 
d="M623 975q-171 -1 -304 -133t-133 -304t90 -288l635 635q-117 90 -288 90zM639 68q213 0 353 168l95 -34q-26 -36 -59 -69q-160 -161 -388 -161t-389 161t-161 389t161 388q161 161 372 161q263 0 422 -179l-708 -708q127 -116 302 -116zM535 1387l163 -187h-84l-245 187
h166z" />
    <glyph glyph-name="eacute" unicode="&#xe9;" horiz-adv-x="1177" 
d="M623 975q-171 -1 -304 -133t-133 -304t90 -288l635 635q-117 90 -288 90zM639 68q213 0 353 168l95 -34q-26 -36 -59 -69q-160 -161 -388 -161t-389 161t-161 389t161 388q161 161 372 161q263 0 422 -179l-708 -708q127 -116 302 -116zM808 1387l-245 -187h-84l163 187
h166z" />
    <glyph glyph-name="ecircumflex" unicode="&#xea;" horiz-adv-x="1177" 
d="M623 975q-171 -1 -304 -133t-133 -304t90 -288l635 635q-117 90 -288 90zM639 68q213 0 353 168l95 -34q-26 -36 -59 -69q-160 -161 -388 -161t-389 161t-161 389t161 388q161 161 372 161q263 0 422 -179l-708 -708q127 -116 302 -116zM636 1324l238 -234h-104l-186 143
l-176 -143h-105l229 234h104z" />
    <glyph glyph-name="edieresis" unicode="&#xeb;" horiz-adv-x="1177" 
d="M623 975q-171 -1 -304 -133t-133 -304t90 -288l635 635q-117 90 -288 90zM639 68q213 0 353 168l95 -34q-26 -36 -59 -69q-160 -161 -388 -161t-389 161t-161 389t161 388q161 161 372 161q263 0 422 -179l-708 -708q127 -116 302 -116zM829 1240q-1 -38 -27 -63
q-26 -26 -63 -26t-63 26q-26 25 -27 63q1 38 27 64t63 26t63 -26t27 -64zM529 1240q-1 -38 -27 -63q-26 -26 -63 -26t-63 26q-26 25 -27 63q1 38 27 64t63 26t63 -26t27 -64z" />
    <glyph glyph-name="igrave" unicode="&#xec;" 
d="M260 982v-982h-90v982h90zM162 1387l163 -187h-84l-245 187h166z" />
    <glyph glyph-name="iacute" unicode="&#xed;" 
d="M260 982v-982h-90v982h90zM434 1387l-245 -187h-84l163 187h166z" />
    <glyph glyph-name="icircumflex" unicode="&#xee;" 
d="M261 982v-982h-90v982h90zM263 1324l238 -234h-104l-186 143l-176 -143h-105l229 234h104z" />
    <glyph glyph-name="idieresis" unicode="&#xef;" 
d="M260 982v-982h-90v982h90zM455 1240q-1 -38 -27 -63q-26 -26 -63 -26t-63 26q-26 25 -27 63q1 38 27 64t63 26t63 -26t27 -64zM155 1240q-1 -38 -27 -63q-26 -26 -63 -26t-63 26q-26 25 -27 63q1 38 27 64t63 26t63 -26t27 -64z" />
    <glyph glyph-name="eth" unicode="&#xf0;" horiz-adv-x="1278" 
d="M1188 522q0 -228 -160 -389t-388 -161t-389 161t-161 389t161 388q161 161 388 161q33 0 65 -3l-54 60h-168v90h87l-104 115h128l115 -115h164v-90h-73l158 -157q37 -27 71 -61q160 -160 160 -388zM185 521q0 -189 133 -321t321 -132t321 132t133 321q0 188 -133 321
t-321 133t-321 -133t-133 -321z" />
    <glyph glyph-name="ntilde" unicode="&#xf1;" horiz-adv-x="1071" 
d="M240 0h-90v982h90v-63q124 122 292 122t277 -109t112 -275v-657h-90v649q-1 125 -91 213t-214 89q-124 0 -214 -87q-49 -49 -72 -101v-763zM415 1300q57 0 123 -52t116 -53h5q50 3 70 84h69q-26 -158 -141 -158q-57 1 -123 53t-116 52h-5q-50 -3 -70 -84h-70
q27 158 142 158z" />
    <glyph glyph-name="ograve" unicode="&#xf2;" horiz-adv-x="1278" 
d="M185 521q0 -189 133 -321t321 -132t321 132t133 321q0 188 -133 321t-321 133t-321 -133t-133 -321zM640 1071q228 0 388 -161q160 -160 160 -388t-160 -389t-388 -161t-389 161t-161 389t161 388q161 161 389 161zM586 1387l163 -187h-84l-245 187h166z" />
    <glyph glyph-name="oacute" unicode="&#xf3;" horiz-adv-x="1278" 
d="M185 521q0 -189 133 -321t321 -132t321 132t133 321q0 188 -133 321t-321 133t-321 -133t-133 -321zM640 1071q228 0 388 -161q160 -160 160 -388t-160 -389t-388 -161t-389 161t-161 389t161 388q161 161 389 161zM858 1387l-245 -187h-84l163 187h166z" />
    <glyph glyph-name="ocircumflex" unicode="&#xf4;" horiz-adv-x="1278" 
d="M185 521q0 -189 133 -321t321 -132t321 132t133 321q0 188 -133 321t-321 133t-321 -133t-133 -321zM640 1071q228 0 388 -161q160 -160 160 -388t-160 -389t-388 -161t-389 161t-161 389t161 388q161 161 389 161zM687 1324l238 -234h-104l-186 143l-176 -143h-105
l229 234h104z" />
    <glyph glyph-name="otilde" unicode="&#xf5;" horiz-adv-x="1278" 
d="M185 521q0 -189 133 -321t321 -132t321 132t133 321q0 188 -133 321t-321 133t-321 -133t-133 -321zM640 1071q228 0 388 -161q160 -160 160 -388t-160 -389t-388 -161t-389 161t-161 389t161 388q161 161 389 161zM519 1300q57 0 123 -52t116 -53h5q50 3 70 84h69
q-26 -158 -141 -158q-57 1 -123 53t-116 52h-5q-50 -3 -70 -84h-70q27 158 142 158z" />
    <glyph glyph-name="odieresis" unicode="&#xf6;" horiz-adv-x="1278" 
d="M185 521q0 -189 133 -321t321 -132t321 132t133 321q0 188 -133 321t-321 133t-321 -133t-133 -321zM640 1071q228 0 388 -161q160 -160 160 -388t-160 -389t-388 -161t-389 161t-161 389t161 388q161 161 389 161zM879 1240q-1 -38 -27 -63q-26 -26 -63 -26t-63 26
q-26 25 -27 63q1 38 27 64t63 26t63 -26t27 -64zM579 1240q-1 -38 -27 -63q-26 -26 -63 -26t-63 26q-26 25 -27 63q1 38 27 64t63 26t63 -26t27 -64z" />
    <glyph glyph-name="divide" unicode="&#xf7;" horiz-adv-x="1050" 
d="M615 414q-1 -38 -27 -64t-63 -26t-63 26t-27 64q1 38 27 63q26 26 63 26t63 -26q26 -25 27 -63zM615 814q-1 -38 -27 -64t-63 -26t-63 26t-27 64q1 38 27 63q26 26 63 26t63 -26q26 -25 27 -63zM125 659h800v-90h-800v90z" />
    <glyph glyph-name="oslash" unicode="&#xf8;" horiz-adv-x="1278" 
d="M90 522q0 228 161 389t388 161q129 0 237 -52l122 212l79 -41l-125 -216q40 -28 76 -64q160 -161 160 -389t-160 -388q-160 -161 -389 -161q-129 0 -236 52l-123 -213l-79 38l126 220q-40 28 -76 64q-161 160 -161 388zM639 69q188 1 321 133t133 320t-133 321
q-27 27 -56 48l-453 -783q86 -39 188 -39zM639 976q-188 0 -321 -133t-133 -321t133 -320q27 -28 57 -49l452 784q-86 39 -188 39z" />
    <glyph glyph-name="ugrave" unicode="&#xf9;" horiz-adv-x="1099" 
d="M550 -14q-178 0 -288 109q-109 109 -112 275v612h90v-604q0 -126 90 -214t220 -88q128 0 218 88t91 214v604h90v-612q-3 -166 -112 -275t-287 -109zM496 1387l163 -187h-84l-245 187h166z" />
    <glyph glyph-name="uacute" unicode="&#xfa;" horiz-adv-x="1099" 
d="M550 -14q-178 0 -288 109q-109 109 -112 275v612h90v-604q0 -126 90 -214t220 -88q128 0 218 88t91 214v604h90v-612q-3 -166 -112 -275t-287 -109zM769 1387l-245 -187h-84l163 187h166z" />
    <glyph glyph-name="ucircumflex" unicode="&#xfb;" horiz-adv-x="1099" 
d="M550 -14q-178 0 -288 109q-109 109 -112 275v612h90v-604q0 -126 90 -214t220 -88q128 0 218 88t91 214v604h90v-612q-3 -166 -112 -275t-287 -109zM597 1324l238 -234h-104l-186 143l-176 -143h-105l229 234h104z" />
    <glyph glyph-name="udieresis" unicode="&#xfc;" horiz-adv-x="1099" 
d="M550 -14q-178 0 -288 109q-109 109 -112 275v612h90v-604q0 -126 90 -214t220 -88q128 0 218 88t91 214v604h90v-612q-3 -166 -112 -275t-287 -109zM790 1240q0 -38 -26 -63q-26 -26 -64 -26t-64 26q-26 25 -26 63t26 64t64 26t64 -26t26 -64zM490 1240q0 -38 -26 -63
q-26 -26 -64 -26t-64 26q-26 25 -26 63t26 64t64 26t64 -26t26 -64z" />
    <glyph glyph-name="yacute" unicode="&#xfd;" horiz-adv-x="1005" 
d="M930 982l-649 -1357h-88l265 556l-383 801h102l326 -704l326 704h101zM722 1387l-245 -187h-84l163 187h166z" />
    <glyph glyph-name="thorn" unicode="&#xfe;" horiz-adv-x="1334" 
d="M685 67q188 0 321 133t133 321t-133 321t-321 133t-321 -133q-98 -98 -124 -227v-188q26 -129 124 -227q133 -133 321 -133zM686 1070q228 0 388 -160t160 -388t-160 -389t-388 -161t-389 161q-32 32 -57 66v-574h-90v1975h90v-756q25 34 57 66q161 160 389 160z" />
    <glyph glyph-name="ydieresis" unicode="&#xff;" horiz-adv-x="1005" 
d="M930 982l-649 -1357h-88l265 556l-383 801h102l326 -704l326 704h101zM743 1240q-1 -38 -27 -63q-26 -26 -63 -26t-63 26q-26 25 -27 63q1 38 27 64t63 26t63 -26t27 -64zM443 1240q-1 -38 -27 -63q-26 -26 -63 -26t-63 26q-26 25 -27 63q1 38 27 64t63 26t63 -26t27 -64
z" />
    <glyph glyph-name="Amacron" unicode="&#x100;" horiz-adv-x="1291" 
d="M923 613h-554l-223 -613h-96l596 1637l595 -1637h-95zM890 703l-244 671l-244 -671h488zM351 1845h590v-70h-590v70z" />
    <glyph glyph-name="amacron" unicode="&#x101;" horiz-adv-x="1360" 
d="M674 975q-188 0 -321 -133t-133 -321q0 -189 133 -321t321 -132t321 133q100 100 125 231v178q-25 132 -125 232q-133 133 -321 133zM674 1071q277 0 446 -228v139h90v-982h-90v200q-169 -228 -446 -228q-227 0 -388 161t-161 389t161 388q161 161 388 161zM373 1227h590
v-70h-590v70z" />
    <glyph glyph-name="Abreve" unicode="&#x102;" horiz-adv-x="1291" 
d="M923 613h-554l-223 -613h-96l596 1637l595 -1637h-95zM890 703l-244 671l-244 -671h488zM646 1817q68 0 112 43t50 96h73q-8 -84 -72 -148q-65 -64 -163 -64t-164 68t-71 144h74q8 -53 51 -96q42 -43 110 -43z" />
    <glyph glyph-name="abreve" unicode="&#x103;" horiz-adv-x="1360" 
d="M674 975q-188 0 -321 -133t-133 -321q0 -189 133 -321t321 -132t321 133q100 100 125 231v178q-25 132 -125 232q-133 133 -321 133zM674 1071q277 0 446 -228v139h90v-982h-90v200q-169 -228 -446 -228q-227 0 -388 161t-161 389t161 388q161 161 388 161zM668 1199
q68 0 112 43t50 96h73q-8 -84 -72 -148q-65 -64 -163 -64t-164 68t-71 144h74q8 -53 51 -96q42 -43 110 -43z" />
    <glyph glyph-name="Aogonek" unicode="&#x104;" horiz-adv-x="1291" 
d="M978 -160q0 119 153 201l-208 572h-554l-223 -613h-96l596 1637l595 -1637h-95q-75 -38 -85 -102q-2 -18 -2 -50t26 -63t66 -31t68 14l22 -50q-56 -23 -120 -23q-63 0 -103 44t-40 101zM890 703l-244 671l-244 -671h488z" />
    <glyph glyph-name="aogonek" unicode="&#x105;" horiz-adv-x="1360" 
d="M125 522q0 228 161 388q161 161 388 161q277 0 446 -228v139h90v-982h-90q-71 -39 -80 -102q-2 -18 -2 -50t26 -63t66 -31t68 14l22 -50q-56 -23 -120 -23t-104 44t-39 101q0 123 163 206v154q-169 -228 -446 -228q-227 0 -388 161t-161 389zM674 975q-188 0 -321 -133
t-133 -321q0 -189 133 -321t321 -132t321 133q100 100 125 231v178q-25 132 -125 232q-133 133 -321 133z" />
    <glyph glyph-name="Cacute" unicode="&#x106;" horiz-adv-x="1595" 
d="M1129 2005l-245 -187h-84l163 187h166zM932 -19q-328 -1 -568 239t-239 580q-1 340 239 579q240 240 568 240t563 -213l-68 -62q-206 183 -495 183t-502 -213q-213 -212 -213 -514t213 -515t502 -213t495 183l68 -61q-235 -213 -563 -213z" />
    <glyph glyph-name="cacute" unicode="&#x107;" horiz-adv-x="1177" 
d="M858 1387l-245 -187h-84l163 187h166zM652 68q200 0 340 168l95 -34q-26 -36 -59 -69q-160 -161 -388 -161t-389 161t-161 389t161 388q161 161 389 161q277 0 447 -229l-95 -35q-140 168 -340 168q-200 -1 -333 -133t-133 -320t133 -321t333 -133z" />
    <glyph glyph-name="Ccircumflex" unicode="&#x108;" horiz-adv-x="1595" 
d="M958 1942l238 -234h-104l-186 143l-176 -143h-105l229 234h104zM932 -19q-328 -1 -568 239t-239 580q-1 340 239 579q240 240 568 240t563 -213l-68 -62q-206 183 -495 183t-502 -213q-213 -212 -213 -514t213 -515t502 -213t495 183l68 -61q-235 -213 -563 -213z" />
    <glyph glyph-name="ccircumflex" unicode="&#x109;" horiz-adv-x="1177" 
d="M686 1324l238 -234h-104l-186 143l-176 -143h-105l229 234h104zM652 68q200 0 340 168l95 -34q-26 -36 -59 -69q-160 -161 -388 -161t-389 161t-161 389t161 388q161 161 389 161q277 0 447 -229l-95 -35q-140 168 -340 168q-200 -1 -333 -133t-133 -320t133 -321
t333 -133z" />
    <glyph glyph-name="Cdotaccent" unicode="&#x10a;" horiz-adv-x="1595" 
d="M1017 1845q-1 -32 -23 -54t-54 -22t-54 22t-22 54t22 54t54 22t54 -22t23 -54zM932 -19q-328 -1 -568 239t-239 580q-1 340 239 579q240 240 568 240t563 -213l-68 -62q-206 183 -495 183t-502 -213q-213 -212 -213 -514t213 -515t502 -213t495 183l68 -61
q-235 -213 -563 -213z" />
    <glyph glyph-name="cdotaccent" unicode="&#x10b;" horiz-adv-x="1177" 
d="M715 1227q-1 -32 -23 -54t-54 -22t-54 22t-22 54t22 54t54 22t54 -22t23 -54zM652 68q200 0 340 168l95 -34q-26 -36 -59 -69q-160 -161 -388 -161t-389 161t-161 389t161 388q161 161 389 161q277 0 447 -229l-95 -35q-140 168 -340 168q-200 -1 -333 -133t-133 -320
t133 -321t333 -133z" />
    <glyph glyph-name="Ccaron" unicode="&#x10c;" horiz-adv-x="1595" 
d="M754 1708l-229 234h105l176 -143l186 143h104l-238 -234h-104zM932 -19q-328 -1 -568 239t-239 580q-1 340 239 579q240 240 568 240t563 -213l-68 -62q-206 183 -495 183t-502 -213q-213 -212 -213 -514t213 -515t502 -213t495 183l68 -61q-235 -213 -563 -213z" />
    <glyph glyph-name="ccaron" unicode="&#x10d;" horiz-adv-x="1177" 
d="M532 1090l-229 234h105l176 -143l186 143h104l-238 -234h-104zM652 68q200 0 340 168l95 -34q-26 -36 -59 -69q-160 -161 -388 -161t-389 161t-161 389t161 388q161 161 389 161q277 0 447 -229l-95 -35q-140 168 -340 168q-200 -1 -333 -133t-133 -320t133 -321
t333 -133z" />
    <glyph glyph-name="Dcaron" unicode="&#x10e;" horiz-adv-x="1199" 
d="M568 1608l-229 234h105l176 -143l186 143h104l-238 -234h-104zM240 1598h7q395 0 612 -218q240 -240 240 -580t-240 -580q-217 -218 -612 -218h-7v-2h-90v1600h90v-2zM240 1506v-1413h7q356 0 547 192q213 213 213 515t-213 515q-191 191 -547 191h-7z" />
    <glyph glyph-name="dcaron" unicode="&#x10f;" horiz-adv-x="1470" 
d="M1290 1514q0 38 26 63q26 26 64 26t64 -26t26 -55t-7 -47l-98 -198h-65l57 150q-23 5 -45 27t-22 60zM674 975q-188 0 -321 -133t-133 -321q0 -189 133 -321t321 -132t321 133q100 100 125 231v178q-25 132 -125 232q-133 133 -321 133zM674 1071q277 0 446 -228v757h90
v-1600h-90v200q-169 -228 -446 -228q-227 0 -388 161t-161 389t161 388q161 161 388 161z" />
    <glyph glyph-name="Dcroat" unicode="&#x110;" horiz-adv-x="1284" 
d="M300 845h370v-90h-370v-662h7q356 0 547 192q213 213 213 515t-213 515q-191 191 -547 191h-7v-661zM210 845v755h90v-2h7q395 0 612 -218q240 -240 240 -580t-240 -580q-217 -218 -612 -218h-7v-2h-90v755h-160v90h160z" />
    <glyph glyph-name="dcroat" unicode="&#x111;" horiz-adv-x="1360" 
d="M674 1071q277 0 446 -228v440h-291v90h291v227h90v-227h99v-90h-99v-1283h-90v200q-169 -228 -446 -228q-227 0 -388 161t-161 389t161 388q161 161 388 161zM674 975q-188 0 -321 -133t-133 -321q0 -189 133 -321t321 -132t321 133q100 100 125 231v178
q-25 132 -125 232q-133 133 -321 133z" />
    <glyph glyph-name="Emacron" unicode="&#x112;" horiz-adv-x="1075" 
d="M950 1600v-90h-710v-665h710v-90h-710v-665h710v-90h-800v1600h800zM255 1845h590v-70h-590v70z" />
    <glyph glyph-name="emacron" unicode="&#x113;" horiz-adv-x="1177" 
d="M623 975q-171 -1 -304 -133t-133 -304t90 -288l635 635q-117 90 -288 90zM639 68q213 0 353 168l95 -34q-26 -36 -59 -69q-160 -161 -388 -161t-389 161t-161 389t161 388q161 161 372 161q263 0 422 -179l-708 -708q127 -116 302 -116zM294 1227h590v-70h-590v70z" />
    <glyph glyph-name="Ebreve" unicode="&#x114;" horiz-adv-x="1075" 
d="M950 1600v-90h-710v-665h710v-90h-710v-665h710v-90h-800v1600h800zM550 1817q68 0 112 43t50 96h73q-8 -84 -72 -148q-65 -64 -163 -64t-164 68t-71 144h74q8 -53 51 -96q42 -43 110 -43z" />
    <glyph glyph-name="ebreve" unicode="&#x115;" horiz-adv-x="1177" 
d="M623 975q-171 -1 -304 -133t-133 -304t90 -288l635 635q-117 90 -288 90zM639 68q213 0 353 168l95 -34q-26 -36 -59 -69q-160 -161 -388 -161t-389 161t-161 389t161 388q161 161 372 161q263 0 422 -179l-708 -708q127 -116 302 -116zM590 1199q68 0 110 43
q44 43 51 96h73q-8 -84 -72 -148t-162 -64t-166 68q-66 68 -70 144h74q8 -53 51 -96t111 -43z" />
    <glyph glyph-name="Edotaccent" unicode="&#x116;" horiz-adv-x="1075" 
d="M950 1600v-90h-710v-665h710v-90h-710v-665h710v-90h-800v1600h800zM627 1845q-1 -32 -23 -54t-54 -22t-54 22t-22 54t22 54t54 22t54 -22t23 -54z" />
    <glyph glyph-name="edotaccent" unicode="&#x117;" horiz-adv-x="1177" 
d="M623 975q-171 -1 -304 -133t-133 -304t90 -288l635 635q-117 90 -288 90zM639 68q213 0 353 168l95 -34q-26 -36 -59 -69q-160 -161 -388 -161t-389 161t-161 389t161 388q161 161 372 161q263 0 422 -179l-708 -708q127 -116 302 -116zM665 1227q-1 -32 -23 -54t-54 -22
t-54 22t-22 54t22 54t54 22t54 -22t23 -54z" />
    <glyph glyph-name="Eogonek" unicode="&#x118;" horiz-adv-x="1075" 
d="M687 -160q0 93 89 160h-626v1600h800v-90h-710v-665h710v-90h-710v-665h710v-90h-107q-75 -49 -75 -136q0 -48 26 -79t66 -31t68 14l22 -50q-56 -23 -120 -23t-104 44t-39 101z" />
    <glyph glyph-name="eogonek" unicode="&#x119;" horiz-adv-x="1177" 
d="M639 68q213 0 353 168l95 -34q-56 -77 -133 -132q-79 -127 -79 -207q0 -48 26 -79t66 -31t68 14l22 -50q-56 -23 -120 -23q-63 0 -103 44t-40 101q0 82 100 189q-133 -56 -255 -56q-227 0 -388 161t-161 389t161 388q161 161 372 161q263 0 422 -179l-708 -708
q127 -116 302 -116zM623 975q-171 -1 -304 -133t-133 -304t90 -288l635 635q-117 90 -288 90z" />
    <glyph glyph-name="Ecaron" unicode="&#x11a;" horiz-adv-x="1075" 
d="M950 1600v-90h-710v-665h710v-90h-710v-665h710v-90h-800v1600h800zM494 1708l-229 234h105l176 -143l186 143h104l-238 -234h-104z" />
    <glyph glyph-name="ecaron" unicode="&#x11b;" horiz-adv-x="1177" 
d="M623 975q-171 -1 -304 -133t-133 -304t90 -288l635 635q-117 90 -288 90zM639 68q213 0 353 168l95 -34q-26 -36 -59 -69q-160 -161 -388 -161t-389 161t-161 389t161 388q161 161 372 161q263 0 422 -179l-708 -708q127 -116 302 -116zM532 1090l-229 234h105l176 -143
l186 143h104l-238 -234h-104z" />
    <glyph glyph-name="Gcircumflex" unicode="&#x11c;" horiz-adv-x="1620" 
d="M958 1942l238 -234h-104l-186 143l-176 -143h-105l229 234h104zM932 -19q-328 -1 -568 239t-239 580q-1 340 239 579q240 240 568 240t563 -213l-68 -62q-206 183 -495 183t-502 -213q-213 -212 -213 -514t213 -515t514 -213q258 0 455 159v488h90v-520
q-229 -218 -557 -218z" />
    <glyph glyph-name="gcircumflex" unicode="&#x11d;" horiz-adv-x="1364" 
d="M715 1324l238 -234h-104l-186 143l-176 -143h-105l229 234h104zM674 -28q-227 0 -388 161t-161 389t161 388t388 160q277 0 446 -227v139h90v-763q0 -221 -159 -380t-387 -159t-388 161q-33 33 -59 69l95 34q140 -168 340 -168t327 127t138 292q-174 -223 -443 -223z
M674 975q-188 0 -321 -133t-133 -321t133 -321t321 -133t321 133q97 97 124 225v190q-26 129 -124 227q-133 133 -321 133z" />
    <glyph glyph-name="Gbreve" unicode="&#x11e;" horiz-adv-x="1620" 
d="M950 1817q68 0 112 43t50 96h73q-8 -84 -72 -148q-65 -64 -163 -64t-164 68t-71 144h74q8 -53 51 -96q42 -43 110 -43zM932 -19q-328 -1 -568 239t-239 580q-1 340 239 579q240 240 568 240t563 -213l-68 -62q-206 183 -495 183t-502 -213q-213 -212 -213 -514t213 -515
t514 -213q258 0 455 159v488h90v-520q-229 -218 -557 -218z" />
    <glyph glyph-name="gbreve" unicode="&#x11f;" horiz-adv-x="1364" 
d="M668 1199q68 0 112 43t50 96h73q-8 -84 -72 -148q-65 -64 -163 -64t-164 68t-71 144h74q8 -53 51 -96q42 -43 110 -43zM674 -28q-227 0 -388 161t-161 389t161 388t388 160q277 0 446 -227v139h90v-763q0 -221 -159 -380t-387 -159t-388 161q-33 33 -59 69l95 34
q140 -168 340 -168t327 127t138 292q-174 -223 -443 -223zM674 975q-188 0 -321 -133t-133 -321t133 -321t321 -133t321 133q97 97 124 225v190q-26 129 -124 227q-133 133 -321 133z" />
    <glyph glyph-name="Gdotaccent" unicode="&#x120;" horiz-adv-x="1620" 
d="M1017 1845q-1 -32 -23 -54t-54 -22t-54 22t-22 54t22 54t54 22t54 -22t23 -54zM932 -19q-328 -1 -568 239t-239 580q-1 340 239 579q240 240 568 240t563 -213l-68 -62q-206 183 -495 183t-502 -213q-213 -212 -213 -514t213 -515t514 -213q258 0 455 159v488h90v-520
q-229 -218 -557 -218z" />
    <glyph glyph-name="gdotaccent" unicode="&#x121;" horiz-adv-x="1364" 
d="M744 1227q0 -32 -22 -54t-54 -22t-54 22t-23 54q1 32 23 54t54 22t54 -22t22 -54zM674 -28q-227 0 -388 161t-161 389t161 388t388 160q277 0 446 -227v139h90v-763q0 -221 -159 -380t-387 -159t-388 161q-33 33 -59 69l95 34q140 -168 340 -168t327 127t138 292
q-174 -223 -443 -223zM674 975q-188 0 -321 -133t-133 -321t133 -321t321 -133t321 133q97 97 124 225v190q-26 129 -124 227q-133 133 -321 133z" />
    <glyph glyph-name="Gcommaaccent" unicode="&#x122;" horiz-adv-x="1620" 
d="M929 -198q0 -45 -47 -81q-48 -36 -104 -36t-86 7l11 55q21 -7 56 -7t62 21t27 48v7q-5 32 -40 54t-77 23l42 104q-232 47 -408 224q-240 239 -240 579q-1 340 239 579q240 240 568 240t563 -213l-68 -62q-206 183 -495 183t-502 -213q-213 -212 -213 -514t213 -515
t514 -213q258 0 455 159v488h90v-520q-228 -218 -545 -218q-55 0 -107 6l-2 -16l-1 -6h1l-3 -40q97 -49 97 -123z" />
    <glyph glyph-name="gcommaaccent" unicode="&#x123;" horiz-adv-x="1364" 
d="M784 1224q0 -38 -26 -63q-26 -26 -64 -26t-64 26t-26 55t7 47l98 198h65l-57 -150q23 -5 45 -27t22 -60zM674 -28q-227 0 -388 161t-161 389t161 388t388 160q277 0 446 -227v139h90v-763q0 -221 -159 -380t-387 -159t-388 161q-33 33 -59 69l95 34q140 -168 340 -168
t327 127t138 292q-174 -223 -443 -223zM674 975q-188 0 -321 -133t-133 -321t133 -321t321 -133t321 133q97 97 124 225v190q-26 129 -124 227q-133 133 -321 133z" />
    <glyph glyph-name="Hcircumflex" unicode="&#x124;" horiz-adv-x="1150" 
d="M623 1942l238 -234h-104l-186 143l-176 -143h-105l229 234h104zM240 717v-717h-90v1600h90v-793h670v793h90v-1600h-90v717h-670z" />
    <glyph glyph-name="hcircumflex" unicode="&#x125;" horiz-adv-x="1059" 
d="M623 1942l238 -234h-104l-186 143l-176 -143h-105l229 234h104zM150 1600h90v-669q114 110 281 110t276 -109t112 -275v-657h-90v649q-1 125 -91 213t-214 89q-124 0 -214 -87q-40 -40 -60 -83v-781h-90v1600z" />
    <glyph glyph-name="Hbar" unicode="&#x126;" horiz-adv-x="1140" 
d="M235 1310v-503h670v503h-670zM995 1310v-1310h-90v717h-670v-717h-90v1310h-75v90h75v200h90v-200h670v200h90v-200h75v-90h-75z" />
    <glyph glyph-name="hbar" unicode="&#x127;" horiz-adv-x="1059" 
d="M150 1373v227h90v-227h410v-90h-410v-352q114 110 281 110t276 -109t112 -275v-657h-90v649q-1 125 -91 213t-214 89q-124 0 -214 -87q-40 -40 -60 -83v-781h-90v1283h-100v90h100z" />
    <glyph glyph-name="Itilde" unicode="&#x128;" 
d="M261 1600v-1600h-90v1600h90zM95 1918q57 0 123 -52t116 -53h5q50 3 70 84h69q-26 -158 -141 -158q-57 1 -123 53t-116 52h-5q-50 -3 -70 -84h-70q27 158 142 158z" />
    <glyph glyph-name="itilde" unicode="&#x129;" 
d="M261 982v-982h-90v982h90zM95 1300q57 0 123 -52t116 -53h5q50 3 70 84h69q-26 -158 -141 -158q-57 1 -123 53t-116 52h-5q-50 -3 -70 -84h-70q27 158 142 158z" />
    <glyph glyph-name="Imacron" unicode="&#x12a;" 
d="M260 1600v-1600h-90v1600h90zM-80 1845h590v-70h-590v70z" />
    <glyph glyph-name="imacron" unicode="&#x12b;" 
d="M260 982v-982h-90v982h90zM-80 1227h590v-70h-590v70z" />
    <glyph glyph-name="Ibreve" unicode="&#x12c;" 
d="M260 1600v-1600h-90v1600h90zM216 1817q68 0 110 43q44 43 51 96h73q-8 -84 -72 -148t-162 -64t-166 68q-66 68 -70 144h74q8 -53 51 -96t111 -43z" />
    <glyph glyph-name="ibreve" unicode="&#x12d;" 
d="M260 982v-982h-90v982h90zM216 1199q68 0 110 43q44 43 51 96h73q-8 -84 -72 -148t-162 -64t-166 68q-66 68 -70 144h74q8 -53 51 -96t111 -43z" />
    <glyph glyph-name="Iogonek" unicode="&#x12e;" 
d="M67 -160q0 99 103 170v1590h90v-1600h-37q-75 -49 -75 -136q0 -48 26 -79t66 -31t68 14l22 -50q-56 -23 -120 -23t-104 44t-39 101z" />
    <glyph glyph-name="iogonek" unicode="&#x12f;" 
d="M72 -160q0 97 98 167v975h90v-982h-32q-75 -49 -75 -136q0 -48 26 -79t66 -31t68 14l22 -50q-56 -23 -120 -23q-63 0 -103 44t-40 101zM305 1240q-1 -38 -27 -63q-26 -26 -63 -26t-63 26q-26 25 -27 63q1 38 27 64t63 26t63 -26t27 -64z" />
    <glyph glyph-name="dotlessi" unicode="&#x131;" 
d="M260 982v-982h-90v982h90z" />
    <glyph glyph-name="IJ" unicode="&#x132;" horiz-adv-x="1287" 
d="M260 1600v-1600h-90v1600h90zM1132 304q0 -152 -82 -235t-204 -83q-121 0 -206 86t-85 187l59 23q20 -108 80 -158t127 -50q12 0 25 2q84 0 140 56t56 182v1286h90v-1296z" />
    <glyph glyph-name="ij" unicode="&#x133;" horiz-adv-x="885" 
d="M735 1240q-1 -38 -27 -63q-26 -26 -63 -26t-63 26q-26 25 -27 63q1 38 27 64t63 26t63 -26t27 -64zM600 -2v984h90v-982q0 -211 -211 -228v90q121 14 121 136zM305 1240q-1 -38 -27 -63q-26 -26 -63 -26t-63 26q-26 25 -27 63q1 38 27 64t63 26t63 -26t27 -64zM260 982
v-982h-90v982h90z" />
    <glyph glyph-name="Jcircumflex" unicode="&#x134;" horiz-adv-x="857" 
d="M681 1942l238 -234h-104l-186 143l-176 -143h-105l229 234h104zM702 304q0 -152 -82 -235t-204 -83q-121 0 -206 86t-85 187l59 23q20 -108 80 -158t127 -50q12 0 25 2q84 0 140 56t56 182v1286h90v-1296z" />
    <glyph glyph-name="jcircumflex" unicode="&#x135;" 
d="M170 -2v984h90v-982q0 -211 -211 -228v90q121 14 121 136zM263 1324l238 -234h-104l-186 143l-176 -143h-105l229 234h104z" />
    <glyph glyph-name="Kcommaaccent" unicode="&#x136;" horiz-adv-x="1131" 
d="M691 -177q0 55 -87 57v63q85 -1 124 -31t39 -79v-10q-6 -55 -69 -102q-56 -31 -104 -31t-87 10l19 58q32 -13 64 -13t66 17q35 26 35 61zM218 0h-91v1600h91v-766l535 766h109l-415 -601l699 -999h-109l-647 924l-172 -246v-678z" />
    <glyph glyph-name="kcommaaccent" unicode="&#x137;" horiz-adv-x="823" 
d="M516 -177q0 55 -87 57v63q85 -1 124 -31t39 -79v-10q-6 -55 -69 -102q-57 -31 -105 -31t-87 10l20 58q31 -13 64 -13t66 17q35 26 35 61zM240 0h-90v1400h90v-755l273 337h116l-242 -300l386 -682h-112l-333 610l-88 -109v-501z" />
    <glyph glyph-name="kgreenlandic" unicode="&#x138;" horiz-adv-x="823" 
d="M240 0h-90v982h90v-337l273 337h116l-242 -300l386 -682h-112l-333 610l-88 -109v-501z" />
    <glyph glyph-name="Lacute" unicode="&#x139;" horiz-adv-x="886" 
d="M697 1904l-245 -187h-84l163 187h166zM127 0v1600h91v-1510h609v-90h-700z" />
    <glyph glyph-name="lacute" unicode="&#x13a;" horiz-adv-x="340" 
d="M335 1945l-245 -187h-84l163 187h166zM216 1600v-1600h-90v1600h90z" />
    <glyph glyph-name="Lcommaaccent" unicode="&#x13b;" horiz-adv-x="886" 
d="M647 -198q0 -45 -47 -81q-48 -36 -104 -36t-86 7l11 55q21 -7 56 -7t62 21t27 48v7q-5 32 -40 54t-77 23l43 107h-365v1600h91v-1510h609v-90h-271l-3 -29l-1 -6h1l-3 -40q97 -49 97 -123z" />
    <glyph glyph-name="lcommaaccent" unicode="&#x13c;" horiz-adv-x="497" 
d="M307 -198q0 -45 -47 -81q-48 -36 -104 -36t-86 7l11 55q21 -7 56 -7t62 21t27 48v7q-5 32 -40 54t-77 23l43 107h-25v1600h91v-1600h-2l-3 -29l-1 -6h1l-3 -40q97 -49 97 -123z" />
    <glyph glyph-name="Lcaron" unicode="&#x13d;" horiz-adv-x="886" 
d="M600 1521q0 37 26 63t64 26t64 -26t26 -54q0 -30 -7 -48l-98 -198h-65l57 151q-23 4 -45 26t-22 60zM127 0v1600h91v-1510h609v-90h-700z" />
    <glyph glyph-name="lcaron" unicode="&#x13e;" horiz-adv-x="497" 
d="M317 1521q1 37 27 63t63 26t63 -26t27 -54q0 -30 -7 -48l-98 -198h-65l57 151q-23 4 -45 26t-22 60zM218 1600v-1600h-91v1600h91z" />
    <glyph glyph-name="Ldot" unicode="&#x13f;" horiz-adv-x="886" 
d="M782 800q0 -32 -22 -54t-54 -22q-31 0 -54 22t-23 54t23 54t54 22q32 0 54 -22t22 -54zM127 0v1600h91v-1510h609v-90h-700z" />
    <glyph glyph-name="ldot" unicode="&#x140;" horiz-adv-x="498" 
d="M468 800q0 -32 -22 -54t-54 -22t-54 22t-22 54t22 54t54 22t54 -22t22 -54zM203 1600v-1600h-91v1600h91z" />
    <glyph glyph-name="Lslash" unicode="&#x141;" horiz-adv-x="986" 
d="M319 90h610v-90h-700v606l-229 -185v106l229 186v887h90v-813l455 370v-106l-455 -370v-591z" />
    <glyph glyph-name="lslash" unicode="&#x142;" horiz-adv-x="425" 
d="M167 1600h91v-721l167 137v-106l-167 -137v-773h-91v699l-167 -137v107l167 136v795z" />
    <glyph glyph-name="Nacute" unicode="&#x143;" horiz-adv-x="1311" 
d="M150 1600h99l822 -1423v1423h90v-1600h-90l-831 1437v-1437h-90v1600zM875 2005l-245 -187h-84l163 187h166z" />
    <glyph glyph-name="nacute" unicode="&#x144;" horiz-adv-x="1071" 
d="M240 0h-90v982h90v-63q124 122 292 122t277 -109t112 -275v-657h-90v649q-1 125 -91 213t-214 89q-124 0 -214 -87q-49 -49 -72 -101v-763zM755 1387l-245 -187h-84l163 187h166z" />
    <glyph glyph-name="Ncommaaccent" unicode="&#x145;" horiz-adv-x="1311" 
d="M710 -177q0 55 -87 57v63q85 -1 124 -31t39 -79v-10q-6 -55 -69 -102q-57 -31 -105 -31t-87 10l20 58q31 -13 64 -13t66 17q35 26 35 61zM150 1600h99l822 -1423v1423h90v-1600h-90l-831 1437v-1437h-90v1600z" />
    <glyph glyph-name="ncommaaccent" unicode="&#x146;" horiz-adv-x="1071" 
d="M590 -177q0 55 -87 57v63q85 -1 124 -31t39 -79v-10q-6 -55 -69 -102q-57 -31 -105 -31t-87 10l20 58q31 -13 64 -13t66 17q35 26 35 61zM240 0h-90v982h90v-63q124 122 292 122t277 -109t112 -275v-657h-90v649q-1 125 -91 213t-214 89q-124 0 -214 -87
q-49 -49 -72 -101v-763z" />
    <glyph glyph-name="Ncaron" unicode="&#x147;" horiz-adv-x="1311" 
d="M150 1600h99l822 -1423v1423h90v-1600h-90l-831 1437v-1437h-90v1600zM599 1708l-229 234h105l176 -143l186 143h104l-238 -234h-104z" />
    <glyph glyph-name="ncaron" unicode="&#x148;" horiz-adv-x="1071" 
d="M240 0h-90v982h90v-63q124 122 292 122t277 -109t112 -275v-657h-90v649q-1 125 -91 213t-214 89q-124 0 -214 -87q-49 -49 -72 -101v-763zM479 1090l-229 234h105l176 -143l186 143h104l-238 -234h-104z" />
    <glyph glyph-name="napostrophe" unicode="&#x149;" horiz-adv-x="1071" 
d="M21 1488q1 38 27 64t63 25q37 1 63 -25t27 -56q0 -30 -7 -47l-98 -198h-65l57 151q-23 4 -45 26t-22 60zM240 0h-90v982h90v-63q124 122 292 122t277 -109t112 -275v-657h-90v649q-1 125 -91 213t-214 89q-124 0 -214 -87q-49 -49 -72 -101v-763z" />
    <glyph glyph-name="Eng" unicode="&#x14a;" horiz-adv-x="1311" 
d="M240 0h-90v1600h99l821 -1421v765h1v656h90v-1600h-1q-10 -277 -151 -346l-41 45q105 95 105 249q0 26 -3 54l-830 1435v-1437z" />
    <glyph glyph-name="eng" unicode="&#x14b;" horiz-adv-x="1071" 
d="M831 544v105q-1 125 -91 213t-214 89q-124 0 -214 -87q-49 -49 -72 -101v-763h-90v982h90v-63q124 122 292 122t277 -109t112 -275v-657h-1q-20 -249 -151 -346l-40 40q82 57 101 266v584h1z" />
    <glyph glyph-name="Omacron" unicode="&#x14c;" horiz-adv-x="1892" 
d="M946 1531q-302 1 -516 -213t-213 -516q-1 -302 213 -516t516 -214t516 214t213 516q1 302 -213 516t-516 213zM1767 802q-1 -340 -241 -580t-580 -241q-340 1 -580 241t-241 580q1 340 241 580t580 241q340 -1 580 -241t241 -580zM651 1845h590v-70h-590v70z" />
    <glyph glyph-name="omacron" unicode="&#x14d;" horiz-adv-x="1278" 
d="M185 521q0 -189 133 -321t321 -132t321 132t133 321q0 188 -133 321t-321 133t-321 -133t-133 -321zM640 1071q228 0 388 -161q160 -160 160 -388t-160 -389t-388 -161t-389 161t-161 389t161 388q161 161 389 161zM344 1227h590v-70h-590v70z" />
    <glyph glyph-name="Obreve" unicode="&#x14e;" horiz-adv-x="1892" 
d="M946 1531q-302 1 -516 -213t-213 -516q-1 -302 213 -516t516 -214t516 214t213 516q1 302 -213 516t-516 213zM1767 802q-1 -340 -241 -580t-580 -241q-340 1 -580 241t-241 580q1 340 241 580t580 241q340 -1 580 -241t241 -580zM946 1817q68 0 112 43t50 96h73
q-8 -84 -72 -148q-65 -64 -163 -64t-164 68t-71 144h74q8 -53 51 -96q42 -43 110 -43z" />
    <glyph glyph-name="obreve" unicode="&#x14f;" horiz-adv-x="1278" 
d="M185 521q0 -189 133 -321t321 -132t321 132t133 321q0 188 -133 321t-321 133t-321 -133t-133 -321zM640 1071q228 0 388 -161q160 -160 160 -388t-160 -389t-388 -161t-389 161t-161 389t161 388q161 161 389 161zM640 1199q68 0 110 43q44 43 51 96h73q-8 -84 -72 -148
t-162 -64t-166 68q-66 68 -70 144h74q8 -53 51 -96t111 -43z" />
    <glyph glyph-name="Ohungarumlaut" unicode="&#x150;" horiz-adv-x="1892" 
d="M946 1531q-302 1 -516 -213t-213 -516q-1 -302 213 -516t516 -214t516 214t213 516q1 302 -213 516t-516 213zM1767 802q-1 -340 -241 -580t-580 -241q-340 1 -580 241t-241 580q1 340 241 580t580 241q340 -1 580 -241t241 -580zM1225 1966l-245 -187h-84l163 187h166z
M996 1966l-245 -187h-84l163 187h166z" />
    <glyph glyph-name="ohungarumlaut" unicode="&#x151;" horiz-adv-x="1278" 
d="M185 521q0 -189 133 -321t321 -132t321 132t133 321q0 188 -133 321t-321 133t-321 -133t-133 -321zM640 1071q228 0 388 -161q160 -160 160 -388t-160 -389t-388 -161t-389 161t-161 389t161 388q161 161 389 161zM918 1348l-245 -187h-84l163 187h166zM689 1348
l-245 -187h-84l163 187h166z" />
    <glyph glyph-name="OE" unicode="&#x152;" horiz-adv-x="2295" 
d="M396 1318q-214 -214 -214 -516t214 -516t515 -214t515 214t214 516t-213 516q-216 213 -517 213q-300 1 -514 -213zM2170 845v-90h-439q-16 -310 -239 -533q-79 -79 -168 -132h846v-90h-1000q-121 -19 -259 -19q-341 1 -581 241t-240 580t240 580t581 241q138 0 259 -23
h1000v-90h-840q86 -52 162 -127q225 -226 239 -538h439z" />
    <glyph glyph-name="oe" unicode="&#x153;" horiz-adv-x="2127" 
d="M1495 68q224 0 369 181l96 -34q-17 -28 -71 -82q-161 -161 -389 -161q-265 0 -430 208q-173 -208 -431 -208q-227 0 -388 161t-161 389t161 388q161 161 388 161q258 0 431 -208q165 208 430 208q228 0 380 -152t157 -347l-851 1q2 -26 2 -52q0 -142 -63 -258
q146 -195 370 -195zM1500 975q-188 0 -321 -133q-30 -30 -53 -63q29 -55 45 -116h758q-32 103 -108 179q-133 133 -321 133zM185 521q0 -189 133 -321t321 -132t321 132t133 321q0 188 -133 321t-321 133t-321 -133t-133 -321z" />
    <glyph glyph-name="Racute" unicode="&#x154;" horiz-adv-x="1089" 
d="M512 555h-272v-555h-90v1600h420q183 -25 311 -153q153 -153 153 -369t-153 -370q-106 -106 -243 -139l369 -569h-111l-357 556q-13 -1 -27 -1zM240 1509v-863h272q178 0 304 126t127 306q-1 179 -127 305t-304 126h-272zM811 2005l-245 -187h-84l163 187h166z" />
    <glyph glyph-name="racute" unicode="&#x155;" horiz-adv-x="599" 
d="M150 982h90v-179q28 40 65 77q119 119 244 125v-98q-85 -4 -176 -95q-128 -127 -133 -305v-507h-90v982zM569 1387l-245 -187h-84l163 187h166z" />
    <glyph glyph-name="Rcommaaccent" unicode="&#x156;" horiz-adv-x="1085" 
d="M549 -177q0 55 -87 57v63q85 -1 124 -31t39 -79v-10q-6 -55 -69 -102q-56 -31 -104 -31t-87 10l19 58q32 -13 64 -13t66 17q35 26 35 61zM489 554h-271v-554h-91v1600h420q183 -25 311 -153q153 -154 153 -370t-153 -369q-106 -106 -243 -139l369 -569h-111l-357 555
q-13 -1 -27 -1zM218 1508v-862h271q179 0 305 126t126 306t-126 304q-126 126 -305 126h-271z" />
    <glyph glyph-name="rcommaaccent" unicode="&#x157;" horiz-adv-x="459" 
d="M209 -177q0 55 -87 57v63q85 -1 124 -31t39 -79v-10q-5 -55 -69 -102q-55 -31 -104 -31t-87 10l19 58q32 -13 65 -13t65 17q35 25 35 61zM178 0h-91v982h91v-179q27 40 64 77q83 83 168 110l49 -87q-73 -15 -149 -92q-128 -127 -132 -304v-507z" />
    <glyph glyph-name="Rcaron" unicode="&#x158;" horiz-adv-x="1089" 
d="M512 555h-272v-555h-90v1600h420q183 -25 311 -153q153 -153 153 -369t-153 -370q-106 -106 -243 -139l369 -569h-111l-357 556q-13 -1 -27 -1zM240 1509v-863h272q178 0 304 126t127 306q-1 179 -127 305t-304 126h-272zM536 1708l-229 234h105l176 -143l186 143h104
l-238 -234h-104z" />
    <glyph glyph-name="rcaron" unicode="&#x159;" horiz-adv-x="599" 
d="M150 982h90v-179q28 40 65 77q119 119 244 125v-98q-85 -4 -176 -95q-128 -127 -133 -305v-507h-90v982zM293 1090l-229 234h105l176 -143l186 143h104l-238 -234h-104z" />
    <glyph glyph-name="Sacute" unicode="&#x15a;" horiz-adv-x="1042" 
d="M179 1280q0 140 99 240q100 100 240 99q140 0 240 -99q55 -53 76 -119l-81 -32q-18 49 -59 90q-73 72 -176 72q-103 -1 -176 -73t-73 -176q1 -104 71 -173q70 -70 190 -126q192 -63 327 -197t135 -330t-139 -336q-139 -139 -335 -139t-335 140q-111 111 -133 258l85 31
q14 -130 119 -235q104 -105 264 -105t273 113t113 273t-106 265q-106 106 -250 165q-171 57 -270 156q-99 98 -99 238zM740 2005l-245 -187h-84l163 187h166z" />
    <glyph glyph-name="sacute" unicode="&#x15b;" horiz-adv-x="802" 
d="M427 923q-60 -1 -103 -43t-43 -102t34 -95q34 -34 115 -85q128 -70 182 -124q85 -86 85 -206t-85 -206t-206 -86t-206 86t-85 187l89 23q0 -88 60 -147t142 -59t142 59t60 143t-59 143q-32 32 -129 94q-115 62 -159 106q-69 69 -69 167t69 166q69 70 167 70t160 -64
q63 -64 63 -143v-5l-78 -31q-20 152 -146 152zM625 1387l-245 -187h-84l163 187h166z" />
    <glyph glyph-name="Scircumflex" unicode="&#x15c;" horiz-adv-x="1042" 
d="M179 1280q0 140 99 240q100 100 240 99q140 0 240 -99q55 -53 76 -119l-81 -32q-18 49 -59 90q-73 72 -176 72q-103 -1 -176 -73t-73 -176q1 -104 71 -173q70 -70 190 -126q192 -63 327 -197t135 -330t-139 -336q-139 -139 -335 -139t-335 140q-111 111 -133 258l85 31
q14 -130 119 -235q104 -105 264 -105t273 113t113 273t-106 265q-106 106 -250 165q-171 57 -270 156q-99 98 -99 238zM569 1942l238 -234h-104l-186 143l-176 -143h-105l229 234h104z" />
    <glyph glyph-name="scircumflex" unicode="&#x15d;" horiz-adv-x="802" 
d="M427 923q-60 -1 -103 -43t-43 -102t34 -95q34 -34 115 -85q128 -70 182 -124q85 -86 85 -206t-85 -206t-206 -86t-206 86t-85 187l89 23q0 -88 60 -147t142 -59t142 59t60 143t-59 143q-32 32 -129 94q-115 62 -159 106q-69 69 -69 167t69 166q69 70 167 70t160 -64
q63 -64 63 -143v-5l-78 -31q-20 152 -146 152zM454 1324l238 -234h-104l-186 143l-176 -143h-105l229 234h104z" />
    <glyph glyph-name="Scedilla" unicode="&#x15e;" horiz-adv-x="1042" 
d="M640 -198q0 -45 -47 -81t-103 -36t-87 7l11 55q21 -7 56 -7t62 21t27 48v7q-5 32 -40 54t-77 23l36 90q-170 13 -288 131t-140 265l85 31q14 -130 119 -235q104 -105 264 -105t273 113t113 273t-106 265q-106 106 -250 165q-171 57 -270 156q-99 98 -99 238t99 240
q100 100 240 99q140 0 240 -99q55 -53 76 -119l-81 -32q-18 49 -59 90q-73 72 -176 72q-103 -1 -176 -73t-73 -176q1 -104 71 -173q70 -70 190 -126q192 -63 327 -197t135 -330t-134 -331q-134 -134 -311 -143l-1 -11l-1 -6h1l-3 -40q97 -49 97 -123z" />
    <glyph glyph-name="scedilla" unicode="&#x15f;" horiz-adv-x="802" 
d="M525 -198q0 -45 -47 -81q-48 -36 -104 -36t-86 7l11 55q21 -7 56 -7t62 21t27 48v7q-5 32 -40 54t-77 23l35 86q-93 13 -170 91t-77 179l89 23q0 -88 60 -147t142 -59t142 59t60 143t-59 143q-32 32 -129 94q-115 62 -159 106q-69 69 -69 167t69 166q69 70 167 70
t160 -64q63 -64 63 -143v-5l-78 -31q-20 152 -146 152q-60 -1 -103 -43t-43 -102t34 -95q34 -34 115 -85q128 -70 182 -124q85 -86 85 -206q-1 -120 -81 -202q-80 -81 -184 -89l-2 -12h1l-3 -40q97 -49 97 -123z" />
    <glyph glyph-name="Scaron" unicode="&#x160;" horiz-adv-x="1042" 
d="M179 1280q0 140 99 240q100 100 240 99q140 0 240 -99q55 -53 76 -119l-81 -32q-18 49 -59 90q-73 72 -176 72q-103 -1 -176 -73t-73 -176q1 -104 71 -173q70 -70 190 -126q192 -63 327 -197t135 -330t-139 -336q-139 -139 -335 -139t-335 140q-111 111 -133 258l85 31
q14 -130 119 -235q104 -105 264 -105t273 113t113 273t-106 265q-106 106 -250 165q-171 57 -270 156q-99 98 -99 238zM465 1708l-229 234h105l176 -143l186 143h104l-238 -234h-104z" />
    <glyph glyph-name="scaron" unicode="&#x161;" horiz-adv-x="802" 
d="M427 923q-60 -1 -103 -43t-43 -102t34 -95q34 -34 115 -85q128 -70 182 -124q85 -86 85 -206t-85 -206t-206 -86t-206 86t-85 187l89 23q0 -88 60 -147t142 -59t142 59t60 143t-59 143q-32 32 -129 94q-115 62 -159 106q-69 69 -69 167t69 166q69 70 167 70t160 -64
q63 -64 63 -143v-5l-78 -31q-20 152 -146 152zM350 1090l-229 234h105l176 -143l186 143h104l-238 -234h-104z" />
    <glyph glyph-name="Tcommaaccent" unicode="&#x162;" horiz-adv-x="1000" 
d="M619 -198q0 -45 -47 -81q-48 -36 -104 -36t-86 7l11 55q21 -7 56 -7t62 21t27 48v7q-5 32 -40 54t-77 23l43 107h-9v1510h-405v90h900v-90h-405v-1510h-17l-3 -29l-1 -6h1l-3 -40q97 -49 97 -123z" />
    <glyph glyph-name="tcommaaccent" unicode="&#x163;" horiz-adv-x="670" 
d="M454 -198q0 -45 -47 -81t-103 -36t-87 7l11 55q21 -7 56 -7t62 21t27 48v7q-5 32 -40 54t-77 23l43 107h-9v892h-200v90h200v418h90v-418h200v-90h-200v-892h-17l-3 -29l-1 -6h1l-3 -40q97 -49 97 -123z" />
    <glyph glyph-name="Tcaron" unicode="&#x164;" horiz-adv-x="1000" 
d="M545 1510v-1510h-90v1510h-405v90h900v-90h-405zM444 1708l-229 234h105l176 -143l186 143h104l-238 -234h-104z" />
    <glyph glyph-name="tcaron" unicode="&#x165;" horiz-adv-x="638" 
d="M458 1488q0 38 26 64t64 25q38 1 64 -25t26 -56t-7 -47l-98 -198h-65l57 151q-23 4 -45 26t-22 60zM236 982v417h90v-417h200v-91h-200v-891h-90v891h-200v91h200z" />
    <glyph glyph-name="Tbar" unicode="&#x166;" horiz-adv-x="1000" 
d="M455 845v665h-405v90h900v-90h-405v-665h255v-90h-255v-755h-90v755h-255v90h255z" />
    <glyph glyph-name="tbar" unicode="&#x167;" horiz-adv-x="670" 
d="M90 605h200v287h-200v90h200v418h90v-418h200v-90h-200v-287h200v-90h-200v-515h-90v515h-200v90z" />
    <glyph glyph-name="Utilde" unicode="&#x168;" horiz-adv-x="1345" 
d="M1104 1600h91v-1150q-25 -183 -153 -311q-154 -153 -370 -153t-369 153t-153 369v1092h91v-1092q1 -178 127 -304t305 -127q179 1 305 127t126 304v1092zM552 1918q58 0 124 -52t115 -53h5q50 3 70 84h69q-26 -158 -141 -158q-58 1 -124 53t-115 52h-5q-50 -3 -70 -84
h-70q27 158 142 158z" />
    <glyph glyph-name="utilde" unicode="&#x169;" horiz-adv-x="1099" 
d="M550 -14q-178 0 -288 109q-109 109 -112 275v612h90v-604q0 -126 90 -214t220 -88q128 0 218 88t91 214v604h90v-612q-3 -166 -112 -275t-287 -109zM429 1300q57 0 123 -52t116 -53h5q50 3 70 84h69q-26 -158 -141 -158q-57 1 -123 53t-116 52h-5q-50 -3 -70 -84h-70
q27 158 142 158z" />
    <glyph glyph-name="Umacron" unicode="&#x16a;" horiz-adv-x="1345" 
d="M1104 1600h91v-1150q-25 -183 -153 -311q-154 -153 -370 -153t-369 153t-153 369v1092h91v-1092q1 -178 127 -304t305 -127q179 1 305 127t126 304v1092zM378 1845h590v-70h-590v70z" />
    <glyph glyph-name="umacron" unicode="&#x16b;" horiz-adv-x="1099" 
d="M550 -14q-178 0 -288 109q-109 109 -112 275v612h90v-604q0 -126 90 -214t220 -88q128 0 218 88t91 214v604h90v-612q-3 -166 -112 -275t-287 -109zM255 1227h590v-70h-590v70z" />
    <glyph glyph-name="Ubreve" unicode="&#x16c;" horiz-adv-x="1345" 
d="M1104 1600h91v-1150q-25 -183 -153 -311q-154 -153 -370 -153t-369 153t-153 369v1092h91v-1092q1 -178 127 -304t305 -127q179 1 305 127t126 304v1092zM674 1817q68 0 110 43q44 43 51 96h73q-8 -84 -72 -148t-162 -64t-166 68q-66 68 -70 144h74q8 -53 51 -96t111 -43
z" />
    <glyph glyph-name="ubreve" unicode="&#x16d;" horiz-adv-x="1099" 
d="M550 -14q-178 0 -288 109q-109 109 -112 275v612h90v-604q0 -126 90 -214t220 -88q128 0 218 88t91 214v604h90v-612q-3 -166 -112 -275t-287 -109zM550 1199q68 0 112 43t50 96h73q-8 -84 -72 -148q-65 -64 -163 -64t-164 68t-71 144h74q8 -53 51 -96q42 -43 110 -43z
" />
    <glyph glyph-name="Uring" unicode="&#x16e;" horiz-adv-x="1345" 
d="M1104 1600h91v-1150q-25 -183 -153 -311q-154 -153 -370 -153t-369 153t-153 369v1092h91v-1092q1 -178 127 -304t305 -127q179 1 305 127t126 304v1092zM672 1915q-24 0 -40 -17q-17 -16 -17 -40t17 -41q16 -17 40 -17t41 17t17 41t-17 40q-17 17 -41 17zM796 1858
q0 -50 -36 -87q-36 -36 -87 -36t-87 36q-36 37 -36 87t36 86t87 36t87 -36t36 -86z" />
    <glyph glyph-name="uring" unicode="&#x16f;" horiz-adv-x="1099" 
d="M550 -14q-178 0 -288 109q-109 109 -112 275v612h90v-604q0 -126 90 -214t220 -88q128 0 218 88t91 214v604h90v-612q-3 -166 -112 -275t-287 -109zM550 1297q-24 0 -41 -17q-17 -16 -17 -40t17 -41t41 -17t40 17q17 17 17 41t-17 40q-16 17 -40 17zM673 1240
q0 -50 -36 -87q-36 -36 -87 -36t-87 36q-36 37 -36 87t36 86t87 36t87 -36t36 -86z" />
    <glyph glyph-name="Uhungarumlaut" unicode="&#x170;" horiz-adv-x="1345" 
d="M1104 1600h91v-1150q-25 -183 -153 -311q-154 -153 -370 -153t-369 153t-153 369v1092h91v-1092q1 -178 127 -304t305 -127q179 1 305 127t126 304v1092zM952 1966l-245 -187h-84l163 187h166zM723 1966l-245 -187h-84l163 187h166z" />
    <glyph glyph-name="uhungarumlaut" unicode="&#x171;" horiz-adv-x="1099" 
d="M550 -14q-178 0 -288 109q-109 109 -112 275v612h90v-604q0 -126 90 -214t220 -88q128 0 218 88t91 214v604h90v-612q-3 -166 -112 -275t-287 -109zM829 1348l-245 -187h-84l163 187h166zM600 1348l-245 -187h-84l163 187h166z" />
    <glyph glyph-name="Uogonek" unicode="&#x172;" horiz-adv-x="1345" 
d="M673 -14q-217 0 -370 153t-153 369v1092h91v-1092q1 -178 127 -304t305 -127q179 1 305 127t126 304v1092h91v-1150q-25 -183 -153 -311q-41 -41 -86 -70q-89 -107 -99 -172q-2 -18 -2 -50t26 -63t66 -31t68 14l22 -50q-56 -23 -120 -23q-63 0 -103 44t-40 113t80 166
q-84 -31 -181 -31z" />
    <glyph glyph-name="uogonek" unicode="&#x173;" horiz-adv-x="1099" 
d="M555 -14q-184 0 -293 109t-112 275v612h90v-604q0 -126 90 -214t220 -88q128 0 218 88t91 214v604h90v-612q-3 -183 -126 -288q-64 -120 -70 -161t-6 -73t26 -63t66 -31t68 14l22 -50q-56 -23 -120 -23q-63 0 -103 44t-40 110t67 173q-79 -36 -178 -36z" />
    <glyph glyph-name="Wcircumflex" unicode="&#x174;" horiz-adv-x="1672" 
d="M791 1600h90v-1360q23 -43 57 -77q90 -87 214 -87t214 88t91 214v1222h90v-1230q-3 -156 -117 -270t-278 -114t-279 115q-21 20 -37 41q-16 -21 -37 -41q-115 -115 -279 -115t-278 114t-117 270v1230h90v-1222q1 -126 91 -214t214 -88t214 87q34 34 57 77v1360zM884 1942
l238 -234h-104l-186 143l-176 -143h-105l229 234h104z" />
    <glyph glyph-name="wcircumflex" unicode="&#x175;" horiz-adv-x="1375" 
d="M934 -14q-155 0 -246 134q-17 -25 -41 -48q-85 -86 -206 -86t-204 84t-87 198v714h90v-714h-1q3 -78 61 -135t141 -57t139 55t62 129v722h90v-700q0 -88 60 -147t142 -59t140 57t62 135h-1v714h90v-714q-4 -114 -87 -198t-204 -84zM735 1324l238 -234h-104l-186 143
l-176 -143h-105l229 234h104z" />
    <glyph glyph-name="Ycircumflex" unicode="&#x176;" horiz-adv-x="1291" 
d="M690 0h-90v647l-550 953h103l492 -853l493 853h103l-551 -953v-647zM693 1942l238 -234h-104l-186 143l-176 -143h-105l229 234h104z" />
    <glyph glyph-name="ycircumflex" unicode="&#x177;" horiz-adv-x="1005" 
d="M930 982l-649 -1357h-88l265 556l-383 801h102l326 -704l326 704h101zM550 1324l238 -234h-104l-186 143l-176 -143h-105l229 234h104z" />
    <glyph glyph-name="Ydieresis" unicode="&#x178;" horiz-adv-x="1291" 
d="M690 0h-90v647l-550 953h103l492 -853l493 853h103l-551 -953v-647zM886 1858q0 -38 -26 -63q-26 -26 -64 -26t-64 26q-26 25 -26 63t26 64t64 26t64 -26t26 -64zM586 1858q0 -38 -26 -63q-26 -26 -64 -26t-64 26q-26 25 -26 63t26 64t64 26t64 -26t26 -64z" />
    <glyph glyph-name="Zacute" unicode="&#x179;" horiz-adv-x="1327" 
d="M150 1510v90h1027l-873 -1510h873v-90h-1027l872 1510h-872zM883 2005l-245 -187h-84l163 187h166z" />
    <glyph glyph-name="zacute" unicode="&#x17a;" horiz-adv-x="1000" 
d="M150 892v90h662l-508 -892h546v-90h-700l507 892h-507zM719 1387l-245 -187h-84l163 187h166z" />
    <glyph glyph-name="Zdotaccent" unicode="&#x17b;" horiz-adv-x="1327" 
d="M150 1510v90h1027l-873 -1510h873v-90h-1027l872 1510h-872zM740 1845q0 -32 -22 -54t-54 -22t-54 22t-23 54q1 32 23 54t54 22t54 -22t22 -54z" />
    <glyph glyph-name="zdotaccent" unicode="&#x17c;" horiz-adv-x="1000" 
d="M150 892v90h662l-508 -892h546v-90h-700l507 892h-507zM577 1227q-1 -32 -23 -54t-54 -22t-54 22t-22 54t22 54t54 22t54 -22t23 -54z" />
    <glyph glyph-name="Zcaron" unicode="&#x17d;" horiz-adv-x="1327" 
d="M150 1510v90h1027l-873 -1510h873v-90h-1027l872 1510h-872zM607 1708l-229 234h105l176 -143l186 143h104l-238 -234h-104z" />
    <glyph glyph-name="zcaron" unicode="&#x17e;" horiz-adv-x="1000" 
d="M150 892v90h662l-508 -892h546v-90h-700l507 892h-507zM444 1090l-229 234h105l176 -143l186 143h104l-238 -234h-104z" />
    <glyph glyph-name="longs" unicode="&#x17f;" horiz-adv-x="433" 
d="M215 0h-91v1248q7 111 85 191q82 76 189 76q56 0 119 -22l-29 -80q-42 18 -96 18t-119 -56q-55 -56 -58 -134v-1241z" />
    <glyph glyph-name="florin" unicode="&#x192;" horiz-adv-x="447" 
d="M229 0h-1v-79q-12 -284 -290 -284v83q189 0 200 198v973h-99v91h99v266q7 111 85 191q83 76 189 76q57 0 119 -22l-28 -80q-42 18 -97 18t-118 -56q-56 -56 -59 -134v-259h200v-91h-200v-891z" />
    <glyph glyph-name="Aringacute" unicode="&#x1fa;" horiz-adv-x="1263" 
d="M753 1631q0 -49 -27 -76t-47 -34l580 -1521h-95l-244 624h-576l-249 -624h-96l586 1518q-23 8 -51 36t-27 78q0 50 31 82t65 39l108 151h166l-196 -161q72 -32 72 -112zM629 1690q-25 0 -41 -17t-16 -41t16 -40q16 -17 41 -17q24 0 41 17q17 16 17 40t-17 41t-41 17z
M887 714l-254 671l-256 -671h510z" />
    <glyph glyph-name="aringacute" unicode="&#x1fb;" horiz-adv-x="1270" 
d="M749 1115q1 -49 -27 -77t-53 -37q252 -14 410 -226v139h90v-914h-90v200q-169 -228 -446 -228q-227 0 -388 150t-161 366t153 356t351 157q-28 9 -56 37t-28 78t30 80t61 38l153 171h167l-239 -176q73 -33 73 -114zM626 1174q-24 0 -41 -17t-17 -41t17 -40q17 -17 41 -17
t41 17q17 16 17 40t-17 41t-41 17zM633 907q-188 0 -321 -122q-133 -123 -133 -299t133 -297t321 -121t321 133q100 100 125 231v110q-25 132 -125 232q-133 133 -321 133z" />
    <glyph glyph-name="AEacute" unicode="&#x1fc;" horiz-adv-x="1676" 
d="M751 703v670l-289 -670h289zM1551 1600v-90h-710v-665h710v-90h-710v-665h710v-90h-800v613h-322l-263 -613h-126l711 1597v3h800zM1015 2005l-245 -187h-84l163 187h166z" />
    <glyph glyph-name="aeacute" unicode="&#x1fd;" horiz-adv-x="2171" 
d="M639 1071q277 0 446 -228v139h90v-54q155 143 376 143t373 -152t157 -347l-906 1v-317q21 -29 48 -55q133 -133 321 -133q219 0 364 181l96 -34q-17 -28 -71 -82q-161 -161 -382 -161t-376 143v-115h-90v200q-169 -228 -446 -228q-227 0 -388 161t-161 389t161 388
q161 161 388 161zM1544 975q-228 0 -369 -188v-124h798q-32 103 -108 179q-133 133 -321 133zM639 975q-188 0 -321 -133t-133 -321q0 -189 133 -321t321 -132t321 133q100 100 125 231v178q-25 132 -125 232q-133 133 -321 133zM1305 1387l-245 -187h-84l163 187h166z" />
    <glyph glyph-name="Oslashacute" unicode="&#x1fe;" horiz-adv-x="1892" 
d="M1767 802q-1 -340 -241 -580t-580 -241q-165 0 -306 57l-86 -184l-82 38l86 184q-103 56 -192 146q-241 240 -241 580q1 340 241 580t580 241q165 0 306 -57l86 184l82 -38l-86 -184q103 -56 193 -145q240 -241 240 -581zM946 72q302 0 516 214t213 516q0 302 -213 516
q-78 77 -167 126l-617 -1323q124 -49 268 -49zM946 1531q-302 1 -516 -213t-213 -516q0 -302 214 -516q77 -77 166 -127l616 1324q-123 48 -267 48zM1165 2005l-245 -187h-84l163 187h166z" />
    <glyph glyph-name="oslashacute" unicode="&#x1ff;" horiz-adv-x="1278" 
d="M90 522q0 228 161 389t388 161q129 0 237 -52l122 212l79 -41l-125 -216q40 -28 76 -64q160 -161 160 -389t-160 -388q-160 -161 -389 -161q-129 0 -236 52l-123 -213l-79 38l126 220q-40 28 -76 64q-161 160 -161 388zM639 69q188 1 321 133t133 320t-133 321
q-27 27 -56 48l-453 -783q86 -39 188 -39zM639 976q-188 0 -321 -133t-133 -321t133 -320q27 -28 57 -49l452 784q-86 39 -188 39zM858 1387l-245 -187h-84l163 187h166z" />
    <glyph glyph-name="circumflex" unicode="&#x2c6;" horiz-adv-x="811" 
d="M454 1324l238 -234h-104l-186 143l-176 -143h-105l229 234h104z" />
    <glyph glyph-name="caron" unicode="&#x2c7;" horiz-adv-x="811" 
d="M350 1090l-229 234h105l176 -143l186 143h104l-238 -234h-104z" />
    <glyph glyph-name="uni02C9" unicode="&#x2c9;" horiz-adv-x="890" 
d="M150 1227h590v-70h-590v70z" />
    <glyph glyph-name="breve" unicode="&#x2d8;" horiz-adv-x="880" 
d="M440 1199q68 0 112 43t50 96h73q-8 -84 -72 -148q-65 -64 -163 -64t-164 68t-71 144h74q8 -53 51 -96q42 -43 110 -43z" />
    <glyph glyph-name="dotaccent" unicode="&#x2d9;" horiz-adv-x="403" 
d="M278 1227q0 -32 -22 -54t-54 -22t-54 22t-23 54q1 32 23 54t54 22t54 -22t22 -54z" />
    <glyph glyph-name="ring" unicode="&#x2da;" horiz-adv-x="762" 
d="M382 1297q-24 0 -41 -17q-17 -16 -17 -40t17 -41t41 -17t40 17q17 17 17 41t-17 40q-16 17 -40 17zM505 1240q0 -50 -36 -87q-36 -36 -87 -36t-87 36q-36 37 -36 87t36 86t87 36t87 -36t36 -86z" />
    <glyph glyph-name="ogonek" unicode="&#x2db;" horiz-adv-x="283" 
d="M91 -152q0 -32 26 -63t66 -31t68 14l22 -50q-56 -23 -120 -23q-63 0 -103 44t-40 101q0 124 167 208l20 -30q-93 -47 -104 -120q-2 -18 -2 -50z" />
    <glyph glyph-name="tilde" unicode="&#x2dc;" horiz-adv-x="825" 
d="M292 1300q58 0 124 -52t115 -53h5q50 3 70 84h69q-26 -158 -141 -158q-58 1 -124 53t-115 52h-5q-50 -3 -70 -84h-70q27 158 142 158z" />
    <glyph glyph-name="hungarumlaut" unicode="&#x2dd;" horiz-adv-x="858" 
d="M708 1348l-245 -187h-84l163 187h166zM479 1348l-245 -187h-84l163 187h166z" />
    <glyph glyph-name="tonos" unicode="&#x384;" horiz-adv-x="437" 
d="M414 1600l-245 -187h-84l163 187h166z" />
    <glyph glyph-name="dieresistonos" unicode="&#x385;" horiz-adv-x="804" 
d="M250 1474q0 -26 -19 -44t-45 -18t-44 18t-18 44t18 44t44 18t45 -18t19 -44zM680 1474q0 -26 -19 -44t-45 -18t-44 18t-18 44t18 44t44 18t45 -18t19 -44zM578 1600l-201 -187h-83l117 187h167z" />
    <glyph glyph-name="Alphatonos" unicode="&#x386;" horiz-adv-x="1291" 
d="M499 1600l-245 -187h-84l163 187h166zM1008 613h-554l-223 -613h-96l596 1637l595 -1637h-95zM975 703l-244 671l-244 -671h488z" />
    <glyph glyph-name="anoteleia" unicode="&#x387;" horiz-adv-x="277" 
d="M215 1058q0 -32 -23 -54t-54 -22q-32 0 -54 22t-22 54t22 54t54 22q31 0 54 -22t23 -54z" />
    <glyph glyph-name="Epsilontonos" unicode="&#x388;" horiz-adv-x="1339" 
d="M414 1600l-245 -187h-84l163 187h166zM1529 1600v-90h-710v-665h710v-90h-710v-665h710v-90h-800v1600h800z" />
    <glyph glyph-name="Etatonos" unicode="&#x389;" horiz-adv-x="1414" 
d="M414 1600l-245 -187h-84l163 187h166zM819 717v-717h-90v1600h90v-793h670v793h90v-1600h-90v717h-670z" />
    <glyph glyph-name="Iotatonos" unicode="&#x38a;" horiz-adv-x="807" 
d="M414 1600l-245 -187h-84l163 187h166zM670 1600v-1600h-91v1600h91z" />
    <glyph glyph-name="Omicrontonos" unicode="&#x38c;" horiz-adv-x="2181" 
d="M414 1600l-245 -187h-84l163 187h166zM1196 1531q-302 1 -516 -213t-213 -516q-1 -302 213 -516t516 -214t516 214t213 516q1 302 -213 516t-516 213zM2017 802q-1 -340 -241 -580t-580 -241q-340 1 -580 241t-241 580q1 340 241 580t580 241q340 -1 580 -241t241 -580z
" />
    <glyph glyph-name="Upsilontonos" unicode="&#x38e;" horiz-adv-x="1655" 
d="M414 1600l-245 -187h-84l163 187h166zM1269 0h-90v647l-550 953h103l492 -853l493 853h103l-551 -953v-647z" />
    <glyph glyph-name="Omegatonos" unicode="&#x38f;" horiz-adv-x="1917" 
d="M414 1600l-245 -187h-84l163 187h166zM1054 1600q316 0 508 -223t191 -602q-1 -278 -153 -467t-274 -219h325v-89h-535v89q216 50 382 225t165 461q0 341 -167 545t-447 204h-5q-280 0 -447 -204t-167 -545q0 -286 166 -461t381 -225v-89h-535v89h325q-123 30 -275 219
t-152 467q0 379 192 602t507 223h15z" />
    <glyph glyph-name="iotadieresistonos" unicode="&#x390;" horiz-adv-x="418" 
d="M57 1251q0 -26 -19 -44q-18 -18 -44 -18t-44 18t-19 44q1 26 19 44t44 18t44 -18q19 -18 19 -44zM487 1251q0 -26 -19 -44q-18 -18 -44 -18t-44 18t-19 44q1 26 19 44t44 18t44 -18q19 -18 19 -44zM385 1377l-201 -187h-83l117 187h167zM253 982v-982h-89v982h89z" />
    <glyph glyph-name="Alpha" unicode="&#x391;" horiz-adv-x="1291" 
d="M923 613h-554l-223 -613h-96l596 1637l595 -1637h-95zM890 703l-244 671l-244 -671h488z" />
    <glyph glyph-name="Beta" unicode="&#x392;" horiz-adv-x="1066" 
d="M240 1510v-409h217q75 7 132 59t57 143t-61 149t-151 58h-194zM240 1005v-915h220v-1q167 11 294 143t127 319q0 188 -133 321t-321 133h-187zM434 1600q122 0 210 -87t88 -211t-127 -230q112 -23 211 -132q160 -160 160 -388t-154 -388t-362 -163v-1h-310v1600h284z" />
    <glyph glyph-name="Gamma" unicode="&#x393;" horiz-adv-x="852" 
d="M827 1600v-91h-609v-1509h-91v1600h700z" />
    <glyph glyph-name="uni0394" unicode="&#x394;" horiz-adv-x="1248" 
d="M1119 90l-516 1397l-509 -1397h1025zM34 1h-68l583 1599h109l590 -1600h-1214v1z" />
    <glyph glyph-name="Epsilon" unicode="&#x395;" horiz-adv-x="1075" 
d="M950 1600v-90h-710v-665h710v-90h-710v-665h710v-90h-800v1600h800z" />
    <glyph glyph-name="Zeta" unicode="&#x396;" horiz-adv-x="1327" 
d="M150 1510v90h1027l-873 -1510h873v-90h-1027l872 1510h-872z" />
    <glyph glyph-name="Eta" unicode="&#x397;" horiz-adv-x="1150" 
d="M240 717v-717h-90v1600h90v-793h670v793h90v-1600h-90v717h-670z" />
    <glyph glyph-name="Theta" unicode="&#x398;" horiz-adv-x="1782" 
d="M439 847h905v-90h-905v90zM890 1531q-302 0 -514 -214q-214 -213 -214 -515t214 -516t514 -214q302 0 516 214t214 516t-214 515q-214 214 -516 214zM1712 802q0 -340 -240 -581q-240 -240 -581 -240t-581 240q-240 241 -240 581t240 580t581 240t581 -240t240 -580z" />
    <glyph glyph-name="Iota" unicode="&#x399;" horiz-adv-x="367" 
d="M229 1600v-1600h-91v1600h91z" />
    <glyph glyph-name="Kappa" unicode="&#x39a;" horiz-adv-x="1097" 
d="M240 0h-90v1600h90v-681l511 681h116l-480 -644l620 -956h-111l-568 884l-88 -109v-775z" />
    <glyph glyph-name="Lambda" unicode="&#x39b;" horiz-adv-x="1282" 
d="M692 1600l590 -1600h-95l-550 1487l-542 -1486h-95l583 1599h109z" />
    <glyph glyph-name="Mu" unicode="&#x39c;" horiz-adv-x="1707" 
d="M1553 0h-90v1437l-609 -1054l-610 1054v-1437h-90v1593l-4 7h103l601 -1040l600 1040h103l-4 -7v-1593z" />
    <glyph glyph-name="Nu" unicode="&#x39d;" horiz-adv-x="1311" 
d="M150 1600h99l822 -1423v1423h90v-1600h-90l-831 1437v-1437h-90v1600z" />
    <glyph glyph-name="Xi" unicode="&#x39e;" horiz-adv-x="1245" 
d="M57 91h1132v-90h-1132v90zM57 1601h1132v-91h-1132v91zM169 847h905v-90h-905v90z" />
    <glyph glyph-name="Omicron" unicode="&#x39f;" horiz-adv-x="1892" 
d="M946 1531q-302 1 -516 -213t-213 -516q-1 -302 213 -516t516 -214t516 214t213 516q1 302 -213 516t-516 213zM1767 802q-1 -340 -241 -580t-580 -241q-340 1 -580 241t-241 580q1 340 241 580t580 241q340 -1 580 -241t241 -580z" />
    <glyph glyph-name="Pi" unicode="&#x3a0;" horiz-adv-x="1213" 
d="M197 1509v-1509h-91v1600h1000v-1600h-90v1509h-819z" />
    <glyph glyph-name="Rho" unicode="&#x3a1;" horiz-adv-x="1089" 
d="M240 1509v-863h272q178 0 304 126t127 306q-1 179 -127 305t-304 126h-272zM240 555v-555h-90v1600h420q183 -25 311 -153q153 -153 153 -369t-153 -370q-153 -153 -369 -153h-272z" />
    <glyph glyph-name="Sigma" unicode="&#x3a3;" horiz-adv-x="1201" 
d="M27 1599h1147v-91h-1050l585 -709l-585 -709h1050v-90h-1147v131l566 668l-566 668v132z" />
    <glyph glyph-name="Tau" unicode="&#x3a4;" horiz-adv-x="1000" 
d="M545 1510v-1510h-90v1510h-405v90h900v-90h-405z" />
    <glyph glyph-name="Upsilon" unicode="&#x3a5;" horiz-adv-x="1291" 
d="M690 0h-90v647l-550 953h103l492 -853l493 853h103l-551 -953v-647z" />
    <glyph glyph-name="Phi" unicode="&#x3a6;" horiz-adv-x="1786" 
d="M1611 786q-1 188 -183 316t-490 137v-905q308 8 490 136t183 316zM938 4h-91v235q-346 9 -557 165t-211 384t211 382q211 155 557 164v264h91v-264q347 -9 558 -164q211 -154 211 -382t-211 -384t-558 -165v-235zM175 786q0 -188 183 -316t489 -136v905
q-306 -9 -489 -137t-183 -316z" />
    <glyph glyph-name="Chi" unicode="&#x3a7;" horiz-adv-x="1218" 
d="M50 0l507 879l-416 721h103l364 -632l366 632h103l-418 -721l509 -879h-103l-457 790l-456 -790h-102z" />
    <glyph glyph-name="Psi" unicode="&#x3a8;" horiz-adv-x="1826" 
d="M955 4h-90v348q-347 9 -550 160q-207 161 -213 392v694h91v-699q1 -187 183 -315t489 -137v1151h90v-1151q309 9 491 137t182 320h6v694h91v-700q-2 -226 -212 -382t-558 -164v-348z" />
    <glyph glyph-name="uni03A9" unicode="&#x3a9;" horiz-adv-x="1593" 
d="M804 1600q316 0 508 -223t191 -602q-1 -278 -153 -467t-274 -219h325v-89h-535v89q216 50 382 225t165 461q0 341 -167 545t-447 204h-5q-280 0 -447 -204t-167 -545q0 -286 166 -461t381 -225v-89h-535v89h325q-123 30 -275 219t-152 467q0 379 192 602t507 223h15z" />
    <glyph glyph-name="Iotadieresis" unicode="&#x3aa;" horiz-adv-x="367" 
d="M229 1600v-1600h-91v1600h91zM423 1858q-1 -38 -27 -63q-26 -26 -63 -26t-63 26q-26 25 -27 63q1 38 27 64t63 26t63 -26t27 -64zM123 1858q-1 -38 -27 -63q-26 -26 -63 -26t-63 26q-26 25 -27 63q1 38 27 64t63 26t63 -26t27 -64z" />
    <glyph glyph-name="Upsilondieresis" unicode="&#x3ab;" horiz-adv-x="1291" 
d="M690 0h-90v647l-550 953h103l492 -853l493 853h103l-551 -953v-647zM886 1858q0 -38 -26 -63q-26 -26 -64 -26t-64 26q-26 25 -26 63t26 64t64 26t64 -26t26 -64zM586 1858q0 -38 -26 -63q-26 -26 -64 -26t-64 26q-26 25 -26 63t26 64t64 26t64 -26t26 -64z" />
    <glyph glyph-name="alphatonos" unicode="&#x3ac;" horiz-adv-x="1315" 
d="M640 975q-188 1 -321 -133t-133 -322t133 -320t321 -132t321 132q102 102 105 295q0 238 -105 347q-133 133 -321 133zM640 -28q-228 0 -388 161q-161 161 -161 389t161 388q160 160 388 160t389 -160q50 -51 80 -154l72 226h89l-113 -491l113 -491h-89l-72 234
q-34 -53 -80 -101q-161 -161 -389 -161zM900 1600l-245 -187h-84l163 187h166z" />
    <glyph glyph-name="epsilontonos" unicode="&#x3ad;" horiz-adv-x="853" 
d="M186 268q0 -86 74 -140t193 -53q175 11 298 186l-1 -147q-133 -135 -289 -135q-155 1 -257 77t-102 212t160 233q-160 97 -160 239t102 200t255 58q154 0 291 -127v-122q-121 154 -297 154q-119 0 -193 -37t-74 -111q0 -109 65 -155t102 -56h247v-89h-247
q-37 -7 -102 -54t-65 -133zM646 1600l-245 -187h-84l163 187h166z" />
    <glyph glyph-name="etatonos" unicode="&#x3ae;" horiz-adv-x="952" 
d="M193 0h-91v982h91v-63q123 122 291 122q168 1 277 -109t112 -275v-1032h-90v1023q-1 126 -91 214t-214 88t-214 -87q-49 -48 -71 -101v-762zM707 1600l-245 -187h-84l163 187h166z" />
    <glyph glyph-name="iotatonos" unicode="&#x3af;" horiz-adv-x="417" 
d="M253 982v-982h-89v982h89zM428 1600l-245 -187h-84l163 187h166z" />
    <glyph glyph-name="upsilondieresistonos" unicode="&#x3b0;" horiz-adv-x="1099" 
d="M550 -14q-178 0 -288 109q-109 109 -112 275v612h90v-604q0 -126 90 -214t220 -88q128 0 218 88t91 214v604h90v-612q-3 -166 -112 -275t-287 -109zM398 1474q0 -26 -19 -44t-45 -18t-44 18t-18 44t18 44t44 18t45 -18t19 -44zM828 1474q0 -26 -19 -44t-45 -18t-44 18
t-18 44t18 44t44 18t45 -18t19 -44zM726 1600l-201 -187h-83l117 187h167z" />
    <glyph glyph-name="alpha" unicode="&#x3b1;" horiz-adv-x="1315" 
d="M640 975q-188 1 -321 -133t-133 -322t133 -320t321 -132t321 132q102 102 105 295q0 238 -105 347q-133 133 -321 133zM640 -28q-228 0 -388 161q-161 161 -161 389t161 388q160 160 388 160t389 -160q50 -51 80 -154l72 226h89l-113 -491l113 -491h-89l-72 234
q-34 -53 -80 -101q-161 -161 -389 -161z" />
    <glyph glyph-name="beta" unicode="&#x3b2;" horiz-adv-x="1031" 
d="M464 1621q142 0 242 -100t99 -241q0 -140 -76 -222t-143 -109q145 -47 240 -149q137 -146 137 -344q1 -198 -139 -338t-338 -140q-101 0 -187 37l29 91q73 -33 158 -33q159 -1 271 111t112 271t-109 278t-328 160l-74 2v89q93 0 152 24t129 98t70 176t-72 174
q-71 71 -173 71t-170 -75t-67 -203v-1620h-91v1631q0 162 93 262t235 99z" />
    <glyph glyph-name="gamma" unicode="&#x3b3;" horiz-adv-x="1011" 
d="M552 -375h-95v375l-412 982h105l353 -841l358 841h105l-414 -977v-380z" />
    <glyph glyph-name="delta" unicode="&#x3b4;" horiz-adv-x="1260" 
d="M1179 522q-1 -228 -161 -389t-388 -161t-388 161q-161 161 -161 389t162 388q141 141 401 169l-426 515h712v-90h-499q283 -387 379 -434t232 -184q136 -136 137 -364zM176 520q0 -188 133 -320t321 -132t321 132t133 320t-133 322t-321 133q-188 1 -321 -133t-133 -322z
" />
    <glyph glyph-name="epsilon" unicode="&#x3b5;" horiz-adv-x="853" 
d="M186 268q0 -86 74 -140t193 -53q175 11 298 186l-1 -147q-133 -135 -289 -135q-155 1 -257 77t-102 212t160 233q-160 97 -160 239t102 200t255 58q154 0 291 -127v-122q-121 154 -297 154q-119 0 -193 -37t-74 -111q0 -109 65 -155t102 -56h247v-89h-247
q-37 -7 -102 -54t-65 -133z" />
    <glyph glyph-name="zeta" unicode="&#x3b6;" horiz-adv-x="894" 
d="M201 392q0 -310 386 -322q280 -9 280 -216q-34 -181 -204 -187v94q106 0 113 105v6q0 106 -182 106q-481 11 -481 399q0 46 8 98q63 484 640 1034h-606v91h761v-30q-715 -717 -715 -1178z" />
    <glyph glyph-name="eta" unicode="&#x3b7;" horiz-adv-x="952" 
d="M193 0h-91v982h91v-63q123 122 291 122q168 1 277 -109t112 -275v-1032h-90v1023q-1 126 -91 214t-214 88t-214 -87q-49 -48 -71 -101v-762z" />
    <glyph glyph-name="theta" unicode="&#x3b8;" horiz-adv-x="1279" 
d="M333 831h615v-90h-615v90zM1189 786q-1 -378 -161 -596t-388 -218t-388 218q-161 218 -161 596t161 596q160 218 388 218t388 -218t161 -596zM1094 786q0 340 -133 529t-321 189t-321 -189t-133 -529t133 -529t321 -189t321 189t133 529z" />
    <glyph glyph-name="iota" unicode="&#x3b9;" horiz-adv-x="417" 
d="M253 982v-982h-89v982h89z" />
    <glyph glyph-name="kappa" unicode="&#x3ba;" horiz-adv-x="835" 
d="M204 0h-91v982h91v-450l385 450h116l-242 -300l385 -682h-110l-334 610l-200 -222v-388z" />
    <glyph glyph-name="lambda" unicode="&#x3bb;" horiz-adv-x="961" 
d="M532 798l372 -798h-100l-324 686l-322 -686h-101l373 800l-281 601h100l282 -603h1z" />
    <glyph glyph-name="uni03BC" unicode="&#x3bc;" horiz-adv-x="994" 
d="M494 -9q-166 0 -279 110v-476h-91v1357h91v-731q19 -43 59 -84q90 -86 214 -86t215 89q58 57 78 130v682h89v-982h-89v111q-4 -5 -10 -12q-111 -108 -277 -108z" />
    <glyph glyph-name="nu" unicode="&#x3bd;" horiz-adv-x="944" 
d="M154 982l316 -750l319 750h105l-424 -1016l-421 1016h105z" />
    <glyph glyph-name="xi" unicode="&#x3be;" horiz-adv-x="1011" 
d="M91 456q0 198 137 344q95 102 240 149q-67 27 -143 97t-76 213q19 339 436 340l246 1v-83h-213q-361 0 -361 -250v-8q0 -103 64 -165t183 -109l319 -1v-89l-301 2q-219 -45 -328 -164t-109 -278t112 -253q113 -94 419 -130q306 -34 306 -252v-23q-34 -135 -212 -152v105
q115 0 122 82v6q0 130 -281 152t-421 145t-139 321z" />
    <glyph glyph-name="omicron" unicode="&#x3bf;" horiz-adv-x="1278" 
d="M185 521q0 -189 133 -321t321 -132t321 132t133 321q0 188 -133 321t-321 133t-321 -133t-133 -321zM640 1071q228 0 388 -161q160 -160 160 -388t-160 -389t-388 -161t-389 161t-161 389t161 388q161 161 389 161z" />
    <glyph glyph-name="pi" unicode="&#x3c0;" horiz-adv-x="1262" 
d="M449 891v-891h-89v891h-292v91h1126v-91h-292v-891h-89v891h-364z" />
    <glyph glyph-name="rho" unicode="&#x3c1;" horiz-adv-x="1256" 
d="M639 67q188 1 321 133t133 320t-133 322t-321 133q-188 0 -321 -133q-99 -99 -123 -228v-188q24 -129 123 -226q133 -133 321 -133zM640 1069q228 0 388 -160q160 -159 160 -387t-160 -389t-388 -161t-389 161q-32 32 -56 66v-574h-91v1029q44 163 176 289t360 126z" />
    <glyph glyph-name="sigma1" unicode="&#x3c2;" horiz-adv-x="1024" 
d="M113 456q0 198 137 344q149 165 479 185l216 -1v-89h-166q-308 -9 -440 -145t-132 -295q1 -159 135 -247t362 -140t227 -214v-23q-34 -158 -213 -175v105q116 0 123 105v6q1 72 -201 112t-364 157t-163 315z" />
    <glyph glyph-name="sigma" unicode="&#x3c3;" horiz-adv-x="1355" 
d="M1191 515q-1 -221 -161 -382t-388 -161t-388 161q-161 161 -161 389t161 388t388 160q170 0 301 -88h332v-91h-227q143 -155 143 -376zM188 520q0 -188 133 -320t321 -132t321 132t133 320t-133 322t-321 133q-188 1 -321 -133t-133 -322z" />
    <glyph glyph-name="tau" unicode="&#x3c4;" horiz-adv-x="1040" 
d="M564 891v-891h-89v891h-405v91h900v-91h-406z" />
    <glyph glyph-name="upsilon" unicode="&#x3c5;" horiz-adv-x="1099" 
d="M550 -14q-178 0 -288 109q-109 109 -112 275v612h90v-604q0 -126 90 -214t220 -88q128 0 218 88t91 214v604h90v-612q-3 -166 -112 -275t-287 -109z" />
    <glyph glyph-name="phi" unicode="&#x3c6;" horiz-adv-x="1280" 
d="M1095 531q0 233 -197 346q-101 57 -152 57t-54 -55l-1 -781q191 33 270 111q134 134 134 322zM187 543q0 -199 131 -331t274 -132h8v841q17 106 121 106q73 0 188 -51q281 -126 281 -445q0 -227 -161 -387q-140 -142 -332 -160v-353h-90v352q-206 11 -354 161
q-162 160 -162 388t162 388q53 54 81 71l34 -96q-181 -152 -181 -352z" />
    <glyph glyph-name="chi" unicode="&#x3c7;" horiz-adv-x="1095" 
d="M548 269l-389 -638h-102l439 722l-382 629h103l331 -544l330 544h103l-382 -629l439 -722h-102z" />
    <glyph glyph-name="psi" unicode="&#x3c8;" horiz-adv-x="1319" 
d="M708 -358h-97v341q-201 13 -347 161q-162 160 -162 387v452h96v-452q0 -187 131 -319t274 -132h8v903h97v-903h8q144 0 274 132t131 319v452h97v-452q0 -227 -162 -387q-146 -148 -348 -161v-341z" />
    <glyph glyph-name="omega" unicode="&#x3c9;" horiz-adv-x="1539" 
d="M174 549q0 -494 318 -494q154 0 214 130q17 23 26 38h-7v529h89v-529h-9q18 -27 29 -38q59 -130 212 -130q318 0 318 494q0 233 -120 417v16h89q126 -216 126 -433q1 -285 -103 -431t-296 -146t-290 159q-98 -159 -290 -159t-296 146t-105 431q0 220 135 433h90v-9
q-130 -170 -130 -424z" />
    <glyph glyph-name="iotadieresis" unicode="&#x3ca;" horiz-adv-x="417" 
d="M253 982v-982h-89v982h89zM449 1240q-1 -38 -27 -63q-26 -26 -63 -26t-63 26q-26 25 -27 63q1 38 27 64t63 26t63 -26t27 -64zM149 1240q-1 -38 -27 -63q-26 -26 -63 -26t-63 26q-26 25 -27 63q1 38 27 64t63 26t63 -26t27 -64z" />
    <glyph glyph-name="upsilondieresis" unicode="&#x3cb;" horiz-adv-x="1099" 
d="M550 -14q-178 0 -288 109q-109 109 -112 275v612h90v-604q0 -126 90 -214t220 -88q128 0 218 88t91 214v604h90v-612q-3 -166 -112 -275t-287 -109zM790 1240q0 -38 -26 -63q-26 -26 -64 -26t-64 26q-26 25 -26 63t26 64t64 26t64 -26t26 -64zM490 1240q0 -38 -26 -63
q-26 -26 -64 -26t-64 26q-26 25 -26 63t26 64t64 26t64 -26t26 -64z" />
    <glyph glyph-name="omicrontonos" unicode="&#x3cc;" horiz-adv-x="1278" 
d="M185 521q0 -189 133 -321t321 -132t321 132t133 321q0 188 -133 321t-321 133t-321 -133t-133 -321zM640 1071q228 0 388 -161q160 -160 160 -388t-160 -389t-388 -161t-389 161t-161 389t161 388q161 161 389 161zM858 1600l-245 -187h-84l163 187h166z" />
    <glyph glyph-name="upsilontonos" unicode="&#x3cd;" horiz-adv-x="1099" 
d="M550 -14q-178 0 -288 109q-109 109 -112 275v612h90v-604q0 -126 90 -214t220 -88q128 0 218 88t91 214v604h90v-612q-3 -166 -112 -275t-287 -109zM769 1600l-245 -187h-84l163 187h166z" />
    <glyph glyph-name="omegatonos" unicode="&#x3ce;" horiz-adv-x="1539" 
d="M174 549q0 -494 318 -494q154 0 214 130q17 23 26 38h-7v529h89v-529h-9q18 -27 29 -38q59 -130 212 -130q318 0 318 494q0 233 -120 417v16h89q126 -216 126 -433q1 -285 -103 -431t-296 -146t-290 159q-98 -159 -290 -159t-296 146t-105 431q0 220 135 433h90v-9
q-130 -170 -130 -424zM988 1600l-245 -187h-84l163 187h166z" />
    <glyph glyph-name="afii10023" unicode="&#x401;" horiz-adv-x="1075" 
d="M950 1600v-90h-710v-665h710v-90h-710v-665h710v-90h-800v1600h800zM790 1858q0 -38 -26 -63q-26 -26 -64 -26t-64 26q-26 25 -26 63t26 64t64 26t64 -26t26 -64zM490 1858q0 -38 -26 -63q-26 -26 -64 -26t-64 26q-26 25 -26 63t26 64t64 26t64 -26t26 -64z" />
    <glyph glyph-name="afii10051" unicode="&#x402;" horiz-adv-x="1637" 
d="M1008 1013q233 0 391 -139q148 -112 148 -404t-148 -415q-43 -37 -91 -65l-60 65q37 23 73 53q133 116 133 350t-134 352t-322 118t-306 -114t-130 -253v-561h-89v1509h-405v91h900v-91h-406v-704q157 208 446 208z" />
    <glyph glyph-name="afii10052" unicode="&#x403;" horiz-adv-x="886" 
d="M827 1600v-91h-609v-1509h-91v1600h700zM697 2005l-245 -187h-84l163 187h166z" />
    <glyph glyph-name="afii10053" unicode="&#x404;" horiz-adv-x="1757" 
d="M930 1531q-301 0 -507 -206t-220 -478h985v-90h-985q14 -273 220 -479q205 -206 507 -206t516 214q115 114 168 255h98q-59 -178 -200 -319q-241 -241 -581 -241q-341 0 -581 240q-240 241 -240 581t240 580t581 240q340 0 581 -239q70 -72 119 -150h-111
q-229 298 -590 298z" />
    <glyph glyph-name="afii10054" unicode="&#x405;" horiz-adv-x="1042" 
d="M179 1280q0 140 99 240q100 100 240 99q140 0 240 -99q55 -53 76 -119l-81 -32q-18 49 -59 90q-73 72 -176 72q-103 -1 -176 -73t-73 -176q1 -104 71 -173q70 -70 190 -126q192 -63 327 -197t135 -330t-139 -336q-139 -139 -335 -139t-335 140q-111 111 -133 258l85 31
q14 -130 119 -235q104 -105 264 -105t273 113t113 273t-106 265q-106 106 -250 165q-171 57 -270 156q-99 98 -99 238z" />
    <glyph glyph-name="afii10055" unicode="&#x406;" 
d="M260 1600v-1600h-90v1600h90z" />
    <glyph glyph-name="afii10056" unicode="&#x407;" 
d="M260 1600v-1600h-90v1600h90zM455 1858q-1 -38 -27 -63q-26 -26 -63 -26t-63 26q-26 25 -27 63q1 38 27 64t63 26t63 -26t27 -64zM155 1858q-1 -38 -27 -63q-26 -26 -63 -26t-63 26q-26 25 -27 63q1 38 27 64t63 26t63 -26t27 -64z" />
    <glyph glyph-name="afii10057" unicode="&#x408;" horiz-adv-x="857" 
d="M702 304q0 -152 -82 -235t-204 -83q-121 0 -206 86t-85 187l59 23q20 -108 80 -158t127 -50q12 0 25 2q84 0 140 56t56 182v1286h90v-1296z" />
    <glyph glyph-name="afii10058" unicode="&#x409;" horiz-adv-x="2248" 
d="M1253 752v-662h516q124 0 213 102t89 230q0 130 -89 230t-213 100h-516zM1162 0v1509h-819v-1226q-1 -121 -83 -205t-203 -84v91q83 0 140 56q56 56 56 153v1306h1000v-757h524q167 -4 275 -123t108 -298t-108 -299t-275 -123h-615z" />
    <glyph glyph-name="afii10059" unicode="&#x40a;" horiz-adv-x="2110" 
d="M1113 752v-662h526q125 0 214 102t89 230q0 130 -89 230t-214 100h-526zM1023 0v755h-819v-755h-91v1600h91v-755h819v755h90v-757h534q167 -4 275 -123t109 -298q-1 -179 -109 -299t-275 -123h-624z" />
    <glyph glyph-name="afii10060" unicode="&#x40b;" horiz-adv-x="1635" 
d="M999 1013q233 -1 378 -139t145 -432v-442h-98l1 451q0 239 -122 361t-298 121h-16q-188 -5 -306 -119t-130 -253v-561h-89v1509h-405v91h900v-91h-406v-704q157 208 446 208z" />
    <glyph glyph-name="afii10061" unicode="&#x40c;" horiz-adv-x="1097" 
d="M390 0h-90v1600h90v-681l511 681h116l-480 -644l620 -956h-111l-568 884l-88 -109v-775zM369 2005l-245 -187h-84l163 187h166z" />
    <glyph glyph-name="afii10062" unicode="&#x40e;" horiz-adv-x="1275" 
d="M182 -13q-55 0 -106 32l44 79q50 -27 83 -27t52 6q61 17 226 270l142 231l-668 1022h103l613 -937l547 937h103q-790 -1409 -953 -1536q-100 -77 -186 -77zM638 1817q68 0 112 43t50 96h73q-8 -84 -72 -148q-65 -64 -163 -64t-164 68t-71 144h74q8 -53 51 -96
q42 -43 110 -43z" />
    <glyph glyph-name="afii10145" unicode="&#x40f;" horiz-adv-x="1275" 
d="M589 1h-487v1599h91v-1509h890v1509h91v-1600h-496v-375h-89v376z" />
    <glyph glyph-name="afii10017" unicode="&#x410;" horiz-adv-x="1291" 
d="M923 613h-554l-223 -613h-96l596 1637l595 -1637h-95zM890 703l-244 671l-244 -671h488z" />
    <glyph glyph-name="afii10018" unicode="&#x411;" horiz-adv-x="1166" 
d="M209 755v-662h509q126 0 214 101t88 230t-88 230t-214 101h-509zM119 845v755h700v-91h-610v-664h517q168 -3 276 -123t108 -298q0 -179 -108 -299t-276 -123h-517v-2h-90v2h-6v91h6v662h-6v90h6z" />
    <glyph glyph-name="afii10019" unicode="&#x412;" horiz-adv-x="1066" 
d="M240 1510v-409h217q75 7 132 59t57 143t-61 149t-151 58h-194zM240 1005v-915h220v-1q167 11 294 143t127 319q0 188 -133 321t-321 133h-187zM434 1600q122 0 210 -87t88 -211t-127 -230q112 -23 211 -132q160 -160 160 -388t-154 -388t-362 -163v-1h-310v1600h284z" />
    <glyph glyph-name="afii10020" unicode="&#x413;" horiz-adv-x="886" 
d="M827 1600v-91h-609v-1509h-91v1600h700z" />
    <glyph glyph-name="afii10021" unicode="&#x414;" horiz-adv-x="1323" 
d="M1221 98v-473h-89v375h-1020v-375h-89v473h10q372 428 372 1063q0 188 -57 439h784l1 -1502h88zM1041 98v1411h-578q33 -162 33 -348q0 -681 -356 -1063h901z" />
    <glyph glyph-name="afii10022" unicode="&#x415;" horiz-adv-x="1075" 
d="M950 1600v-90h-710v-665h710v-90h-710v-665h710v-90h-800v1600h800z" />
    <glyph glyph-name="afii10024" unicode="&#x416;" horiz-adv-x="1915" 
d="M1003 0h-91v679l-171 245l-647 -924h-110l699 999l-415 601h110l534 -765v765h91v-765l535 765h109l-415 -601l699 -999h-109l-648 924l-171 -245v-679z" />
    <glyph glyph-name="afii10025" unicode="&#x417;" horiz-adv-x="1045" 
d="M551 760h-378v90h378q151 0 235 96t84 249t-108 241t-249 88q-233 0 -411 -131v88q171 127 382 127t346 -110t135 -291q0 -282 -193 -402q193 -97 193 -401q0 -182 -135 -292t-348 -111q-213 0 -380 135v113q134 -153 388 -153q144 0 262 82t118 236t-84 250t-235 96z
" />
    <glyph glyph-name="afii10026" unicode="&#x418;" horiz-adv-x="1515" 
d="M1391 1600v-1600h-90v1455l-1039 -1455h-139v1600h91v-1490l1063 1490h114z" />
    <glyph glyph-name="afii10027" unicode="&#x419;" horiz-adv-x="1515" 
d="M1391 1600v-1600h-90v1455l-1039 -1455h-139v1600h91v-1490l1063 1490h114zM758 1817q68 0 110 43q44 43 51 96h73q-8 -84 -72 -148t-162 -64t-166 68q-66 68 -70 144h74q8 -53 51 -96t111 -43z" />
    <glyph glyph-name="afii10028" unicode="&#x41a;" horiz-adv-x="1097" 
d="M240 0h-90v1600h90v-681l511 681h116l-480 -644l620 -956h-111l-568 884l-88 -109v-775z" />
    <glyph glyph-name="afii10029" unicode="&#x41b;" horiz-adv-x="1359" 
d="M343 283q-1 -121 -83 -205t-203 -84v91q83 0 140 56q56 56 56 153v1306h1000v-1600h-91v1509h-819v-1226z" />
    <glyph glyph-name="afii10030" unicode="&#x41c;" horiz-adv-x="1707" 
d="M1553 0h-90v1437l-609 -1054l-610 1054v-1437h-90v1593l-4 7h103l601 -1040l600 1040h103l-4 -7v-1593z" />
    <glyph glyph-name="afii10031" unicode="&#x41d;" horiz-adv-x="1150" 
d="M240 717v-717h-90v1600h90v-793h670v793h90v-1600h-90v717h-670z" />
    <glyph glyph-name="afii10032" unicode="&#x41e;" horiz-adv-x="1892" 
d="M946 1531q-302 1 -516 -213t-213 -516q-1 -302 213 -516t516 -214t516 214t213 516q1 302 -213 516t-516 213zM1767 802q-1 -340 -241 -580t-580 -241q-340 1 -580 241t-241 580q1 340 241 580t580 241q340 -1 580 -241t241 -580z" />
    <glyph glyph-name="afii10033" unicode="&#x41f;" horiz-adv-x="1213" 
d="M197 1509v-1509h-91v1600h1000v-1600h-90v1509h-819z" />
    <glyph glyph-name="afii10034" unicode="&#x420;" horiz-adv-x="1089" 
d="M240 1509v-863h272q178 0 304 126t127 306q-1 179 -127 305t-304 126h-272zM240 555v-555h-90v1600h420q183 -25 311 -153q153 -153 153 -369t-153 -370q-153 -153 -369 -153h-272z" />
    <glyph glyph-name="afii10035" unicode="&#x421;" horiz-adv-x="1595" 
d="M932 -19q-328 -1 -568 239t-239 580q-1 340 239 579q240 240 568 240t563 -213l-68 -62q-206 183 -495 183t-502 -213q-213 -212 -213 -514t213 -515t502 -213t495 183l68 -61q-235 -213 -563 -213z" />
    <glyph glyph-name="afii10036" unicode="&#x422;" horiz-adv-x="1000" 
d="M545 1510v-1510h-90v1510h-405v90h900v-90h-405z" />
    <glyph glyph-name="afii10037" unicode="&#x423;" horiz-adv-x="1275" 
d="M182 -13q-55 0 -106 32l44 79q50 -27 83 -27t52 6q61 17 226 270l142 231l-668 1022h103l613 -937l547 937h103q-790 -1409 -953 -1536q-100 -77 -186 -77z" />
    <glyph glyph-name="afii10038" unicode="&#x424;" horiz-adv-x="1601" 
d="M1436 786q0 164 -161 274q-161 111 -430 119v-787q269 8 430 119t161 275zM845 4h-90v289q-307 9 -497 149t-190 345q0 204 190 343t497 148v320h90v-320q310 -9 499 -148t189 -343q0 -205 -189 -345t-499 -149v-289zM165 786q-1 -164 161 -275t429 -119v787
q-267 -8 -429 -119q-162 -110 -161 -274z" />
    <glyph glyph-name="afii10039" unicode="&#x425;" horiz-adv-x="1218" 
d="M50 0l507 879l-416 721h103l364 -632l366 632h103l-418 -721l509 -879h-103l-457 790l-456 -790h-102z" />
    <glyph glyph-name="afii10040" unicode="&#x426;" horiz-adv-x="1292" 
d="M1180 0h-1067v1600h91v-1510h890v1510h91v-1503h84v-472h-89v375z" />
    <glyph glyph-name="afii10041" unicode="&#x427;" horiz-adv-x="1242" 
d="M92 1158v442h98l-1 -451q0 -238 122 -360t298 -122h17q187 6 305 119t130 254v560h89v-1600h-89v795q-161 -207 -446 -207q-233 0 -378 138t-145 432z" />
    <glyph glyph-name="afii10042" unicode="&#x428;" horiz-adv-x="1826" 
d="M113 1600h91v-1509h664v1509h90v-1509h664v1509h91v-1599h-1600v1599z" />
    <glyph glyph-name="afii10043" unicode="&#x429;" horiz-adv-x="1828" 
d="M1708 1h-1595v1599h91v-1509h664v1509h90v-1509h664v1509h91v-1502h85v-473h-90v376z" />
    <glyph glyph-name="afii10044" unicode="&#x42a;" horiz-adv-x="1509" 
d="M497 752v-662h514q124 0 213 102t89 230q0 130 -89 230t-213 100h-514zM407 843v666h-384v91h474v-757h522q167 -4 275 -123t108 -298t-108 -299t-275 -123h-614v90h2v662h-2v91h2z" />
    <glyph glyph-name="afii10045" unicode="&#x42b;" horiz-adv-x="1579" 
d="M196 752v-662h523q125 0 214 102t89 230q0 130 -89 230t-214 100h-523zM105 0v1600h91v-757h531q167 -4 275 -123t109 -298q-1 -179 -109 -299t-275 -123h-622zM1476 1600v-1600h-90v1600h90z" />
    <glyph glyph-name="afii10046" unicode="&#x42c;" horiz-adv-x="1167" 
d="M196 752v-662h523q125 0 214 102t89 230q0 130 -89 230t-214 100h-523zM105 0v1600h91v-757h531q167 -4 275 -123t109 -298q-1 -179 -109 -299t-275 -123h-622z" />
    <glyph glyph-name="afii10047" unicode="&#x42d;" horiz-adv-x="1774" 
d="M852 1531q-361 0 -590 -298h-112q50 78 120 150q241 239 581 239q341 0 581 -240t240 -580t-240 -581q-240 -240 -581 -240q-340 0 -581 241q-142 141 -200 319h97q53 -141 169 -255q214 -214 516 -214t507 206q206 206 220 479h-985v90h985q-14 272 -220 478t-507 206z
" />
    <glyph glyph-name="afii10048" unicode="&#x42e;" horiz-adv-x="2309" 
d="M204 755v-755h-91v1600h91v-755h394q16 313 248 545t572 232t580 -240t241 -580q-1 -340 -241 -581q-240 -240 -580 -240t-572 232t-248 542h-394zM1418 1531q-302 0 -515 -214q-214 -213 -214 -515t214 -516q213 -214 515 -214t516 214t213 516q1 302 -213 515
q-214 214 -516 214z" />
    <glyph glyph-name="afii10049" unicode="&#x42f;" horiz-adv-x="1088" 
d="M91 1077q0 216 153 370q128 128 311 153h420v-1600h-91v554h-271q-14 0 -28 1l-356 -555h-111l369 569q-137 33 -243 139q-153 153 -153 369zM613 1508q-179 0 -305 -126t-126 -304q0 -180 126 -306t305 -126h271v862h-271z" />
    <glyph glyph-name="afii10065" unicode="&#x430;" horiz-adv-x="1360" 
d="M674 975q-188 0 -321 -133t-133 -321q0 -189 133 -321t321 -132t321 133q100 100 125 231v178q-25 132 -125 232q-133 133 -321 133zM674 1071q277 0 446 -228v139h90v-982h-90v200q-169 -228 -446 -228q-227 0 -388 161t-161 389t161 388q161 161 388 161z" />
    <glyph glyph-name="afii10066" unicode="&#x431;" horiz-adv-x="1333" 
d="M704 1070q228 0 388 -160t160 -388t-160 -389t-388 -161t-380 152t-168 347h-8q-38 190 -38 349q0 318 150 521q186 251 430 251q51 0 147 -20t192 -19q96 0 123 42v-89q-28 -40 -118 -40t-184 20t-143 20q-226 0 -383 -232q-121 -178 -121 -450q0 -34 2 -69
q40 83 111 155q161 160 388 160zM249 520q0 -188 133 -320t321 -132t321 132t133 320t-133 322t-321 133q-188 1 -321 -133t-133 -322z" />
    <glyph glyph-name="afii10067" unicode="&#x432;" horiz-adv-x="854" 
d="M113 984h372v-1q130 -5 210 -85t80 -180v-1q0 -99 -79 -179q-29 -28 -61 -46q32 -18 61 -45q79 -81 79 -180v-1q0 -100 -80 -180t-210 -85v-1h-372v984zM202 442v-352h280v1q98 5 150 57t52 118q0 65 -52 118t-150 57v1h-280zM202 542h280v1q98 4 150 57t52 118
q0 66 -52 118t-150 57v1h-280v-352z" />
    <glyph glyph-name="afii10068" unicode="&#x433;" horiz-adv-x="687" 
d="M202 891v-891h-89v982h494v-91h-405z" />
    <glyph glyph-name="afii10069" unicode="&#x434;" horiz-adv-x="1074" 
d="M849 90v801h-411q8 -76 8 -161q0 -405 -191 -640h594zM355 730q0 135 -24 252h607v-884h80v-473h-90v375h-782v-375h-89v473h80q218 218 218 632z" />
    <glyph glyph-name="afii10070" unicode="&#x435;" horiz-adv-x="1177" 
d="M623 975q-171 -1 -304 -133t-133 -304t90 -288l635 635q-117 90 -288 90zM639 68q213 0 353 168l95 -34q-26 -36 -59 -69q-160 -161 -388 -161t-389 161t-161 389t161 388q161 161 372 161q263 0 422 -179l-708 -708q127 -116 302 -116z" />
    <glyph glyph-name="afii10072" unicode="&#x436;" horiz-adv-x="1352" 
d="M721 0h-91v389l-199 221l-334 -610h-111l386 682l-242 300h115l385 -449v449h91v-449l385 449h116l-243 -300l386 -682h-111l-333 610l-200 -221v-389z" />
    <glyph glyph-name="afii10073" unicode="&#x437;" horiz-adv-x="856" 
d="M777 268q-1 -111 -105 -190t-251 -79t-251 79t-104 190v10h96v-10q0 -80 76 -138t184 -58t182 58q76 58 76 138q0 81 -75 139q-46 33 -101 48h-226v89h258q37 15 69 39q75 55 75 137t-76 139t-182 57q-108 0 -179 -54t-80 -121h-96q9 97 108 173t246 76t251 -80t105 -189
q0 -141 -162 -227q162 -86 162 -226z" />
    <glyph glyph-name="afii10074" unicode="&#x438;" horiz-adv-x="1017" 
d="M102 982h89v-832l628 832h97v-982h-90v839l-635 -838v-1h-89v982z" />
    <glyph glyph-name="afii10075" unicode="&#x439;" horiz-adv-x="1017" 
d="M102 982h89v-832l628 832h97v-982h-90v839l-635 -838v-1h-89v982zM510 1199q68 0 110 43q44 43 51 96h73q-8 -84 -72 -148t-162 -64t-166 68q-66 68 -70 144h74q8 -53 51 -96t111 -43z" />
    <glyph glyph-name="afii10076" unicode="&#x43a;" horiz-adv-x="835" 
d="M204 0h-91v982h91v-450l385 450h116l-242 -300l385 -682h-110l-334 610l-200 -222v-388z" />
    <glyph glyph-name="afii10077" unicode="&#x43b;" horiz-adv-x="1114" 
d="M1012 982v-982h-89v891h-656v-665q0 -210 -210 -227v89q121 14 121 136v758h834z" />
    <glyph glyph-name="afii10078" unicode="&#x43c;" horiz-adv-x="1108" 
d="M1018 982v-982h-90v760l-329 -760h-89l-330 760v-760h-89v982h96l368 -848l367 848h96z" />
    <glyph glyph-name="afii10079" unicode="&#x43d;" horiz-adv-x="1015" 
d="M925 0h-89v486h-656v-486h-89v982h89v-405h656v405h89v-982z" />
    <glyph glyph-name="afii10080" unicode="&#x43e;" horiz-adv-x="1278" 
d="M185 521q0 -189 133 -321t321 -132t321 132t133 321q0 188 -133 321t-321 133t-321 -133t-133 -321zM640 1071q228 0 388 -161q160 -160 160 -388t-160 -389t-388 -161t-389 161t-161 389t161 388q161 161 389 161z" />
    <glyph glyph-name="afii10081" unicode="&#x43f;" horiz-adv-x="1038" 
d="M191 891v-891h-89v982h834v-982h-89v891h-656z" />
    <glyph glyph-name="afii10082" unicode="&#x440;" horiz-adv-x="1334" 
d="M685 67q188 0 321 133t133 321t-133 321t-321 133t-321 -133q-98 -98 -124 -227v-188q26 -129 124 -227q133 -133 321 -133zM150 982h90v-138q25 34 57 66q161 160 389 160t388 -160t160 -388t-160 -389t-388 -161t-389 161q-32 32 -57 66v-574h-90v1357z" />
    <glyph glyph-name="afii10083" unicode="&#x441;" horiz-adv-x="1177" 
d="M652 68q200 0 340 168l95 -34q-26 -36 -59 -69q-160 -161 -388 -161t-389 161t-161 389t161 388q161 161 389 161q277 0 447 -229l-95 -35q-140 168 -340 168q-200 -1 -333 -133t-133 -320t133 -321t333 -133z" />
    <glyph glyph-name="afii10084" unicode="&#x442;" horiz-adv-x="1081" 
d="M585 891v-891h-89v891h-405v91h900v-91h-406z" />
    <glyph glyph-name="afii10085" unicode="&#x443;" horiz-adv-x="881" 
d="M232 -374h-101l259 556l-373 800h101l322 -686l324 686h100z" />
    <glyph glyph-name="afii10086" unicode="&#x444;" horiz-adv-x="2227" 
d="M1599 1069q228 0 388 -160q160 -159 160 -387t-160 -389t-388 -161q-270 0 -441 221v-551h-90v551q-171 -221 -440 -221q-229 0 -389 161t-160 389t160 387q160 160 389 160q274 0 440 -221v551h90v-551q166 221 441 221zM628 975q-188 1 -321 -133t-133 -322t133 -320
t321 -133q188 0 320 133q92 91 120 208v224q-28 119 -120 210q-132 133 -320 133zM1598 67q188 1 321 133t133 320t-133 322t-321 133q-188 0 -320 -133q-91 -91 -120 -210v-224q29 -117 120 -208q132 -133 320 -133z" />
    <glyph glyph-name="afii10087" unicode="&#x445;" horiz-adv-x="721" 
d="M322 519l-288 463h105l236 -379l235 379h105l-288 -463l322 -519h-104l-270 434l-271 -434h-104z" />
    <glyph glyph-name="afii10088" unicode="&#x446;" horiz-adv-x="1074" 
d="M937 0h-824v982h89v-892h656v892h89v-884h79v-473h-89v375z" />
    <glyph glyph-name="afii10089" unicode="&#x447;" horiz-adv-x="1196" 
d="M1003 989h90v-989h-90v560q-22 -32 -51 -59q-139 -139 -372 -139q-232 0 -366 138t-134 432v57h98l-1 -66q0 -239 111 -361t286 -121h17q187 7 295 119t117 252v177z" />
    <glyph glyph-name="afii10090" unicode="&#x448;" horiz-adv-x="1351" 
d="M102 982h91v-891h437v891h91v-891h438v891h90v-981h-1147v981z" />
    <glyph glyph-name="afii10091" unicode="&#x449;" horiz-adv-x="1401" 
d="M1267 1h-1143v981h91v-891h437v891h91v-891h438v891h90v-884h85v-473h-89v376z" />
    <glyph glyph-name="afii10092" unicode="&#x44a;" horiz-adv-x="1201" 
d="M377 90h417v1q98 5 162 57t64 141t-64 141t-162 56v2h-417v-398zM287 0v891h-253v91h343v-404h421v-1q130 -5 221 -85t91 -203v-1q0 -122 -91 -202t-221 -85v-1h-511z" />
    <glyph glyph-name="afii10093" unicode="&#x44b;" horiz-adv-x="1447" 
d="M113 0v982h89v-404h534v-1q131 -5 222 -85t91 -203v-1q0 -122 -91 -202t-222 -85v-1h-623zM1334 0h-89v982h89v-982zM202 90h531v1q97 5 161 57t64 141q0 88 -63 141q-65 52 -162 56v2h-531v-398z" />
    <glyph glyph-name="afii10094" unicode="&#x44c;" horiz-adv-x="1015" 
d="M113 0v982h89v-404h421v-1q129 -5 221 -85t92 -203v-1q0 -122 -92 -202t-221 -85v-1h-510zM202 90h418v1q97 5 161 57t64 141q0 88 -63 141q-65 52 -162 56v2h-418v-398z" />
    <glyph glyph-name="afii10095" unicode="&#x44d;" horiz-adv-x="1224" 
d="M589 975q-188 0 -321 -133q-55 -55 -86 -123h-101q34 105 119 191q160 160 388 160t388 -160q162 -160 162 -388t-162 -389t-388 -161q-261 0 -439 215h133q129 -119 312 -119t316 132t133 320q0 27 -4 51h-614v92h597q-32 98 -112 179q-133 133 -321 133z" />
    <glyph glyph-name="afii10096" unicode="&#x44e;" horiz-adv-x="1719" 
d="M202 486v-486h-89v982h89v-405h342q18 193 169 343t379 150t387 -160q160 -160 160 -388t-160 -389q-159 -161 -387 -161t-383 155t-166 359h-341zM637 520q0 -188 133 -320q132 -132 320 -132t321 132t133 320t-133 322t-321 133q-188 1 -320 -133q-133 -134 -133 -322z
" />
    <glyph glyph-name="afii10097" unicode="&#x44f;" horiz-adv-x="902" 
d="M788 982v-982h-89v404h-241l-188 -404h-99l190 407q-111 13 -197 88t-85 197v1q0 123 91 203t221 85v1h397zM699 891h-304v-1q-97 -4 -161 -56t-64 -141t64 -141t161 -57v-1h304v397z" />
    <glyph glyph-name="afii10071" unicode="&#x451;" horiz-adv-x="1177" 
d="M623 975q-171 -1 -304 -133t-133 -304t90 -288l635 635q-117 90 -288 90zM639 68q213 0 353 168l95 -34q-26 -36 -59 -69q-160 -161 -388 -161t-389 161t-161 389t161 388q161 161 372 161q263 0 422 -179l-708 -708q127 -116 302 -116zM829 1240q-1 -38 -27 -63
q-26 -26 -63 -26t-63 26q-26 25 -27 63q1 38 27 64t63 26t63 -26t27 -64zM529 1240q-1 -38 -27 -63q-26 -26 -63 -26t-63 26q-26 25 -27 63q1 38 27 64t63 26t63 -26t27 -64z" />
    <glyph glyph-name="afii10099" unicode="&#x452;" horiz-adv-x="1009" 
d="M805 648q-1 126 -91 214t-214 88t-213 -87q-41 -39 -60 -82v-781h-91v1283h-113v89h113v228h91v-228h219v-89h-219v-352q113 110 280 110q167 1 276 -109t112 -275v-714q-1 -122 -83 -205t-203 -83v90q83 0 139 56t57 154v693z" />
    <glyph glyph-name="afii10100" unicode="&#x453;" horiz-adv-x="687" 
d="M202 891v-891h-89v982h494v-91h-405zM580 1387l-245 -187h-84l163 187h166z" />
    <glyph glyph-name="afii10101" unicode="&#x454;" horiz-adv-x="1224" 
d="M81 522q0 228 161 388q160 160 388 160t389 -160q85 -86 119 -191h-101q-32 68 -86 123q-133 133 -321 133t-322 -133q-79 -81 -112 -179h598v-92h-615q-3 -24 -3 -51q0 -188 133 -320t315 -132t312 119h134q-178 -215 -440 -215q-227 0 -388 161t-161 389z" />
    <glyph glyph-name="afii10102" unicode="&#x455;" horiz-adv-x="802" 
d="M427 923q-60 -1 -103 -43t-43 -102t34 -95q34 -34 115 -85q128 -70 182 -124q85 -86 85 -206t-85 -206t-206 -86t-206 86t-85 187l89 23q0 -88 60 -147t142 -59t142 59t60 143t-59 143q-32 32 -129 94q-115 62 -159 106q-69 69 -69 167t69 166q69 70 167 70t160 -64
q63 -64 63 -143v-5l-78 -31q-20 152 -146 152z" />
    <glyph glyph-name="afii10103" unicode="&#x456;" 
d="M305 1240q-1 -38 -27 -63q-26 -26 -63 -26t-63 26q-26 25 -27 63q1 38 27 64t63 26t63 -26t27 -64zM260 982v-982h-90v982h90z" />
    <glyph glyph-name="afii10104" unicode="&#x457;" 
d="M260 982v-982h-90v982h90zM455 1240q-1 -38 -27 -63q-26 -26 -63 -26t-63 26q-26 25 -27 63q1 38 27 64t63 26t63 -26t27 -64zM155 1240q-1 -38 -27 -63q-26 -26 -63 -26t-63 26q-26 25 -27 63q1 38 27 64t63 26t63 -26t27 -64z" />
    <glyph glyph-name="afii10105" unicode="&#x458;" horiz-adv-x="455" 
d="M305 1240q-1 -38 -27 -63q-26 -26 -63 -26t-63 26q-26 25 -27 63q1 38 27 64t63 26t63 -26t27 -64zM170 -2v984h90v-982q0 -211 -211 -228v90q121 14 121 136z" />
    <glyph glyph-name="afii10106" unicode="&#x459;" horiz-adv-x="1828" 
d="M925 891h-656v-665q0 -210 -210 -227v89q121 14 121 136v758h834v-402l423 -2v-1q130 -5 221 -85t91 -203v-1q0 -122 -91 -202t-221 -85v-1h-512v891zM1016 90h417v1q98 5 162 57t64 141t-64 141t-162 56v2h-417v-398z" />
    <glyph glyph-name="afii10107" unicode="&#x45a;" horiz-adv-x="1748" 
d="M847 0v486h-656v-486h-89v982h89v-405h656v405h89v-404h421v-1q130 -5 221 -85t91 -203v-1q0 -122 -91 -202t-221 -85v-1h-510zM936 90h417v1q98 5 162 57t64 141t-64 141t-162 56v2h-417v-398z" />
    <glyph glyph-name="afii10108" unicode="&#x45b;" horiz-adv-x="1009" 
d="M136 1372v228h91v-228h219v-89h-219v-352q113 110 280 110q167 1 276 -109t112 -275v-657h-90v648q-1 126 -91 214t-214 88t-213 -87q-41 -39 -60 -82v-781h-91v1283h-113v89h113z" />
    <glyph glyph-name="afii10109" unicode="&#x45c;" horiz-adv-x="835" 
d="M587 1378l-245 -187h-84l163 187h166zM204 0h-91v982h91v-450l385 450h116l-242 -300l385 -682h-110l-334 610l-200 -222v-388z" />
    <glyph glyph-name="afii10110" unicode="&#x45e;" horiz-adv-x="1005" 
d="M930 982l-649 -1357h-88l265 556l-383 801h102l326 -704l326 704h101zM504 1199q68 0 110 43q44 43 51 96h73q-8 -84 -72 -148t-162 -64t-166 68q-66 68 -70 144h74q8 -53 51 -96t111 -43z" />
    <glyph glyph-name="afii10193" unicode="&#x45f;" horiz-adv-x="1038" 
d="M474 0h-372v982h89v-892h656v892h89v-982h-372v-375h-90v375z" />
    <glyph glyph-name="afii10050" unicode="&#x490;" horiz-adv-x="947" 
d="M827 1512v-3h-609v-1509h-91v1600h674v271h90v-359h-64z" />
    <glyph glyph-name="afii10098" unicode="&#x491;" horiz-adv-x="725" 
d="M202 891v-891h-89v982h466v270h90v-361h-467z" />
    <glyph glyph-name="Wgrave" unicode="&#x1e80;" horiz-adv-x="1672" 
d="M791 1600h90v-1360q23 -43 57 -77q90 -87 214 -87t214 88t91 214v1222h90v-1230q-3 -156 -117 -270t-278 -114t-279 115q-21 20 -37 41q-16 -21 -37 -41q-115 -115 -279 -115t-278 114t-117 270v1230h90v-1222q1 -126 91 -214t214 -88t214 87q34 34 57 77v1360zM783 2005
l163 -187h-84l-245 187h166z" />
    <glyph glyph-name="wgrave" unicode="&#x1e81;" horiz-adv-x="1375" 
d="M934 -14q-155 0 -246 134q-17 -25 -41 -48q-85 -86 -206 -86t-204 84t-87 198v714h90v-714h-1q3 -78 61 -135t141 -57t139 55t62 129v722h90v-700q0 -88 60 -147t142 -59t140 57t62 135h-1v714h90v-714q-4 -114 -87 -198t-204 -84zM634 1387l163 -187h-84l-245 187h166z
" />
    <glyph glyph-name="Wacute" unicode="&#x1e82;" horiz-adv-x="1672" 
d="M791 1600h90v-1360q23 -43 57 -77q90 -87 214 -87t214 88t91 214v1222h90v-1230q-3 -156 -117 -270t-278 -114t-279 115q-21 20 -37 41q-16 -21 -37 -41q-115 -115 -279 -115t-278 114t-117 270v1230h90v-1222q1 -126 91 -214t214 -88t214 87q34 34 57 77v1360z
M1055 2005l-245 -187h-84l163 187h166z" />
    <glyph glyph-name="wacute" unicode="&#x1e83;" horiz-adv-x="1375" 
d="M934 -14q-155 0 -246 134q-17 -25 -41 -48q-85 -86 -206 -86t-204 84t-87 198v714h90v-714h-1q3 -78 61 -135t141 -57t139 55t62 129v722h90v-700q0 -88 60 -147t142 -59t140 57t62 135h-1v714h90v-714q-4 -114 -87 -198t-204 -84zM907 1387l-245 -187h-84l163 187h166z
" />
    <glyph glyph-name="Wdieresis" unicode="&#x1e84;" horiz-adv-x="1672" 
d="M791 1600h90v-1360q23 -43 57 -77q90 -87 214 -87t214 88t91 214v1222h90v-1230q-3 -156 -117 -270t-278 -114t-279 115q-21 20 -37 41q-16 -21 -37 -41q-115 -115 -279 -115t-278 114t-117 270v1230h90v-1222q1 -126 91 -214t214 -88t214 87q34 34 57 77v1360z
M1076 1858q0 -38 -26 -63q-26 -26 -64 -26t-64 26q-26 25 -26 63t26 64t64 26t64 -26t26 -64zM776 1858q0 -38 -26 -63q-26 -26 -64 -26t-64 26q-26 25 -26 63t26 64t64 26t64 -26t26 -64z" />
    <glyph glyph-name="wdieresis" unicode="&#x1e85;" horiz-adv-x="1375" 
d="M934 -14q-155 0 -246 134q-17 -25 -41 -48q-85 -86 -206 -86t-204 84t-87 198v714h90v-714h-1q3 -78 61 -135t141 -57t139 55t62 129v722h90v-700q0 -88 60 -147t142 -59t140 57t62 135h-1v714h90v-714q-4 -114 -87 -198t-204 -84zM928 1240q0 -38 -26 -63
q-26 -26 -64 -26t-64 26q-26 25 -26 63t26 64t64 26t64 -26t26 -64zM628 1240q0 -38 -26 -63q-26 -26 -64 -26t-64 26q-26 25 -26 63t26 64t64 26t64 -26t26 -64z" />
    <glyph glyph-name="Ygrave" unicode="&#x1ef2;" horiz-adv-x="1291" 
d="M690 0h-90v647l-550 953h103l492 -853l493 853h103l-551 -953v-647zM592 2005l163 -187h-84l-245 187h166z" />
    <glyph glyph-name="ygrave" unicode="&#x1ef3;" horiz-adv-x="1005" 
d="M930 982l-649 -1357h-88l265 556l-383 801h102l326 -704l326 704h101zM449 1387l163 -187h-84l-245 187h166z" />
    <glyph glyph-name="endash" unicode="&#x2013;" horiz-adv-x="871" 
d="M50 637h771v-90h-771v90z" />
    <glyph glyph-name="emdash" unicode="&#x2014;" horiz-adv-x="1507" 
d="M50 637h1407v-90h-1407v90z" />
    <glyph glyph-name="afii00208" unicode="&#x2015;" horiz-adv-x="3072" 
d="M-75 637h2111v-90h-2111v90z" />
    <glyph glyph-name="underscoredbl" unicode="&#x2017;" horiz-adv-x="1050" 
d="M25 -30h1000v-90h-1000v90zM25 -255h1000v-90h-1000v90z" />
    <glyph glyph-name="quoteleft" unicode="&#x2018;" horiz-adv-x="280" 
d="M230 1374q0 -38 -26 -63q-26 -26 -64 -26t-64 26t-26 55t7 47l98 198h65l-57 -150q23 -5 45 -27t22 -60z" />
    <glyph glyph-name="quoteright" unicode="&#x2019;" horiz-adv-x="280" 
d="M50 1522q0 38 26 63q26 26 64 26t64 -26t26 -55t-7 -47l-98 -198h-65l57 150q-23 5 -45 27t-22 60z" />
    <glyph glyph-name="quotesinglbase" unicode="&#x201a;" horiz-adv-x="280" 
d="M50 74q0 38 26 63q26 26 64 26t64 -26t26 -55t-7 -47l-98 -198h-65l57 150q-23 5 -45 27t-22 60z" />
    <glyph glyph-name="quotereversed" unicode="&#x201b;" horiz-adv-x="280" 
d="M330 1530q0 29 26 55t64 26t64 -26q26 -25 26 -63t-22 -60t-45 -27l57 -150h-65l-98 198q-7 18 -7 47z" />
    <glyph glyph-name="quotedblleft" unicode="&#x201c;" horiz-adv-x="532" 
d="M482 1374q0 -38 -26 -63q-26 -26 -64 -26t-64 26t-26 55t7 47l98 198h65l-57 -150q23 -5 45 -27t22 -60zM230 1374q0 -38 -26 -63q-26 -26 -64 -26t-64 26t-26 55t7 47l98 198h65l-57 -150q23 -5 45 -27t22 -60z" />
    <glyph glyph-name="quotedblright" unicode="&#x201d;" horiz-adv-x="532" 
d="M302 1522q0 38 26 63q26 26 64 26t64 -26t26 -55t-7 -47l-98 -198h-65l57 150q-23 5 -45 27t-22 60zM50 1522q0 38 26 63q26 26 64 26t64 -26t26 -55t-7 -47l-98 -198h-65l57 150q-23 5 -45 27t-22 60z" />
    <glyph glyph-name="quotedblbase" unicode="&#x201e;" horiz-adv-x="532" 
d="M302 74q0 38 26 63q26 26 64 26t64 -26t26 -55t-7 -47l-98 -198h-65l57 150q-23 5 -45 27t-22 60zM50 74q0 38 26 63q26 26 64 26t64 -26t26 -55t-7 -47l-98 -198h-65l57 150q-23 5 -45 27t-22 60z" />
    <glyph glyph-name="dagger" unicode="&#x2020;" horiz-adv-x="758" 
d="M350 1596v218h58v-218h250v-58h-250v-1365h-58v1365h-250v58h250z" />
    <glyph glyph-name="daggerdbl" unicode="&#x2021;" horiz-adv-x="758" 
d="M350 1538h-250v58h250v218h58v-218h250v-58h-250v-485h250v-58h-250v-822h-58v822h-250v58h250v485z" />
    <glyph glyph-name="bullet" unicode="&#x2022;" horiz-adv-x="758" 
d="M532 744q0 -64 -46 -108t-107 -44t-107 44t-46 108t46 107q46 44 107 44t107 -44q46 -43 46 -107z" />
    <glyph glyph-name="ellipsis" unicode="&#x2026;" horiz-adv-x="2148" 
d="M1646 76q0 -38 -26 -64t-64 -26t-64 26t-26 64t26 63q26 26 64 26t64 -26q26 -25 26 -63zM963 76q-1 -38 -27 -64t-63 -26t-63 26t-27 64q1 38 27 63q26 26 63 26t63 -26q26 -25 27 -63zM280 76q0 -38 -26 -64t-64 -26t-64 26t-26 64t26 63q26 26 64 26t64 -26
q26 -25 26 -63z" />
    <glyph glyph-name="perthousand" unicode="&#x2030;" horiz-adv-x="1772" 
d="M1460 528q-60 0 -101 -42q-42 -42 -42 -102t42 -102q41 -42 101 -42t102 42t43 102q-1 60 -43 102t-102 42zM1692 384q0 -96 -68 -164t-163 -67q-95 -1 -163 67t-68 164t68 164t163 67q95 1 163 -67t68 -164zM910 528q-60 0 -101 -42q-42 -42 -42 -102t42 -102
q41 -42 101 -42t102 42t43 102q-1 60 -43 102t-102 42zM1142 384q0 -96 -68 -164t-163 -67q-95 -1 -163 67t-68 164t68 164t163 67q95 1 163 -67t68 -164zM310 1128q-60 0 -101 -42q-42 -42 -42 -102t42 -102q41 -42 101 -42t102 42t43 102q-1 60 -43 102t-102 42zM542 984
q0 -96 -68 -164t-163 -67q-95 -1 -163 67t-68 164t68 164t163 67q95 1 163 -67t68 -164zM1107 1314l-918 -1311l-74 51l918 1311z" />
    <glyph glyph-name="minute" unicode="&#x2032;" horiz-adv-x="340" 
d="M125 997v600h90v-600h-90z" />
    <glyph glyph-name="second" unicode="&#x2033;" horiz-adv-x="520" 
d="M305 997v600h90v-600h-90zM125 997v600h90v-600h-90z" />
    <glyph glyph-name="guilsinglleft" unicode="&#x2039;" horiz-adv-x="629" 
d="M100 462l429 460v-104l-331 -356l331 -356v-105z" />
    <glyph glyph-name="guilsinglright" unicode="&#x203a;" horiz-adv-x="629" 
d="M100 1v105l331 356l-331 356v104l429 -460z" />
    <glyph glyph-name="exclamdbl" unicode="&#x203c;" horiz-adv-x="860" 
d="M688 1600v-1324h-90v1324h90zM735 76q-1 -38 -27 -64t-63 -26t-63 26t-27 64q1 38 27 63q26 26 63 26t63 -26q26 -25 27 -63zM258 1600v-1324h-90v1324h90zM305 76q-1 -38 -27 -64t-63 -26t-63 26t-27 64q1 38 27 63q26 26 63 26t63 -26q26 -25 27 -63z" />
    <glyph glyph-name="uni203E" unicode="&#x203e;" horiz-adv-x="1050" 
d="M25 1810h1000v-90h-1000v90z" />
    <glyph glyph-name="fraction" unicode="&#x2044;" horiz-adv-x="91" 
d="M591 1430l-917 -1311l-74 51l918 1311z" />
    <glyph glyph-name="fraction" unicode="&#x2215;" horiz-adv-x="91" 
d="M591 1430l-917 -1311l-74 51l918 1311z" />
    <glyph glyph-name="uni207F" unicode="&#x207f;" horiz-adv-x="1071" 
d="M240 559h-90v982h90v-63q124 122 292 122t277 -109t112 -275v-657h-90v649q-1 126 -91 214t-214 88t-214 -87q-49 -49 -72 -101v-763z" />
    <glyph glyph-name="franc" unicode="&#x20a3;" horiz-adv-x="1012" 
d="M212 468v1132h700v-90h-610v-665h610v-90h-610v-287h288v-90h-288v-378h-90v378h-162v90h162z" />
    <glyph glyph-name="lira" unicode="&#x20a4;" horiz-adv-x="1130" 
d="M531 1603q139 0 265 -106t127 -297q0 -63 -22 -114l-86 29q15 43 15 76q0 159 -108 250q-84 70 -190 70q-142 0 -232 -107q-70 -84 -70 -196t79 -279q53 -85 87 -174h232v-90h-202q16 -59 23 -120h179v-90h-173q-6 -198 -170 -392q125 45 221 45t182 -20t170 -19
q84 0 155 18l17 -89q-81 -20 -169 -20t-184 22q-95 22 -167 21q-72 1 -148 -27t-175 -77l-87 103q124 110 156 149q106 126 108 286h-236v90h229q-8 60 -26 120h-203v90h171q-17 40 -37 79q-127 206 -127 363t104 281t292 125z" />
    <glyph glyph-name="peseta" unicode="&#x20a7;" horiz-adv-x="1855" 
d="M1334 778q0 -60 34 -95q34 -34 115 -85q128 -70 182 -124q85 -86 85 -206t-85 -206t-206 -86t-206 86t-85 187l89 23q-1 -88 59 -147t143 -59t143 59t59 143q0 84 -59 143q-32 32 -129 94q-115 62 -159 106q-69 69 -69 166q0 63 29 115h-161v-892h-90v892h-106
q-34 -101 -109 -184q-138 -153 -332 -153h-245v-555h-81v1600h378q164 -26 291 -166t127 -356q0 -50 -7 -96h84v418h90v-418h248q53 32 135 32t145 -64t63 -143v-5l-78 -31q-20 152 -146 152q-60 -1 -103 -43t-43 -102zM231 1509v-863h245q160 0 274 126t114 306
q0 179 -114 305t-274 126h-245z" />
    <glyph glyph-name="Euro" unicode="&#x20ac;" horiz-adv-x="1450" 
d="M268 885v166q0 227 161 388t389 161t387 -161l-67 -67q-133 132 -321 132t-321 -132t-133 -321v-166h657l-18 -90h-639v-120h615l-18 -90h-597v-64q0 -189 133 -321t321 -132t321 133q82 82 114 185h98q-34 -142 -145 -253q-159 -161 -387 -161t-389 161t-161 388v64
h-168l18 90h150v120h-126l18 90h108z" />
    <glyph glyph-name="afii61248" unicode="&#x2105;" horiz-adv-x="1977" 
d="M496 577q-170 0 -291 121t-121 291q0 171 121 291q121 121 292 121q208 1 335 -171l-71 -27q-105 126 -255 126t-250 -99q-100 -98 -100 -240q0 -141 100 -241t250 -100t255 126l71 -25q-125 -172 -336 -173zM886 391q0 -141 100 -241q100 -99 240 -99q141 0 241 99
t100 241q0 141 -100 241t-241 99q-140 1 -240 -99t-100 -241zM1638 391q0 -171 -120 -291q-120 -121 -291 -121t-292 121t-121 291q0 38 6 73l-241 -345l-74 51l918 1311l73 -51l-477 -682q92 55 207 55q171 -1 292 -121q120 -120 120 -291z" />
    <glyph glyph-name="afii61352" unicode="&#x2116;" horiz-adv-x="2054" 
d="M125 1600h99l822 -1423v1423h90v-1600h-90l-831 1437v-1437h-90v1600zM1487 1054q-115 0 -195 80t-80 195t80 195t195 80h29q115 0 195 -80t80 -195t-80 -195t-195 -80h-29zM1715 1328q0 82 -56 138t-157 61q-101 -5 -157 -61t-56 -138t56 -137t157 -60q101 5 157 60
t56 137zM1894 1543h35v-632h-710v35h675v597z" />
    <glyph glyph-name="trademark" unicode="&#x2122;" horiz-adv-x="1251" 
d="M497 1556h-158v-604h-57v604h-182v52h453l267 -409l266 409h65l-9 -13v-643h-56v556l-266 -410l-267 410v-556h-56v604z" />
    <glyph glyph-name="Omega" unicode="&#x2126;" horiz-adv-x="1593" 
d="M804 1600q316 0 508 -223t191 -602q-1 -278 -153 -467t-274 -219h325v-89h-535v89q216 50 382 225t165 461q0 341 -167 545t-447 204h-5q-280 0 -447 -204t-167 -545q0 -286 166 -461t381 -225v-89h-535v89h325q-123 30 -275 219t-152 467q0 379 192 602t507 223h15z" />
    <glyph glyph-name="arrowleft" unicode="&#x2190;" horiz-adv-x="1809" 
d="M284 836h1411v-91h-1411v-127l-171 173l171 172v-127z" />
    <glyph glyph-name="arrowup" unicode="&#x2191;" horiz-adv-x="1024" 
d="M556 1414v-1411h-90v1411h-127l172 171l173 -171h-128z" />
    <glyph glyph-name="arrowright" unicode="&#x2192;" horiz-adv-x="1809" 
d="M1524 745h-1411v91h1411v127l171 -172l-171 -173v127z" />
    <glyph glyph-name="arrowdown" unicode="&#x2193;" horiz-adv-x="1024" 
d="M466 174v1411h90v-1411h128l-173 -171l-172 171h127z" />
    <glyph glyph-name="arrowboth" unicode="&#x2194;" horiz-adv-x="1809" 
d="M1524 836v127l171 -172l-171 -173v127h-1240v-127l-171 173l171 172v-127h1240z" />
    <glyph glyph-name="arrowupdn" unicode="&#x2195;" horiz-adv-x="1809" 
d="M950 174h127l-172 -171l-173 171h128v1240h-128l173 171l172 -171h-127v-1240z" />
    <glyph glyph-name="arrowupdnbse" unicode="&#x21a8;" horiz-adv-x="1809" 
d="M733 0h345v-91h-345v91zM733 1682h345v-90h-345v90zM951 174h127l-172 -171l-173 171h128v1240h-128l173 171l172 -171h-127v-1240z" />
    <glyph glyph-name="partialdiff" unicode="&#x2202;" horiz-adv-x="990" 
d="M848 1028q0 438 -213 478q-42 7 -81 7q-197 0 -327 -189l-42 83q147 178 360 178q70 0 148 -19q241 -61 241 -512q0 -133 -22 -301q-115 -733 -531 -743q-324 0 -324 248q0 50 14 111q127 400 769 479q8 98 8 180zM143 263q0 -176 241 -178q324 34 454 681
q-547 -69 -681 -409q-14 -52 -14 -94z" />
    <glyph glyph-name="Delta" unicode="&#x2206;" horiz-adv-x="1248" 
d="M1119 90l-516 1397l-509 -1397h1025zM34 1h-68l583 1599h109l590 -1600h-1214v1z" />
    <glyph glyph-name="product" unicode="&#x220f;" horiz-adv-x="1326" 
d="M197 1509v-1883h-91v1974h1113v-1974h-90v1883h-932z" />
    <glyph glyph-name="summation" unicode="&#x2211;" horiz-adv-x="1185" 
d="M1083 1600v-91h-890l418 -896l-418 -896h890v-91h-1026l453 987l-453 987h1026z" />
    <glyph glyph-name="minus" unicode="&#x2212;" horiz-adv-x="1050" 
d="M125 637h800v-90h-800v90z" />
    <glyph glyph-name="radical" unicode="&#x221a;" horiz-adv-x="1535" 
d="M867 294l572 1446h96l-703 -1819l-632 797l-98 -44l-45 57l296 167z" />
    <glyph glyph-name="infinity" unicode="&#x221e;" horiz-adv-x="1210" 
d="M151 789q-1 -73 43 -117t106 -44q125 0 177 160q-51 161 -176 161q-63 1 -107 -43t-43 -117zM821 457q-127 0 -221 87q-65 61 -90 139q-14 -29 -66 -77t-143 -49t-155 63t-65 168q1 104 65 170q64 64 155 64t143 -50t66 -78q25 78 90 139q94 87 221 87t217 -90t90 -215
q0 -179 -90 -269t-217 -89zM1056 815q0 97 -68 166t-166 69t-170 -66t-99 -196q27 -129 99 -195t170 -66t166 69t68 219z" />
    <glyph glyph-name="integral" unicode="&#x222b;" horiz-adv-x="562" 
d="M36 -363v83q189 0 200 198v1514q23 284 291 284l1 -72q-181 -6 -202 -209v-1514q-12 -284 -290 -284z" />
    <glyph glyph-name="approxequal" unicode="&#x2248;" horiz-adv-x="1277" 
d="M911 592q15 0 27 3q77 23 108 100q15 38 15 77l91 -14q-4 -48 -23 -97q-46 -111 -156 -148q-25 -8 -56 -8q-105 0 -287 104t-265 104q-14 0 -26 -3q-77 -23 -108 -100q-15 -39 -16 -77l-90 14q2 48 22 97q46 111 157 148q25 8 55 8q107 0 287 -104t265 -104zM911 887
q15 0 27 3q77 23 108 100q15 38 15 77l91 -14q-4 -48 -23 -97q-46 -111 -156 -148q-25 -8 -56 -8q-105 0 -287 104t-265 104q-14 0 -26 -3q-77 -23 -108 -100q-15 -39 -16 -77l-90 14q2 48 22 97q46 111 157 148q25 8 55 8q107 0 287 -104t265 -104z" />
    <glyph glyph-name="notequal" unicode="&#x2260;" horiz-adv-x="1050" 
d="M926 797v-90h-158l-209 -230h367v-90h-448l-264 -291h-102l263 291h-249v90h331l208 230h-539v90h620l90 99h103l-90 -99h77z" />
    <glyph glyph-name="equivalence" unicode="&#x2261;" horiz-adv-x="1050" 
d="M125 637h800v-90h-800v90zM125 457h800v-90h-800v90zM125 817h800v-90h-800v90z" />
    <glyph glyph-name="lessequal" unicode="&#x2264;" horiz-adv-x="1349" 
d="M149 90h1100v-90h-1100v90zM1249 145l-1149 418l1149 418v-96l-886 -322l886 -322v-96z" />
    <glyph glyph-name="greaterequal" unicode="&#x2265;" horiz-adv-x="1349" 
d="M100 90h1100v-90h-1100v90zM100 241l886 322l-886 322v96l1149 -418l-1149 -418v96z" />
    <glyph glyph-name="integraltp" unicode="&#x2320;" horiz-adv-x="631" 
d="M315 -362h-89v1794q23 284 291 284l1 -72q-181 -6 -203 -209v-1797z" />
    <glyph glyph-name="integralbt" unicode="&#x2321;" horiz-adv-x="631" 
d="M316 1716h89v-1794q-23 -284 -292 -284v72q181 6 203 209v1797z" />
    <glyph glyph-name="uniEEC9" unicode="&#xeec9;" horiz-adv-x="978" 
d="M693 892h-413v-892h-90v892h-100v90h100v266q6 111 85 191q82 76 189 76q56 0 118 -21l-28 -80q-42 18 -81 18q-71 0 -134 -57q-56 -55 -59 -133v-260h503v-982q0 -211 -211 -228v90q121 14 121 136v894zM828 1240q0 -38 -26 -63q-26 -26 -64 -26t-64 26q-26 25 -26 63
t26 64t64 26t64 -26t26 -64z" />
    <glyph glyph-name="uniEECA" unicode="&#xeeca;" horiz-adv-x="1122" 
d="M673 892h-393v-892h-90v892h-100v90h100v266q6 111 85 191q82 76 189 76q56 0 118 -21l-28 -80q-42 18 -81 18q-71 0 -134 -57q-56 -55 -59 -133v-260h483v-179q28 40 65 77q119 119 244 125v-98q-85 -4 -176 -95q-128 -127 -133 -305v-507h-90v892z" />
    <glyph glyph-name="uniEECB" unicode="&#xeecb;" horiz-adv-x="943" 
d="M120 982v266q6 111 85 191q81 76 233 76t255 -55v-478h200v-90h-200v-892h-90v892h-393v-892h-90v892h-100v90h100zM210 982h393v428q-71 22 -171 22t-163 -57q-56 -55 -59 -133v-260z" />
    <glyph glyph-name="uniEECD" unicode="&#xeecd;" horiz-adv-x="1528" 
d="M280 892v-892h-90v892h-100v90h100v266q6 111 85 191q82 76 189 76q56 0 118 -21l-28 -80q-42 18 -81 18q-71 0 -134 -57q-56 -55 -59 -133v-260h420l326 -704l326 704h101l-649 -1357h-88l265 556l-340 711h-361z" />
    <glyph glyph-name="uniEECE" unicode="&#xeece;" horiz-adv-x="1716" 
d="M280 892v-892h-90v892h-100v90h100v266q6 111 85 191q82 76 189 76q56 0 118 -21l-28 -80q-42 18 -81 18q-71 0 -134 -57q-56 -55 -59 -133v-260h433v266q6 111 85 191q82 76 189 76q56 0 118 -21l-28 -80q-42 18 -81 18q-71 0 -134 -57q-56 -55 -59 -133v-260h533v418
h90v-418h200v-90h-200v-892h-90v892h-533v-892h-90v892h-433z" />
    <glyph glyph-name="uniEECF" unicode="&#xeecf;" horiz-adv-x="2051" 
d="M280 892v-892h-90v892h-100v90h100v266q6 111 85 191q82 76 189 76q56 0 118 -21l-28 -80q-42 18 -81 18q-71 0 -134 -57q-56 -55 -59 -133v-260h433v266q6 111 85 191q82 76 189 76q56 0 118 -21l-28 -80q-42 18 -81 18q-71 0 -134 -57q-56 -55 -59 -133v-260h420
l326 -704l326 704h101l-649 -1357h-88l265 556l-340 711h-361v-892h-90v892h-433z" />
    <glyph glyph-name="uniEED0" unicode="&#xeed0;" horiz-adv-x="2198" 
d="M280 892v-892h-90v892h-100v90h100v266q6 111 85 191q82 76 189 76q56 0 118 -21l-28 -80q-42 18 -81 18q-71 0 -134 -57q-56 -55 -59 -133v-260h533v418h90v-418h467l326 -704l326 704h101l-649 -1357h-88l265 556l-340 711h-408v-892h-90v892h-533z" />
    <glyph glyph-name="uniEED9" unicode="&#xeed9;" horiz-adv-x="1269" 
d="M820 892h-440v-892h-90v892h-200v90h200v418h90v-418h530v-179q28 40 65 77q119 119 244 125v-98q-85 -4 -176 -95q-128 -127 -133 -305v-507h-90v892z" />
    <glyph glyph-name="uniEEDA" unicode="&#xeeda;" horiz-adv-x="1340" 
d="M380 892v-892h-90v892h-200v90h200v418h90v-418h580v418h90v-418h200v-90h-200v-892h-90v892h-580z" />
    <glyph glyph-name="uniEEDB" unicode="&#xeedb;" horiz-adv-x="1675" 
d="M380 892v-892h-90v892h-200v90h200v418h90v-418h470v-6l323 -698l326 704h101l-649 -1357h-88l265 556l-340 711h-408z" />
    <glyph glyph-name="uniEEDC" unicode="&#xeedc;" horiz-adv-x="1670" 
d="M380 892v-892h-90v892h-200v90h200v418h90v-418h1111l-515 -891h553v-91h-709l514 892h-954z" />
    <glyph glyph-name="uniF001" unicode="&#xf001;" horiz-adv-x="953" 
d="M828 1240q0 -38 -26 -63q-26 -26 -64 -26t-64 26q-26 25 -26 63t26 64t64 26t64 -26t26 -64zM783 982v-982h-90v982h90zM280 0h-90v892h-100v90h100v266q6 111 85 191q82 76 189 76q56 0 118 -21l-28 -80q-42 18 -81 18q-71 0 -134 -57q-56 -55 -59 -133v-1242z" />
    <glyph glyph-name="uniF002" unicode="&#xf002;" horiz-adv-x="913" 
d="M502 1432q-100 0 -163 -57q-56 -55 -59 -133v-1242h-90v892h-100v90h100v266q6 111 85 191q81 76 233 76t255 -55v-1460h-90v1410q-71 22 -171 22z" />
    <glyph glyph-name="uniFB00" unicode="&#xfb00;" horiz-adv-x="1046" 
d="M280 892v-892h-90v892h-100v90h100v266q6 111 85 191q82 76 189 76q56 0 118 -21l-28 -80q-42 18 -81 18q-71 0 -134 -57q-56 -55 -59 -133v-260h433v266q6 111 85 191q82 76 189 76q56 0 118 -21l-28 -80q-42 18 -81 18q-71 0 -134 -57q-56 -55 -59 -133v-260h200v-90
h-200v-892h-90v892h-433z" />
    <glyph glyph-name="uniFB01" unicode="&#xfb01;" horiz-adv-x="953" 
d="M693 892h-413v-892h-90v892h-100v90h100v266q6 111 85 191q82 76 189 76q56 0 118 -21l-28 -80q-42 18 -81 18q-71 0 -134 -57q-56 -55 -59 -133v-260h503v-982h-90v892zM828 1240q0 -38 -26 -63q-26 -26 -64 -26t-64 26q-26 25 -26 63t26 64t64 26t64 -26t26 -64z" />
    <glyph glyph-name="uniFB02" unicode="&#xfb02;" horiz-adv-x="913" 
d="M502 1432q-100 0 -163 -57q-56 -55 -59 -133v-260h200v-90h-200v-892h-90v892h-100v90h100v266q6 111 85 191q81 76 233 76t255 -55v-1460h-90v1410q-71 22 -171 22z" />
    <glyph glyph-name="uniFB03" unicode="&#xfb03;" horiz-adv-x="1476" 
d="M280 892v-892h-90v892h-100v90h100v266q6 111 85 191q82 76 189 76q56 0 118 -21l-28 -80q-42 18 -81 18q-71 0 -134 -57q-56 -55 -59 -133v-260h433v266q6 111 85 191q82 76 189 76q56 0 118 -21l-28 -80q-42 18 -81 18q-71 0 -134 -57q-56 -55 -59 -133v-260h503v-982
h-90v892h-413v-892h-90v892h-433zM1351 1240q-1 -38 -27 -63q-26 -26 -63 -26t-63 26q-26 25 -27 63q1 38 27 64t63 26t63 -26t27 -64z" />
    <glyph glyph-name="uniFB04" unicode="&#xfb04;" horiz-adv-x="1436" 
d="M280 892v-892h-90v892h-100v90h100v266q6 111 85 191q82 76 189 76q56 0 118 -21l-28 -80q-42 18 -81 18q-71 0 -134 -57q-56 -55 -59 -133v-260h433v266q6 111 85 191q82 76 234 76t254 -55v-1460h-90v1410q-70 22 -170 22t-164 -57q-56 -55 -59 -133v-260h200v-90h-200
v-892h-90v892h-433z" />
    <glyph glyph-name="uniFB05" unicode="&#xfb05;" horiz-adv-x="943" 
d="M603 892h-200v90h200v428q-71 22 -171 22t-163 -57q-56 -55 -59 -133v-1242h-90v892h-100v90h100v266q6 111 85 191q81 76 233 76t255 -55v-478h200v-90h-200v-892h-90v892z" />
    </font>
</defs>
</svg>
