<svg xmlns="http://www.w3.org/2000/svg">
<defs>
<font id="CaviarDreams-Bold" horiz-adv-x="548" >
  <font-face 
    font-family="Caviar Dreams"
    font-weight="700"
    font-stretch="normal"
    units-per-em="2048"
    panose-1="2 11 8 2 2 2 4 2 5 4"
    ascent="1638"
    descent="-410"
    x-height="1029"
    cap-height="1600"
    bbox="-401 -584 2198 2009"
    underline-thickness="150"
    underline-position="-142"
    unicode-range="U+0020-FB05"
  />
<missing-glyph horiz-adv-x="1835" 
d="M418 811v-41h-25v8h-18v-33q0 -8 14 -8v-16h-61v16q12 0 12 4v90q0 5 -12 5v18h100v-43h-10zM537 221q0 -4 18 -4v-16h-55v16q8 0 8 4v82q0 14 -8 14v17h28l60 -70v49q0 4 -19 4v17h56v-17q-11 0 -11 -4v-112h-18l-59 67v-47zM735 201q-63 -1 -63 67t64 68t65 -70
q-1 -28 -17 -46t-49 -19zM1180 334v-17q-9 0 -9 -14v-82q0 -4 9 -4v-16h-54v16q9 0 9 4v29l-23 -49h-22l-27 51v-31q0 -4 8 -4v-16h-47v16q8 0 8 4v82q0 14 -8 14v17h37l43 -84l37 84h39zM350 383q0 -4 19 -4v-19h-56v19q11 0 11 4v82q0 10 -11 10v19h29l59 -70v47
q0 4 -16 4v19h55v-19q-10 0 -10 -4v-111h-18l-62 68v-45zM375 674q65 0 65 -68t-63 -67q-35 0 -47 18q-17 18 -17 49t15 47q14 21 47 21zM455 1034v-16q-9 0 -9 -14v-82q0 -4 9 -4v-19h-54v19q11 0 11 4v28l-25 -51h-25l-24 53v-30q0 -4 6 -4v-19h-45v19q8 0 8 4v82
q0 14 -8 14v16h39l41 -84l37 84h39zM430 336v-43h-25q0 20 -6 20h-4v-90q0 -4 13 -4v-16h-62v16q12 0 12 4v90h-4q-6 0 -6 -20h-24v43h106zM1432 1112q0 -4 18 -4v-18h-57v18q10 0 10 4v82q0 12 -10 12v19h30l58 -72v49q0 4 -17 4v19h58v-19q-11 0 -11 -4v-112h-20l-59 67
v-45zM1454 1047q68 0 68 -69t-64 -69t-65 69q0 69 61 69zM1536 684v-18q-8 0 -8 -13v-82q0 -4 8 -4v-16h-55v16q10 0 10 2v29l-25 -47h-22l-27 51v-31q0 -4 8 -4v-16h-47v16q8 0 8 4v82q0 13 -8 13v18h39l41 -86l37 86h41zM1432 221q0 -4 18 -4v-16h-57v16q10 0 10 4v82
q0 12 -10 12v19h30l58 -70v47q0 4 -17 4v19h58v-19q-11 0 -11 -4v-110h-20l-59 67v-47zM917 1309v-33q0 -8 15 -8v-19h-64v19q13 0 13 4v90q0 4 -13 4v18h101v-45h-27q0 23 -4 23h-21v-33h19v8h22v-37h-22v9h-19zM1511 1384v-45h-26q0 23 -6 23h-4v-90q0 -4 12 -4v-19h-60

<glyph glyph-name=".notdef" horiz-adv-x="1835" 
d="M418 811v-41h-25v8h-18v-33q0 -8 14 -8v-16h-61v16q12 0 12 4v90q0 5 -12 5v18h100v-43h-10zM537 221q0 -4 18 -4v-16h-55v16q8 0 8 4v82q0 14 -8 14v17h28l60 -70v49q0 4 -19 4v17h56v-17q-11 0 -11 -4v-112h-18l-59 67v-47zM735 201q-63 -1 -63 67t64 68t65 -70
q-1 -28 -17 -46t-49 -19zM1180 334v-17q-9 0 -9 -14v-82q0 -4 9 -4v-16h-54v16q9 0 9 4v29l-23 -49h-22l-27 51v-31q0 -4 8 -4v-16h-47v16q8 0 8 4v82q0 14 -8 14v17h37l43 -84l37 84h39zM350 383q0 -4 19 -4v-19h-56v19q11 0 11 4v82q0 10 -11 10v19h29l59 -70v47
q0 4 -16 4v19h55v-19q-10 0 -10 -4v-111h-18l-62 68v-45zM375 674q65 0 65 -68t-63 -67q-35 0 -47 18q-17 18 -17 49t15 47q14 21 47 21zM455 1034v-16q-9 0 -9 -14v-82q0 -4 9 -4v-19h-54v19q11 0 11 4v28l-25 -51h-25l-24 53v-30q0 -4 6 -4v-19h-45v19q8 0 8 4v82
q0 14 -8 14v16h39l41 -84l37 84h39zM430 336v-43h-25q0 20 -6 20h-4v-90q0 -4 13 -4v-16h-62v16q12 0 12 4v90h-4q-6 0 -6 -20h-24v43h106zM1432 1112q0 -4 18 -4v-18h-57v18q10 0 10 4v82q0 12 -10 12v19h30l58 -72v49q0 4 -17 4v19h58v-19q-11 0 -11 -4v-112h-20l-59 67
v-45zM1454 1047q68 0 68 -69t-64 -69t-65 69q0 69 61 69zM1536 684v-18q-8 0 -8 -13v-82q0 -4 8 -4v-16h-55v16q10 0 10 2v29l-25 -47h-22l-27 51v-31q0 -4 8 -4v-16h-47v16q8 0 8 4v82q0 13 -8 13v18h39l41 -86l37 86h41zM1432 221q0 -4 18 -4v-16h-57v16q10 0 10 4v82
q0 12 -10 12v19h30l58 -70v47q0 4 -17 4v19h58v-19q-11 0 -11 -4v-110h-20l-59 67v-47zM917 1309v-33q0 -8 15 -8v-19h-64v19q13 0 13 4v90q0 4 -13 4v18h101v-45h-27q0 23 -4 23h-21v-33h19v8h22v-37h-22v9h-19zM1511 1384v-45h-26q0 23 -6 23h-4v-90q0 -4 12 -4v-19h-60
v19q13 0 13 4v90h-4q-7 0 -7 -23h-26v45h108zM1251 1272q0 -4 19 -4v-19h-58v19q9 0 9 4v82q0 12 -9 12v18h31l57 -69v47q0 4 -16 4v18h55v-18q-8 0 -8 -4v-113h-22l-58 70v-47zM1102 1384q65 0 65 -67q0 -29 -16 -49t-49 -21q-34 1 -50 21t-16 49t16 48t50 19zM815 1384
v-18q-10 0 -10 -12v-82q0 -4 10 -4v-19h-53v19q6 0 6 2v30l-20 -51h-25l-27 54v-31q0 -4 9 -4v-19h-46v19q9 0 9 4v82q0 12 -9 12v18h37l43 -86l35 86h41zM350 1272q0 -4 19 -4v-19h-56v19q11 0 11 4v82q0 12 -11 12v18h29l59 -69v47q0 4 -16 4v18h55v-18q-10 0 -10 -4v-113
h-18l-62 70v-47zM1466 485v19h50v-19q-11 0 -13 -6l-28 -51v-37q0 -4 12 -4v-16h-60v16q13 0 13 4v37l-29 51q-4 6 -12 6v19h55v-19h-6l12 -26l15 26h-9zM1497 819v-39h-24v8h-19v-32q0 -8 14 -8v-19h-61v19q12 0 12 4v90q0 4 -12 4v18h100v-45h-10zM387 1196v18h47v-18
q-8 0 -10 -6l-29 -51v-37q0 -4 13 -4v-19h-62v19q12 0 12 4v37l-26 51q-4 6 -13 6v18h56v-18h-8l14 -29l14 29h-8zM573 1366v18h45v-18q-8 0 -12 -6l-24 -53v-37q0 -4 12 -4v-17h-64v17q15 0 15 4v37l-31 53q-2 6 -8 6v18h53v-18h-8l16 -29l13 29h-7zM1286 315v19h49v-19
q-10 0 -12 -6l-29 -51v-37q0 -4 13 -4v-16h-60v16q13 0 13 4v37l-29 51q-4 6 -12 6v19h57v-19h-8l12 -26l14 26h-8zM958 291v-41h-22v10h-19v-35q0 -8 15 -8v-16h-64v16q13 0 13 4v92q0 4 -13 4v17h101v-43h-11zM401 811q0 20 -6 20h-20v-30h18v10h8zM735 219q29 0 29 48
t-26 48t-27 -48q0 -48 24 -48zM403 605q-1 48 -27 48t-26 -48t26 -48t27 48zM1458 930q26 0 25 48q1 48 -25 48t-26 -48t26 -48zM1076 1316q3 -48 28 -48t23 48q-3 48 -25 48q-29 0 -26 -48zM1481 819q0 23 -6 23h-21v-31h19v8h8zM942 291q0 22 -4 22h-21v-32h19v10h6z" />
    <glyph glyph-name=".null" horiz-adv-x="200" 
 />
    <glyph glyph-name="nonmarkingreturn" horiz-adv-x="708" 
 />
    <glyph glyph-name="space" unicode=" " horiz-adv-x="708" 
 />
    <glyph glyph-name="space" unicode="&#xa0;" horiz-adv-x="708" 
 />
    <glyph glyph-name="exclam" unicode="!" horiz-adv-x="541" 
d="M372 1600v-1145h-207v1145h207zM415 132q-1 -61 -43 -103t-102 -42t-102 42q-43 42 -43 103t43 103q42 42 102 42t102 -42t43 -103z" />
    <glyph glyph-name="quotedbl" unicode="&#x22;" horiz-adv-x="574" 
d="M342 920v677h207v-677h-207zM25 920v677h207v-677h-207z" />
    <glyph glyph-name="numbersign" unicode="#" horiz-adv-x="1705" 
d="M905 826h-84l-22 -88h84zM873 1033h84l102 410h211l-102 -410h411l-53 -207h-410l-22 -88h411l-53 -207h-410l-102 -411h-211l102 411h-84l-102 -411h-212l103 411h-411l53 207h410l22 88h-411l53 207h410l102 410h211z" />
    <glyph glyph-name="dollar" unicode="$" horiz-adv-x="958" 
d="M687 483q0 105 -116 172v-341q29 13 55 36q61 54 61 133zM271 1118q0 -105 116 -172v341q-29 -13 -54 -35q-62 -55 -62 -134zM571 0h-184v117q-119 23 -214 107t-123 251l212 68q17 -146 69 -192q26 -23 56 -37v414q-115 43 -209 126q-124 109 -124 263t125 265
q90 80 208 102v116h184v-116q119 -22 214 -106t123 -252l-212 -68q-17 146 -69 192q-26 23 -56 37v-414q115 -43 209 -126q124 -109 124 -263t-124 -264q-91 -81 -209 -103v-117z" />
    <glyph glyph-name="percent" unicode="%" horiz-adv-x="1263" 
d="M908 487q-30 -1 -50 -21t-20 -50t20 -50t50 -20q29 0 50 20t21 50t-21 50t-50 21zM1184 416q0 -114 -80 -194t-196 -81q-114 1 -194 81t-81 194q1 114 81 196q80 80 194 80t196 -80q80 -82 80 -196zM355 1040q-29 0 -49 -20t-21 -50q1 -30 21 -50t49 -21q29 1 50 21
t21 50t-21 50t-50 20zM630 970q0 -114 -80 -194t-195 -81q-115 1 -195 81t-80 194t80 194t195 81q115 -1 195 -81t80 -194zM1176 1290l-918 -1311l-170 118l917 1310z" />
    <glyph glyph-name="ampersand" unicode="&#x26;" horiz-adv-x="1340" 
d="M1118 779q132 -77 132 -245q0 -50 -35 -110q-54 -95 -176 -131q-22 -73 -112 -163q-147 -147 -353 -147q-206 1 -352 147t-147 352q0 206 143 359q86 84 158 93q-155 156 -155 310q-1 154 109 264t265 110t265 -109q62 -60 104 -191l-188 -74q-34 92 -72 130t-108 38
t-119 -48t-49 -120q0 -70 52 -125t94 -72q44 -17 178 -18v-199l-122 -1q-178 -35 -264 -129t-86 -217q0 -122 86 -208t208 -86t260 142q-28 23 -99 97q-47 43 -64 43h-1q-16 -2 -16 -19q0 -7 4 -15l-170 -115q-40 59 -40 124q0 64 30 117q66 114 211 114q95 1 197 -123
q62 -75 109 -76q47 0 63 35q4 9 4 19q0 32 -46 70z" />
    <glyph glyph-name="quotesingle" unicode="'" horiz-adv-x="458" 
d="M125 920v677h207v-677h-207z" />
    <glyph glyph-name="parenleft" unicode="(" horiz-adv-x="788" 
d="M296 800q0 -348 154 -542q91 -115 238 -186v-205q-254 88 -386 254q-202 252 -202 679t202 679q132 166 386 254v-209q-147 -68 -238 -182q-154 -194 -154 -542z" />
    <glyph glyph-name="parenright" unicode=")" horiz-adv-x="788" 
d="M688 800q0 -427 -202 -679q-132 -166 -386 -254v205q147 71 238 186q154 194 154 542t-154 542q-91 114 -238 182v209q254 -88 386 -254q202 -252 202 -679z" />
    <glyph glyph-name="asterisk" unicode="*" horiz-adv-x="932" 
d="M569 860h-207v170l-145 -111l-119 170l186 139l-186 140l119 170l145 -111v170h207v-169l144 110l119 -170l-186 -140l186 -139l-119 -170l-144 110v-169z" />
    <glyph glyph-name="plus" unicode="+" horiz-adv-x="1112" 
d="M452 505h-327v207h327v327h208v-327h327v-207h-327v-328h-208v328z" />
    <glyph glyph-name="comma" unicode="," horiz-adv-x="537" 
d="M438 278l-231 -480h-197l128 480h300z" />
    <glyph glyph-name="hyphen" unicode="-" horiz-adv-x="919" 
d="M125 712h668v-207h-668v207z" />
    <glyph glyph-name="hyphen" unicode="&#xad;" horiz-adv-x="919" 
d="M125 712h668v-207h-668v207z" />
    <glyph glyph-name="period" unicode="." horiz-adv-x="490" 
d="M390 132q0 -61 -42 -103t-102 -42t-103 42t-43 103t43 103t103 42t102 -42t42 -103z" />
    <glyph glyph-name="slash" unicode="/" horiz-adv-x="855" 
d="M674 1600h231l-725 -1600h-230z" />
    <glyph glyph-name="zero" unicode="0" horiz-adv-x="1289" 
d="M1213 543q-1 -235 -167 -401t-402 -167q-236 1 -402 167t-166 401v489q0 236 166 402t402 166t402 -166t167 -402v-489zM1001 1032q-1 147 -105 251t-252 104t-252 -104t-104 -251v-489q0 -148 104 -252t252 -104t252 104t105 252v489z" />
    <glyph glyph-name="one" unicode="1" horiz-adv-x="1427" 
d="M893 1600v-1600h-207v1330h-153l210 270h150z" />
    <glyph glyph-name="two" unicode="2" horiz-adv-x="1308" 
d="M946 1117q0 121 -86 206t-205 85t-199 -79t-98 -258l-207 75q32 208 149 326q147 148 355 148q209 0 355 -147t146 -355t-142 -360q-90 -96 -210 -186l-256 -192q-137 -102 -152 -172h760v-208h-1003q56 382 219 504t278 208q116 86 206 185t90 220z" />
    <glyph glyph-name="three" unicode="3" horiz-adv-x="1308" 
d="M798 1244q0 70 -48 118t-116 47q-68 0 -117 -47q-27 -28 -62 -122l-193 76q43 135 105 194q111 110 267 110t267 -111q110 -111 110 -265t-185 -300q89 -6 187 -101q143 -154 143 -361q0 -206 -146 -354t-355 -148q-208 0 -355 148q-117 118 -149 327l207 75
q18 -180 98 -259t199 -79t205 85t86 207t-86 214q-86 93 -261 126l-125 3v205q136 2 179 18t94 71q51 53 51 123z" />
    <glyph glyph-name="four" unicode="4" horiz-adv-x="1350" 
d="M828 639v494l-295 -494h295zM1035 1600v-961h141v-207h-141v-432h-207v432h-655l681 1168h181z" />
    <glyph glyph-name="five" unicode="5" horiz-adv-x="1314" 
d="M592 1180q86 0 190 -36q231 -79 344 -292q71 -132 71 -272q0 -87 -27 -174q-71 -232 -284 -347q-130 -69 -244 -69t-203 28q-186 57 -322 242l146 162q111 -164 238 -202q57 -18 129 -18t156 44q137 73 182 222q18 56 18 128t-45 157q-114 213 -382 213q-93 0 -260 -53
l-125 109l180 497v81h586v-207h-411l-79 -225q56 12 142 12z" />
    <glyph glyph-name="six" unicode="6" horiz-adv-x="1291" 
d="M708 1083q206 0 343 -137q166 -166 166 -402t-166 -402q-165 -166 -401 -167t-400 163t-164 450v3q0 283 154 499t415 510h272q-363 -376 -515 -613q90 96 296 96zM292 543q0 -148 104 -252t252 -104t252 104t105 252q-1 148 -105 252t-252 104t-252 -104t-104 -252z" />
    <glyph glyph-name="seven" unicode="7" horiz-adv-x="1304" 
d="M155 1393v207h995q-8 -326 -256 -604t-384 -472q-136 -193 -146 -524h-211q12 408 166 624t367 454t229 315h-760z" />
    <glyph glyph-name="eight" unicode="8" horiz-adv-x="1294" 
d="M630 1409q-68 1 -116 -47t-48 -118t50 -123q50 -54 82 -66t49 -15q17 3 48 15t82 66q51 53 51 123t-48 118t-117 47q-4 0 -11 -1h-10q-7 1 -12 1zM647 -20q-246 0 -393 148t-147 355q0 256 281 461q-135 146 -135 300q-1 154 109 265t268 111h33q158 0 268 -111t110 -265
t-146 -297q292 -208 292 -464q0 -207 -147 -355t-393 -148zM646 192q158 0 244 85t86 207t-84 212q-84 92 -245 125q-161 -33 -245 -125t-84 -212q0 -122 85 -207t243 -85z" />
    <glyph glyph-name="nine" unicode="9" horiz-adv-x="1291" 
d="M596 517q-206 0 -343 137q-166 166 -166 402t166 402q165 166 401 167t400 -163t164 -450v-3q0 -283 -154 -499t-415 -510h-272q363 376 515 613q-90 -96 -296 -96zM1012 1057q0 148 -104 252t-252 104t-252 -104t-105 -252q1 -148 105 -252t252 -104t252 104t104 252z
" />
    <glyph glyph-name="colon" unicode=":" horiz-adv-x="541" 
d="M415 701q-1 -61 -43 -103t-102 -42t-102 42q-43 42 -43 103t43 103q42 42 102 42t102 -42t43 -103zM415 132q-1 -61 -43 -103t-102 -42t-102 42q-43 42 -43 103t43 103q42 42 102 42t102 -42t43 -103z" />
    <glyph glyph-name="semicolon" unicode=";" horiz-adv-x="635" 
d="M431 701q0 -61 -43 -103q-42 -42 -102 -42t-102 42t-43 103q1 61 43 103t102 42t102 -42q43 -42 43 -103zM511 278l-231 -480h-197l128 480h300z" />
    <glyph glyph-name="semicolon" unicode="&#x37e;" horiz-adv-x="635" 
d="M431 701q0 -61 -43 -103q-42 -42 -102 -42t-102 42t-43 103q1 61 43 103t102 42t102 -42q43 -42 43 -103zM511 278l-231 -480h-197l128 480h300z" />
    <glyph glyph-name="less" unicode="&#x3c;" horiz-adv-x="1504" 
d="M1403 107l-1303 475l1303 474v-221l-697 -253l697 -254v-221z" />
    <glyph glyph-name="equal" unicode="=" horiz-adv-x="1112" 
d="M125 564h862v-207h-862v207zM125 860h862v-208h-862v208z" />
    <glyph glyph-name="greater" unicode="&#x3e;" horiz-adv-x="1504" 
d="M100 328l697 254l-697 253v221l1303 -474l-1303 -475v221z" />
    <glyph glyph-name="question" unicode="?" horiz-adv-x="1028" 
d="M518 132q0 -61 -43 -103t-103 -42t-102 42t-42 103t42 103t102 42t103 -42t43 -103zM127 1186q0 74 36 146q68 140 214 191q64 22 136 22t151 -38q140 -67 191 -212q21 -63 21 -135t-38 -152q-63 -130 -204 -239q-96 -85 -146 -190q-30 -62 -31 -123h-206q1 108 52 212
q80 167 238 286q127 124 127 212q0 32 -9 60q-24 66 -86 96q-35 17 -67 17q-111 0 -157 -95q-9 -19 -13 -57l-209 -68v67z" />
    <glyph glyph-name="at" unicode="@" horiz-adv-x="1643" 
d="M808 212q-150 0 -266 97t-117 261q1 164 117 265q116 102 271 102t198 -74v52h199l-2 -498v-3q0 -52 15 -52t41 36q57 81 57 248q-1 167 -127 293t-372 126t-370 -126q-126 -126 -126 -352q0 -225 146 -371t350 -146q141 0 242 63l142 -149q-193 -113 -384 -113
q-287 1 -492 205t-205 492t205 492t493 204q287 0 491 -205t204 -416t-109 -342q-90 -107 -199 -107q-24 0 -49 6q-139 29 -150 94q-53 -82 -203 -82zM824 766q-81 0 -138 -58t-57 -140t57 -138q56 -57 138 -57q82 1 130 49t59 93v108q-10 45 -59 94t-130 49z" />
    <glyph glyph-name="A" unicode="A" horiz-adv-x="1376" 
d="M744 1600l582 -1600h-220l-206 566h-424l-205 -566h-221l582 1600h112zM825 773l-137 375l-136 -375h273z" />
    <glyph glyph-name="B" unicode="B" horiz-adv-x="1126" 
d="M357 1393v-253h135q46 4 80 36t35 88t-37 92t-96 37h-117zM357 927v-719h203v3q64 3 164 107t100 252t-104 252t-252 105h-111zM474 1600q139 0 238 -98t99 -240q0 -141 -144 -175q105 -15 237 -148t132 -368t-160 -401t-316 -168v-2h-410v1600h324z" />
    <glyph glyph-name="C" unicode="C" horiz-adv-x="1642" 
d="M931 -17q-328 0 -567 239q-239 240 -239 578t239 578t567 240t612 -259l-155 -141q-214 190 -456 190t-420 -178t-178 -430t178 -431q178 -178 420 -178t456 190l155 -139q-284 -259 -612 -259z" />
    <glyph glyph-name="D" unicode="D" horiz-adv-x="1250" 
d="M1149 800q0 -338 -239 -579q-218 -219 -608 -221h-152v1600h152q390 -2 608 -221q239 -241 239 -579zM357 1389v-1179q247 0 415 168t168 422q0 252 -178 431q-158 158 -405 158z" />
    <glyph glyph-name="E" unicode="E" horiz-adv-x="1137" 
d="M1012 1600v-207h-655v-489h655v-207h-655v-489h655v-208h-862v1600h862z" />
    <glyph glyph-name="F" unicode="F" horiz-adv-x="1045" 
d="M920 1600v-207h-563v-489h563v-207h-563v-697h-207v1600h770z" />
    <glyph glyph-name="G" unicode="G" horiz-adv-x="1668" 
d="M932 -17q-328 0 -568 239q-239 240 -239 578t239 578t567 240t612 -259l-155 -141q-214 190 -456 190t-420 -178t-178 -430t178 -431q178 -178 430 -178q216 0 358 114v483h207v-569q-247 -236 -575 -236z" />
    <glyph glyph-name="H" unicode="H" horiz-adv-x="1208" 
d="M357 662v-662h-207v1600h207v-731h494v731h207v-1600h-207v662h-494z" />
    <glyph glyph-name="I" unicode="I" 
d="M377 1600v-1600h-207v1600h207z" />
    <glyph glyph-name="J" unicode="J" horiz-adv-x="937" 
d="M781 343q0 -166 -94 -261q-93 -95 -231 -95q-138 -1 -234 97t-97 260l164 64q27 -152 65 -183t92 -31h4q56 0 90 34t34 124v1248h207v-1257z" />
    <glyph glyph-name="K" unicode="K" horiz-adv-x="1206" 
d="M357 0h-207v1600h207v-504l378 504h262l-491 -658l611 -942h-251l-495 772l-14 -17v-755z" />
    <glyph glyph-name="L" unicode="L" horiz-adv-x="1019" 
d="M150 0v1600h207v-1392h572v-208h-779z" />
    <glyph glyph-name="M" unicode="M" horiz-adv-x="1812" 
d="M1613 1600v-1600h-207v1156l-499 -864l-501 864v-1156h-207v1600h189l519 -897l517 897h189z" />
    <glyph glyph-name="N" unicode="N" horiz-adv-x="1357" 
d="M150 1600h189l660 -1142v1142h208v-1600h-181l-669 1156v-1156h-207v1600z" />
    <glyph glyph-name="O" unicode="O" horiz-adv-x="1889" 
d="M944 1412q-254 0 -432 -178t-178 -432q0 -253 179 -432t431 -179t432 179q178 179 178 432q0 254 -178 432t-432 178zM1763 802q0 -339 -240 -579t-579 -240t-579 240t-240 579t240 579t579 240t579 -240t240 -579z" />
    <glyph glyph-name="P" unicode="P" horiz-adv-x="1145" 
d="M357 1392v-672h189q138 0 236 98t99 238q-1 140 -99 238t-236 98h-189zM357 512v-512h-207v1600h454q193 -26 326 -159q159 -160 159 -385q0 -224 -159 -384t-384 -160h-189z" />
    <glyph glyph-name="Q" unicode="Q" horiz-adv-x="1889" 
d="M1466 -231q-54 0 -106 14t-158 83q-115 60 -150 60t-72 -21t-51 -73q-2 -5 -7 -66h-209q9 95 21 140t47 92q-236 45 -416 225q-240 240 -240 579t240 579t579 240t579 -240t240 -579t-240 -579q-108 -108 -237 -168q23 -14 48 -32q91 -48 112 -48q57 0 72 54q3 9 7 74
h209q-7 -98 -16 -130q-32 -111 -133 -167q-65 -37 -119 -37zM944 1412q-254 0 -432 -178t-178 -432q0 -253 179 -432t431 -179t432 179q178 179 178 432q0 254 -178 432t-432 178z" />
    <glyph glyph-name="R" unicode="R" horiz-adv-x="1171" 
d="M357 512v-512h-207v1600h454q193 -26 326 -159q159 -160 159 -385t-159 -385q-110 -110 -168 -124l355 -547h-251l-320 512h-189zM357 1392v-672h189q138 0 236 98t99 238q-1 140 -99 238t-236 98h-189z" />
    <glyph glyph-name="S" unicode="S" horiz-adv-x="1101" 
d="M176 1244q0 154 110 264t264 110q155 0 265 -109q62 -60 104 -191l-188 -74q-35 92 -73 130t-108 38t-118 -48q-49 -48 -49 -119q0 -69 52 -121t149 -97q188 -61 327 -199t139 -345t-146 -353t-354 -147q-206 0 -352 147q-117 117 -148 323l201 73q19 -177 99 -257
t201 -80t207 86q86 85 86 207t-84 206t-203 133q-169 57 -275 163t-106 260z" />
    <glyph glyph-name="T" unicode="T" horiz-adv-x="1054" 
d="M631 1393v-1393h-208v1393h-373v207h954v-207h-373z" />
    <glyph glyph-name="U" unicode="U" horiz-adv-x="1388" 
d="M1030 1600h208v-1127q-27 -193 -159 -326q-160 -160 -385 -160q-224 -1 -384 159t-160 385v1069h208v-1069q0 -139 98 -237t238 -98t238 98t98 237v1069z" />
    <glyph glyph-name="V" unicode="V" horiz-adv-x="1376" 
d="M631 0l-581 1600h220l417 -1147l418 1147h221l-583 -1600h-112z" />
    <glyph glyph-name="W" unicode="W" horiz-adv-x="1686" 
d="M739 1600h207v-1301q10 -17 34 -42q65 -62 154 -62q89 -1 154 63t65 153v1189h208v-1197q-4 -169 -127 -293q-124 -124 -300 -123q-176 0 -291 124q-117 -124 -293 -124t-299 123t-126 293v1197h207v-1189q0 -89 65 -153t155 -63q90 0 153 62q25 25 34 42v1301z" />
    <glyph glyph-name="X" unicode="X" horiz-adv-x="1347" 
d="M50 0l503 873l-419 727h238l300 -521l302 521h238l-421 -727l505 -873h-238l-386 667l-384 -667h-238z" />
    <glyph glyph-name="Y" unicode="Y" horiz-adv-x="1414" 
d="M810 0h-207v642l-553 958h238l418 -724l419 724h239l-554 -958v-642z" />
    <glyph glyph-name="Z" unicode="Z" horiz-adv-x="1463" 
d="M196 1393v207h1116l-805 -1392h760v-208h-1117l804 1393h-758z" />
    <glyph glyph-name="bracketleft" unicode="[" horiz-adv-x="659" 
d="M332 -138h202v-207h-409v1941h409v-207h-202v-1527z" />
    <glyph glyph-name="backslash" unicode="\" horiz-adv-x="853" 
d="M903 0h-230l-723 1596h231z" />
    <glyph glyph-name="bracketright" unicode="]" horiz-adv-x="659" 
d="M327 1389h-202v207h409v-1941h-409v207h202v1527z" />
    <glyph glyph-name="asciicircum" unicode="^" horiz-adv-x="1078" 
d="M623 1596l355 -615h-239l-199 345l-200 -345h-240l356 615h167z" />
    <glyph glyph-name="underscore" unicode="_" horiz-adv-x="1094" 
d="M25 96h1044v-206h-1044v206z" />
    <glyph glyph-name="grave" unicode="`" horiz-adv-x="669" 
d="M569 1128h-197l-272 279h252z" />
    <glyph glyph-name="a" unicode="a" horiz-adv-x="1401" 
d="M1042 1029h208v-1030h-208v129q-150 -155 -348 -155q-236 1 -402 167t-167 402q1 236 167 402t402 167q198 0 348 -154v72zM694 898q-148 0 -252 -104t-105 -252q1 -148 105 -252t252 -104t252 104q78 79 96 176v152q-18 97 -96 176q-104 104 -252 104z" />
    <glyph glyph-name="b" unicode="b" horiz-adv-x="1400" 
d="M357 0h-207v1600h207v-642q150 155 349 155q236 0 402 -167t167 -403q-1 -236 -167 -403t-402 -167q-199 0 -349 155v-128zM706 187q148 0 252 104q104 103 105 251q-1 148 -105 253t-252 105t-253 -105q-77 -77 -96 -172v-161q19 -94 96 -171q105 -104 253 -104z" />
    <glyph glyph-name="c" unicode="c" horiz-adv-x="1262" 
d="M660 -27q-236 0 -403 167t-167 403t167 403t403 167t402 -167q34 -34 110 -137l-207 -76q-40 49 -54 63q-103 104 -251 104t-252 -104t-105 -252q1 -148 105 -252t252 -105q148 0 252 104q13 14 53 62l207 -74q-76 -105 -110 -139q-166 -167 -402 -167z" />
    <glyph glyph-name="d" unicode="d" horiz-adv-x="1401" 
d="M1043 1600h208v-1600h-208v128q-150 -155 -349 -155q-236 0 -402 167t-167 403q1 236 167 403t402 167q199 0 349 -155v642zM694 900q-148 0 -252 -105t-105 -253q1 -148 105 -251q104 -104 252 -104t252 104q79 79 97 175v153q-18 97 -97 176q-104 105 -252 105z" />
    <glyph glyph-name="e" unicode="e" horiz-adv-x="1262" 
d="M646 900q-134 0 -238 -104t-105 -240q0 -134 27 -170l486 487q-36 27 -170 27zM664 187q142 0 248 104q13 14 53 62l207 -74q-76 -105 -110 -139q-166 -167 -402 -167t-403 167t-167 403t167 403t403 167t402 -167q10 -10 57 -63l-649 -650q52 -46 194 -46z" />
    <glyph glyph-name="f" unicode="f" horiz-adv-x="626" 
d="M390 823v-824h-208v824h-92v207h92v185q7 128 98 220q94 88 218 88q62 0 188 -43l-69 -196q-89 37 -121 37t-68 -34t-38 -80v-177h185v-207h-185z" />
    <glyph glyph-name="g" unicode="g" horiz-adv-x="1405" 
d="M1043 1029h208v-765q0 -300 -163 -463q-167 -147 -403 -147t-403 147q-34 34 -109 138l206 74q40 -48 54 -62q105 -104 252 -104q247 0 342 324q-97 -188 -333 -188t-402 162t-167 398q1 237 167 403t402 166q199 0 349 -154v71zM694 900q-148 0 -252 -105t-105 -253
q1 -148 105 -252t252 -104t252 104q77 77 96 170v163q-19 95 -96 172q-104 105 -252 105z" />
    <glyph glyph-name="h" unicode="h" horiz-adv-x="1125" 
d="M150 1600h208v-682q87 167 252 167q166 -1 264 -119t101 -297v-669h-207v661q0 89 -50 153t-170 63q-119 0 -190 -138v-739h-208v1600z" />
    <glyph glyph-name="i" unicode="i" horiz-adv-x="541" 
d="M416 1307q0 -61 -43 -103t-103 -42t-102 42q-43 42 -43 103t43 103q42 42 102 42t103 -42t43 -103zM374 1029v-1029h-207v1029h207z" />
    <glyph glyph-name="j" unicode="j" horiz-adv-x="561" 
d="M410 1307q0 -61 -43 -103t-103 -42t-102 42q-43 42 -43 103t43 103q42 42 102 42t103 -42t43 -103zM161 60v969h207v-967q0 -253 -319 -278v206q112 12 112 70z" />
    <glyph glyph-name="k" unicode="k" horiz-adv-x="944" 
d="M358 0h-208v1415h208v-582l160 196h267l-279 -344l388 -685h-247l-280 513l-9 -11v-502z" />
    <glyph glyph-name="l" unicode="l" horiz-adv-x="508" 
d="M358 1601v-1601h-208v1601h208z" />
    <glyph glyph-name="m" unicode="m" horiz-adv-x="1418" 
d="M150 1029h207v-96q61 151 231 151t191 -172q49 172 269 172t219 -265v-819h-208v724q0 152 -123 152q-51 0 -88 -36t-37 -242v-598h-207l1 724q0 152 -124 152q-51 0 -85 -34t-39 -166v-676h-207v1029z" />
    <glyph glyph-name="n" unicode="n" horiz-adv-x="1139" 
d="M358 0h-208v1029h208v-120q65 176 261 176q167 -1 265 -119t102 -297v-669h-207v661q0 89 -65 153q-64 64 -154 63q-90 0 -155 -62q-36 -37 -47 -62v-753z" />
    <glyph glyph-name="o" unicode="o" horiz-adv-x="1318" 
d="M302 542q0 -148 104 -251q104 -104 253 -104t253 104q104 103 104 251t-104 253t-253 105t-253 -105t-104 -253zM660 1113q236 0 402 -167t166 -403t-166 -403t-402 -167t-403 167t-167 403t167 403t403 167z" />
    <glyph glyph-name="p" unicode="p" horiz-adv-x="1375" 
d="M357 -346h-207v1375h207v-93q150 176 349 176q236 0 402 -166t167 -403q-1 -236 -167 -403t-402 -167q-199 0 -349 155v-474zM706 186q148 0 252 104t105 252q-1 148 -105 253t-252 105t-252 -105q-78 -77 -97 -172v-161q19 -95 97 -172q104 -104 252 -104z" />
    <glyph glyph-name="q" unicode="q" horiz-adv-x="1376" 
d="M1018 1029h208v-1375h-208v474q-150 -155 -349 -155q-237 0 -403 167t-166 403q0 237 166 403t403 166q199 0 349 -154v71zM669 900q-149 0 -253 -105t-104 -253t104 -252t253 -104q148 0 252 104q79 79 97 176v153q-18 97 -97 176q-104 105 -252 105z" />
    <glyph glyph-name="r" unicode="r" horiz-adv-x="693" 
d="M357 0h-207v1029h207v-139q116 157 285 165v-215q-113 -6 -180 -73q-101 -100 -105 -238v-529z" />
    <glyph glyph-name="s" unicode="s" horiz-adv-x="882" 
d="M570 309q0 53 -30 83t-113 82q-112 61 -159 108q-82 82 -82 198t82 198t198 82t193 -78q55 -55 70 -123l-201 -58q-8 25 -20 38t-42 13t-52 -22t-21 -51q0 -29 20 -49t87 -63q124 -68 180 -124q97 -99 97 -235q-1 -136 -97 -234t-234 -97q-138 0 -234 98q-67 67 -88 167
l206 44q20 -101 116 -101q52 0 88 36t36 88z" />
    <glyph glyph-name="t" unicode="t" horiz-adv-x="758" 
d="M275 1029v386h207v-386h185v-207h-185v-822h-207v822h-185v207h185z" />
    <glyph glyph-name="u" unicode="u" horiz-adv-x="1162" 
d="M582 -14q-190 0 -310 119q-119 119 -122 298v626h208v-618q0 -89 65 -153t158 -64t159 64t65 153v618h207v-626q-4 -179 -122 -298t-308 -119z" />
    <glyph glyph-name="v" unicode="v" horiz-adv-x="1188" 
d="M541 0l-491 1029h234l309 -668l310 668h234l-492 -1029h-104z" />
    <glyph glyph-name="w" unicode="w" horiz-adv-x="1418" 
d="M604 1029h207v-707q0 -56 37 -92t88 -36q123 0 123 153v682h208v-721q-5 -132 -99 -227t-232 -95t-227 96q-91 -96 -229 -96t-232 95t-98 227v721h207v-682q0 -153 124 -153q51 0 85 34t38 77v724z" />
    <glyph glyph-name="x" unicode="x" horiz-adv-x="1031" 
d="M906 1029l-272 -470l322 -559h-239l-201 346l-200 -346h-241l323 559l-271 470h239l150 -257l149 257h241z" />
    <glyph glyph-name="y" unicode="y" horiz-adv-x="1139" 
d="M403 -346h-219l274 575l-383 800h233l261 -563l261 563h232z" />
    <glyph glyph-name="z" unicode="z" horiz-adv-x="1125" 
d="M195 822v207h780l-469 -821h459v-208h-815l468 822h-423z" />
    <glyph glyph-name="braceleft" unicode="{" horiz-adv-x="941" 
d="M413 231q0 191 -125 271h-163v247h163q125 80 125 271q0 36 -9 90t-9 120q0 228 168 323q74 43 156 43q22 0 97 -12v-195q-84 14 -106 14q-22 1 -60 -21q-64 -35 -63 -173q0 -25 2 -49q15 -73 15 -153t-21 -162q-48 -170 -117 -222q69 -47 117 -217q21 -82 21 -162
t-15 -153q-2 -25 -2 -65q0 -120 71 -160q32 -18 54 -18t104 10v-191q-75 -12 -97 -12q-82 0 -156 43q-168 95 -168 327q0 64 9 117t9 89z" />
    <glyph glyph-name="bar" unicode="|" horiz-adv-x="507" 
d="M357 1596v-1941h-207v1941h207z" />
    <glyph glyph-name="braceright" unicode="}" horiz-adv-x="941" 
d="M528 1020q0 -192 125 -271h163v-247h-163q-125 -79 -125 -271q0 -36 4 -73q14 -69 14 -136q0 -229 -168 -324q-74 -43 -156 -43q-22 0 -97 12v191q81 -10 103 -10t62 22t52 69t12 87t-2 65q-15 73 -15 153t21 162q47 170 117 217q-70 52 -117 222q-21 82 -21 162t15 153
q2 24 2 64t-12 88t-52 70q-38 22 -60 21q-22 0 -105 -14v195q75 12 97 12q82 0 156 -43q168 -95 168 -326q0 -63 -9 -117t-9 -90z" />
    <glyph glyph-name="asciitilde" unicode="~" horiz-adv-x="1326" 
d="M912 816h9q41 13 58 56q9 23 9 120l213 -33q-10 -111 -31 -165q-53 -129 -181 -172q-33 -10 -71 -10q-113 0 -280 96t-228 95h-7q-41 -13 -59 -55q-9 -26 -12 -121l-207 33q5 110 27 165q53 129 183 172q32 10 70 10q114 1 280 -95t227 -96z" />
    <glyph glyph-name="exclamdown" unicode="&#xa1;" horiz-adv-x="541" 
d="M168 -584v1145h207v-1145h-207zM125 884q1 61 43 103t102 42t102 -42q43 -42 43 -103t-43 -103q-42 -42 -102 -42t-102 42t-43 103z" />
    <glyph glyph-name="cent" unicode="&#xa2;" horiz-adv-x="1110" 
d="M305 1044q0 -146 127 -247l1 481q-128 -88 -128 -234zM639 425h-207v158q-89 16 -194 122q-139 137 -139 333t139 335q105 105 194 122v158h207v-142q129 -2 266 -139q27 -28 104 -128l-199 -75q-41 49 -51 60q-76 75 -120 76v-532q58 1 170 136l199 -73
q-76 -102 -103 -130q-137 -137 -266 -139v-142z" />
    <glyph glyph-name="sterling" unicode="&#xa3;" horiz-adv-x="1214" 
d="M631 209q26 0 104 -11t148 -11t192 31l39 -204q-140 -34 -228 -34t-176 20t-145 19t-121 -23t-193 -88l-151 179q156 138 182 170q85 101 87 254h-219v206h173q-1 3 -41 82q-125 202 -125 366q0 165 113 299t313 135q150 0 270 -99q133 -114 149 -287q4 -24 4 -47
q0 -71 -48 -182l-193 65q31 89 31 113q0 113 -68 171q-68 57 -158 57q-89 0 -145 -68q-57 -68 -57 -153t65 -223q83 -132 107 -229h194v-206l-159 -2q0 -227 -122 -352q81 52 178 52z" />
    <glyph glyph-name="currency" unicode="&#xa4;" horiz-adv-x="1214" 
d="M378 1115q0 -78 46 -136q10 -13 22 -25q66 -66 161 -67q95 0 162 67q12 11 21 25q46 58 46 142t-67 157q-73 66 -176 66t-169 -92q-46 -59 -46 -137zM608 1551q156 0 228 -60l132 132l146 -147l-132 -132q61 -72 61 -228t-61 -229l132 -132l-146 -147l-132 132
q-72 -60 -228 -60t-230 60l-131 -132l-147 147l132 132q-60 73 -60 229t60 228l-132 132l147 147l131 -132q74 60 230 60z" />
    <glyph glyph-name="yen" unicode="&#xa5;" horiz-adv-x="1414" 
d="M1138 760v-208h-328v-88h328v-207h-328v-257h-207v257h-327v207h327v88h-327v208h259l-485 840h238l418 -724l419 724h239l-486 -840h260z" />
    <glyph glyph-name="brokenbar" unicode="&#xa6;" horiz-adv-x="507" 
d="M357 560v-905h-207v905h207zM357 1596v-905h-207v905h207z" />
    <glyph glyph-name="section" unicode="&#xa7;" horiz-adv-x="1205" 
d="M607 1743q155 0 264 -109q62 -59 104 -190l-188 -74q-34 92 -61 120q-48 48 -118 48t-119 -48t-49 -118t52 -122t149 -96q187 -61 325 -199q138 -139 139 -345q0 -206 -133 -365q0 -152 -109 -262t-264 -110t-265 109q-62 59 -103 190l187 74q34 -92 72 -130t108 -38
q69 0 118 48t49 118q1 70 -51 122t-150 96q-188 61 -326 199q-138 139 -138 345t133 365q-1 153 109 263t265 109zM895 497q5 -1 5 117t-84 202t-203 133q-169 56 -270 158l-31 13h-1q-6 0 -6 -118t84 -202t203 -132q169 -57 271 -158l31 -13h1z" />
    <glyph glyph-name="dieresis" unicode="&#xa8;" horiz-adv-x="716" 
d="M691 1294q0 -60 -43 -103q-42 -42 -102 -42t-102 42q-42 43 -43 103q1 60 43 102t102 42t102 -42q43 -42 43 -102zM315 1294q0 -60 -43 -103q-42 -42 -102 -42t-102 42q-42 43 -43 103q1 60 43 102t102 42t102 -42q43 -42 43 -102z" />
    <glyph glyph-name="copyright" unicode="&#xa9;" horiz-adv-x="1433" 
d="M714 1042q-176 0 -302 -124q-124 -124 -124 -301q0 -176 124 -301t302 -125q176 0 300 125t125 301q-1 177 -125 301t-300 124zM1328 617q0 -255 -180 -435t-434 -180t-435 180q-180 180 -180 435t180 435q181 180 435 180t434 -180t180 -435zM724 250q-152 0 -259 108
t-107 258q0 152 107 260t259 107q152 0 259 -107q22 -22 91 -118l-181 -67q-37 47 -44 54q-51 51 -125 51t-126 -52t-53 -127q1 -75 53 -127t126 -52t126 52q7 7 43 52l181 -66q-69 -96 -91 -118q-107 -108 -259 -108z" />
    <glyph glyph-name="ordfeminine" unicode="&#xaa;" horiz-adv-x="1019" 
d="M956 1347h157v-707h-779v157h622v550zM730 1551h138v-618h-138v77q-99 -93 -242 -93t-253 100q-110 99 -110 241t110 242t253 100t242 -92v43zM500 1472q-98 0 -166 -62q-69 -62 -69 -152q0 -88 69 -150q68 -62 166 -63q98 0 158 55t72 113v91q-12 58 -72 113t-158 55z
" />
    <glyph glyph-name="guillemotleft" unicode="&#xab;" horiz-adv-x="1222" 
d="M100 489l543 581v-278l-283 -303l283 -304v-280zM578 489l543 581v-278l-283 -303l283 -304v-280z" />
    <glyph glyph-name="registered" unicode="&#xae;" horiz-adv-x="1208" 
d="M605 587q-209 0 -357 148q-148 149 -148 357t148 356t356 148t356 -148t148 -356q0 -304 -292 -457q-92 -48 -211 -48zM387 1338q-111 -96 -111 -246q0 -149 111 -247v493zM608 763q26 0 37 -1l-64 99h-19v-96q20 -2 46 -2zM562 1261v-223h44q46 0 79 32t33 80
q0 46 -33 78t-79 33h-44zM932 1092q0 136 -96 232l-14 14q71 -80 71 -194t-84 -199q-44 -45 -44 -49t3 -4h2l39 -61q4 6 27 28q96 97 96 233z" />
    <glyph glyph-name="macron" unicode="&#xaf;" horiz-adv-x="717" 
d="M75 1437h567v-207h-567v207z" />
    <glyph glyph-name="degree" unicode="&#xb0;" horiz-adv-x="849" 
d="M424 1407q-36 0 -60 -25q-25 -24 -25 -60t25 -61q24 -25 60 -25t61 25t25 61t-25 60q-25 25 -61 25zM699 1321q0 -114 -80 -194t-194 -80q-115 0 -195 80t-80 194q0 115 80 195t195 80q114 0 194 -80t80 -195z" />
    <glyph glyph-name="plusminus" unicode="&#xb1;" horiz-adv-x="1110" 
d="M452 207v296h-327v207h327v327h206v-327h327v-207h-327v-296h327v-207h-860v207h327z" />
    <glyph glyph-name="uni00B2" unicode="&#xb2;" horiz-adv-x="979" 
d="M645 1280q-1 58 -45 100q-44 41 -107 41t-105 -38t-57 -176l-205 69q27 163 111 241q106 99 256 99t256 -98t106 -236t-103 -239q-60 -61 -219 -135t-163 -137h485v-193h-730q1 222 135 329t207 158t125 104t53 111z" />
    <glyph glyph-name="uni00B3" unicode="&#xb3;" horiz-adv-x="979" 
d="M549 1357q-1 29 -21 47t-50 18q-79 0 -95 -112l-190 70q40 119 87 161q84 75 200 75t198 -76t82 -183q0 -136 -136 -166q98 -21 164 -87t66 -204t-106 -236t-256 -98t-256 99q-84 78 -111 242l206 69q15 -139 57 -177t105 -38t107 41t44 100q0 58 -46 130t-146 90l-113 2
v90l118 1q42 15 67 39t25 103z" />
    <glyph glyph-name="acute" unicode="&#xb4;" horiz-adv-x="669" 
d="M317 1407h252l-272 -279h-197z" />
    <glyph glyph-name="mu" unicode="&#xb5;" horiz-adv-x="1110" 
d="M547 -6q-172 0 -190 67v-404h-207v1372h207v-720q8 -18 36 -46q65 -62 154 -62t154 64q42 41 54 84v680h205v-1027h-205v79q-90 -87 -208 -87z" />
    <glyph glyph-name="paragraph" unicode="&#xb6;" horiz-adv-x="1222" 
d="M878 1474v-1799h-207v919h-78q-224 0 -383 159t-159 384t159 384q132 132 326 159h15v1h646v-207h-41v-1799h-207v1799h-71z" />
    <glyph glyph-name="periodcentered" unicode="&#xb7;" horiz-adv-x="708" 
d="M344 697q0 -52 -36 -87q-36 -36 -86 -36q-51 0 -87 36q-37 36 -37 87q0 52 37 88t87 35q51 0 86 -35q36 -36 36 -88z" />
    <glyph glyph-name="periodcentered" unicode="&#x2219;" horiz-adv-x="708" 
d="M344 697q0 -52 -36 -87q-36 -36 -86 -36q-51 0 -87 36q-37 36 -37 87q0 52 37 88t87 35q51 0 86 -35q36 -36 36 -88z" />
    <glyph glyph-name="cedilla" unicode="&#xb8;" horiz-adv-x="418" 
d="M393 -186q0 -43 -31 -81q-63 -76 -188 -76q-58 0 -149 15l35 126q57 -26 78 -26t26 1q31 4 40 35q3 7 3 15q0 34 -93 64l48 130h149l-23 -61q105 -54 105 -142z" />
    <glyph glyph-name="uni00B9" unicode="&#xb9;" horiz-adv-x="1081" 
d="M713 1596v-1026h-208v796h-137l194 230h151z" />
    <glyph glyph-name="ordmasculine" unicode="&#xba;" horiz-adv-x="931" 
d="M956 1347h157v-707h-779v157h622v550zM230 1258q0 -88 69 -152q69 -62 167 -62t166 62q69 62 69 152q0 88 -69 151q-68 63 -166 63t-167 -63t-69 -151zM466 1600q156 0 265 -100q110 -100 110 -242t-110 -242q-109 -100 -265 -100t-266 100t-110 242t110 242t266 100z
" />
    <glyph glyph-name="guillemotright" unicode="&#xbb;" horiz-adv-x="1222" 
d="M100 -95v280l283 304l-283 303v278l543 -581zM578 -95v280l283 304l-283 303v278l543 -581z" />
    <glyph glyph-name="questiondown" unicode="&#xbf;" horiz-adv-x="1028" 
d="M485 884q0 61 43 103q42 42 102 42t102 -42t43 -103q-1 -61 -43 -103t-102 -42t-102 42q-43 42 -43 103zM876 -170q0 -74 -36 -146q-68 -140 -214 -191q-64 -22 -136 -22t-151 38q-140 67 -191 212q-21 63 -21 135t38 152q63 130 204 239q96 85 146 190q30 62 31 123h206
q-1 -108 -52 -212q-80 -167 -238 -286q-127 -124 -127 -212q0 -32 9 -60q24 -66 86 -96q36 -17 68 -17q111 0 156 95q9 19 13 57l209 68v-67z" />
    <glyph glyph-name="Agrave" unicode="&#xc0;" horiz-adv-x="1376" 
d="M744 1600l582 -1600h-220l-206 566h-424l-205 -566h-221l582 1600h112zM825 773l-137 375l-136 -375h273zM844 1699h-197l-272 279h252z" />
    <glyph glyph-name="Aacute" unicode="&#xc1;" horiz-adv-x="1376" 
d="M744 1600l582 -1600h-220l-206 566h-424l-205 -566h-221l582 1600h112zM825 773l-137 375l-136 -375h273zM749 1978h252l-272 -279h-197z" />
    <glyph glyph-name="Acircumflex" unicode="&#xc2;" horiz-adv-x="1376" 
d="M744 1600l582 -1600h-220l-206 566h-424l-205 -566h-221l582 1600h112zM825 773l-137 375l-136 -375h273zM778 1749l-92 82l-89 -82h-219l233 238h147l241 -238h-221z" />
    <glyph glyph-name="Atilde" unicode="&#xc3;" horiz-adv-x="1376" 
d="M744 1600l582 -1600h-220l-206 566h-424l-205 -566h-221l582 1600h112zM825 773l-137 375l-136 -375h273zM801 1888v-1q30 1 30 33t-13 75h186q-38 -220 -147 -252q-28 -8 -56 -8q-73 0 -133 57t-88 57h-4q-30 -2 -30 -33t14 -72h-187q39 220 149 252q28 8 56 8
q73 0 135 -58t88 -58z" />
    <glyph glyph-name="Adieresis" unicode="&#xc4;" horiz-adv-x="1376" 
d="M744 1600l582 -1600h-220l-206 566h-424l-205 -566h-221l582 1600h112zM825 773l-137 375l-136 -375h273zM1021 1864q0 -60 -43 -102q-42 -42 -102 -42t-102 42t-43 102q1 60 43 103q42 42 102 42t102 -42q43 -43 43 -103zM645 1864q0 -60 -43 -102q-42 -42 -102 -42
t-102 42t-43 102q1 60 43 103q42 42 102 42t102 -42q43 -43 43 -103z" />
    <glyph glyph-name="Aring" unicode="&#xc5;" horiz-adv-x="1376" 
d="M478 1794q0 86 62 149q62 62 148 62q88 0 150 -62q62 -63 61 -149t-51 -137t-101 -65l579 -1592h-220l-206 566h-424l-205 -566h-221l579 1592q-50 14 -89 54q-62 62 -62 148zM691 1851q-59 0 -59 -59q0 -22 16 -38t40 -16q25 0 41 16t16 40q0 26 -16 42t-38 15zM825 773
l-137 375l-136 -375h273z" />
    <glyph glyph-name="AE" unicode="&#xc6;" horiz-adv-x="1715" 
d="M729 773v255l-110 -255h110zM1591 1600v-207h-655v-489h655v-207h-655v-489h655v-208h-862v566h-194l-242 -566h-253l689 1548v52h862z" />
    <glyph glyph-name="Ccedilla" unicode="&#xc7;" horiz-adv-x="1642" 
d="M832 -177q0 34 -93 64l41 111q-236 44 -416 224q-239 240 -239 578t239 578t567 240t612 -259l-155 -141q-214 190 -456 190t-420 -178t-178 -430t178 -431q178 -178 420 -178t456 190l155 -139q-284 -259 -601 -259h-19l-10 -27q105 -54 105 -142q0 -43 -31 -81
q-63 -76 -188 -76q-58 0 -149 15l35 126q57 -26 78 -26t26 1q31 4 40 35q3 7 3 15z" />
    <glyph glyph-name="Egrave" unicode="&#xc8;" horiz-adv-x="1137" 
d="M1012 1600v-207h-655v-489h655v-207h-655v-489h655v-208h-862v1600h862zM737 1699h-197l-272 279h252z" />
    <glyph glyph-name="Eacute" unicode="&#xc9;" horiz-adv-x="1137" 
d="M1012 1600v-207h-655v-489h655v-207h-655v-489h655v-208h-862v1600h862zM642 1978h252l-272 -279h-197z" />
    <glyph glyph-name="Ecircumflex" unicode="&#xca;" horiz-adv-x="1137" 
d="M1012 1600v-207h-655v-489h655v-207h-655v-489h655v-208h-862v1600h862zM671 1749l-92 82l-89 -82h-219l233 238h147l241 -238h-221z" />
    <glyph glyph-name="Edieresis" unicode="&#xcb;" horiz-adv-x="1137" 
d="M1012 1600v-207h-655v-489h655v-207h-655v-489h655v-208h-862v1600h862zM914 1864q0 -60 -43 -102t-103 -42t-102 42t-42 102t42 103q42 42 102 42t103 -42q43 -43 43 -103zM538 1864q0 -60 -43 -102t-103 -42t-102 42t-42 102t42 103q42 42 102 42t103 -42
q43 -43 43 -103z" />
    <glyph glyph-name="Igrave" unicode="&#xcc;" 
d="M377 1600v-1600h-207v1600h207zM430 1699h-197l-272 279h252z" />
    <glyph glyph-name="Iacute" unicode="&#xcd;" 
d="M377 1600v-1600h-207v1600h207zM334 1978h252l-272 -279h-197z" />
    <glyph glyph-name="Icircumflex" unicode="&#xce;" 
d="M377 1600v-1600h-207v1600h207zM363 1749l-92 82l-89 -82h-219l233 238h147l241 -238h-221z" />
    <glyph glyph-name="Idieresis" unicode="&#xcf;" 
d="M378 1600v-1600h-207v1600h207zM607 1864q0 -60 -43 -102q-42 -42 -102 -42t-102 42t-43 102q1 60 43 103q42 42 102 42t102 -42q43 -43 43 -103zM231 1864q0 -60 -43 -102q-42 -42 -102 -42t-102 42t-43 102q1 60 43 103q42 42 102 42t102 -42q43 -43 43 -103z" />
    <glyph glyph-name="Eth" unicode="&#xd0;" horiz-adv-x="1250" 
d="M357 903h347v-206h-347v-487q247 0 415 168t168 422q0 252 -178 431q-158 158 -405 158v-486zM150 903v697h152q390 -2 608 -221q239 -241 239 -579t-239 -579q-218 -219 -608 -221h-152v697h-190v206h190z" />
    <glyph glyph-name="Ntilde" unicode="&#xd1;" horiz-adv-x="1357" 
d="M150 1600h189l660 -1142v1142h208v-1600h-181l-669 1156v-1156h-207v1600zM791 1888v-1q30 1 30 33t-13 75h186q-38 -220 -147 -252q-28 -8 -56 -8q-73 0 -133 57t-88 57h-4q-30 -2 -30 -33t14 -72h-187q39 220 149 252q28 8 56 8q73 0 135 -58t88 -58z" />
    <glyph glyph-name="Ograve" unicode="&#xd2;" horiz-adv-x="1889" 
d="M944 1412q-254 0 -432 -178t-178 -432q0 -253 179 -432t431 -179t432 179q178 179 178 432q0 254 -178 432t-432 178zM1763 802q0 -339 -240 -579t-579 -240t-579 240t-240 579t240 579t579 240t579 -240t240 -579zM1100 1699h-197l-272 279h252z" />
    <glyph glyph-name="Oacute" unicode="&#xd3;" horiz-adv-x="1889" 
d="M944 1412q-254 0 -432 -178t-178 -432q0 -253 179 -432t431 -179t432 179q178 179 178 432q0 254 -178 432t-432 178zM1763 802q0 -339 -240 -579t-579 -240t-579 240t-240 579t240 579t579 240t579 -240t240 -579zM1005 1978h252l-272 -279h-197z" />
    <glyph glyph-name="Ocircumflex" unicode="&#xd4;" horiz-adv-x="1889" 
d="M944 1412q-254 0 -432 -178t-178 -432q0 -253 179 -432t431 -179t432 179q178 179 178 432q0 254 -178 432t-432 178zM1763 802q0 -339 -240 -579t-579 -240t-579 240t-240 579t240 579t579 240t579 -240t240 -579zM1034 1749l-92 82l-89 -82h-219l233 238h147l241 -238
h-221z" />
    <glyph glyph-name="Otilde" unicode="&#xd5;" horiz-adv-x="1889" 
d="M944 1412q-254 0 -432 -178t-178 -432q0 -253 179 -432t431 -179t432 179q178 179 178 432q0 254 -178 432t-432 178zM1763 802q0 -339 -240 -579t-579 -240t-579 240t-240 579t240 579t579 240t579 -240t240 -579zM1057 1888v-1q30 1 30 33t-13 75h186
q-38 -220 -147 -252q-28 -8 -56 -8q-73 0 -133 57t-88 57h-4q-30 -2 -30 -33t14 -72h-187q39 220 149 252q28 8 56 8q73 0 135 -58t88 -58z" />
    <glyph glyph-name="Odieresis" unicode="&#xd6;" horiz-adv-x="1889" 
d="M944 1412q-254 0 -432 -178t-178 -432q0 -253 179 -432t431 -179t432 179q178 179 178 432q0 254 -178 432t-432 178zM1763 802q0 -339 -240 -579t-579 -240t-579 240t-240 579t240 579t579 240t579 -240t240 -579zM1277 1864q0 -60 -43 -102q-42 -42 -102 -42t-102 42
t-43 102q1 60 43 103q42 42 102 42t102 -42q43 -43 43 -103zM901 1864q0 -60 -43 -102q-42 -42 -102 -42t-102 42t-43 102q1 60 43 103q42 42 102 42t102 -42q43 -43 43 -103z" />
    <glyph glyph-name="multiply" unicode="&#xd7;" horiz-adv-x="1177" 
d="M588 461l-231 -231l-147 147l231 231l-231 232l147 147l231 -232l232 232l145 -148l-231 -231l231 -231l-145 -147z" />
    <glyph glyph-name="Oslash" unicode="&#xd8;" horiz-adv-x="1889" 
d="M1763 802q0 -339 -240 -579t-579 -240q-164 0 -251 35l-80 -173l-189 88l81 173q-51 28 -140 117q-240 240 -240 579t240 579t579 240q164 0 251 -35l81 173l188 -88l-81 -173q51 -28 141 -116q239 -241 239 -580zM944 191q254 0 432 179t178 432t-178 432q-65 65 -82 74
l-513 -1100q42 -17 163 -17zM944 1412q-254 0 -432 -178t-178 -432q0 -253 179 -432q65 -65 81 -74l512 1100q-41 16 -162 16z" />
    <glyph glyph-name="Ugrave" unicode="&#xd9;" horiz-adv-x="1388" 
d="M1030 1600h208v-1127q-27 -193 -159 -326q-160 -160 -385 -160q-224 -1 -384 159t-160 385v1069h208v-1069q0 -139 98 -237t238 -98t238 98t98 237v1069zM850 1699h-197l-272 279h252z" />
    <glyph glyph-name="Uacute" unicode="&#xda;" horiz-adv-x="1388" 
d="M1030 1600h208v-1127q-27 -193 -159 -326q-160 -160 -385 -160q-224 -1 -384 159t-160 385v1069h208v-1069q0 -139 98 -237t238 -98t238 98t98 237v1069zM755 1978h252l-272 -279h-197z" />
    <glyph glyph-name="Ucircumflex" unicode="&#xdb;" horiz-adv-x="1388" 
d="M1030 1600h208v-1127q-27 -193 -159 -326q-160 -160 -385 -160q-224 -1 -384 159t-160 385v1069h208v-1069q0 -139 98 -237t238 -98t238 98t98 237v1069zM784 1749l-92 82l-89 -82h-219l233 238h147l241 -238h-221z" />
    <glyph glyph-name="Udieresis" unicode="&#xdc;" horiz-adv-x="1388" 
d="M1030 1600h208v-1127q-27 -193 -159 -326q-160 -160 -385 -160q-224 -1 -384 159t-160 385v1069h208v-1069q0 -139 98 -237t238 -98t238 98t98 237v1069zM1027 1864q0 -60 -43 -102q-42 -42 -102 -42t-102 42t-43 102q1 60 43 103q42 42 102 42t102 -42q43 -43 43 -103z
M651 1864q0 -60 -43 -102q-42 -42 -102 -42t-102 42t-43 102q1 60 43 103q42 42 102 42t102 -42q43 -43 43 -103z" />
    <glyph glyph-name="Yacute" unicode="&#xdd;" horiz-adv-x="1414" 
d="M810 0h-207v642l-553 958h238l418 -724l419 724h239l-554 -958v-642zM768 1978h252l-272 -279h-197z" />
    <glyph glyph-name="Thorn" unicode="&#xde;" horiz-adv-x="1180" 
d="M357 465h189q138 1 236 99t99 237q-1 139 -99 237t-236 98h-189v-671zM357 1345h247q193 -27 326 -160q159 -159 159 -385t-159 -384q-159 -159 -384 -159h-189v-257h-207v1600h207v-255z" />
    <glyph glyph-name="germandbls" unicode="&#xdf;" horiz-adv-x="1142" 
d="M623 1263q0 57 -33 95t-96 38h-9q-69 -2 -101 -40t-37 -128v-1228h-207v1246q10 172 96 264t233 97h16q135 -1 235 -83t109 -251v-17q0 -164 -46 -192q255 -102 269 -492q0 -236 -160 -402t-316 -168v-2h-78v208h78v3q64 3 164 107t100 252t-104 252t-246 105v210
q133 16 133 126z" />
    <glyph glyph-name="agrave" unicode="&#xe0;" horiz-adv-x="1401" 
d="M1042 1029h208v-1030h-208v129q-150 -155 -348 -155q-236 1 -402 167t-167 402q1 236 167 402t402 167q198 0 348 -154v72zM694 898q-148 0 -252 -104t-105 -252q1 -148 105 -252t252 -104t252 104q78 79 96 176v152q-18 97 -96 176q-104 104 -252 104zM844 1128h-197
l-272 279h252z" />
    <glyph glyph-name="aacute" unicode="&#xe1;" horiz-adv-x="1401" 
d="M1042 1029h208v-1030h-208v129q-150 -155 -348 -155q-236 1 -402 167t-167 402q1 236 167 402t402 167q198 0 348 -154v72zM694 898q-148 0 -252 -104t-105 -252q1 -148 105 -252t252 -104t252 104q78 79 96 176v152q-18 97 -96 176q-104 104 -252 104zM748 1407h252
l-272 -279h-197z" />
    <glyph glyph-name="acircumflex" unicode="&#xe2;" horiz-adv-x="1401" 
d="M1042 1029h208v-1030h-208v129q-150 -155 -348 -155q-236 1 -402 167t-167 402q1 236 167 402t402 167q198 0 348 -154v72zM694 898q-148 0 -252 -104t-105 -252q1 -148 105 -252t252 -104t252 104q78 79 96 176v152q-18 97 -96 176q-104 104 -252 104zM777 1178l-92 82
l-89 -82h-219l233 238h147l241 -238h-221z" />
    <glyph glyph-name="atilde" unicode="&#xe3;" horiz-adv-x="1401" 
d="M1042 1029h208v-1030h-208v129q-150 -155 -348 -155q-236 1 -402 167t-167 402q1 236 167 402t402 167q198 0 348 -154v72zM694 898q-148 0 -252 -104t-105 -252q1 -148 105 -252t252 -104t252 104q78 79 96 176v152q-18 97 -96 176q-104 104 -252 104zM800 1317v-1
q30 0 30 32t-13 76h186q-38 -220 -147 -252q-28 -8 -56 -8q-74 0 -134 57t-87 57h-4q-30 -2 -30 -33t14 -72h-187q39 220 149 252q28 8 56 8q73 0 135 -58t88 -58z" />
    <glyph glyph-name="adieresis" unicode="&#xe4;" horiz-adv-x="1401" 
d="M1042 1029h208v-1030h-208v129q-150 -155 -348 -155q-236 1 -402 167t-167 402q1 236 167 402t402 167q198 0 348 -154v72zM694 898q-148 0 -252 -104t-105 -252q1 -148 105 -252t252 -104t252 104q78 79 96 176v152q-18 97 -96 176q-104 104 -252 104zM1021 1294
q0 -60 -43 -103q-42 -42 -102 -42t-102 42q-42 43 -43 103q1 60 43 102t102 42t102 -42q43 -42 43 -102zM645 1294q0 -60 -43 -103q-42 -42 -102 -42t-102 42q-42 43 -43 103q1 60 43 102t102 42t102 -42q43 -42 43 -102z" />
    <glyph glyph-name="aring" unicode="&#xe5;" horiz-adv-x="1401" 
d="M898 1251q0 -91 -76 -157q121 -35 220 -137v72h208v-1030h-208v129q-150 -155 -348 -155q-236 1 -402 167t-167 402q0 236 167 403q113 113 260 149q-75 64 -75 156q-1 92 61 154t150 62t148 -62q62 -62 62 -153zM690 1312q-59 0 -59 -59q-1 -23 15 -39t41 -15
q25 -1 41 15t16 42t-16 40q-16 16 -38 16zM694 898q-148 0 -252 -104t-105 -252q1 -148 105 -252t252 -104t252 104q78 79 96 176v152q-18 97 -96 176q-104 104 -252 104z" />
    <glyph glyph-name="ae" unicode="&#xe6;" horiz-adv-x="2142" 
d="M1008 1030h207q56 82 285 82t396 -167q148 -149 156 -417l-837 1v-210q4 -6 25 -27q105 -105 253 -105t252 105q19 19 63 73l202 -71q-59 -98 -114 -153q-167 -166 -396 -166t-285 52v-27h-207v95q-150 -120 -350 -120q-236 1 -402 167t-166 402t166 402t402 166
q200 0 350 -120v38zM1493 899q-148 0 -252 -104q-22 -22 -26 -28v-31h589l-59 59q-104 104 -252 104zM658 899q-148 0 -252 -104t-104 -252t104 -252t252 -104t252 105q80 78 98 175v152q-18 96 -98 176q-104 104 -252 104z" />
    <glyph glyph-name="ccedilla" unicode="&#xe7;" horiz-adv-x="1262" 
d="M629 -177q0 34 -93 64l34 92q-179 27 -313 161q-167 167 -167 403t167 403t403 167t402 -167q34 -34 110 -137l-207 -76q-40 49 -54 63q-103 104 -251 104t-252 -104t-105 -252q1 -148 105 -252t252 -105q148 0 252 104q13 14 53 62l207 -74q-76 -105 -110 -139
q-146 -146 -345 -164l-7 -20q105 -54 105 -142q0 -43 -31 -81q-63 -76 -188 -76q-58 0 -149 15l35 126q57 -26 78 -26t26 1q31 4 40 35q3 7 3 15z" />
    <glyph glyph-name="egrave" unicode="&#xe8;" horiz-adv-x="1262" 
d="M646 900q-134 0 -238 -104t-105 -240q0 -134 27 -170l486 487q-36 27 -170 27zM664 187q142 0 248 104q13 14 53 62l207 -74q-76 -105 -110 -139q-166 -167 -402 -167t-403 167t-167 403t167 403t403 167t402 -167q10 -10 57 -63l-649 -650q52 -46 194 -46zM787 1128
h-197l-272 279h252z" />
    <glyph glyph-name="eacute" unicode="&#xe9;" horiz-adv-x="1262" 
d="M646 900q-134 0 -238 -104t-105 -240q0 -134 27 -170l486 487q-36 27 -170 27zM664 187q142 0 248 104q13 14 53 62l207 -74q-76 -105 -110 -139q-166 -167 -402 -167t-403 167t-167 403t167 403t403 167t402 -167q10 -10 57 -63l-649 -650q52 -46 194 -46zM692 1407h252
l-272 -279h-197z" />
    <glyph glyph-name="ecircumflex" unicode="&#xea;" horiz-adv-x="1262" 
d="M646 900q-134 0 -238 -104t-105 -240q0 -134 27 -170l486 487q-36 27 -170 27zM664 187q142 0 248 104q13 14 53 62l207 -74q-76 -105 -110 -139q-166 -167 -402 -167t-403 167t-167 403t167 403t403 167t402 -167q10 -10 57 -63l-649 -650q52 -46 194 -46zM721 1178
l-92 82l-89 -82h-219l233 238h147l241 -238h-221z" />
    <glyph glyph-name="edieresis" unicode="&#xeb;" horiz-adv-x="1262" 
d="M646 900q-134 0 -238 -104t-105 -240q0 -134 27 -170l486 487q-36 27 -170 27zM664 187q142 0 248 104q13 14 53 62l207 -74q-76 -105 -110 -139q-166 -167 -402 -167t-403 167t-167 403t167 403t403 167t402 -167q10 -10 57 -63l-649 -650q52 -46 194 -46zM964 1294
q0 -60 -43 -103q-43 -42 -103 -42t-102 42q-42 43 -42 103t42 102t102 42t103 -42t43 -102zM588 1294q0 -60 -43 -103q-43 -42 -103 -42t-102 42q-42 43 -42 103t42 102t102 42t103 -42t43 -102z" />
    <glyph glyph-name="igrave" unicode="&#xec;" 
d="M377 1030v-1030h-207v1030h207zM430 1128h-197l-272 279h252z" />
    <glyph glyph-name="iacute" unicode="&#xed;" 
d="M377 1030v-1030h-207v1030h207zM334 1407h252l-272 -279h-197z" />
    <glyph glyph-name="icircumflex" unicode="&#xee;" 
d="M377 1030v-1030h-207v1030h207zM363 1178l-92 82l-89 -82h-219l233 238h147l241 -238h-221z" />
    <glyph glyph-name="idieresis" unicode="&#xef;" 
d="M378 1030v-1030h-207v1030h207zM607 1294q0 -60 -43 -103q-42 -42 -102 -42t-102 42q-42 43 -43 103q1 60 43 102t102 42t102 -42q43 -42 43 -102zM231 1294q0 -60 -43 -103q-42 -42 -102 -42t-102 42q-42 43 -43 103q1 60 43 102t102 42t102 -42q43 -42 43 -102z" />
    <glyph glyph-name="eth" unicode="&#xf0;" horiz-adv-x="1318" 
d="M1228 543q0 -236 -166 -403t-402 -167t-403 167t-167 403t167 403t402 167q17 0 34 -1l-166 184l-124 -88h-257l282 198l-182 194h252l80 -88l135 88h252l-293 -201l341 -409q25 -21 69 -64t82 -117l1 -1q63 -119 63 -265zM302 542q0 -148 104 -251q104 -104 253 -104
t253 104q104 103 104 251t-104 253t-253 105t-253 -105t-104 -253z" />
    <glyph glyph-name="ntilde" unicode="&#xf1;" horiz-adv-x="1139" 
d="M358 0h-208v1029h208v-120q65 176 261 176q167 -1 265 -119t102 -297v-669h-207v661q0 89 -65 153q-64 64 -154 63q-90 0 -155 -62q-36 -37 -47 -62v-753zM681 1317v-1q30 0 30 32t-13 76h186q-38 -220 -147 -252q-28 -8 -56 -8q-73 0 -133 57t-88 57h-4q-30 -2 -30 -33
t14 -72h-187q39 220 149 252q28 8 56 8q73 0 135 -58t88 -58z" />
    <glyph glyph-name="ograve" unicode="&#xf2;" horiz-adv-x="1318" 
d="M302 542q0 -148 104 -251q104 -104 253 -104t253 104q104 103 104 251t-104 253t-253 105t-253 -105t-104 -253zM660 1113q236 0 402 -167t166 -403t-166 -403t-402 -167t-403 167t-167 403t167 403t403 167zM815 1128h-197l-272 279h252z" />
    <glyph glyph-name="oacute" unicode="&#xf3;" horiz-adv-x="1318" 
d="M302 542q0 -148 104 -251q104 -104 253 -104t253 104q104 103 104 251t-104 253t-253 105t-253 -105t-104 -253zM660 1113q236 0 402 -167t166 -403t-166 -403t-402 -167t-403 167t-167 403t167 403t403 167zM720 1407h252l-272 -279h-197z" />
    <glyph glyph-name="ocircumflex" unicode="&#xf4;" horiz-adv-x="1318" 
d="M302 542q0 -148 104 -251q104 -104 253 -104t253 104q104 103 104 251t-104 253t-253 105t-253 -105t-104 -253zM660 1113q236 0 402 -167t166 -403t-166 -403t-402 -167t-403 167t-167 403t167 403t403 167zM749 1178l-92 82l-89 -82h-219l233 238h147l241 -238h-221z
" />
    <glyph glyph-name="otilde" unicode="&#xf5;" horiz-adv-x="1318" 
d="M302 542q0 -148 104 -251q104 -104 253 -104t253 104q104 103 104 251t-104 253t-253 105t-253 -105t-104 -253zM660 1113q236 0 402 -167t166 -403t-166 -403t-402 -167t-403 167t-167 403t167 403t403 167zM772 1317v-1q30 0 30 32t-13 76h186q-38 -220 -147 -252
q-28 -8 -56 -8q-74 0 -134 57t-87 57h-4q-30 -2 -30 -33t14 -72h-187q39 220 149 252q28 8 56 8q73 0 135 -58t88 -58z" />
    <glyph glyph-name="odieresis" unicode="&#xf6;" horiz-adv-x="1318" 
d="M302 542q0 -148 104 -251q104 -104 253 -104t253 104q104 103 104 251t-104 253t-253 105t-253 -105t-104 -253zM660 1113q236 0 402 -167t166 -403t-166 -403t-402 -167t-403 167t-167 403t167 403t403 167zM992 1294q0 -60 -43 -103q-43 -42 -103 -42t-102 42
q-42 43 -42 103t42 102t102 42t103 -42t43 -102zM616 1294q0 -60 -43 -103q-43 -42 -103 -42t-102 42q-42 43 -42 103t42 102t102 42t103 -42t43 -102z" />
    <glyph glyph-name="divide" unicode="&#xf7;" horiz-adv-x="1112" 
d="M701 344q-1 -60 -43 -103q-42 -42 -102 -42t-102 42q-42 43 -43 103q1 60 43 102t102 42t102 -42t43 -102zM701 912q-1 -60 -43 -102t-102 -42t-102 42t-43 102q1 60 43 103q42 42 102 42t102 -42q42 -43 43 -103zM125 732h862v-207h-862v207z" />
    <glyph glyph-name="oslash" unicode="&#xf8;" horiz-adv-x="1317" 
d="M90 544q0 236 166 402t402 167q134 0 194 -29l113 197l184 -95l-125 -202l37 -38q166 -166 166 -402q-1 -236 -167 -402q-166 -167 -402 -167q-133 0 -192 29l-114 -196l-185 89l127 208l-37 37q-167 166 -167 402zM658 188q148 0 252 104t105 252q0 148 -105 252
l-337 -606q5 -2 85 -2zM658 900q-148 0 -252 -104t-104 -252t93 -251l349 605q-5 2 -86 2z" />
    <glyph glyph-name="ugrave" unicode="&#xf9;" horiz-adv-x="1162" 
d="M582 -14q-190 0 -310 119q-119 119 -122 298v626h208v-618q0 -89 65 -153t158 -64t159 64t65 153v618h207v-626q-4 -179 -122 -298t-308 -119zM737 1128h-197l-272 279h252z" />
    <glyph glyph-name="uacute" unicode="&#xfa;" horiz-adv-x="1162" 
d="M582 -14q-190 0 -310 119q-119 119 -122 298v626h208v-618q0 -89 65 -153t158 -64t159 64t65 153v618h207v-626q-4 -179 -122 -298t-308 -119zM642 1407h252l-272 -279h-197z" />
    <glyph glyph-name="ucircumflex" unicode="&#xfb;" horiz-adv-x="1162" 
d="M582 -14q-190 0 -310 119q-119 119 -122 298v626h208v-618q0 -89 65 -153t158 -64t159 64t65 153v618h207v-626q-4 -179 -122 -298t-308 -119zM671 1178l-92 82l-89 -82h-219l233 238h147l241 -238h-221z" />
    <glyph glyph-name="udieresis" unicode="&#xfc;" horiz-adv-x="1162" 
d="M582 -14q-190 0 -310 119q-119 119 -122 298v626h208v-618q0 -89 65 -153t158 -64t159 64t65 153v618h207v-626q-4 -179 -122 -298t-308 -119zM914 1294q0 -60 -43 -103q-43 -42 -103 -42t-102 42q-42 43 -42 103t42 102t102 42t103 -42t43 -102zM538 1294
q0 -60 -43 -103q-43 -42 -103 -42t-102 42q-42 43 -42 103t42 102t102 42t103 -42t43 -102z" />
    <glyph glyph-name="yacute" unicode="&#xfd;" horiz-adv-x="1139" 
d="M403 -346h-219l274 575l-383 800h233l261 -563l261 563h232zM629 1407h252l-272 -279h-197z" />
    <glyph glyph-name="thorn" unicode="&#xfe;" horiz-adv-x="1374" 
d="M357 -345h-207v1945h207v-679q150 190 348 190q237 0 403 -166q166 -165 166 -401t-166 -402t-403 -167q-199 0 -348 183v-503zM706 186q148 0 252 104t104 253q0 148 -104 252t-252 104t-253 -104q-77 -77 -96 -172v-161q19 -94 96 -171q105 -105 253 -105z" />
    <glyph glyph-name="ydieresis" unicode="&#xff;" horiz-adv-x="1139" 
d="M403 -346h-219l274 575l-383 800h233l261 -563l261 563h232zM902 1294q0 -60 -43 -103q-43 -42 -103 -42t-102 42q-42 43 -42 103t42 102t102 42t103 -42t43 -102zM526 1294q0 -60 -43 -103q-43 -42 -103 -42t-102 42q-42 43 -42 103t42 102t102 42t103 -42t43 -102z" />
    <glyph glyph-name="Amacron" unicode="&#x100;" horiz-adv-x="1376" 
d="M744 1600l582 -1600h-220l-206 566h-424l-205 -566h-221l582 1600h112zM825 773l-137 375l-136 -375h273zM405 2008h567v-207h-567v207z" />
    <glyph glyph-name="amacron" unicode="&#x101;" horiz-adv-x="1401" 
d="M1042 1029h208v-1030h-208v129q-150 -155 -348 -155q-236 1 -402 167t-167 402q1 236 167 402t402 167q198 0 348 -154v72zM694 898q-148 0 -252 -104t-105 -252q1 -148 105 -252t252 -104t252 104q78 79 96 176v152q-18 97 -96 176q-104 104 -252 104zM404 1437h567
v-207h-567v207z" />
    <glyph glyph-name="Abreve" unicode="&#x102;" horiz-adv-x="1376" 
d="M744 1600l582 -1600h-220l-206 566h-424l-205 -566h-221l582 1600h112zM825 773l-137 375l-136 -375h273zM688 1881q36 1 58 21q20 20 30 82h190q-22 -123 -80 -182q-82 -82 -198 -82t-188 72t-89 192h189q12 -62 32 -82t56 -21z" />
    <glyph glyph-name="abreve" unicode="&#x103;" horiz-adv-x="1401" 
d="M1042 1029h208v-1030h-208v129q-150 -155 -348 -155q-236 1 -402 167t-167 402q1 236 167 402t402 167q198 0 348 -154v72zM694 898q-148 0 -252 -104t-105 -252q1 -148 105 -252t252 -104t252 104q78 79 96 176v152q-18 97 -96 176q-104 104 -252 104zM688 1310
q36 0 56 20t31 83h190q-22 -123 -80 -182q-81 -82 -197 -82q-116 1 -189 73q-72 72 -89 191h189q11 -63 31 -83q22 -20 58 -20z" />
    <glyph glyph-name="Aogonek" unicode="&#x104;" horiz-adv-x="1376" 
d="M939 -141q0 120 140 216l-179 491h-424l-205 -566h-221l582 1600h112l582 -1600h-155q-51 -71 -51 -119q0 -16 6 -29q15 -37 49 -37t93 51l58 -153q-122 -50 -201 -50t-133 60t-53 136zM825 773l-137 375l-136 -375h273z" />
    <glyph glyph-name="aogonek" unicode="&#x105;" horiz-adv-x="1401" 
d="M923 -141q0 112 119 201v68q-150 -155 -348 -155q-236 1 -402 167t-167 402q1 236 167 402t402 167q198 0 348 -154v72h208v-1030h-95q-51 -71 -51 -118q0 -16 6 -29q15 -37 49 -37t93 51l58 -153q-122 -50 -201 -50t-133 60t-53 136zM694 898q-148 0 -252 -104
t-105 -252q1 -148 105 -252t252 -104t252 104q78 79 96 176v152q-18 97 -96 176q-104 104 -252 104z" />
    <glyph glyph-name="Cacute" unicode="&#x106;" horiz-adv-x="1642" 
d="M931 -17q-328 0 -567 239q-239 240 -239 578t239 578t567 240t612 -259l-155 -141q-214 190 -456 190t-420 -178t-178 -430t178 -431q178 -178 420 -178t456 190l155 -139q-284 -259 -612 -259zM895 1978h252l-272 -279h-197z" />
    <glyph glyph-name="cacute" unicode="&#x107;" horiz-adv-x="1262" 
d="M660 -27q-236 0 -403 167t-167 403t167 403t403 167t402 -167q34 -34 110 -137l-207 -76q-40 49 -54 63q-103 104 -251 104t-252 -104t-105 -252q1 -148 105 -252t252 -105q148 0 252 104q13 14 53 62l207 -74q-76 -105 -110 -139q-166 -167 -402 -167zM692 1407h252
l-272 -279h-197z" />
    <glyph glyph-name="Ccircumflex" unicode="&#x108;" horiz-adv-x="1642" 
d="M931 -17q-328 0 -567 239q-239 240 -239 578t239 578t567 240t612 -259l-155 -141q-214 190 -456 190t-420 -178t-178 -430t178 -431q178 -178 420 -178t456 190l155 -139q-284 -259 -612 -259zM924 1749l-92 82l-89 -82h-219l233 238h147l241 -238h-221z" />
    <glyph glyph-name="ccircumflex" unicode="&#x109;" horiz-adv-x="1262" 
d="M660 -27q-236 0 -403 167t-167 403t167 403t403 167t402 -167q34 -34 110 -137l-207 -76q-40 49 -54 63q-103 104 -251 104t-252 -104t-105 -252q1 -148 105 -252t252 -105q148 0 252 104q13 14 53 62l207 -74q-76 -105 -110 -139q-166 -167 -402 -167zM721 1178l-92 82
l-89 -82h-219l233 238h147l241 -238h-221z" />
    <glyph glyph-name="Cdotaccent" unicode="&#x10a;" horiz-adv-x="1642" 
d="M931 -17q-328 0 -567 239q-239 240 -239 578t239 578t567 240t612 -259l-155 -141q-214 190 -456 190t-420 -178t-178 -430t178 -431q178 -178 420 -178t456 190l155 -139q-284 -259 -612 -259zM967 1875q0 -56 -39 -94q-40 -38 -94 -38t-93 38t-39 94t39 94t93 38
t94 -38q39 -38 39 -94z" />
    <glyph glyph-name="cdotaccent" unicode="&#x10b;" horiz-adv-x="1262" 
d="M660 -27q-236 0 -403 167t-167 403t167 403t403 167t402 -167q34 -34 110 -137l-207 -76q-40 49 -54 63q-103 104 -251 104t-252 -104t-105 -252q1 -148 105 -252t252 -105q148 0 252 104q13 14 53 62l207 -74q-76 -105 -110 -139q-166 -167 -402 -167zM764 1304
q0 -56 -39 -94t-93 -38t-94 38q-39 38 -39 94t39 94q40 38 94 38t93 -38t39 -94z" />
    <glyph glyph-name="Ccaron" unicode="&#x10c;" horiz-adv-x="1642" 
d="M931 -17q-328 0 -567 239q-239 240 -239 578t239 578t567 240t612 -259l-155 -141q-214 190 -456 190t-420 -178t-178 -430t178 -431q178 -178 420 -178t456 190l155 -139q-284 -259 -612 -259zM1145 1987l-241 -238h-147l-233 238h219l89 -82l92 82h221z" />
    <glyph glyph-name="ccaron" unicode="&#x10d;" horiz-adv-x="1262" 
d="M660 -27q-236 0 -403 167t-167 403t167 403t403 167t402 -167q34 -34 110 -137l-207 -76q-40 49 -54 63q-103 104 -251 104t-252 -104t-105 -252q1 -148 105 -252t252 -105q148 0 252 104q13 14 53 62l207 -74q-76 -105 -110 -139q-166 -167 -402 -167zM942 1416
l-241 -238h-147l-233 238h219l89 -82l92 82h221z" />
    <glyph glyph-name="Dcaron" unicode="&#x10e;" horiz-adv-x="1250" 
d="M1149 800q0 -338 -239 -579q-218 -219 -608 -221h-152v1600h152q390 -2 608 -221q239 -241 239 -579zM357 1389v-1179q247 0 415 168t168 422q0 252 -178 431q-158 158 -405 158zM960 1987l-241 -238h-147l-233 238h219l89 -82l92 82h221z" />
    <glyph glyph-name="dcaron" unicode="&#x10f;" horiz-adv-x="1619" 
d="M1319 1466q1 60 43 102t102 42t102 -42q43 -42 43 -88t-12 -76l-108 -219h-189l61 178q-42 43 -42 103zM1043 1600h208v-1600h-208v128q-150 -155 -349 -155q-236 0 -402 167t-167 403q1 236 167 403t402 167q199 0 349 -155v642zM694 900q-148 0 -252 -105t-105 -253
q1 -148 105 -251q104 -104 252 -104t252 104q79 79 97 175v153q-18 97 -97 176q-104 105 -252 105z" />
    <glyph glyph-name="Dcroat" unicode="&#x110;" horiz-adv-x="1250" 
d="M357 903h347v-206h-347v-487q247 0 415 168t168 422q0 252 -178 431q-158 158 -405 158v-486zM150 903v697h152q390 -2 608 -221q239 -241 239 -579t-239 -579q-218 -219 -608 -221h-152v697h-190v206h190z" />
    <glyph glyph-name="dcroat" unicode="&#x111;" horiz-adv-x="1401" 
d="M1251 1225v-1225h-208v128q-150 -155 -349 -155q-236 0 -402 167t-167 403q1 236 167 403t402 167q199 0 349 -155v267h-466v206h466v169h208v-169h170v-206h-170zM694 900q-148 0 -252 -105t-105 -253q1 -148 105 -251q104 -104 252 -104t252 104q79 79 97 175v153
q-18 97 -97 176q-104 105 -252 105z" />
    <glyph glyph-name="Emacron" unicode="&#x112;" horiz-adv-x="1137" 
d="M1012 1600v-207h-655v-489h655v-207h-655v-489h655v-208h-862v1600h862zM298 2008h567v-207h-567v207z" />
    <glyph glyph-name="emacron" unicode="&#x113;" horiz-adv-x="1262" 
d="M646 900q-134 0 -238 -104t-105 -240q0 -134 27 -170l486 487q-36 27 -170 27zM664 187q142 0 248 104q13 14 53 62l207 -74q-76 -105 -110 -139q-166 -167 -402 -167t-403 167t-167 403t167 403t403 167t402 -167q10 -10 57 -63l-649 -650q52 -46 194 -46zM348 1437h567
v-207h-567v207z" />
    <glyph glyph-name="Ebreve" unicode="&#x114;" horiz-adv-x="1137" 
d="M1012 1600v-207h-655v-489h655v-207h-655v-489h655v-208h-862v1600h862zM582 1881q36 1 56 21t31 82h190q-22 -123 -80 -182q-81 -82 -197 -82t-189 72q-72 72 -89 192h189q11 -62 31 -82q22 -20 58 -21z" />
    <glyph glyph-name="ebreve" unicode="&#x115;" horiz-adv-x="1262" 
d="M646 900q-134 0 -238 -104t-105 -240q0 -134 27 -170l486 487q-36 27 -170 27zM664 187q142 0 248 104q13 14 53 62l207 -74q-76 -105 -110 -139q-166 -167 -402 -167t-403 167t-167 403t167 403t403 167t402 -167q10 -10 57 -63l-649 -650q52 -46 194 -46zM632 1310
q36 0 56 20t31 83h190q-22 -123 -80 -182q-81 -82 -197 -82q-116 1 -189 73q-72 72 -89 191h189q11 -63 31 -83q22 -20 58 -20z" />
    <glyph glyph-name="Edotaccent" unicode="&#x116;" horiz-adv-x="1137" 
d="M1012 1600v-207h-655v-489h655v-207h-655v-489h655v-208h-862v1600h862zM714 1875q0 -56 -39 -94t-93 -38t-94 38q-39 38 -39 94t39 94q40 38 94 38t93 -38t39 -94z" />
    <glyph glyph-name="edotaccent" unicode="&#x117;" horiz-adv-x="1262" 
d="M646 900q-134 0 -238 -104t-105 -240q0 -134 27 -170l486 487q-36 27 -170 27zM664 187q142 0 248 104q13 14 53 62l207 -74q-76 -105 -110 -139q-166 -167 -402 -167t-403 167t-167 403t167 403t403 167t402 -167q10 -10 57 -63l-649 -650q52 -46 194 -46zM764 1304
q0 -56 -39 -94t-93 -38t-94 38q-39 38 -39 94t39 94q40 38 94 38t93 -38t39 -94z" />
    <glyph glyph-name="Eogonek" unicode="&#x118;" horiz-adv-x="1137" 
d="M811 -337q-79 0 -133 60t-53 137q0 77 54 140h-529v1600h862v-207h-655v-489h655v-207h-655v-489h655v-208h-155q-51 -71 -51 -119q0 -16 6 -29q15 -37 49 -37t93 51l58 -153q-122 -50 -201 -50z" />
    <glyph glyph-name="eogonek" unicode="&#x119;" horiz-adv-x="1262" 
d="M659 -27q-235 0 -402 167t-167 403t167 403t403 167t402 -167q10 -10 57 -63l-649 -650q52 -46 194 -46t248 104q13 14 53 62l207 -74q-76 -105 -108 -137t-63 -56q-125 -132 -125 -206q0 -16 6 -29q15 -37 49 -37t93 51l58 -153q-122 -50 -201 -50t-133 60t-53 131
q0 71 37 124q-36 -4 -73 -4zM646 900q-134 0 -238 -104t-105 -240q0 -134 27 -170l486 487q-36 27 -170 27z" />
    <glyph glyph-name="Ecaron" unicode="&#x11a;" horiz-adv-x="1137" 
d="M1012 1600v-207h-655v-489h655v-207h-655v-489h655v-208h-862v1600h862zM892 1987l-241 -238h-147l-233 238h219l89 -82l92 82h221z" />
    <glyph glyph-name="ecaron" unicode="&#x11b;" horiz-adv-x="1262" 
d="M646 900q-134 0 -238 -104t-105 -240q0 -134 27 -170l486 487q-36 27 -170 27zM664 187q142 0 248 104q13 14 53 62l207 -74q-76 -105 -110 -139q-166 -167 -402 -167t-403 167t-167 403t167 403t403 167t402 -167q10 -10 57 -63l-649 -650q52 -46 194 -46zM942 1416
l-241 -238h-147l-233 238h219l89 -82l92 82h221z" />
    <glyph glyph-name="Gcircumflex" unicode="&#x11c;" horiz-adv-x="1668" 
d="M932 -17q-328 0 -568 239q-239 240 -239 578t239 578t567 240t612 -259l-155 -141q-214 190 -456 190t-420 -178t-178 -430t178 -431q178 -178 430 -178q216 0 358 114v483h207v-569q-247 -236 -575 -236zM924 1749l-92 82l-89 -82h-219l233 238h147l241 -238h-221z" />
    <glyph glyph-name="gcircumflex" unicode="&#x11d;" horiz-adv-x="1405" 
d="M1043 1029h208v-765q0 -300 -163 -463q-167 -147 -403 -147t-403 147q-34 34 -109 138l206 74q40 -48 54 -62q105 -104 252 -104q247 0 342 324q-97 -188 -333 -188t-402 162t-167 398q1 237 167 403t402 166q199 0 349 -154v71zM694 900q-148 0 -252 -105t-105 -253
q1 -148 105 -252t252 -104t252 104q77 77 96 170v163q-19 95 -96 172q-104 105 -252 105zM778 1178l-92 82l-89 -82h-219l233 238h147l241 -238h-221z" />
    <glyph glyph-name="Gbreve" unicode="&#x11e;" horiz-adv-x="1668" 
d="M932 -17q-328 0 -568 239q-239 240 -239 578t239 578t567 240t612 -259l-155 -141q-214 190 -456 190t-420 -178t-178 -430t178 -431q178 -178 430 -178q216 0 358 114v483h207v-569q-247 -236 -575 -236zM834 1881q36 1 58 21q20 20 30 82h190q-22 -123 -80 -182
q-82 -82 -198 -82t-188 72t-89 192h189q12 -62 32 -82t56 -21z" />
    <glyph glyph-name="gbreve" unicode="&#x11f;" horiz-adv-x="1405" 
d="M1043 1029h208v-765q0 -300 -163 -463q-167 -147 -403 -147t-403 147q-34 34 -109 138l206 74q40 -48 54 -62q105 -104 252 -104q247 0 342 324q-97 -188 -333 -188t-402 162t-167 398q1 237 167 403t402 166q199 0 349 -154v71zM694 900q-148 0 -252 -105t-105 -253
q1 -148 105 -252t252 -104t252 104q77 77 96 170v163q-19 95 -96 172q-104 105 -252 105zM688 1310q36 0 58 20q20 20 30 83h190q-22 -123 -80 -182q-82 -82 -198 -82q-116 1 -188 73t-89 191h189q12 -63 32 -83t56 -20z" />
    <glyph glyph-name="Gdotaccent" unicode="&#x120;" horiz-adv-x="1668" 
d="M932 -17q-328 0 -568 239q-239 240 -239 578t239 578t567 240t612 -259l-155 -141q-214 190 -456 190t-420 -178t-178 -430t178 -431q178 -178 430 -178q216 0 358 114v483h207v-569q-247 -236 -575 -236zM967 1875q0 -56 -39 -94q-40 -38 -94 -38t-93 38t-39 94t39 94
t93 38t94 -38q39 -38 39 -94z" />
    <glyph glyph-name="gdotaccent" unicode="&#x121;" horiz-adv-x="1405" 
d="M1043 1029h208v-765q0 -300 -163 -463q-167 -147 -403 -147t-403 147q-34 34 -109 138l206 74q40 -48 54 -62q105 -104 252 -104q247 0 342 324q-97 -188 -333 -188t-402 162t-167 398q1 237 167 403t402 166q199 0 349 -154v71zM694 900q-148 0 -252 -105t-105 -253
q1 -148 105 -252t252 -104t252 104q77 77 96 170v163q-19 95 -96 172q-104 105 -252 105zM821 1304q0 -56 -39 -94q-40 -38 -94 -38t-93 38t-39 94t39 94t93 38t94 -38q39 -38 39 -94z" />
    <glyph glyph-name="Gcommaaccent" unicode="&#x122;" horiz-adv-x="1668" 
d="M832 -177q0 34 -93 64l41 111q-236 44 -416 224q-239 240 -239 578t239 578t567 240t612 -259l-155 -141q-214 190 -456 190t-420 -178t-178 -430t178 -431q178 -178 430 -178q216 0 358 114v483h207v-569q-247 -236 -565 -236h-19l-10 -27q105 -54 105 -142
q0 -43 -31 -81q-63 -76 -188 -76q-58 0 -149 15l35 126q57 -26 78 -26t26 1q31 4 40 35q3 7 3 15z" />
    <glyph glyph-name="gcommaaccent" unicode="&#x123;" horiz-adv-x="1405" 
d="M830 1330q0 -60 -42 -103q-42 -42 -102 -42t-103 42t-43 88t12 76l108 219h189l-61 -178q42 -42 42 -102zM1043 1029h208v-765q0 -300 -163 -463q-167 -147 -403 -147t-403 147q-34 34 -109 138l206 74q40 -48 54 -62q105 -104 252 -104q247 0 342 324
q-97 -188 -333 -188t-402 162t-167 398q1 237 167 403t402 166q199 0 349 -154v71zM694 900q-148 0 -252 -105t-105 -253q1 -148 105 -252t252 -104t252 104q77 77 96 170v163q-19 95 -96 172q-104 105 -252 105z" />
    <glyph glyph-name="Hcircumflex" unicode="&#x124;" horiz-adv-x="1208" 
d="M694 1749l-92 82l-89 -82h-219l233 238h147l241 -238h-221zM357 662v-662h-207v1600h207v-731h494v731h207v-1600h-207v662h-494z" />
    <glyph glyph-name="hcircumflex" unicode="&#x125;" horiz-adv-x="1125" 
d="M694 1749l-92 82l-89 -82h-219l233 238h147l241 -238h-221zM150 1600h208v-682q87 167 252 167q166 -1 264 -119t101 -297v-669h-207v661q0 89 -50 153t-170 63q-119 0 -190 -138v-739h-208v1600z" />
    <glyph glyph-name="Hbar" unicode="&#x126;" horiz-adv-x="1208" 
d="M357 1194v-325h494v325h-494zM1058 1194v-1194h-207v662h-494v-662h-207v1194h-138v206h138v200h207v-200h494v200h207v-200h138v-206h-138z" />
    <glyph glyph-name="hbar" unicode="&#x127;" horiz-adv-x="1125" 
d="M150 1431v169h208v-169h446v-206h-446v-307q87 167 252 167q166 -1 264 -119t101 -297v-669h-207v661q0 89 -50 153t-170 63q-119 0 -190 -138v-739h-208v1225h-140v206h140z" />
    <glyph glyph-name="Itilde" unicode="&#x128;" 
d="M377 1600v-1600h-207v1600h207zM386 1888v-1q30 1 30 33t-13 75h186q-38 -220 -147 -252q-28 -8 -56 -8q-74 0 -134 57t-87 57h-4q-30 -2 -30 -33t14 -72h-187q39 220 149 252q28 8 56 8q73 0 135 -58t88 -58z" />
    <glyph glyph-name="itilde" unicode="&#x129;" 
d="M377 1030v-1030h-207v1030h207zM386 1317v-1q30 0 30 32t-13 76h186q-38 -220 -147 -252q-28 -8 -56 -8q-74 0 -134 57t-87 57h-4q-30 -2 -30 -33t14 -72h-187q39 220 149 252q28 8 56 8q73 0 135 -58t88 -58z" />
    <glyph glyph-name="Imacron" unicode="&#x12a;" 
d="M377 1600v-1600h-207v1600h207zM-10 2008h567v-207h-567v207z" />
    <glyph glyph-name="imacron" unicode="&#x12b;" 
d="M377 1030v-1030h-207v1030h207zM-10 1437h567v-207h-567v207z" />
    <glyph glyph-name="Ibreve" unicode="&#x12c;" 
d="M377 1600v-1600h-207v1600h207zM274 1881q36 1 56 21t31 82h190q-22 -123 -80 -182q-81 -82 -197 -82t-189 72q-72 72 -89 192h189q11 -62 31 -82q22 -20 58 -21z" />
    <glyph glyph-name="ibreve" unicode="&#x12d;" 
d="M377 1030v-1030h-207v1030h207zM274 1310q36 0 56 20t31 83h190q-22 -123 -80 -182q-81 -82 -197 -82q-116 1 -189 73q-72 72 -89 191h189q11 -63 31 -83q22 -20 58 -20z" />
    <glyph glyph-name="Iogonek" unicode="&#x12e;" 
d="M170 1600h207v-1600h-155q-51 -71 -51 -119q0 -16 6 -29q15 -37 49 -37t93 51l58 -153q-122 -50 -201 -50q-78 0 -132 60t-54 136q0 17 2 35q16 111 178 206v1500z" />
    <glyph glyph-name="iogonek" unicode="&#x12f;" horiz-adv-x="541" 
d="M29 -141q0 119 138 214v956h207v-1029h-113q-51 -71 -51 -119q0 -16 6 -29q15 -37 49 -37t93 51l58 -153q-122 -50 -201 -50t-133 60t-53 136zM416 1307q0 -61 -43 -103t-103 -42t-102 42q-43 42 -43 103t43 103q42 42 102 42t103 -42t43 -103z" />
    <glyph glyph-name="dotlessi" unicode="&#x131;" 
d="M377 1030v-1030h-207v1030h207z" />
    <glyph glyph-name="IJ" unicode="&#x132;" horiz-adv-x="1485" 
d="M377 1600v-1600h-207v1600h207zM1329 343q0 -166 -94 -261q-93 -95 -231 -95q-138 -1 -234 97t-97 260l164 64q27 -152 65 -183t92 -31h4q56 0 90 34t34 124v1248h207v-1257z" />
    <glyph glyph-name="ij" unicode="&#x133;" horiz-adv-x="1102" 
d="M416 1307q0 -61 -43 -103t-103 -42t-102 42q-43 42 -43 103t43 103q42 42 102 42t103 -42t43 -103zM374 1029v-1029h-207v1029h207zM951 1307q0 -61 -43 -103q-42 -42 -102 -42t-103 42t-43 103t43 103t103 42t102 -42q43 -42 43 -103zM702 60v969h207v-967
q0 -253 -319 -278v206q112 12 112 70z" />
    <glyph glyph-name="Jcircumflex" unicode="&#x134;" horiz-adv-x="937" 
d="M743 1749l-92 82l-89 -82h-219l233 238h147l241 -238h-221zM781 343q0 -166 -94 -261q-93 -95 -231 -95q-138 -1 -234 97t-97 260l164 64q27 -152 65 -183t92 -31h4q56 0 90 34t34 124v1248h207v-1257z" />
    <glyph glyph-name="jcircumflex" unicode="&#x135;" horiz-adv-x="685" 
d="M443 1149l-92 82l-89 -82h-219l233 238h147l241 -238h-221zM263 60v969h207v-967q0 -253 -319 -278v206q112 12 112 70z" />
    <glyph glyph-name="Kcommaaccent" unicode="&#x136;" horiz-adv-x="1206" 
d="M752 -186q0 -43 -31 -81q-63 -76 -188 -76q-58 0 -149 15l35 126q57 -26 78 -26t26 1q31 4 40 35q3 7 3 15q0 34 -93 64l48 130h149l-23 -61q105 -54 105 -142zM357 0h-207v1600h207v-504l378 504h262l-491 -658l611 -942h-251l-495 772l-14 -17v-755z" />
    <glyph glyph-name="kcommaaccent" unicode="&#x137;" horiz-adv-x="944" 
d="M706 -186q0 -43 -31 -81q-63 -76 -188 -76q-58 0 -149 15l35 126q57 -26 78 -26t26 1q31 4 40 35q3 7 3 15q0 34 -93 64l48 130h149l-23 -61q105 -54 105 -142zM358 0h-208v1415h208v-582l160 196h267l-279 -344l388 -685h-247l-280 513l-9 -11v-502z" />
    <glyph glyph-name="kgreenlandic" unicode="&#x138;" horiz-adv-x="943" 
d="M357 0h-207v1030h207v-197l160 197h267l-278 -345l387 -685h-247l-280 514l-9 -11v-503z" />
    <glyph glyph-name="Lacute" unicode="&#x139;" horiz-adv-x="1019" 
d="M600 1937h189l-204 -279h-148zM150 0v1600h207v-1392h572v-208h-779z" />
    <glyph glyph-name="lacute" unicode="&#x13a;" horiz-adv-x="508" 
d="M300 1937h189l-204 -279h-148zM359 1601v-1601h-208v1601h208z" />
    <glyph glyph-name="Lcommaaccent" unicode="&#x13b;" horiz-adv-x="1019" 
d="M538 -177q0 34 -93 64l42 113h-337v1600h207v-1392h572v-208h-293l-17 -44q105 -54 105 -142q0 -43 -31 -81q-63 -76 -188 -76q-58 0 -149 15l35 126q57 -26 78 -26t26 1q31 4 40 35q3 7 3 15z" />
    <glyph glyph-name="lcommaaccent" unicode="&#x13c;" horiz-adv-x="508" 
d="M238 -177q0 34 -93 64l42 113h-36v1601h208v-1601h-23l-17 -44q105 -54 105 -142q0 -43 -31 -81q-63 -76 -188 -76q-58 0 -149 15l35 126q57 -26 78 -26t26 1q31 4 40 35q3 7 3 15z" />
    <glyph glyph-name="Lcaron" unicode="&#x13d;" horiz-adv-x="956" 
d="M569 1466q1 60 43 102t102 42t102 -42q43 -42 43 -88t-12 -76l-108 -219h-189l61 178q-42 43 -42 103zM127 0v1600h208v-1392h562v-208h-770z" />
    <glyph glyph-name="lcaron" unicode="&#x13e;" horiz-adv-x="679" 
d="M369 1466q1 60 43 102t102 42t102 -42q43 -42 43 -88t-12 -76l-108 -219h-189l61 178q-42 43 -42 103zM335 1600v-1600h-208v1600h208z" />
    <glyph glyph-name="Ldot" unicode="&#x13f;" horiz-adv-x="956" 
d="M855 800q0 -56 -39 -94t-93 -38q-53 0 -93 38t-40 94t40 94t93 38q54 0 93 -38t39 -94zM127 0v1600h208v-1392h562v-208h-770z" />
    <glyph glyph-name="ldot" unicode="&#x140;" horiz-adv-x="595" 
d="M645 800q1 -56 -39 -94t-94 -38t-93 38t-39 94t39 94t93 38t94 -38t39 -94zM320 1600v-1600h-208v1600h208z" />
    <glyph glyph-name="Lslash" unicode="&#x141;" horiz-adv-x="1038" 
d="M419 208h562v-208h-770v491l-211 -171v258l211 171v851h208v-681l419 341v-258l-419 -341v-453z" />
    <glyph glyph-name="lslash" unicode="&#x142;" horiz-adv-x="517" 
d="M154 1600h208v-596l155 126v-258l-155 -127v-745h-208v576l-154 -126v258l154 127v765z" />
    <glyph glyph-name="Nacute" unicode="&#x143;" horiz-adv-x="1357" 
d="M150 1600h189l660 -1142v1142h208v-1600h-181l-669 1156v-1156h-207v1600zM739 1978h252l-272 -279h-197z" />
    <glyph glyph-name="nacute" unicode="&#x144;" horiz-adv-x="1139" 
d="M358 0h-208v1029h208v-120q65 176 261 176q167 -1 265 -119t102 -297v-669h-207v661q0 89 -65 153q-64 64 -154 63q-90 0 -155 -62q-36 -37 -47 -62v-753zM629 1407h252l-272 -279h-197z" />
    <glyph glyph-name="Ncommaaccent" unicode="&#x145;" horiz-adv-x="1357" 
d="M863 -186q0 -43 -31 -81q-63 -76 -188 -76q-58 0 -149 15l35 126q57 -26 78 -26t26 1q31 4 40 35q3 7 3 15q0 34 -93 64l48 130h149l-23 -61q105 -54 105 -142zM150 1600h189l660 -1142v1142h208v-1600h-181l-669 1156v-1156h-207v1600z" />
    <glyph glyph-name="ncommaaccent" unicode="&#x146;" horiz-adv-x="1139" 
d="M752 -186q0 -43 -31 -81q-63 -76 -188 -76q-58 0 -149 15l35 126q57 -26 78 -26t26 1q31 4 40 35q3 7 3 15q0 34 -93 64l48 130h149l-23 -61q105 -54 105 -142zM358 0h-208v1029h208v-120q65 176 261 176q167 -1 265 -119t102 -297v-669h-207v661q0 89 -65 153
q-64 64 -154 63q-90 0 -155 -62q-36 -37 -47 -62v-753z" />
    <glyph glyph-name="Ncaron" unicode="&#x147;" horiz-adv-x="1357" 
d="M150 1600h189l660 -1142v1142h208v-1600h-181l-669 1156v-1156h-207v1600zM989 1987l-241 -238h-147l-233 238h219l89 -82l92 82h221z" />
    <glyph glyph-name="ncaron" unicode="&#x148;" horiz-adv-x="1139" 
d="M358 0h-208v1029h208v-120q65 176 261 176q167 -1 265 -119t102 -297v-669h-207v661q0 89 -65 153q-64 64 -154 63q-90 0 -155 -62q-36 -37 -47 -62v-753zM879 1416l-241 -238h-147l-233 238h219l89 -82l92 82h221z" />
    <glyph glyph-name="napostrophe" unicode="&#x149;" horiz-adv-x="1139" 
d="M-131 1466q1 60 43 102t102 42t102 -42q43 -42 43 -88t-12 -76l-108 -219h-189l61 178q-42 43 -42 103zM358 0h-208v1029h208v-120q65 176 261 176q167 -1 265 -119t102 -297v-669h-207v661q0 89 -65 153q-64 64 -154 63q-90 0 -155 -62q-36 -37 -47 -62v-753z" />
    <glyph glyph-name="Eng" unicode="&#x14a;" horiz-adv-x="1357" 
d="M357 0h-207v1600h189l659 -1141v536h1v605h208v-1600h-4q-8 -232 -213 -333l-112 122q123 111 123 226q0 20 -1 30l-643 1111v-1156z" />
    <glyph glyph-name="eng" unicode="&#x14b;" horiz-adv-x="1136" 
d="M778 626v35q0 89 -65 153t-154 63q-89 0 -154 -62q-37 -37 -48 -62v-753h-207v1030h207v-121q56 176 242 176q147 -1 265 -119t121 -297v-669h-5q-17 -200 -203 -338l-127 127q112 78 127 239v598h1z" />
    <glyph glyph-name="Omacron" unicode="&#x14c;" horiz-adv-x="1889" 
d="M944 1412q-254 0 -432 -178t-178 -432q0 -253 179 -432t431 -179t432 179q178 179 178 432q0 254 -178 432t-432 178zM1763 802q0 -339 -240 -579t-579 -240t-579 240t-240 579t240 579t579 240t579 -240t240 -579zM661 2008h567v-207h-567v207z" />
    <glyph glyph-name="omacron" unicode="&#x14d;" horiz-adv-x="1318" 
d="M302 542q0 -148 104 -251q104 -104 253 -104t253 104q104 103 104 251t-104 253t-253 105t-253 -105t-104 -253zM660 1113q236 0 402 -167t166 -403t-166 -403t-402 -167t-403 167t-167 403t167 403t403 167zM376 1437h567v-207h-567v207z" />
    <glyph glyph-name="Obreve" unicode="&#x14e;" horiz-adv-x="1889" 
d="M944 1412q-254 0 -432 -178t-178 -432q0 -253 179 -432t431 -179t432 179q178 179 178 432q0 254 -178 432t-432 178zM1763 802q0 -339 -240 -579t-579 -240t-579 240t-240 579t240 579t579 240t579 -240t240 -579zM944 1881q36 1 58 21q20 20 30 82h190
q-22 -123 -80 -182q-82 -82 -198 -82t-188 72t-89 192h189q12 -62 32 -82t56 -21z" />
    <glyph glyph-name="obreve" unicode="&#x14f;" horiz-adv-x="1318" 
d="M302 542q0 -148 104 -251q104 -104 253 -104t253 104q104 103 104 251t-104 253t-253 105t-253 -105t-104 -253zM660 1113q236 0 402 -167t166 -403t-166 -403t-402 -167t-403 167t-167 403t167 403t403 167zM660 1310q36 0 56 20t31 83h190q-22 -123 -80 -182
q-81 -82 -197 -82q-116 1 -189 73q-72 72 -89 191h189q11 -63 31 -83q22 -20 58 -20z" />
    <glyph glyph-name="Ohungarumlaut" unicode="&#x150;" horiz-adv-x="1889" 
d="M944 1412q-254 0 -432 -178t-178 -432q0 -253 179 -432t431 -179t432 179q178 179 178 432q0 254 -178 432t-432 178zM1763 802q0 -339 -240 -579t-579 -240t-579 240t-240 579t240 579t579 240t579 -240t240 -579zM1328 2003l-221 -271h-185l91 271h315zM967 2003
l-221 -271h-185l91 271h315z" />
    <glyph glyph-name="ohungarumlaut" unicode="&#x151;" horiz-adv-x="1318" 
d="M302 542q0 -148 104 -251q104 -104 253 -104t253 104q104 103 104 251t-104 253t-253 105t-253 -105t-104 -253zM660 1113q236 0 402 -167t166 -403t-166 -403t-402 -167t-403 167t-167 403t167 403t403 167zM1043 1432l-221 -271h-185l91 271h315zM682 1432l-221 -271
h-185l91 271h315z" />
    <glyph glyph-name="OE" unicode="&#x152;" horiz-adv-x="2258" 
d="M478 1234q-178 -178 -179 -432q0 -253 179 -432t431 -179q117 0 186 26q69 27 125 57t121 96q178 179 178 432t-178 432q-177 178 -431 178t-432 -178zM2132 904v-207h-408q-13 -251 -238 -489h646v-208h-979q-112 -17 -244 -17q-339 0 -579 240t-240 579t240 579
t579 240q133 0 245 -21h978v-207h-644q225 -237 237 -489h407z" />
    <glyph glyph-name="oe" unicode="&#x153;" horiz-adv-x="2184" 
d="M659 -27q-235 0 -402 167t-167 403t167 403t402 167q286 0 461 -235q26 35 59 68q167 167 403 167t402 -167q10 -10 57 -63l-649 -650q52 -46 194 -46t248 104q13 14 53 62l207 -74q-76 -105 -110 -139q-166 -167 -402 -167t-403 167q-33 33 -59 68q-175 -235 -461 -235z
M1012 542q0 22 2 45q-14 119 -110 216t-245 97t-253 -105t-104 -253t104 -251q104 -104 253 -104t245 96t110 215q-2 22 -2 44zM1228 541q0 -22 -2 -46q5 -81 26 -109l486 487q-36 27 -170 27t-232 -98t-109 -220q1 -19 1 -41z" />
    <glyph glyph-name="Racute" unicode="&#x154;" horiz-adv-x="1171" 
d="M357 512v-512h-207v1600h454q193 -26 326 -159q159 -160 159 -385t-159 -385q-110 -110 -168 -124l355 -547h-251l-320 512h-189zM357 1392v-672h189q138 0 236 98t99 238q-1 140 -99 238t-236 98h-189zM694 1978h252l-272 -279h-197z" />
    <glyph glyph-name="racute" unicode="&#x155;" horiz-adv-x="693" 
d="M357 0h-207v1029h207v-139q116 157 285 165v-215q-113 -6 -180 -73q-101 -100 -105 -238v-529zM457 1407h252l-272 -279h-197z" />
    <glyph glyph-name="Rcommaaccent" unicode="&#x156;" horiz-adv-x="1171" 
d="M577 -177q0 34 -93 64l48 130q190 -59 221 -150q10 -35 10 -65t-40 -80q-54 -66 -179 -65q-58 0 -149 15l35 126q57 -26 78 -26t26 1q31 4 40 35q3 7 3 15zM357 512v-512h-207v1600h454q193 -26 326 -159q159 -160 159 -385t-159 -385q-110 -110 -168 -124l355 -547h-251
l-320 512h-189zM357 1392v-672h189q138 0 236 98t99 238q-1 140 -99 238t-236 98h-189z" />
    <glyph glyph-name="rcommaaccent" unicode="&#x157;" horiz-adv-x="693" 
d="M427 -177q0 34 -93 64l48 130q190 -59 221 -150q10 -35 10 -65t-40 -80q-54 -66 -179 -65q-58 0 -149 15l35 126q57 -26 78 -26t26 1q31 4 40 35q3 7 3 15zM358 0h-207v1029h207v-139q116 157 285 165v-215q-113 -6 -180 -73q-101 -100 -105 -238v-529z" />
    <glyph glyph-name="Rcaron" unicode="&#x158;" horiz-adv-x="1171" 
d="M357 512v-512h-207v1600h454q193 -26 326 -159q159 -160 159 -385t-159 -385q-110 -110 -168 -124l355 -547h-251l-320 512h-189zM357 1392v-672h189q138 0 236 98t99 238q-1 140 -99 238t-236 98h-189zM944 1987l-241 -238h-147l-233 238h219l89 -82l92 82h221z" />
    <glyph glyph-name="rcaron" unicode="&#x159;" horiz-adv-x="693" 
d="M358 0h-207v1029h207v-139q116 157 285 165v-215q-113 -6 -180 -73q-101 -100 -105 -238v-529zM707 1416l-241 -238h-147l-233 238h219l89 -82l92 82h221z" />
    <glyph glyph-name="Sacute" unicode="&#x15a;" horiz-adv-x="1101" 
d="M176 1244q0 154 110 264t264 110q155 0 265 -109q62 -60 104 -191l-188 -74q-35 92 -73 130t-108 38t-118 -48q-49 -48 -49 -119q0 -69 52 -121t149 -97q188 -61 327 -199t139 -345t-146 -353t-354 -147q-206 0 -352 147q-117 117 -148 323l201 73q19 -177 99 -257
t201 -80t207 86q86 85 86 207t-84 206t-203 133q-169 57 -275 163t-106 260zM611 1978h252l-272 -279h-197z" />
    <glyph glyph-name="sacute" unicode="&#x15b;" horiz-adv-x="882" 
d="M570 309q0 53 -30 83t-113 82q-112 61 -159 108q-82 82 -82 198t82 198t198 82t193 -78q55 -55 70 -123l-201 -58q-8 25 -20 38t-42 13t-52 -22t-21 -51q0 -29 20 -49t87 -63q124 -68 180 -124q97 -99 97 -235q-1 -136 -97 -234t-234 -97q-138 0 -234 98q-67 67 -88 167
l206 44q20 -101 116 -101q52 0 88 36t36 88zM511 1407h252l-272 -279h-197z" />
    <glyph glyph-name="Scircumflex" unicode="&#x15c;" horiz-adv-x="1101" 
d="M176 1244q0 154 110 264t264 110q155 0 265 -109q62 -60 104 -191l-188 -74q-35 92 -73 130t-108 38t-118 -48q-49 -48 -49 -119q0 -69 52 -121t149 -97q188 -61 327 -199t139 -345t-146 -353t-354 -147q-206 0 -352 147q-117 117 -148 323l201 73q19 -177 99 -257
t201 -80t207 86q86 85 86 207t-84 206t-203 133q-169 57 -275 163t-106 260zM640 1749l-92 82l-89 -82h-219l233 238h147l241 -238h-221z" />
    <glyph glyph-name="scircumflex" unicode="&#x15d;" horiz-adv-x="882" 
d="M570 309q0 53 -30 83t-113 82q-112 61 -159 108q-82 82 -82 198t82 198t198 82t193 -78q55 -55 70 -123l-201 -58q-8 25 -20 38t-42 13t-52 -22t-21 -51q0 -29 20 -49t87 -63q124 -68 180 -124q97 -99 97 -235q-1 -136 -97 -234t-234 -97q-138 0 -234 98q-67 67 -88 167
l206 44q20 -101 116 -101q52 0 88 36t36 88zM540 1178l-92 82l-89 -82h-219l233 238h147l241 -238h-221z" />
    <glyph glyph-name="Scedilla" unicode="&#x15e;" horiz-adv-x="1101" 
d="M548 -177q0 34 -93 64l37 99q-169 19 -290 140t-152 327l201 73q19 -177 99 -257t201 -80t207 86q86 85 86 207t-84 206t-203 133q-169 57 -275 163t-106 260t110 264t264 110q155 0 265 -109q62 -60 104 -191l-188 -74q-35 92 -73 130t-108 38t-118 -48
q-49 -48 -49 -119q0 -69 52 -121t149 -97q188 -61 327 -199t139 -345t-146 -353q-114 -114 -262 -139l-13 -35q105 -54 105 -142q0 -43 -31 -81q-63 -76 -188 -76q-58 0 -149 15l35 126q57 -26 78 -26t26 1q31 4 40 35q3 7 3 15z" />
    <glyph glyph-name="scedilla" unicode="&#x15f;" horiz-adv-x="882" 
d="M570 309q0 53 -30 83t-113 82q-112 61 -159 108q-82 82 -82 198t82 198t198 82t193 -78q55 -55 70 -123l-201 -58q-8 25 -20 38t-42 13t-52 -22t-21 -51q0 -29 20 -49t87 -63q124 -68 180 -124q97 -99 97 -235t-96 -233q-61 -62 -138 -84l-13 -35q105 -54 105 -142
q0 -43 -31 -81q-63 -76 -188 -76q-58 0 -149 15l35 126q57 -26 78 -26t26 1q31 4 40 35q3 7 3 15q0 34 -93 64l35 94q-102 17 -174 89t-93 172l206 44q20 -101 116 -101q52 0 88 36t36 88z" />
    <glyph glyph-name="Scaron" unicode="&#x160;" horiz-adv-x="1101" 
d="M176 1244q0 154 110 264t264 110q155 0 265 -109q62 -60 104 -191l-188 -74q-35 92 -73 130t-108 38t-118 -48q-49 -48 -49 -119q0 -69 52 -121t149 -97q188 -61 327 -199t139 -345t-146 -353t-354 -147q-206 0 -352 147q-117 117 -148 323l201 73q19 -177 99 -257
t201 -80t207 86q86 85 86 207t-84 206t-203 133q-169 57 -275 163t-106 260zM861 1987l-241 -238h-147l-233 238h219l89 -82l92 82h221z" />
    <glyph glyph-name="scaron" unicode="&#x161;" horiz-adv-x="882" 
d="M570 309q0 53 -30 83t-113 82q-112 61 -159 108q-82 82 -82 198t82 198t198 82t193 -78q55 -55 70 -123l-201 -58q-8 25 -20 38t-42 13t-52 -22t-21 -51q0 -29 20 -49t87 -63q124 -68 180 -124q97 -99 97 -235q-1 -136 -97 -234t-234 -97q-138 0 -234 98q-67 67 -88 167
l206 44q20 -101 116 -101q52 0 88 36t36 88zM761 1416l-241 -238h-147l-233 238h219l89 -82l92 82h221z" />
    <glyph glyph-name="Tcommaaccent" unicode="&#x162;" horiz-adv-x="1054" 
d="M525 -177q0 34 -93 64l42 113h-51v1393h-373v207h954v-207h-373v-1393h-8l-17 -44q105 -54 105 -142q0 -43 -31 -81q-63 -76 -188 -76q-58 0 -149 15l35 126q57 -26 78 -26t26 1q31 4 40 35q3 7 3 15z" />
    <glyph glyph-name="tcommaaccent" unicode="&#x163;" horiz-adv-x="758" 
d="M377 -177q0 34 -93 64l42 113h-51v822h-185v207h185v386h207v-386h185v-207h-185v-822h-7l-17 -44q105 -54 105 -142q0 -43 -31 -81q-63 -76 -188 -76q-58 0 -149 15l35 126q57 -26 78 -26t26 1q31 4 40 35q3 7 3 15z" />
    <glyph glyph-name="Tcaron" unicode="&#x164;" horiz-adv-x="1054" 
d="M631 1393v-1393h-208v1393h-373v207h954v-207h-373zM838 1987l-241 -238h-147l-233 238h219l89 -82l92 82h221z" />
    <glyph glyph-name="tcaron" unicode="&#x165;" horiz-adv-x="758" 
d="M569 1466q1 60 43 102t102 42t102 -42q43 -42 43 -88t-12 -76l-108 -219h-189l61 178q-42 43 -42 103zM275 1029v386h207v-386h185v-207h-185v-822h-207v822h-185v207h185z" />
    <glyph glyph-name="Tbar" unicode="&#x166;" horiz-adv-x="1054" 
d="M423 903v490h-373v207h954v-207h-373v-490h218v-206h-218v-697h-208v697h-218v206h218z" />
    <glyph glyph-name="tbar" unicode="&#x167;" horiz-adv-x="637" 
d="M215 669v153h-185v207h185v386h207v-386h185v-207h-185v-153h185v-206h-185v-463h-207v463h-185v206h185z" />
    <glyph glyph-name="Utilde" unicode="&#x168;" horiz-adv-x="1388" 
d="M1030 1600h208v-1127q-27 -193 -159 -326q-160 -160 -385 -160q-224 -1 -384 159t-160 385v1069h208v-1069q0 -139 98 -237t238 -98t238 98t98 237v1069zM807 1888v-1q30 1 30 33t-13 75h186q-38 -220 -147 -252q-28 -8 -56 -8q-73 0 -133 57t-88 57h-4q-30 -2 -30 -33
t14 -72h-187q39 220 149 252q28 8 56 8q73 0 135 -58t88 -58z" />
    <glyph glyph-name="utilde" unicode="&#x169;" horiz-adv-x="1162" 
d="M582 -14q-190 0 -310 119q-119 119 -122 298v626h208v-618q0 -89 65 -153t158 -64t159 64t65 153v618h207v-626q-4 -179 -122 -298t-308 -119zM694 1317v-1q30 0 30 32t-13 76h186q-38 -220 -147 -252q-28 -8 -56 -8q-74 0 -134 57t-87 57h-4q-30 -2 -30 -33t14 -72h-187
q39 220 149 252q28 8 56 8q73 0 135 -58t88 -58z" />
    <glyph glyph-name="Umacron" unicode="&#x16a;" horiz-adv-x="1388" 
d="M1030 1600h208v-1127q-27 -193 -159 -326q-160 -160 -385 -160q-224 -1 -384 159t-160 385v1069h208v-1069q0 -139 98 -237t238 -98t238 98t98 237v1069zM411 2008h567v-207h-567v207z" />
    <glyph glyph-name="umacron" unicode="&#x16b;" horiz-adv-x="1162" 
d="M582 -14q-190 0 -310 119q-119 119 -122 298v626h208v-618q0 -89 65 -153t158 -64t159 64t65 153v618h207v-626q-4 -179 -122 -298t-308 -119zM298 1437h567v-207h-567v207z" />
    <glyph glyph-name="Ubreve" unicode="&#x16c;" horiz-adv-x="1388" 
d="M1030 1600h208v-1127q-27 -193 -159 -326q-160 -160 -385 -160q-224 -1 -384 159t-160 385v1069h208v-1069q0 -139 98 -237t238 -98t238 98t98 237v1069zM694 1881q36 1 58 21q20 20 30 82h190q-22 -123 -80 -182q-82 -82 -198 -82t-188 72t-89 192h189q12 -62 32 -82
t56 -21z" />
    <glyph glyph-name="ubreve" unicode="&#x16d;" horiz-adv-x="1162" 
d="M582 -14q-190 0 -310 119q-119 119 -122 298v626h208v-618q0 -89 65 -153t158 -64t159 64t65 153v618h207v-626q-4 -179 -122 -298t-308 -119zM582 1310q36 0 56 20t31 83h190q-22 -123 -80 -182q-81 -82 -197 -82q-116 1 -189 73q-72 72 -89 191h189q11 -63 31 -83
q22 -20 58 -20z" />
    <glyph glyph-name="Uring" unicode="&#x16e;" horiz-adv-x="1388" 
d="M1030 1600h208v-1127q-27 -193 -159 -326q-160 -160 -385 -160q-224 -1 -384 159t-160 385v1069h208v-1069q0 -139 98 -237t238 -98t238 98t98 237v1069zM696 1843q-59 0 -59 -59q-1 -22 15 -38t41 -16t41 16t16 40q0 26 -16 42t-38 15zM864 1786q0 -70 -50 -120
t-120 -50t-121 50q-50 50 -50 120t50 121q51 50 121 50t120 -50q50 -51 50 -121z" />
    <glyph glyph-name="uring" unicode="&#x16f;" horiz-adv-x="1162" 
d="M582 -14q-190 0 -310 119q-119 119 -122 298v626h208v-618q0 -89 65 -153t158 -64t159 64t65 153v618h207v-626q-4 -179 -122 -298t-308 -119zM583 1272q-59 0 -59 -59q0 -23 16 -39t40 -15q25 -1 41 15t16 42t-16 40q-16 16 -38 16zM751 1216q0 -70 -50 -121
q-51 -50 -121 -50t-120 50q-50 51 -50 121t50 120t120 50t121 -50q50 -50 50 -120z" />
    <glyph glyph-name="Uhungarumlaut" unicode="&#x170;" horiz-adv-x="1388" 
d="M1030 1600h208v-1127q-27 -193 -159 -326q-160 -160 -385 -160q-224 -1 -384 159t-160 385v1069h208v-1069q0 -139 98 -237t238 -98t238 98t98 237v1069zM1078 2003l-221 -271h-185l91 271h315zM717 2003l-221 -271h-185l91 271h315z" />
    <glyph glyph-name="uhungarumlaut" unicode="&#x171;" horiz-adv-x="1162" 
d="M582 -14q-190 0 -310 119q-119 119 -122 298v626h208v-618q0 -89 65 -153t158 -64t159 64t65 153v618h207v-626q-4 -179 -122 -298t-308 -119zM965 1432l-221 -271h-185l91 271h315zM604 1432l-221 -271h-185l91 271h315z" />
    <glyph glyph-name="Uogonek" unicode="&#x172;" horiz-adv-x="1388" 
d="M805 -344q-79 0 -133 60t-53 135q0 75 49 137q-208 8 -363 163t-155 380v1069h208v-1069q0 -139 98 -237t238 -98t238 98t98 237v1069h208v-1127q-27 -193 -159 -326q-95 -95 -212 -133q-67 -86 -67 -140q0 -16 6 -29q15 -37 49 -37t93 51l58 -153q-122 -50 -201 -50z
" />
    <glyph glyph-name="uogonek" unicode="&#x173;" horiz-adv-x="1162" 
d="M751 -337q-79 0 -133 60t-53 134q0 74 43 129h-22q-195 0 -314 119t-122 298v626h208v-618q0 -89 65 -153t158 -64t159 64t65 153v618h207v-626q-3 -199 -147 -322q-119 -127 -119 -200q0 -16 6 -29q15 -37 49 -37t93 51l58 -153q-122 -50 -201 -50z" />
    <glyph glyph-name="Wcircumflex" unicode="&#x174;" horiz-adv-x="1686" 
d="M739 1600h207v-1301q10 -17 34 -42q65 -62 154 -62q89 -1 154 63t65 153v1189h208v-1197q-4 -169 -127 -293q-124 -124 -300 -123q-176 0 -291 124q-117 -124 -293 -124t-299 123t-126 293v1197h207v-1189q0 -89 65 -153t155 -63q90 0 153 62q25 25 34 42v1301zM933 1749
l-92 82l-89 -82h-219l233 238h147l241 -238h-221z" />
    <glyph glyph-name="wcircumflex" unicode="&#x175;" horiz-adv-x="1418" 
d="M604 1029h207v-707q0 -56 37 -92t88 -36q123 0 123 153v682h208v-721q-5 -132 -99 -227t-232 -95t-227 96q-91 -96 -229 -96t-232 95t-98 227v721h207v-682q0 -153 124 -153q51 0 85 34t38 77v724zM798 1178l-92 82l-89 -82h-219l233 238h147l241 -238h-221z" />
    <glyph glyph-name="Ycircumflex" unicode="&#x176;" horiz-adv-x="1414" 
d="M810 0h-207v642l-553 958h238l418 -724l419 724h239l-554 -958v-642zM797 1749l-92 82l-89 -82h-219l233 238h147l241 -238h-221z" />
    <glyph glyph-name="ycircumflex" unicode="&#x177;" horiz-adv-x="1139" 
d="M403 -346h-219l274 575l-383 800h233l261 -563l261 563h232zM658 1178l-92 82l-89 -82h-219l233 238h147l241 -238h-221z" />
    <glyph glyph-name="Ydieresis" unicode="&#x178;" horiz-adv-x="1414" 
d="M810 0h-207v642l-553 958h238l418 -724l419 724h239l-554 -958v-642zM1040 1864q0 -60 -43 -102t-103 -42t-102 42t-42 102t42 103q42 42 102 42t103 -42q43 -43 43 -103zM664 1864q0 -60 -43 -102t-103 -42t-102 42t-42 102t42 103q42 42 102 42t103 -42q43 -43 43 -103
z" />
    <glyph glyph-name="Zacute" unicode="&#x179;" horiz-adv-x="1463" 
d="M196 1393v207h1116l-805 -1392h760v-208h-1117l804 1393h-758zM792 1978h252l-272 -279h-197z" />
    <glyph glyph-name="zacute" unicode="&#x17a;" horiz-adv-x="1125" 
d="M195 822v207h780l-469 -821h459v-208h-815l468 822h-423zM623 1407h252l-272 -279h-197z" />
    <glyph glyph-name="Zdotaccent" unicode="&#x17b;" horiz-adv-x="1463" 
d="M196 1393v207h1116l-805 -1392h760v-208h-1117l804 1393h-758zM864 1875q0 -56 -39 -94t-93 -38t-94 38q-39 38 -39 94t39 94q40 38 94 38t93 -38t39 -94z" />
    <glyph glyph-name="zdotaccent" unicode="&#x17c;" horiz-adv-x="1125" 
d="M195 822v207h780l-469 -821h459v-208h-815l468 822h-423zM695 1304q0 -56 -39 -94q-40 -38 -94 -38t-93 38t-39 94t39 94t93 38t94 -38q39 -38 39 -94z" />
    <glyph glyph-name="Zcaron" unicode="&#x17d;" horiz-adv-x="1463" 
d="M196 1393v207h1116l-805 -1392h760v-208h-1117l804 1393h-758zM1042 1987l-241 -238h-147l-233 238h219l89 -82l92 82h221z" />
    <glyph glyph-name="zcaron" unicode="&#x17e;" horiz-adv-x="1125" 
d="M195 822v207h780l-469 -821h459v-208h-815l468 822h-423zM873 1416l-241 -238h-147l-233 238h219l89 -82l92 82h221z" />
    <glyph glyph-name="longs" unicode="&#x17f;" horiz-adv-x="543" 
d="M332 0h-208v1215q8 127 97 219q95 88 218 88q62 0 189 -44l-69 -196q-89 38 -121 38t-68 -34t-38 -80v-1206z" />
    <glyph glyph-name="florin" unicode="&#x192;" horiz-adv-x="541" 
d="M330 0h-1v-12q-12 -323 -391 -323v202q178 0 185 122v832h-92v208h92v186q7 127 97 219q95 88 217 88q63 0 189 -44l-69 -196q-88 38 -120 38t-72 -35q-33 -33 -35 -79v-177h185v-208h-185v-821z" />
    <glyph glyph-name="Aringacute" unicode="&#x1fa;" horiz-adv-x="1346" 
d="M847 1567q0 -72 -50 -138l545 -1429h-220l-226 576h-446l-230 -576h-221l551 1428q-54 68 -54 140t44 116t70 50l104 146h359l-277 -188q51 -53 51 -125zM676 1614q-51 0 -51 -51q0 -15 13 -28t33 -13t33 13t13 33t-13 33t-28 13zM819 783l-145 382l-146 -382h291z" />
    <glyph glyph-name="aringacute" unicode="&#x1fb;" horiz-adv-x="1401" 
d="M1042 1029h208v-1030h-208v129q-150 -155 -348 -155q-236 1 -402 167t-167 402q0 236 167 403q118 118 273 152q-48 49 -48 119t50 120q28 28 62 40h-73l217 279h252l-272 -279h-6q33 -12 61 -40q50 -50 50 -120t-48 -119q128 -33 232 -140v72zM690 1272q-59 0 -59 -59
q-1 -23 15 -39t41 -15q25 -1 41 15t16 42t-16 40q-16 16 -38 16zM694 898q-148 0 -252 -104t-105 -252q1 -148 105 -252t252 -104t252 104q78 79 96 176v152q-18 97 -96 176q-104 104 -252 104z" />
    <glyph glyph-name="AEacute" unicode="&#x1fc;" horiz-adv-x="1715" 
d="M729 773v255l-110 -255h110zM1591 1600v-207h-655v-489h655v-207h-655v-489h655v-208h-862v566h-194l-242 -566h-253l689 1548v52h862zM876 1978h252l-272 -279h-197z" />
    <glyph glyph-name="aeacute" unicode="&#x1fd;" horiz-adv-x="2142" 
d="M1008 1030h207q56 82 285 82t396 -167q148 -149 156 -417l-837 1v-210q4 -6 25 -27q105 -105 253 -105t252 105q19 19 63 73l202 -71q-59 -98 -114 -153q-167 -166 -396 -166t-285 52v-27h-207v95q-150 -120 -350 -120q-236 1 -402 167t-166 402t166 402t402 166
q200 0 350 -120v38zM1493 899q-148 0 -252 -104q-22 -22 -26 -28v-31h589l-59 59q-104 104 -252 104zM658 899q-148 0 -252 -104t-104 -252t104 -252t252 -104t252 105q80 78 98 175v152q-18 96 -98 176q-104 104 -252 104zM1132 1407h252l-272 -279h-197z" />
    <glyph glyph-name="Oslashacute" unicode="&#x1fe;" horiz-adv-x="1889" 
d="M1763 802q0 -339 -240 -579t-579 -240q-164 0 -251 35l-80 -173l-189 88l81 173q-51 28 -140 117q-240 240 -240 579t240 579t579 240q164 0 251 -35l81 173l188 -88l-81 -173q51 -28 141 -116q239 -241 239 -580zM944 191q254 0 432 179t178 432t-178 432q-65 65 -82 74
l-513 -1100q42 -17 163 -17zM944 1412q-254 0 -432 -178t-178 -432q0 -253 179 -432q65 -65 81 -74l512 1100q-41 16 -162 16zM1005 1978h252l-272 -279h-197z" />
    <glyph glyph-name="oslashacute" unicode="&#x1ff;" horiz-adv-x="1317" 
d="M90 544q0 236 166 402t402 167q134 0 194 -29l113 197l184 -95l-125 -202l37 -38q166 -166 166 -402q-1 -236 -167 -402q-166 -167 -402 -167q-133 0 -192 29l-114 -196l-185 89l127 208l-37 37q-167 166 -167 402zM658 188q148 0 252 104t105 252q0 148 -105 252
l-337 -606q5 -2 85 -2zM658 900q-148 0 -252 -104t-104 -252t93 -251l349 605q-5 2 -86 2zM719 1407h252l-272 -279h-197z" />
    <glyph glyph-name="circumflex" unicode="&#x2c6;" horiz-adv-x="1066" 
d="M621 1178l-92 82l-89 -82h-219l233 238h147l241 -238h-221z" />
    <glyph glyph-name="caron" unicode="&#x2c7;" horiz-adv-x="1066" 
d="M842 1416l-241 -238h-147l-233 238h219l89 -82l92 82h221z" />
    <glyph glyph-name="uni02C9" unicode="&#x2c9;" horiz-adv-x="717" 
d="M75 1437h567v-207h-567v207z" />
    <glyph glyph-name="breve" unicode="&#x2d8;" horiz-adv-x="978" 
d="M488 1310q36 0 56 20t31 83h190q-22 -123 -80 -182q-81 -82 -197 -82q-116 1 -189 73q-72 72 -89 191h189q11 -63 31 -83q22 -20 58 -20z" />
    <glyph glyph-name="dotaccent" unicode="&#x2d9;" horiz-adv-x="516" 
d="M390 1304q0 -56 -39 -94t-93 -38t-94 38q-39 38 -39 94t39 94q40 38 94 38t93 -38t39 -94z" />
    <glyph glyph-name="ring" unicode="&#x2da;" horiz-adv-x="869" 
d="M438 1272q-59 0 -59 -59q-1 -23 15 -39t41 -15q25 -1 41 15t16 42t-16 40q-16 16 -38 16zM606 1216q0 -70 -50 -121q-50 -50 -120 -50t-121 50q-50 51 -50 121t50 120q51 50 121 50t120 -50t50 -120z" />
    <glyph glyph-name="ogonek" unicode="&#x2db;" horiz-adv-x="437" 
d="M206 -119q0 -16 6 -29q15 -37 49 -37t93 51l58 -153q-122 -50 -201 -50t-133 60t-53 136q0 17 2 35q19 129 235 237l85 -27q-141 -144 -141 -223z" />
    <glyph glyph-name="tilde" unicode="&#x2dc;" horiz-adv-x="931" 
d="M578 1317v-1q30 0 30 32t-13 76h186q-38 -220 -147 -252q-28 -8 -56 -8q-74 0 -134 57t-87 57h-4q-30 -2 -30 -33t14 -72h-187q39 220 149 252q28 8 56 8q73 0 135 -58t88 -58z" />
    <glyph glyph-name="hungarumlaut" unicode="&#x2dd;" horiz-adv-x="817" 
d="M792 1432l-221 -271h-185l91 271h315zM431 1432l-221 -271h-185l91 271h315z" />
    <glyph glyph-name="tonos" unicode="&#x384;" horiz-adv-x="669" 
d="M317 1407h252l-272 -279h-197z" />
    <glyph glyph-name="dieresistonos" unicode="&#x385;" horiz-adv-x="887" 
d="M447 1516h203l-176 -338h-159zM314 1322q0 -50 -36 -85t-84 -35t-84 35t-36 85t36 84t84 35q48 -1 84 -35t36 -84zM841 1322q0 -50 -36 -85q-37 -35 -85 -35t-84 35t-36 85t36 84t84 35q48 -1 85 -35q36 -34 36 -84z" />
    <glyph glyph-name="Alphatonos" unicode="&#x386;" horiz-adv-x="1376" 
d="M844 1600l582 -1600h-220l-206 566h-424l-205 -566h-221l582 1600h112zM925 773l-137 375l-136 -375h273zM377 1407h252l-272 -279h-197z" />
    <glyph glyph-name="anoteleia" unicode="&#x387;" horiz-adv-x="389" 
d="M327 1038q0 -56 -39 -94t-93 -38q-53 0 -93 38t-40 94t40 94t93 38q54 0 93 -38t39 -94z" />
    <glyph glyph-name="Epsilontonos" unicode="&#x388;" horiz-adv-x="1556" 
d="M317 1407h252l-272 -279h-197zM1816 1600v-207h-655v-489h655v-207h-655v-489h655v-208h-862v1600h862z" />
    <glyph glyph-name="Etatonos" unicode="&#x389;" horiz-adv-x="1627" 
d="M317 1407h252l-272 -279h-197zM1161 662v-662h-207v1600h207v-731h494v731h207v-1600h-207v662h-494z" />
    <glyph glyph-name="Iotatonos" unicode="&#x38a;" horiz-adv-x="1150" 
d="M317 1407h252l-272 -279h-197zM1012 1600v-1600h-208v1600h208z" />
    <glyph glyph-name="Omicrontonos" unicode="&#x38c;" horiz-adv-x="2333" 
d="M317 1407h252l-272 -279h-197zM1279 1412q-253 0 -431 -178t-179 -432q0 -253 179 -432q180 -179 432 -179t430 179t179 432q-1 254 -179 432t-431 178zM2098 802q0 -339 -240 -579t-579 -240t-579 240t-240 579t240 579t579 240t579 -240t240 -579z" />
    <glyph glyph-name="Upsilontonos" unicode="&#x38e;" horiz-adv-x="1933" 
d="M317 1407h252l-272 -279h-197zM1614 0h-207v642l-553 958h238l418 -724l419 724h239l-554 -958v-642z" />
    <glyph glyph-name="Omegatonos" unicode="&#x38f;" horiz-adv-x="1910" 
d="M335 778q0 370 193 596t513 226h15q318 0 512 -226t194 -596q0 -280 -204 -470q-74 -69 -125 -101h235v-207h-518v194q130 52 267 198t137 386q0 292 -138 460t-366 168h-4q-228 0 -366 -168t-138 -460q0 -240 138 -386t267 -198v-194h-519v207h235q-51 32 -124 101
q-204 190 -204 470zM267 1407h252l-272 -279h-197z" />
    <glyph glyph-name="iotadieresistonos" unicode="&#x390;" horiz-adv-x="535" 
d="M371 1030v-1030h-207v1030h207zM257 1516h203l-176 -338h-159zM124 1322q0 -50 -36 -85t-84 -35t-84 35t-36 85t36 84t84 35q48 -1 84 -35t36 -84zM651 1322q0 -50 -36 -85q-37 -35 -85 -35t-84 35t-36 85t36 84t84 35q48 -1 85 -35q36 -34 36 -84z" />
    <glyph glyph-name="Alpha" unicode="&#x391;" horiz-adv-x="1376" 
d="M744 1600l582 -1600h-220l-206 566h-424l-205 -566h-221l582 1600h112zM825 773l-137 375l-136 -375h273z" />
    <glyph glyph-name="Beta" unicode="&#x392;" horiz-adv-x="1126" 
d="M357 1393v-253h135q46 4 80 36t35 88t-37 92t-96 37h-117zM357 927v-719h203v3q64 3 164 107t100 252t-104 252t-252 105h-111zM474 1600q139 0 238 -98t99 -240q0 -141 -144 -175q105 -15 237 -148t132 -368t-160 -401t-316 -168v-2h-410v1600h324z" />
    <glyph glyph-name="Gamma" unicode="&#x393;" horiz-adv-x="922" 
d="M897 1600v-208h-562v-1392h-208v1600h770z" />
    <glyph glyph-name="uni0394" unicode="&#x394;" horiz-adv-x="1326" 
d="M1029 208l-386 1045l-382 -1045h768zM55 1h-89l583 1599h188l589 -1600h-1271v1z" />
    <glyph glyph-name="Epsilon" unicode="&#x395;" horiz-adv-x="1137" 
d="M1012 1600v-207h-655v-489h655v-207h-655v-489h655v-208h-862v1600h862z" />
    <glyph glyph-name="Zeta" unicode="&#x396;" horiz-adv-x="1463" 
d="M196 1393v207h1116l-805 -1392h760v-208h-1117l804 1393h-758z" />
    <glyph glyph-name="Eta" unicode="&#x397;" horiz-adv-x="1208" 
d="M357 662v-662h-207v1600h207v-731h494v731h207v-1600h-207v662h-494z" />
    <glyph glyph-name="Theta" unicode="&#x398;" horiz-adv-x="1778" 
d="M410 906h959v-208h-959v208zM889 1412q-252 0 -431 -179t-179 -431t179 -432q179 -179 431 -179t431 179q179 180 179 432t-179 431t-431 179zM1708 802q0 -340 -240 -580t-579 -240t-579 240t-240 580t240 579q240 240 579 240t579 -240q240 -239 240 -579z" />
    <glyph glyph-name="Iota" unicode="&#x399;" horiz-adv-x="484" 
d="M346 1600v-1600h-208v1600h208z" />
    <glyph glyph-name="Kappa" unicode="&#x39a;" horiz-adv-x="1206" 
d="M357 0h-207v1600h207v-504l378 504h262l-491 -658l611 -942h-251l-495 772l-14 -17v-755z" />
    <glyph glyph-name="Lambda" unicode="&#x39b;" horiz-adv-x="1360" 
d="M771 1600l589 -1600h-220l-463 1253l-457 -1252h-220l583 1599h188z" />
    <glyph glyph-name="Mu" unicode="&#x39c;" horiz-adv-x="1812" 
d="M1613 1600v-1600h-207v1156l-499 -864l-501 864v-1156h-207v1600h189l519 -897l517 897h189z" />
    <glyph glyph-name="Nu" unicode="&#x39d;" horiz-adv-x="1357" 
d="M150 1600h189l660 -1142v1142h208v-1600h-181l-669 1156v-1156h-207v1600z" />
    <glyph glyph-name="Xi" unicode="&#x39e;" horiz-adv-x="1282" 
d="M57 208h1168v-208h-1168v208zM57 1600h1168v-208h-1168v208zM160 906h959v-208h-959v208z" />
    <glyph glyph-name="Omicron" unicode="&#x39f;" horiz-adv-x="1889" 
d="M944 1412q-254 0 -432 -178t-178 -432q0 -253 179 -432t431 -179t432 179q178 179 178 432q0 254 -178 432t-432 178zM1763 802q0 -339 -240 -579t-579 -240t-579 240t-240 579t240 579t579 240t579 -240t240 -579z" />
    <glyph glyph-name="Pi" unicode="&#x3a0;" horiz-adv-x="1260" 
d="M314 1392v-1392h-208v1600h1047v-1600h-208v1392h-631z" />
    <glyph glyph-name="Rho" unicode="&#x3a1;" horiz-adv-x="1145" 
d="M357 1392v-672h189q138 0 236 98t99 238q-1 140 -99 238t-236 98h-189zM357 512v-512h-207v1600h454q193 -26 326 -159q159 -160 159 -385q0 -224 -159 -384t-384 -160h-189z" />
    <glyph glyph-name="Sigma" unicode="&#x3a3;" horiz-adv-x="1236" 
d="M27 1600h1182v-208h-898l488 -593l-488 -591h898v-208h-1182v206l502 593l-502 595v206z" />
    <glyph glyph-name="Tau" unicode="&#x3a4;" horiz-adv-x="1054" 
d="M631 1393v-1393h-208v1393h-373v207h954v-207h-373z" />
    <glyph glyph-name="Upsilon" unicode="&#x3a5;" horiz-adv-x="1414" 
d="M810 0h-207v642l-553 958h238l418 -724l419 724h239l-554 -958v-642z" />
    <glyph glyph-name="Phi" unicode="&#x3a6;" horiz-adv-x="1784" 
d="M1492 788q0 140 -148 244t-349 109v-707q201 5 349 109q148 105 148 245zM995 0h-208v222q-278 7 -481 159q-227 165 -227 407t227 408q203 150 481 157v247h208v-247q279 -7 495 -165t215 -400q0 -242 -226 -407q-204 -152 -484 -159v-222zM292 788q0 -140 148 -245
q148 -104 347 -109v707q-199 -5 -347 -109t-148 -244z" />
    <glyph glyph-name="Chi" unicode="&#x3a7;" horiz-adv-x="1347" 
d="M50 0l503 873l-419 727h238l300 -521l302 521h238l-421 -727l505 -873h-238l-386 667l-384 -667h-238z" />
    <glyph glyph-name="Psi" unicode="&#x3a8;" horiz-adv-x="1824" 
d="M1013 0h-208v326q-278 8 -482 160q-215 166 -221 409v705h208v-708q0 -141 148 -245t347 -109v1062h208v-1062q201 5 349 109t148 311h5v642h207v-709q-2 -241 -216 -399t-493 -166v-326z" />
    <glyph glyph-name="uni03A9" unicode="&#x3a9;" horiz-adv-x="1723" 
d="M148 778q0 370 193 596t513 226h15q319 0 513 -226t193 -596q0 -280 -204 -470q-73 -69 -124 -101h234v-207h-518v194q130 52 267 198t137 386q1 292 -137 460t-367 168h-4q-229 0 -367 -168t-137 -460q-1 -240 137 -386t268 -198v-194h-519v207h235q-51 32 -124 101
q-204 190 -204 470z" />
    <glyph glyph-name="Iotadieresis" unicode="&#x3aa;" horiz-adv-x="484" 
d="M346 1600v-1600h-208v1600h208zM575 1864q0 -60 -43 -102q-42 -42 -102 -42t-102 42t-43 102q1 60 43 103q42 42 102 42t102 -42q43 -43 43 -103zM199 1864q0 -60 -43 -102q-42 -42 -102 -42t-102 42t-43 102q1 60 43 103q42 42 102 42t102 -42q43 -43 43 -103z" />
    <glyph glyph-name="Upsilondieresis" unicode="&#x3ab;" horiz-adv-x="1414" 
d="M810 0h-207v642l-553 958h238l418 -724l419 724h239l-554 -958v-642zM1040 1864q0 -60 -43 -102t-103 -42t-102 42t-42 102t42 103q42 42 102 42t103 -42q43 -43 43 -103zM664 1864q0 -60 -43 -102t-103 -42t-102 42t-42 102t42 103q42 42 102 42t103 -42q43 -43 43 -103
z" />
    <glyph glyph-name="alphatonos" unicode="&#x3ac;" horiz-adv-x="1364" 
d="M660 1112q235 0 406 -171l46 88h206l-138 -514l138 -515h-206l-50 144v-2q-166 -168 -402 -168t-402 167q-167 167 -167 403t167 402t402 166zM660 900q-148 0 -252 -105t-105 -253q1 -148 105 -251q104 -104 252 -104t252 104q76 76 78 229q0 193 -79 275
q-103 105 -251 105zM765 1407h252l-272 -279h-197z" />
    <glyph glyph-name="epsilontonos" unicode="&#x3ad;" horiz-adv-x="930" 
d="M489 833q-97 0 -141 -22t-45 -53q1 -68 43 -98t57 -34h282v-206h-284q-15 -3 -57 -33q-42 -29 -41 -77q0 -48 47 -82t143 -33q96 2 176 65l155 -118q-158 -161 -326 -161t-282 86q-114 87 -114 245t90 213q-90 54 -90 220t116 233t279 67t327 -152l-163 -106
q-75 46 -172 46zM524 1407h252l-272 -279h-197z" />
    <glyph glyph-name="etatonos" unicode="&#x3ae;" horiz-adv-x="1016" 
d="M310 0h-208v1030h208v-130q75 184 276 184q200 0 274 -118t77 -297v-1014h-207v1005q0 90 -65 154t-154 63q-89 0 -154 -63q-36 -36 -47 -61v-753zM580 1407h252l-272 -279h-197z" />
    <glyph glyph-name="iotatonos" unicode="&#x3af;" horiz-adv-x="535" 
d="M371 1030v-1030h-207v1030h207zM328 1407h252l-272 -279h-197z" />
    <glyph glyph-name="upsilondieresistonos" unicode="&#x3b0;" horiz-adv-x="1161" 
d="M580 -13q-190 1 -308 119t-122 297v626h207v-618q-1 -89 65 -153t159 -63q93 -1 158 63t65 153v618h207v-626q-3 -179 -121 -297q-120 -118 -310 -119zM570 1516h203l-176 -338h-159zM437 1322q1 -50 -35 -85t-85 -35t-85 35t-35 85q-1 50 35 84t85 35q49 -1 85 -35
t35 -84zM964 1322q0 -50 -36 -85t-84 -35t-85 35q-36 35 -36 85t36 84q37 34 85 35q48 -1 84 -35t36 -84z" />
    <glyph glyph-name="alpha" unicode="&#x3b1;" horiz-adv-x="1364" 
d="M660 1112q235 0 406 -171l46 88h206l-138 -514l138 -515h-206l-50 144v-2q-166 -168 -402 -168t-402 167q-167 167 -167 403t167 402t402 166zM660 900q-148 0 -252 -105t-105 -253q1 -148 105 -251q104 -104 252 -104t252 104q76 76 78 229q0 193 -79 275
q-103 105 -251 105z" />
    <glyph glyph-name="beta" unicode="&#x3b2;" horiz-adv-x="1091" 
d="M344 -342h-208v1567q0 173 103 284t261 111t267 -111q110 -111 110 -265q0 -185 -236 -304q140 -2 239 -98q143 -152 143 -360t-147 -355t-355 -147q-68 0 -110 25l90 188q10 -1 20 -1q121 0 206 85t85 207t-86 214q-86 93 -261 126l-121 3v-1169zM664 1244q0 70 -48 118
t-115 47t-112 -51t-45 -144v-183q132 2 175 19t94 71q51 53 51 123z" />
    <glyph glyph-name="gamma" unicode="&#x3b3;" horiz-adv-x="1127" 
d="M668 -344h-212v394l-411 979h232l284 -677l289 677h232l-414 -974v-399z" />
    <glyph glyph-name="delta" unicode="&#x3b4;" horiz-adv-x="1299" 
d="M1217 544q1 -236 -165 -403t-402 -167t-402 167q-167 167 -167 403t167 401q146 146 293 162l-404 493h851v-208h-400q180 -251 266 -293t224 -181q138 -138 139 -374zM293 542q1 -148 105 -251q104 -104 252 -104t251 104q104 103 104 251t-104 253q-103 105 -251 105
t-252 -105t-105 -253z" />
    <glyph glyph-name="epsilon" unicode="&#x3b5;" horiz-adv-x="930" 
d="M489 833q-97 0 -141 -22t-45 -53q1 -68 43 -98t57 -34h282v-206h-284q-15 -3 -57 -33q-42 -29 -41 -77q0 -48 47 -82t143 -33q96 2 176 65l155 -118q-158 -161 -326 -161t-282 86q-114 87 -114 245t90 213q-90 54 -90 220t116 233t279 67t327 -152l-163 -106
q-75 46 -172 46z" />
    <glyph glyph-name="zeta" unicode="&#x3b6;" horiz-adv-x="956" 
d="M319 424q0 -225 295 -235q318 -10 318 -267q-41 -222 -312 -231v213q102 0 104 37v3q0 36 -106 36q-505 11 -505 430q0 47 8 99q61 468 497 883h-466v208h826v-115q-659 -662 -659 -1061z" />
    <glyph glyph-name="eta" unicode="&#x3b7;" horiz-adv-x="1016" 
d="M310 0h-208v1030h208v-130q75 184 276 184q200 0 274 -118t77 -297v-1014h-207v1005q0 90 -65 154t-154 63q-89 0 -154 -63q-36 -36 -47 -61v-753z" />
    <glyph glyph-name="theta" unicode="&#x3b8;" horiz-adv-x="1318" 
d="M354 891h611v-207h-611v207zM1227 787q0 -369 -163 -591t-404 -222t-405 222t-164 590q0 370 164 592t405 222t404 -222t163 -591zM1015 787q1 294 -107 447t-249 153t-249 -153t-107 -447q-1 -294 107 -447t249 -153t249 153t107 447z" />
    <glyph glyph-name="iota" unicode="&#x3b9;" horiz-adv-x="535" 
d="M371 1030v-1030h-207v1030h207z" />
    <glyph glyph-name="kappa" unicode="&#x3ba;" horiz-adv-x="947" 
d="M321 0h-208v1030h208v-309l265 309h265l-279 -345l388 -685h-246l-283 518l-110 -122v-396z" />
    <glyph glyph-name="lambda" unicode="&#x3bb;" horiz-adv-x="1092" 
d="M1034 0h-230l-259 549l-258 -549h-230l373 800l-289 616h231z" />
    <glyph glyph-name="uni03BC" unicode="&#x3bc;" horiz-adv-x="1110" 
d="M547 -6q-172 0 -190 67v-404h-207v1372h207v-720q8 -18 36 -46q65 -62 154 -62t154 64q42 41 54 84v680h205v-1027h-205v79q-90 -87 -208 -87z" />
    <glyph glyph-name="nu" unicode="&#x3bd;" horiz-adv-x="1188" 
d="M541 0l-491 1029h234l309 -668l310 668h234l-492 -1029h-104z" />
    <glyph glyph-name="xi" unicode="&#x3be;" horiz-adv-x="1063" 
d="M91 483q0 316 299 461q-153 121 -153 281q20 375 464 375h288v-201h-258q-271 0 -271 -168v-7q0 -68 46 -112t132 -79l344 -1v-207l-333 3q-175 -37 -261 -130t-86 -213t85 -192t386 -106t301 -291v-28q-44 -175 -320 -202v228q111 0 112 16v3q0 61 -240 81t-388 149
q-147 129 -147 340z" />
    <glyph glyph-name="omicron" unicode="&#x3bf;" horiz-adv-x="1318" 
d="M302 542q0 -148 104 -251q104 -104 253 -104t253 104q104 103 104 251t-104 253t-253 105t-253 -105t-104 -253zM660 1113q236 0 402 -167t166 -403t-166 -403t-402 -167t-403 167t-167 403t167 403t403 167z" />
    <glyph glyph-name="pi" unicode="&#x3c0;" horiz-adv-x="1299" 
d="M544 822v-822h-207v822h-269v208h1162v-208h-269v-822h-206v822h-211z" />
    <glyph glyph-name="rho" unicode="&#x3c1;" horiz-adv-x="1296" 
d="M312 -345h-208v1018q46 177 184 307t372 130q236 0 402 -166t166 -400q0 -236 -166 -403t-402 -167q-199 0 -348 119v-438zM660 186q148 0 252 104t104 252t-104 253t-252 105t-253 -105q-77 -78 -95 -172v-161q18 -95 95 -171q105 -105 253 -105z" />
    <glyph glyph-name="sigma1" unicode="&#x3c2;" horiz-adv-x="1083" 
d="M113 478q0 210 143 364q154 171 485 187h263v-203h-213q-259 -8 -363 -115t-104 -225t106 -186q106 -70 334 -122t228 -250v-28q-43 -197 -321 -223v227q111 0 113 37v3q0 16 -168 49t-335 154q-168 121 -168 331z" />
    <glyph glyph-name="sigma" unicode="&#x3c3;" horiz-adv-x="1388" 
d="M1229 537q1 -229 -165 -396t-402 -167t-402 167q-167 167 -167 403t167 402t401 166q176 0 297 -83h350v-207h-131q52 -56 52 -285zM305 542q1 -148 105 -251q104 -104 252 -104t251 104q104 103 104 251t-104 253q-103 105 -251 105t-252 -105t-105 -253z" />
    <glyph glyph-name="tau" unicode="&#x3c4;" horiz-adv-x="1094" 
d="M650 821v-821h-206v821h-374v208h954v-208h-374z" />
    <glyph glyph-name="upsilon" unicode="&#x3c5;" horiz-adv-x="1161" 
d="M580 -13q-190 1 -308 119t-122 297v626h207v-618q-1 -89 65 -153t159 -63q93 -1 158 63t65 153v618h207v-626q-3 -179 -121 -297q-120 -118 -310 -119z" />
    <glyph glyph-name="phi" unicode="&#x3c6;" horiz-adv-x="1319" 
d="M734 1072q80 0 199 -52q295 -134 295 -468q0 -235 -166 -401q-145 -146 -287 -160v-331h-208v328q-155 8 -315 168t-161 396q0 236 167 402q55 56 153 115l71 -202q-54 -44 -73 -63q-105 -104 -105 -252t104 -252q75 -75 153 -94v711q24 155 173 155zM1016 552
q0 179 -150 265q-65 37 -97 44l-1 -634q85 14 144 72q104 105 104 253z" />
    <glyph glyph-name="chi" unicode="&#x3c7;" horiz-adv-x="1241" 
d="M620 191l-324 -531h-239l443 728l-391 641h241l270 -443l270 443h240l-390 -641l443 -728h-240z" />
    <glyph glyph-name="psi" unicode="&#x3c8;" horiz-adv-x="1356" 
d="M1042 552v477h213v-477q0 -235 -159 -394t-310 -169v-319h-214v319q-152 10 -311 169t-159 394v477h213v-477q0 -148 104 -252q75 -75 153 -94v823h214v-823q77 19 152 94q104 104 104 252z" />
    <glyph glyph-name="omega" unicode="&#x3c9;" horiz-adv-x="1556" 
d="M1026 176q116 0 178 88q60 88 60 294t-110 471h179q143 -243 143 -461q0 -282 -110 -438t-322 -156q-211 0 -265 90q-55 -90 -266 -90t-323 156t-111 438q0 222 152 461h180q-120 -247 -120 -462t61 -303q60 -88 166 -88t157 103v539h206v-541q29 -101 145 -101z" />
    <glyph glyph-name="iotadieresis" unicode="&#x3ca;" horiz-adv-x="535" 
d="M372 1030v-1030h-207v1030h207zM601 1294q0 -60 -43 -103q-42 -42 -102 -42t-102 42q-42 43 -43 103q1 60 43 102t102 42t102 -42q43 -42 43 -102zM225 1294q0 -60 -43 -103q-42 -42 -102 -42t-102 42q-42 43 -43 103q1 60 43 102t102 42t102 -42q43 -42 43 -102z" />
    <glyph glyph-name="upsilondieresis" unicode="&#x3cb;" horiz-adv-x="1161" 
d="M580 -13q-190 1 -308 119t-122 297v626h207v-618q-1 -89 65 -153t159 -63q93 -1 158 63t65 153v618h207v-626q-3 -179 -121 -297q-120 -118 -310 -119zM914 1294q0 -60 -43 -103q-43 -42 -103 -42t-102 42q-42 43 -42 103t42 102t102 42t103 -42t43 -102zM538 1294
q0 -60 -43 -103q-43 -42 -103 -42t-102 42q-42 43 -42 103t42 102t102 42t103 -42t43 -102z" />
    <glyph glyph-name="omicrontonos" unicode="&#x3cc;" horiz-adv-x="1318" 
d="M302 542q0 -148 104 -251q104 -104 253 -104t253 104q104 103 104 251t-104 253t-253 105t-253 -105t-104 -253zM660 1113q236 0 402 -167t166 -403t-166 -403t-402 -167t-403 167t-167 403t167 403t403 167zM720 1407h252l-272 -279h-197z" />
    <glyph glyph-name="upsilontonos" unicode="&#x3cd;" horiz-adv-x="1161" 
d="M580 -13q-190 1 -308 119t-122 297v626h207v-618q-1 -89 65 -153t159 -63q93 -1 158 63t65 153v618h207v-626q-3 -179 -121 -297q-120 -118 -310 -119zM641 1407h252l-272 -279h-197z" />
    <glyph glyph-name="omegatonos" unicode="&#x3ce;" horiz-adv-x="1556" 
d="M1026 176q116 0 178 88q60 88 60 294t-110 471h179q143 -243 143 -461q0 -282 -110 -438t-322 -156q-211 0 -265 90q-55 -90 -266 -90t-323 156t-111 438q0 222 152 461h180q-120 -247 -120 -462t61 -303q60 -88 166 -88t157 103v539h206v-541q29 -101 145 -101z
M838 1407h252l-272 -279h-197z" />
    <glyph glyph-name="afii10023" unicode="&#x401;" horiz-adv-x="1137" 
d="M1012 1600v-207h-655v-489h655v-207h-655v-489h655v-208h-862v1600h862zM914 1864q0 -60 -43 -102t-103 -42t-102 42t-42 102t42 103q42 42 102 42t103 -42q43 -43 43 -103zM538 1864q0 -60 -43 -102t-103 -42t-102 42t-42 102t42 103q42 42 102 42t103 -42
q43 -43 43 -103z" />
    <glyph glyph-name="afii10051" unicode="&#x402;" horiz-adv-x="1646" 
d="M997 1058q239 0 399 -141q160 -121 160 -421t-159 -430q-43 -38 -135 -92l-141 153q95 58 123 82q102 89 102 276t-104 279t-254 92q-148 0 -240 -88t-100 -190v-578h-206v1392h-374v208h954v-208h-374v-509q144 175 349 175z" />
    <glyph glyph-name="afii10052" unicode="&#x403;" horiz-adv-x="956" 
d="M897 1600v-208h-562v-1392h-208v1600h770zM573 1978h252l-272 -279h-197z" />
    <glyph glyph-name="afii10053" unicode="&#x404;" horiz-adv-x="1781" 
d="M1229 906v-208h-906q9 -162 181 -334t425 -173q252 0 431 179q96 96 156 253h220q-86 -259 -227 -400q-241 -241 -580 -241t-579 240t-240 580t240 579q240 240 579 240t580 -240q70 -71 177 -244h-245q-46 61 -81 96q-179 179 -431 179q-253 0 -425 -172t-181 -334h906z
" />
    <glyph glyph-name="afii10054" unicode="&#x405;" horiz-adv-x="1101" 
d="M176 1244q0 154 110 264t264 110q155 0 265 -109q62 -60 104 -191l-188 -74q-35 92 -73 130t-108 38t-118 -48q-49 -48 -49 -119q0 -69 52 -121t149 -97q188 -61 327 -199t139 -345t-146 -353t-354 -147q-206 0 -352 147q-117 117 -148 323l201 73q19 -177 99 -257
t201 -80t207 86q86 85 86 207t-84 206t-203 133q-169 57 -275 163t-106 260z" />
    <glyph glyph-name="afii10055" unicode="&#x406;" 
d="M377 1600v-1600h-207v1600h207z" />
    <glyph glyph-name="afii10056" unicode="&#x407;" 
d="M378 1600v-1600h-207v1600h207zM607 1864q0 -60 -43 -102q-42 -42 -102 -42t-102 42t-43 102q1 60 43 103q42 42 102 42t102 -42q43 -43 43 -103zM231 1864q0 -60 -43 -102q-42 -42 -102 -42t-102 42t-43 102q1 60 43 103q42 42 102 42t102 -42q43 -43 43 -103z" />
    <glyph glyph-name="afii10057" unicode="&#x408;" horiz-adv-x="937" 
d="M781 343q0 -166 -94 -261q-93 -95 -231 -95q-138 -1 -234 97t-97 260l164 64q27 -152 65 -183t92 -31h4q56 0 90 34t34 124v1248h207v-1257z" />
    <glyph glyph-name="afii10058" unicode="&#x409;" horiz-adv-x="2209" 
d="M1284 694v-486h414q86 0 151 74t65 170t-65 168q-65 74 -151 74h-414zM1076 0v1392h-631v-1069q0 -138 -94 -233t-294 -95v208q113 -1 147 33t34 98v1266h1046v-698h422q180 -4 298 -133t117 -317q0 -188 -117 -318t-298 -134h-630z" />
    <glyph glyph-name="afii10059" unicode="&#x40a;" horiz-adv-x="2085" 
d="M1160 694v-486h423q86 0 151 74t65 170t-65 168q-65 74 -151 74h-423zM952 0v696h-631v-696h-208v1600h208v-696h631v696h208v-698h431q179 -4 297 -133t118 -317t-118 -318t-297 -134h-639z" />
    <glyph glyph-name="afii10060" unicode="&#x40b;" horiz-adv-x="1646" 
d="M988 1058q240 0 393 -144q151 -146 151 -444v-470h-215l1 479q0 194 -94 288t-231 94h-13q-148 -4 -240 -92t-101 -192v-577h-206v1392h-374v208h954v-208h-374v-520q144 186 349 186z" />
    <glyph glyph-name="afii10061" unicode="&#x40c;" horiz-adv-x="1206" 
d="M507 0h-207v1600h207v-504l378 504h262l-491 -658l611 -942h-251l-495 772l-14 -17v-755zM211 1978h252l-272 -279h-197z" />
    <glyph glyph-name="afii10062" unicode="&#x40e;" horiz-adv-x="1388" 
d="M296 -11q-84 0 -198 70l100 178q86 -47 104 -47t27 3q34 10 173 223l110 178l-657 1006h243l529 -808l472 808h236q-786 -1403 -946 -1527q-109 -84 -193 -84zM696 1881q36 1 56 21t31 82h190q-22 -123 -80 -182q-81 -82 -197 -82t-189 72q-72 72 -89 192h189
q11 -62 31 -82q22 -20 58 -21z" />
    <glyph glyph-name="afii10145" unicode="&#x40f;" horiz-adv-x="1316" 
d="M551 0h-449v1600h208v-1391h697v1391h207v-1600h-457v-345h-206v345z" />
    <glyph glyph-name="afii10017" unicode="&#x410;" horiz-adv-x="1376" 
d="M744 1600l582 -1600h-220l-206 566h-424l-205 -566h-221l582 1600h112zM825 773l-137 375l-136 -375h273z" />
    <glyph glyph-name="afii10018" unicode="&#x411;" horiz-adv-x="1213" 
d="M321 696v-486h407q87 0 152 74t65 170t-65 168q-65 74 -152 74h-407zM113 1600h770v-208h-562v-488h415q181 -4 298 -133t117 -317t-117 -322q-117 -132 -298 -132h-623v1600z" />
    <glyph glyph-name="afii10019" unicode="&#x412;" horiz-adv-x="1126" 
d="M357 1393v-253h135q46 4 80 36t35 88t-37 92t-96 37h-117zM357 927v-719h203v3q64 3 164 107t100 252t-104 252t-252 105h-111zM474 1600q139 0 238 -98t99 -240q0 -141 -144 -175q105 -15 237 -148t132 -368t-160 -401t-316 -168v-2h-410v1600h324z" />
    <glyph glyph-name="afii10020" unicode="&#x413;" horiz-adv-x="956" 
d="M897 1600v-208h-562v-1392h-208v1600h770z" />
    <glyph glyph-name="afii10021" unicode="&#x414;" horiz-adv-x="1354" 
d="M1252 215v-560h-206v345h-816v-345h-207v560h43q310 356 310 918q0 166 -69 467h863l1 -1385h81zM962 215v1177h-395q16 -81 16 -259q0 -653 -247 -918h626z" />
    <glyph glyph-name="afii10022" unicode="&#x415;" horiz-adv-x="1137" 
d="M1012 1600v-207h-655v-489h655v-207h-655v-489h655v-208h-862v1600h862z" />
    <glyph glyph-name="afii10024" unicode="&#x416;" horiz-adv-x="2002" 
d="M1106 0h-209v669l-96 137l-564 -806h-253l688 984l-425 616h252l398 -570v570h209v-570l397 570h253l-426 -616l688 -984h-253l-564 806l-95 -137v-669z" />
    <glyph glyph-name="afii10025" unicode="&#x417;" horiz-adv-x="1103" 
d="M578 701h-410v207h410q112 0 172 69t60 185t-79 180t-188 64q-195 0 -441 -182v235q199 148 415 148q217 0 361 -117t144 -314q0 -295 -113 -365q113 -57 113 -376q0 -198 -144 -316t-363 -118q-218 0 -413 157v299q213 -244 420 -244q112 0 200 61t88 175t-60 183
t-172 69z" />
    <glyph glyph-name="afii10026" unicode="&#x418;" horiz-adv-x="1541" 
d="M1417 1600v-1600h-208v1210l-864 -1210h-222v1600h208v-1242l886 1242h200z" />
    <glyph glyph-name="afii10027" unicode="&#x419;" horiz-adv-x="1541" 
d="M1417 1600v-1600h-208v1210l-864 -1210h-222v1600h208v-1242l886 1242h200zM770 1881q36 1 58 21q20 20 30 82h190q-22 -123 -80 -182q-82 -82 -198 -82t-188 72t-89 192h189q12 -62 32 -82t56 -21z" />
    <glyph glyph-name="afii10028" unicode="&#x41a;" horiz-adv-x="1206" 
d="M357 0h-207v1600h207v-504l378 504h262l-491 -658l611 -942h-251l-495 772l-14 -17v-755z" />
    <glyph glyph-name="afii10029" unicode="&#x41b;" horiz-adv-x="1390" 
d="M445 323q0 -138 -94 -233t-294 -95v208q113 -1 147 33t34 98v1266h1046v-1600h-208v1392h-631v-1069z" />
    <glyph glyph-name="afii10030" unicode="&#x41c;" horiz-adv-x="1812" 
d="M1613 1600v-1600h-207v1156l-499 -864l-501 864v-1156h-207v1600h189l519 -897l517 897h189z" />
    <glyph glyph-name="afii10031" unicode="&#x41d;" horiz-adv-x="1208" 
d="M357 662v-662h-207v1600h207v-731h494v731h207v-1600h-207v662h-494z" />
    <glyph glyph-name="afii10032" unicode="&#x41e;" horiz-adv-x="1889" 
d="M944 1412q-254 0 -432 -178t-178 -432q0 -253 179 -432t431 -179t432 179q178 179 178 432q0 254 -178 432t-432 178zM1763 802q0 -339 -240 -579t-579 -240t-579 240t-240 579t240 579t579 240t579 -240t240 -579z" />
    <glyph glyph-name="afii10033" unicode="&#x41f;" horiz-adv-x="1260" 
d="M314 1392v-1392h-208v1600h1047v-1600h-208v1392h-631z" />
    <glyph glyph-name="afii10034" unicode="&#x420;" horiz-adv-x="1145" 
d="M357 1392v-672h189q138 0 236 98t99 238q-1 140 -99 238t-236 98h-189zM357 512v-512h-207v1600h454q193 -26 326 -159q159 -160 159 -385q0 -224 -159 -384t-384 -160h-189z" />
    <glyph glyph-name="afii10035" unicode="&#x421;" horiz-adv-x="1642" 
d="M931 -17q-328 0 -567 239q-239 240 -239 578t239 578t567 240t612 -259l-155 -141q-214 190 -456 190t-420 -178t-178 -430t178 -431q178 -178 420 -178t456 190l155 -139q-284 -259 -612 -259z" />
    <glyph glyph-name="afii10036" unicode="&#x422;" horiz-adv-x="1054" 
d="M631 1393v-1393h-208v1393h-373v207h954v-207h-373z" />
    <glyph glyph-name="afii10037" unicode="&#x423;" horiz-adv-x="1388" 
d="M296 -11q-84 0 -198 70l100 178q86 -47 104 -47t27 3q34 10 173 223l110 178l-657 1006h243l529 -808l472 808h236q-786 -1403 -946 -1527q-109 -84 -193 -84z" />
    <glyph glyph-name="afii10038" unicode="&#x424;" horiz-adv-x="1784" 
d="M1492 788q0 140 -148 244t-349 109v-707q201 5 349 109q148 105 148 245zM995 0h-208v222q-278 7 -481 159q-227 165 -227 407t227 408q203 150 481 157v247h208v-247q279 -7 495 -165t215 -400q0 -242 -226 -407q-204 -152 -484 -159v-222zM292 788q0 -140 148 -245
q148 -104 347 -109v707q-199 -5 -347 -109t-148 -244z" />
    <glyph glyph-name="afii10039" unicode="&#x425;" horiz-adv-x="1347" 
d="M50 0l503 873l-419 727h238l300 -521l302 521h238l-421 -727l505 -873h-238l-386 667l-384 -667h-238z" />
    <glyph glyph-name="afii10040" unicode="&#x426;" horiz-adv-x="1327" 
d="M1097 0h-984v1600h208v-1392h697v1392h207v-1386h79v-559h-207v345z" />
    <glyph glyph-name="afii10041" unicode="&#x427;" horiz-adv-x="1284" 
d="M636 543q-240 0 -392 145t-152 443v469h215l-1 -478q0 -194 94 -288t231 -94h15q147 4 239 92t100 192v576h207v-1600h-207v700q-144 -157 -349 -157z" />
    <glyph glyph-name="afii10042" unicode="&#x428;" horiz-adv-x="1826" 
d="M113 1600h208v-1391h488v1391h208v-1391h488v1391h208v-1600h-1600v1600z" />
    <glyph glyph-name="afii10043" unicode="&#x429;" horiz-adv-x="1821" 
d="M1584 0h-1471v1600h208v-1391h488v1391h208v-1391h488v1391h208v-1385h78v-560h-207v345z" />
    <glyph glyph-name="afii10044" unicode="&#x42a;" horiz-adv-x="1526" 
d="M584 694v-486h412q88 0 152 74t64 170t-64 168q-64 74 -152 74h-412zM377 1392h-354v208h561v-698h420q181 -4 298 -133t117 -317t-117 -318t-298 -134h-627v1392z" />
    <glyph glyph-name="afii10045" unicode="&#x42b;" horiz-adv-x="1597" 
d="M313 694v-486h421q86 0 151 74t65 170t-65 168q-65 74 -151 74h-421zM105 0v1600h208v-698h429q180 -4 298 -133t117 -317q1 -188 -117 -318t-298 -134h-637zM1494 1600v-1600h-208v1600h208z" />
    <glyph glyph-name="afii10046" unicode="&#x42c;" horiz-adv-x="1213" 
d="M313 694v-486h421q86 0 151 74t65 170t-65 168q-65 74 -151 74h-421zM105 0v1600h208v-698h429q180 -4 298 -133t117 -317q1 -188 -117 -318t-298 -134h-637z" />
    <glyph glyph-name="afii10047" unicode="&#x42d;" horiz-adv-x="1797" 
d="M876 1412q-252 0 -431 -179q-35 -35 -81 -96h-248q111 174 180 244q241 240 580 240t579 -240q240 -239 240 -579t-240 -580t-579 -240t-580 241q-142 141 -226 400h218q60 -157 157 -253q179 -179 431 -179q252 1 424 173t182 334h-906v208h906q-10 162 -182 334
t-424 172z" />
    <glyph glyph-name="afii10048" unicode="&#x42e;" horiz-adv-x="2268" 
d="M321 696v-696h-208v1600h208v-696h242q12 253 244 485q231 232 571 232t580 -240q240 -239 240 -579t-240 -580t-580 -240t-578 241q-223 222 -236 473h-243zM1378 1412q-252 0 -431 -179t-179 -431t179 -432q179 -179 431 -179t432 179q179 180 179 432t-179 431
q-180 179 -432 179z" />
    <glyph glyph-name="afii10049" unicode="&#x42f;" horiz-adv-x="1171" 
d="M118 1056q0 225 159 385q133 132 327 159h453v-1600h-207v511h-182l-326 -511h-251l355 547q-58 14 -169 125q-159 159 -159 384zM661 1391q-139 1 -237 -97t-98 -238t98 -238t237 -98h189v671h-189z" />
    <glyph glyph-name="afii10065" unicode="&#x430;" horiz-adv-x="1401" 
d="M1042 1029h208v-1030h-208v129q-150 -155 -348 -155q-236 1 -402 167t-167 402q1 236 167 402t402 167q198 0 348 -154v72zM694 898q-148 0 -252 -104t-105 -252q1 -148 105 -252t252 -104t252 104q78 79 96 176v152q-18 97 -96 176q-104 104 -252 104z" />
    <glyph glyph-name="afii10066" unicode="&#x431;" horiz-adv-x="1368" 
d="M724 1112q232 0 397 -166q166 -166 166 -402q1 -236 -165 -403t-402 -167t-402 168q-148 147 -178 335t-30 342q0 314 151 517q190 257 446 257q53 0 141 -18t163 -18q163 0 184 46v-171q-54 -80 -178 -80q-82 0 -169 18t-125 19q-176 0 -302 -187q-70 -103 -92 -246
q163 156 395 156zM363 542q0 -148 104 -251q103 -104 251 -104t252 104q104 103 105 251q-1 148 -105 253t-252 105t-251 -105q-104 -105 -104 -253z" />
    <glyph glyph-name="afii10067" unicode="&#x432;" horiz-adv-x="927" 
d="M113 1029h468q83 1 175 -73t92 -231v-1q0 -148 -162 -209q162 -59 162 -206v-1q0 -158 -92 -233t-175 -75h-468v1029zM320 408v-200h133v-2q125 6 156 37t31 65t-31 65t-156 37v-2h-133zM320 624h133v-2q125 6 156 37t31 65t-31 66q-31 30 -156 36v-2h-133v-200z" />
    <glyph glyph-name="afii10068" unicode="&#x433;" horiz-adv-x="773" 
d="M320 821v-821h-207v1029h580v-208h-373z" />
    <glyph glyph-name="afii10069" unicode="&#x434;" horiz-adv-x="1123" 
d="M787 208v614h-247v-87q0 -395 -107 -527h354zM994 215h73v-560h-207v345h-596v-345h-207v560h110q-7 -7 -7 -8h1q170 171 170 528q0 126 -36 294h699v-814z" />
    <glyph glyph-name="afii10070" unicode="&#x435;" horiz-adv-x="1262" 
d="M646 900q-134 0 -238 -104t-105 -240q0 -134 27 -170l486 487q-36 27 -170 27zM664 187q142 0 248 104q13 14 53 62l207 -74q-76 -105 -110 -139q-166 -167 -402 -167t-403 167t-167 403t167 403t403 167t402 -167q10 -10 57 -63l-649 -650q52 -46 194 -46z" />
    <glyph glyph-name="afii10072" unicode="&#x436;" horiz-adv-x="1458" 
d="M833 0h-209v397l-109 121l-283 -518h-246l387 685l-278 344h265l264 -307v307h209v-307l264 307h265l-278 -344l387 -685h-246l-283 518l-109 -121v-397z" />
    <glyph glyph-name="afii10073" unicode="&#x437;" horiz-adv-x="930" 
d="M850 310q0 -133 -116 -222t-274 -89q-156 0 -272 89t-117 222v71h213v-71q0 -45 49 -82t127 -37t128 37q49 38 49 82t-38 72t-70 58h-233v166h258q16 27 38 43q45 34 45 78t-49 81q-50 37 -128 37t-124 -35t-59 -126h-211q18 185 128 269t266 84q156 -1 274 -89
q116 -88 116 -221q0 -163 -176 -209q176 -45 176 -208z" />
    <glyph glyph-name="afii10074" unicode="&#x438;" horiz-adv-x="1078" 
d="M102 1029h207v-642l486 642h181v-1029h-206v651l-461 -608v-43h-207v1029z" />
    <glyph glyph-name="afii10075" unicode="&#x439;" horiz-adv-x="1078" 
d="M102 1029h207v-642l486 642h181v-1029h-206v651l-461 -608v-43h-207v1029zM540 1310q36 0 56 20t31 83h190q-22 -123 -80 -182q-81 -82 -197 -82q-116 1 -189 73q-72 72 -89 191h189q11 -63 31 -83q22 -20 58 -20z" />
    <glyph glyph-name="afii10076" unicode="&#x43a;" horiz-adv-x="947" 
d="M321 0h-208v1029h208v-308l265 308h265l-279 -344l388 -685h-246l-283 518l-110 -122v-396z" />
    <glyph glyph-name="afii10077" unicode="&#x43b;" horiz-adv-x="1164" 
d="M1062 1029v-1029h-207v821h-480v-550q0 -251 -318 -277v205q112 13 112 70v760h893z" />
    <glyph glyph-name="afii10078" unicode="&#x43c;" horiz-adv-x="1160" 
d="M1070 1029v-1029h-207v464l-201 -464h-164l-200 464v-464h-207v1029h192l298 -686l297 686h192z" />
    <glyph glyph-name="afii10079" unicode="&#x43d;" horiz-adv-x="1074" 
d="M984 0h-206v449h-480v-449h-207v1029h207v-372h480v372h206v-1029z" />
    <glyph glyph-name="afii10080" unicode="&#x43e;" horiz-adv-x="1318" 
d="M302 542q0 -148 104 -251q104 -104 253 -104t253 104q104 103 104 251t-104 253t-253 105t-253 -105t-104 -253zM660 1113q236 0 402 -167t166 -403t-166 -403t-402 -167t-403 167t-167 403t167 403t403 167z" />
    <glyph glyph-name="afii10081" unicode="&#x43f;" horiz-adv-x="1097" 
d="M309 821v-821h-207v1029h893v-1029h-206v821h-480z" />
    <glyph glyph-name="afii10082" unicode="&#x440;" horiz-adv-x="1375" 
d="M357 -346h-207v1375h207v-93q150 176 349 176q236 0 402 -166t167 -403q-1 -236 -167 -403t-402 -167q-199 0 -349 155v-474zM706 186q148 0 252 104t105 252q-1 148 -105 253t-252 105t-252 -105q-78 -77 -97 -172v-161q19 -95 97 -172q104 -104 252 -104z" />
    <glyph glyph-name="afii10083" unicode="&#x441;" horiz-adv-x="1262" 
d="M660 -27q-236 0 -403 167t-167 403t167 403t403 167t402 -167q34 -34 110 -137l-207 -76q-40 49 -54 63q-103 104 -251 104t-252 -104t-105 -252q1 -148 105 -252t252 -105q148 0 252 104q13 14 53 62l207 -74q-76 -105 -110 -139q-166 -167 -402 -167z" />
    <glyph glyph-name="afii10084" unicode="&#x442;" horiz-adv-x="1135" 
d="M671 821v-821h-206v821h-374v208h954v-208h-374z" />
    <glyph glyph-name="afii10085" unicode="&#x443;" horiz-adv-x="1139" 
d="M403 -346h-219l274 575l-383 800h233l261 -563l261 563h232z" />
    <glyph glyph-name="afii10086" unicode="&#x444;" horiz-adv-x="2191" 
d="M991 1415h208v-419q149 114 343 114q237 0 403 -166t166 -400q0 -236 -166 -403t-403 -167q-195 0 -343 116v-420h-208v420q-148 -116 -344 -116q-236 0 -402 167t-166 403t166 400q166 166 402 166q195 0 344 -114v419zM647 900q-147 0 -251 -105t-105 -253
q1 -148 105 -252t251 -104t252 105q72 71 92 155v192q-20 85 -92 157q-105 105 -252 105zM1542 186q148 0 252 104t105 252q-1 148 -105 253t-252 105t-251 -105q-72 -72 -92 -157v-192q20 -84 92 -155q103 -105 251 -105z" />
    <glyph glyph-name="afii10087" unicode="&#x445;" horiz-adv-x="1031" 
d="M906 1029l-272 -470l322 -559h-239l-201 346l-200 -346h-241l323 559l-271 470h239l150 -257l149 257h241z" />
    <glyph glyph-name="afii10088" unicode="&#x446;" horiz-adv-x="1127" 
d="M873 0h-760v1030h207v-822h480v822h206v-815h73v-560h-206v345z" />
    <glyph glyph-name="afii10089" unicode="&#x447;" horiz-adv-x="1241" 
d="M603 327q-241 0 -382 146t-141 442v114h216l-2 -123q0 -194 85 -288t219 -94h15q147 6 229 92t89 191v222h207v-1029h-207v488q-133 -161 -328 -161z" />
    <glyph glyph-name="afii10090" unicode="&#x448;" horiz-adv-x="1387" 
d="M102 1029h208v-820h279v820h208v-820h280v820h207v-1029h-1182v1029z" />
    <glyph glyph-name="afii10091" unicode="&#x449;" horiz-adv-x="1430" 
d="M1178 0h-1054v1029h208v-820h279v820h208v-820h280v820h207v-814h79v-560h-207v345z" />
    <glyph glyph-name="afii10092" unicode="&#x44a;" horiz-adv-x="1242" 
d="M474 208h261v-2q128 6 168 38t40 85q1 53 -39 85t-169 38v-2h-261v-242zM268 0v821h-234v208h440v-371h389v-4q82 -4 185 -94t103 -231v-1q0 -140 -103 -230t-185 -98h-595z" />
    <glyph glyph-name="afii10093" unicode="&#x44b;" horiz-adv-x="1476" 
d="M113 0v1029h207v-371h492v-4q84 -4 186 -94t102 -231v-1q0 -140 -106 -233q-99 -95 -182 -95h-699zM1363 0h-207v1029h207v-1029zM320 208h365v-2q127 6 167 38t40 85t-40 85t-167 38v-2h-365v-242z" />
    <glyph glyph-name="afii10094" unicode="&#x44c;" horiz-adv-x="1075" 
d="M113 0v1029h207v-371h388v-4q82 -4 185 -94t103 -231v-1q0 -140 -106 -233q-100 -95 -182 -95h-595zM320 208h260v-2q128 6 168 38t40 85t-40 85t-168 38v-2h-260v-242z" />
    <glyph glyph-name="afii10095" unicode="&#x44d;" horiz-adv-x="1288" 
d="M422 527v209h525q-6 4 -60 59q-103 105 -251 105t-253 -105q-43 -43 -84 -131h-218q62 191 151 281q167 167 402 167t402 -166t167 -402q-1 -236 -167 -403t-402 -167t-401 167q-31 30 -138 156h282q119 -110 263 -110q144 -1 244 101q102 102 107 239h-569z" />
    <glyph glyph-name="afii10096" unicode="&#x44e;" horiz-adv-x="1725" 
d="M320 449v-449h-207v1029h207v-372h196q14 143 160 288q166 167 402 167t401 -166q166 -166 166 -402t-166 -403q-165 -167 -401 -167t-402 168q-155 153 -163 307h-193zM720 542q0 -148 104 -251q104 -104 252 -104t252 104q104 103 105 251q-1 148 -105 253t-252 105
t-252 -105t-104 -253z" />
    <glyph glyph-name="afii10097" unicode="&#x44f;" horiz-adv-x="972" 
d="M857 1029v-1029h-206v373h-121l-173 -373h-229l180 386q-36 4 -132 89t-97 226v1q0 141 103 231t185 96h490zM651 822h-157v2q-128 -6 -168 -38t-39 -84q-1 -52 39 -84t168 -39v1h157v242z" />
    <glyph glyph-name="afii10071" unicode="&#x451;" horiz-adv-x="1262" 
d="M646 900q-134 0 -238 -104t-105 -240q0 -134 27 -170l486 487q-36 27 -170 27zM664 187q142 0 248 104q13 14 53 62l207 -74q-76 -105 -110 -139q-166 -167 -402 -167t-403 167t-167 403t167 403t403 167t402 -167q10 -10 57 -63l-649 -650q52 -46 194 -46zM964 1294
q0 -60 -43 -103q-43 -42 -103 -42t-102 42q-42 43 -42 103t42 102t102 42t103 -42t43 -102zM588 1294q0 -60 -43 -103q-43 -42 -103 -42t-102 42q-42 43 -42 103t42 102t102 42t103 -42t43 -102z" />
    <glyph glyph-name="afii10099" unicode="&#x452;" horiz-adv-x="1066" 
d="M744 660q0 90 -65 154t-154 63q-89 0 -153 -63q-29 -28 -37 -45v-769h-208v1183h-104v207h104v210h208v-210h203v-207h-203v-215q67 116 221 116t274 -118q118 -118 122 -297v-659q0 -138 -94 -233t-295 -95v208q113 0 147 34t34 97v639z" />
    <glyph glyph-name="afii10100" unicode="&#x453;" horiz-adv-x="773" 
d="M320 821v-821h-207v1029h580v-208h-373zM464 1407h252l-272 -279h-197z" />
    <glyph glyph-name="afii10101" unicode="&#x454;" horiz-adv-x="1288" 
d="M863 736v-209h-570q5 -137 107 -239t246 -101q144 0 262 110h281q-106 -126 -137 -156q-166 -167 -402 -167t-402 167q-167 167 -167 403t167 402q166 166 402 166t402 -167q89 -90 151 -281h-218q-41 88 -83 131q-104 105 -252 105t-253 -105q-54 -55 -60 -59h526z" />
    <glyph glyph-name="afii10102" unicode="&#x455;" horiz-adv-x="882" 
d="M570 309q0 53 -30 83t-113 82q-112 61 -159 108q-82 82 -82 198t82 198t198 82t193 -78q55 -55 70 -123l-201 -58q-8 25 -20 38t-42 13t-52 -22t-21 -51q0 -29 20 -49t87 -63q124 -68 180 -124q97 -99 97 -235q-1 -136 -97 -234t-234 -97q-138 0 -234 98q-67 67 -88 167
l206 44q20 -101 116 -101q52 0 88 36t36 88z" />
    <glyph glyph-name="afii10103" unicode="&#x456;" horiz-adv-x="541" 
d="M416 1307q0 -61 -43 -103t-103 -42t-102 42q-43 42 -43 103t43 103q42 42 102 42t103 -42t43 -103zM374 1029v-1029h-207v1029h207z" />
    <glyph glyph-name="afii10104" unicode="&#x457;" 
d="M378 1030v-1030h-207v1030h207zM607 1294q0 -60 -43 -103q-42 -42 -102 -42t-102 42q-42 43 -43 103q1 60 43 102t102 42t102 -42q43 -42 43 -102zM231 1294q0 -60 -43 -103q-42 -42 -102 -42t-102 42q-42 43 -43 103q1 60 43 102t102 42t102 -42q43 -42 43 -102z" />
    <glyph glyph-name="afii10105" unicode="&#x458;" horiz-adv-x="561" 
d="M410 1307q0 -61 -43 -103t-103 -42t-102 42q-43 42 -43 103t43 103q42 42 102 42t103 -42t43 -103zM161 60v969h207v-967q0 -253 -319 -278v206q112 12 112 70z" />
    <glyph glyph-name="afii10106" unicode="&#x459;" horiz-adv-x="1821" 
d="M858 821h-481v-550q0 -251 -318 -277v205q112 13 112 70v760h893v-370l390 -2v-3q82 -4 185 -94t103 -231v-1q0 -140 -103 -230t-185 -98h-596v821zM1066 208h260v-3q128 7 168 39t40 85t-40 85t-168 37v-1h-260v-242z" />
    <glyph glyph-name="afii10107" unicode="&#x45a;" horiz-adv-x="1751" 
d="M789 0v449h-480v-449h-207v1029h207v-372h480v372h206v-371h388v-4q83 -4 185 -94t103 -231v-1q-1 -140 -103 -230t-185 -98h-594zM995 208h261v-2q128 6 168 38t40 85t-40 85t-168 38v-2h-261v-242z" />
    <glyph glyph-name="afii10108" unicode="&#x45b;" horiz-adv-x="1066" 
d="M127 1390v210h208v-210h203v-207h-203v-215q47 116 211 116t284 -118q118 -118 122 -297v-669h-208v660q0 90 -65 154t-154 63q-89 0 -153 -63q-29 -28 -37 -45v-769h-208v1183h-104v207h104z" />
    <glyph glyph-name="afii10109" unicode="&#x45c;" horiz-adv-x="947" 
d="M321 0h-208v1029h208v-308l265 308h265l-279 -344l388 -685h-246l-283 518l-110 -122v-396zM597 1407h252l-272 -279h-197z" />
    <glyph glyph-name="afii10110" unicode="&#x45e;" horiz-adv-x="1139" 
d="M403 -346h-219l274 575l-383 800h233l261 -563l261 563h232zM568 1310q36 0 58 20q20 20 30 83h190q-22 -123 -80 -182q-82 -82 -198 -82q-116 1 -188 73t-89 191h189q12 -63 32 -83t56 -20z" />
    <glyph glyph-name="afii10193" unicode="&#x45f;" horiz-adv-x="1097" 
d="M445 0h-343v1029h207v-821h480v821h206v-1029h-343v-345h-207v345z" />
    <glyph glyph-name="afii10050" unicode="&#x490;" horiz-adv-x="1012" 
d="M897 1394v-2h-562v-1392h-208v1600h622v250h207v-456h-59z" />
    <glyph glyph-name="afii10098" unicode="&#x491;" horiz-adv-x="806" 
d="M320 821v-821h-207v1029h430v250h207v-458h-430z" />
    <glyph glyph-name="Wgrave" unicode="&#x1e80;" horiz-adv-x="1686" 
d="M739 1600h207v-1301q10 -17 34 -42q65 -62 154 -62q89 -1 154 63t65 153v1189h208v-1197q-4 -169 -127 -293q-124 -124 -300 -123q-176 0 -291 124q-117 -124 -293 -124t-299 123t-126 293v1197h207v-1189q0 -89 65 -153t155 -63q90 0 153 62q25 25 34 42v1301zM999 1699
h-197l-272 279h252z" />
    <glyph glyph-name="wgrave" unicode="&#x1e81;" horiz-adv-x="1418" 
d="M604 1029h207v-707q0 -56 37 -92t88 -36q123 0 123 153v682h208v-721q-5 -132 -99 -227t-232 -95t-227 96q-91 -96 -229 -96t-232 95t-98 227v721h207v-682q0 -153 124 -153q51 0 85 34t38 77v724zM865 1128h-197l-272 279h252z" />
    <glyph glyph-name="Wacute" unicode="&#x1e82;" horiz-adv-x="1686" 
d="M739 1600h207v-1301q10 -17 34 -42q65 -62 154 -62q89 -1 154 63t65 153v1189h208v-1197q-4 -169 -127 -293q-124 -124 -300 -123q-176 0 -291 124q-117 -124 -293 -124t-299 123t-126 293v1197h207v-1189q0 -89 65 -153t155 -63q90 0 153 62q25 25 34 42v1301zM904 1978
h252l-272 -279h-197z" />
    <glyph glyph-name="wacute" unicode="&#x1e83;" horiz-adv-x="1418" 
d="M604 1029h207v-707q0 -56 37 -92t88 -36q123 0 123 153v682h208v-721q-5 -132 -99 -227t-232 -95t-227 96q-91 -96 -229 -96t-232 95t-98 227v721h207v-682q0 -153 124 -153q51 0 85 34t38 77v724zM769 1407h252l-272 -279h-197z" />
    <glyph glyph-name="Wdieresis" unicode="&#x1e84;" horiz-adv-x="1686" 
d="M739 1600h207v-1301q10 -17 34 -42q65 -62 154 -62q89 -1 154 63t65 153v1189h208v-1197q-4 -169 -127 -293q-124 -124 -300 -123q-176 0 -291 124q-117 -124 -293 -124t-299 123t-126 293v1197h207v-1189q0 -89 65 -153t155 -63q90 0 153 62q25 25 34 42v1301z
M1176 1864q0 -60 -43 -102t-103 -42t-102 42t-42 102t42 103q42 42 102 42t103 -42q43 -43 43 -103zM800 1864q0 -60 -43 -102t-103 -42t-102 42t-42 102t42 103q42 42 102 42t103 -42q43 -43 43 -103z" />
    <glyph glyph-name="wdieresis" unicode="&#x1e85;" horiz-adv-x="1418" 
d="M604 1029h207v-707q0 -56 37 -92t88 -36q123 0 123 153v682h208v-721q-5 -132 -99 -227t-232 -95t-227 96q-91 -96 -229 -96t-232 95t-98 227v721h207v-682q0 -153 124 -153q51 0 85 34t38 77v724zM1042 1294q0 -60 -43 -103q-43 -42 -103 -42t-102 42q-42 43 -42 103
t42 102t102 42t103 -42t43 -102zM666 1294q0 -60 -43 -103q-43 -42 -103 -42t-102 42q-42 43 -42 103t42 102t102 42t103 -42t43 -102z" />
    <glyph glyph-name="Ygrave" unicode="&#x1ef2;" horiz-adv-x="1414" 
d="M810 0h-207v642l-553 958h238l418 -724l419 724h239l-554 -958v-642zM863 1699h-197l-272 279h252z" />
    <glyph glyph-name="ygrave" unicode="&#x1ef3;" horiz-adv-x="1139" 
d="M403 -346h-219l274 575l-383 800h233l261 -563l261 563h232zM725 1128h-197l-272 279h252z" />
    <glyph glyph-name="endash" unicode="&#x2013;" horiz-adv-x="935" 
d="M50 712h835v-207h-835v207z" />
    <glyph glyph-name="emdash" unicode="&#x2014;" horiz-adv-x="1522" 
d="M50 712h1422v-207h-1422v207z" />
    <glyph glyph-name="afii00208" unicode="&#x2015;" horiz-adv-x="3034" 
d="M-75 712h2071v-207h-2071v207z" />
    <glyph glyph-name="underscoredbl" unicode="&#x2017;" horiz-adv-x="1096" 
d="M25 97h1046v-207h-1046v207zM25 -111h1046v-207h-1046v207z" />
    <glyph glyph-name="quoteleft" unicode="&#x2018;" horiz-adv-x="410" 
d="M340 1330q0 -60 -42 -103q-42 -42 -102 -42t-103 42t-43 88t12 76l108 219h189l-61 -178q42 -42 42 -102z" />
    <glyph glyph-name="quoteright" unicode="&#x2019;" horiz-adv-x="410" 
d="M69 1466q1 60 43 102t102 42t102 -42q43 -42 43 -88t-12 -76l-108 -219h-189l61 178q-42 43 -42 103z" />
    <glyph glyph-name="quotesinglbase" unicode="&#x201a;" horiz-adv-x="410" 
d="M69 126q1 60 43 102t102 42t102 -42q43 -42 43 -88t-12 -76l-108 -219h-189l61 178q-42 43 -42 103z" />
    <glyph glyph-name="quotereversed" unicode="&#x201b;" horiz-adv-x="410" 
d="M50 1480q0 46 43 88t103 42t102 -42t42 -102t-42 -103l61 -178h-189l-108 219q-12 30 -12 76z" />
    <glyph glyph-name="quotedblleft" unicode="&#x201c;" horiz-adv-x="744" 
d="M674 1330q0 -60 -42 -103q-42 -42 -102 -42t-103 42t-43 88t12 76l108 219h189l-61 -178q42 -42 42 -102zM341 1330q-1 -60 -43 -103q-42 -42 -102 -42t-102 42q-43 42 -43 88t12 76l108 219h189l-61 -178q42 -42 42 -102z" />
    <glyph glyph-name="quotedblright" unicode="&#x201d;" horiz-adv-x="744" 
d="M70 1466q0 60 42 102t102 42t103 -42t43 -88t-12 -76l-108 -219h-189l61 178q-42 43 -42 103zM403 1466q1 60 43 102t102 42t102 -42q43 -42 43 -88t-12 -76l-108 -219h-189l61 178q-42 43 -42 103z" />
    <glyph glyph-name="quotedblbase" unicode="&#x201e;" horiz-adv-x="743" 
d="M402 68q0 60 42 103q42 42 102 42t103 -42t43 -88t-12 -76l-108 -219h-189l61 178q-42 42 -42 102zM69 68q1 60 43 103q42 42 102 42t102 -42q43 -42 43 -88t-12 -76l-108 -219h-189l61 178q-42 42 -42 102z" />
    <glyph glyph-name="dagger" unicode="&#x2020;" horiz-adv-x="839" 
d="M331 1596v201h177v-201h231v-177h-231v-1259h-177v1259h-231v177h231z" />
    <glyph glyph-name="daggerdbl" unicode="&#x2021;" horiz-adv-x="839" 
d="M331 1419h-231v177h231v201h177v-201h231v-177h-231v-323h231v-178h-231v-758h-177v758h-231v178h231v323z" />
    <glyph glyph-name="bullet" unicode="&#x2022;" horiz-adv-x="860" 
d="M633 748q0 -84 -60 -144q-60 -58 -143 -58t-143 58t-60 144q0 84 60 143t143 59t143 -59t60 -143z" />
    <glyph glyph-name="ellipsis" unicode="&#x2026;" horiz-adv-x="2048" 
d="M390 132q0 -61 -42 -103t-102 -42t-103 42t-43 103t43 103t103 42t102 -42t42 -103zM1073 132q-1 -61 -43 -103t-102 -42t-102 42q-43 42 -43 103t43 103q42 42 102 42t102 -42t43 -103zM1756 132q0 -61 -42 -103t-102 -42t-103 42t-43 103t43 103t103 42t102 -42
t42 -103z" />
    <glyph glyph-name="perthousand" unicode="&#x2030;" horiz-adv-x="1771" 
d="M630 970q0 -114 -80 -194t-195 -81q-115 1 -195 81t-80 194t80 194t195 81q115 -1 195 -81t80 -194zM908 141q-114 1 -194 81t-81 194q1 114 81 196q80 80 194 80t196 -80q38 -39 58 -85q20 46 59 85q81 80 195 80t194 -80t81 -196q-1 -114 -81 -194t-194 -81
q-114 0 -195 81q-39 38 -59 84q-20 -46 -58 -84q-82 -81 -196 -81zM1176 1290l-918 -1311l-170 118l917 1310zM908 487q-30 -1 -50 -21t-20 -50t20 -50t50 -20q29 0 50 20t21 50t-21 50t-50 21zM1415 487q-29 -1 -49 -21t-21 -50q1 -30 21 -50t49 -20t50 20t21 50t-21 50
t-50 21zM355 1040q-29 0 -49 -20t-21 -50q1 -30 21 -50t49 -21q29 1 50 21t21 50t-21 50t-50 20z" />
    <glyph glyph-name="minute" unicode="&#x2032;" horiz-adv-x="458" 
d="M125 920v677h207v-677h-207z" />
    <glyph glyph-name="second" unicode="&#x2033;" horiz-adv-x="624" 
d="M361 920v677h207v-677h-207zM55 920v677h207v-677h-207z" />
    <glyph glyph-name="guilsinglleft" unicode="&#x2039;" horiz-adv-x="744" 
d="M100 489l543 581v-278l-283 -303l283 -304v-280z" />
    <glyph glyph-name="guilsinglright" unicode="&#x203a;" horiz-adv-x="744" 
d="M100 -95v280l283 304l-283 303v278l543 -581z" />
    <glyph glyph-name="exclamdbl" unicode="&#x203c;" horiz-adv-x="1082" 
d="M372 1600v-1145h-207v1145h207zM415 132q-1 -61 -43 -103t-102 -42t-102 42q-43 42 -43 103t43 103q42 42 102 42t102 -42t43 -103zM913 1600v-1145h-207v1145h207zM956 132q0 -61 -42 -103t-102 -42t-103 42t-43 103t43 103t103 42t102 -42t42 -103z" />
    <glyph glyph-name="uni203E" unicode="&#x203e;" horiz-adv-x="1096" 
d="M25 1794h1046v-208h-1046v208z" />
    <glyph glyph-name="fraction" unicode="&#x2044;" horiz-adv-x="185" 
d="M686 1396l-916 -1310l-171 118l918 1311z" />
    <glyph glyph-name="fraction" unicode="&#x2215;" horiz-adv-x="185" 
d="M686 1396l-916 -1310l-171 118l918 1311z" />
    <glyph glyph-name="uni207F" unicode="&#x207f;" horiz-adv-x="1136" 
d="M357 516h-207v1030h207v-111q66 165 242 165q147 0 265 -118t121 -298v-668h-207v660q0 90 -65 154t-154 63q-89 0 -154 -63q-37 -36 -48 -62v-752z" />
    <glyph glyph-name="franc" unicode="&#x20a3;" horiz-adv-x="1069" 
d="M199 556v1044h770v-207h-562v-489h562v-207h-562v-141h265v-207h-265v-349h-208v349h-149v207h149z" />
    <glyph glyph-name="lira" unicode="&#x20a4;" horiz-adv-x="1214" 
d="M631 209q26 0 104 -11t148 -11t192 31l39 -204q-140 -34 -228 -34t-176 20t-145 19t-121 -23t-193 -88l-151 179q156 138 182 170q85 101 87 254h-219v206h173q-1 3 -41 82q-125 202 -125 366q0 165 113 299t313 135q150 0 270 -99q133 -114 149 -287q4 -24 4 -47
q0 -71 -48 -182l-193 65q31 89 31 113q0 113 -68 171q-68 57 -158 57q-89 0 -145 -68q-57 -68 -57 -153t65 -223q83 -132 107 -229h194v-206l-159 -2q0 -227 -122 -352q81 52 178 52z" />
    <glyph glyph-name="peseta" unicode="&#x20a7;" horiz-adv-x="2023" 
d="M1711 309q-1 53 -31 83t-112 82q-112 61 -159 108q-82 82 -82 197q0 22 3 43h-87v-822h-207v822h-87q-35 -81 -97 -150q-143 -160 -346 -160h-170v-512h-186v1600h409q173 -26 293 -159q143 -160 143 -384q0 -14 -1 -28h42v386h207v-386h185v-34q76 65 186 65t186 -78
q55 -55 70 -123l-201 -58q-7 25 -19 38t-43 13q-29 0 -51 -22t-22 -51t20 -49t87 -63q124 -68 180 -124q97 -99 97 -235t-96 -234t-234 -97q-138 0 -235 98q-67 67 -88 167l206 44q20 -101 116 -101q51 0 87 36t37 88zM336 1392v-672h170q126 0 214 98t88 238t-88 238
t-214 98h-170z" />
    <glyph glyph-name="Euro" unicode="&#x20ac;" horiz-adv-x="1507" 
d="M269 971v61q1 236 167 402t402 166t444 -211l-149 -149q-148 147 -296 147q-149 0 -253 -104t-104 -251v-61h620l-42 -188h-578v-56h581l-41 -187l-540 3q0 -148 104 -252t253 -104q148 0 252 105q65 65 103 189h215q-54 -225 -168 -340q-165 -166 -401 -166t-402 166
t-167 399h-169l41 187h128v56h-130l41 188h89z" />
    <glyph glyph-name="afii61248" unicode="&#x2105;" horiz-adv-x="1962" 
d="M1178 423q0 -103 74 -177t178 -74t178 74t74 177q0 104 -74 178t-178 74t-178 -74t-74 -178zM1430 865q182 1 312 -129t130 -313t-130 -313t-312 -129q-182 -1 -312 129t-130 313t130 313t312 129zM1535 1396l-916 -1310l-171 118l918 1311zM532 716q-182 0 -312 130
t-130 312t130 312t312 130q183 0 313 -130q26 -26 96 -120l-185 -68q-37 44 -47 55q-73 72 -177 72q-104 1 -178 -73t-73 -178q-1 -104 73 -178t178 -74t178 74q10 10 46 54l184 -66q-69 -96 -95 -123q-130 -129 -313 -129z" />
    <glyph glyph-name="afii61352" unicode="&#x2116;" horiz-adv-x="2162" 
d="M125 1600h189l660 -1142v1142h208v-1600h-181l-669 1156v-1156h-207v1600zM1543 972q-132 0 -224 92t-92 224t92 224t224 92h27q132 0 224 -92t92 -224t-92 -224t-224 -92h-27zM1691 1288q0 50 -34 84t-100 36q-67 -2 -101 -36t-33 -84q-1 -50 33 -84t101 -36
q66 2 100 36t34 84zM1956 1447h157v-707h-779v157h622v550z" />
    <glyph glyph-name="trademark" unicode="&#x2122;" horiz-adv-x="1255" 
d="M486 1428h-91v-557h-177v557h-168v172h584l212 -325l212 325h147v-729h-176v365l-183 -282l-184 283v-366h-176v557z" />
    <glyph glyph-name="Omega" unicode="&#x2126;" horiz-adv-x="1723" 
d="M148 778q0 370 193 596t513 226h15q319 0 513 -226t193 -596q0 -280 -204 -470q-73 -69 -124 -101h234v-207h-518v194q130 52 267 198t137 386q1 292 -137 460t-367 168h-4q-229 0 -367 -168t-137 -460q-1 -240 137 -386t268 -198v-194h-519v207h235q-51 32 -124 101
q-204 190 -204 470z" />
    <glyph glyph-name="arrowleft" unicode="&#x2190;" horiz-adv-x="1834" 
d="M420 896h1301v-208h-1301v-207l-307 311l307 309v-205z" />
    <glyph glyph-name="arrowup" unicode="&#x2191;" horiz-adv-x="1300" 
d="M753 1304v-1301h-208v1301h-205l309 308l311 -308h-207z" />
    <glyph glyph-name="arrowright" unicode="&#x2192;" horiz-adv-x="1834" 
d="M1414 688h-1301v208h1301v205l307 -309l-307 -311v207z" />
    <glyph glyph-name="arrowdown" unicode="&#x2193;" horiz-adv-x="1300" 
d="M545 285v1301h208v-1301h207l-311 -307l-309 307h205z" />
    <glyph glyph-name="arrowboth" unicode="&#x2194;" horiz-adv-x="1861" 
d="M1439 896v205l308 -309l-308 -311v207h-1019v-207l-307 311l307 309v-205h1019z" />
    <glyph glyph-name="arrowupdn" unicode="&#x2195;" horiz-adv-x="2087" 
d="M1149 285h205l-309 -307l-311 307h207v1019h-207l311 308l309 -308h-205v-1019z" />
    <glyph glyph-name="arrowupdnbse" unicode="&#x21a8;" horiz-adv-x="2087" 
d="M824 1608v208h443v-208h-217l305 -304h-205v-1019h205l-303 -301h215v-207h-443v207h216l-305 301h207v1019h-207l307 304h-218z" />
    <glyph glyph-name="partialdiff" unicode="&#x2202;" horiz-adv-x="1046" 
d="M786 1011q0 352 -144 379q-33 5 -65 5q-149 0 -310 -234l-104 208q180 217 406 217q72 0 152 -19q269 -69 269 -532q0 -127 -21 -287q-114 -728 -551 -738q-361 0 -361 290q0 53 15 119q130 410 711 481q3 37 3 111zM261 305q0 -101 157 -102q249 26 343 493
q-382 -48 -491 -323q-9 -37 -9 -68z" />
    <glyph glyph-name="Delta" unicode="&#x2206;" horiz-adv-x="1326" 
d="M1029 208l-386 1045l-382 -1045h768zM55 1h-89l583 1599h188l589 -1600h-1271v1z" />
    <glyph glyph-name="product" unicode="&#x220f;" horiz-adv-x="1364" 
d="M314 1392v-1736h-208v1944h1151v-1944h-208v1736h-735z" />
    <glyph glyph-name="summation" unicode="&#x2211;" horiz-adv-x="1265" 
d="M1162 1600v-208h-785l357 -764l-357 -764h785v-208h-1105l446 972l-446 972h1105z" />
    <glyph glyph-name="minus" unicode="&#x2212;" horiz-adv-x="1112" 
d="M125 712h862v-207h-862v207z" />
    <glyph glyph-name="radical" unicode="&#x221a;" horiz-adv-x="1604" 
d="M878 453l505 1276h221l-719 -1863l-621 782l-89 -40l-118 147l382 215z" />
    <glyph glyph-name="infinity" unicode="&#x221e;" horiz-adv-x="1253" 
d="M270 790q0 -42 22 -64t54 -22t59 25t38 61q-11 34 -38 60t-59 26t-54 -22t-22 -64zM826 422q-212 0 -296 192q-76 -100 -184 -100t-187 77q-78 77 -78 199q-1 122 77 199q78 78 188 78t184 -102q94 192 296 192q142 -1 243 -101t101 -242q0 -192 -101 -292t-243 -100z
M980 814q0 64 -45 109t-110 45t-115 -46t-68 -132q18 -87 68 -133t115 -46t110 45t45 158z" />
    <glyph glyph-name="integral" unicode="&#x222b;" horiz-adv-x="649" 
d="M36 -335v202q178 0 185 122v1397q25 321 391 321v-189q-171 -5 -185 -136v-1394q-12 -323 -391 -323z" />
    <glyph glyph-name="approxequal" unicode="&#x2248;" horiz-adv-x="1328" 
d="M920 798q-114 0 -281 96t-228 96q-6 0 -8 -1q-41 -12 -58 -55q-8 -20 -11 -82h1q33 10 70 10q114 0 281 -96t228 -95h9q41 12 58 55q7 19 9 83q-33 -11 -70 -11zM405 1194q114 0 281 -96t228 -95h9q41 11 54 45t13 131l213 -33q-9 -111 -30 -165q-40 -95 -120 -144
l150 -23q-9 -111 -30 -165q-54 -129 -182 -173q-33 -10 -71 -10q-114 0 -281 96t-228 96q-6 0 -8 -1q-41 -12 -58 -55q-10 -25 -12 -120l-208 32q5 111 27 166q40 95 120 143l-147 23q5 111 27 166q54 129 183 172q33 10 70 10z" />
    <glyph glyph-name="notequal" unicode="&#x2260;" horiz-adv-x="1267" 
d="M202 652v208h528l162 179h263l-162 -179h71v-208h-260l-79 -88h339v-207h-527l-163 -180h-262l163 180h-73v207h260l80 88h-340z" />
    <glyph glyph-name="equivalence" unicode="&#x2261;" horiz-adv-x="1112" 
d="M125 988h862v-207h-862v207zM125 426h862v-207h-862v207zM125 712h862v-207h-862v207z" />
    <glyph glyph-name="lessequal" unicode="&#x2264;" horiz-adv-x="1504" 
d="M1403 0h-1138v208h861l-1026 374l1303 474v-221l-697 -253l697 -254v-328z" />
    <glyph glyph-name="greaterequal" unicode="&#x2265;" horiz-adv-x="1504" 
d="M1238 208v-208h-1138v328l697 254l-697 253v221l1303 -474l-1026 -374h861z" />
    <glyph glyph-name="integraltp" unicode="&#x2320;" horiz-adv-x="735" 
d="M434 -334h-207v1720q26 321 391 321l2 -189q-172 -5 -186 -136v-1716z" />
    <glyph glyph-name="integralbt" unicode="&#x2321;" horiz-adv-x="733" 
d="M300 1707h206v-1719q-25 -322 -393 -322v189q173 6 187 137v1715z" />
    <glyph glyph-name="uniEEC9" unicode="&#xeec9;" horiz-adv-x="1045" 
d="M646 823h-257v-823h-207v823h-92v207h92v185q7 128 97 219q95 88 218 88q62 0 188 -43l-68 -196q-89 38 -121 38t-68 -34t-39 -80v-177h464v-968q0 -251 -319 -277v206q112 13 112 70v762zM895 1206q0 -60 -43 -102q-42 -42 -102 -42t-102 42t-43 102q1 60 43 103
q42 42 102 42t102 -42q43 -43 43 -103z" />
    <glyph glyph-name="uniEECA" unicode="&#xeeca;" horiz-adv-x="1170" 
d="M835 0h-207v823h-239v-823h-207v823h-92v207h92v185q7 128 97 219q95 88 218 88q62 0 188 -43l-68 -196q-89 38 -121 38t-68 -34t-39 -80v-177h446v-140q115 157 285 164v-214q-114 -6 -181 -73q-100 -99 -104 -238v-529z" />
    <glyph glyph-name="uniEECB" unicode="&#xeecb;" horiz-adv-x="999" 
d="M112 1030v185q7 128 97 219q95 88 255 88t301 -76v-416h184v-207h-184v-823h-207v823h-239v-823h-207v823h-92v207h92zM319 1030h239v287q-12 4 -88 4t-112 -34t-39 -80v-177z" />
    <glyph glyph-name="uniEECD" unicode="&#xeecd;" horiz-adv-x="1583" 
d="M389 823v-823h-207v823h-92v207h92v185q7 128 97 219q95 88 218 88q62 0 188 -43l-68 -196q-89 38 -121 38t-68 -34t-39 -80v-177h365l261 -563l261 563h231l-554 -1162v2l-103 -215h-219l274 574l-284 594h-232z" />
    <glyph glyph-name="uniEECE" unicode="&#xeece;" horiz-adv-x="1721" 
d="M389 823v-823h-207v823h-92v207h92v185q7 128 97 219q95 88 218 88q62 0 188 -43l-68 -196q-89 38 -121 38t-68 -34t-39 -80v-177h275v185q7 128 98 219q94 88 217 88q62 0 188 -43l-68 -196q-89 38 -121 38t-68 -34t-38 -80v-177h367v386h207v-386h185v-207h-185v-823
h-207v823h-367v-823h-208v823h-275z" />
    <glyph glyph-name="uniEECF" unicode="&#xeecf;" horiz-adv-x="2065" 
d="M389 823v-823h-207v823h-92v207h92v185q7 128 97 219q95 88 218 88q62 0 188 -43l-68 -196q-89 38 -121 38t-68 -34t-39 -80v-177h275v185q7 128 98 219q94 88 217 88q62 0 188 -43l-68 -196q-89 38 -121 38t-68 -34t-38 -80v-177h365l261 -563l260 563h232l-555 -1162v2
l-103 -215h-219l274 574l-284 594h-231v-823h-208v823h-275z" />
    <glyph glyph-name="uniEED0" unicode="&#xeed0;" horiz-adv-x="2199" 
d="M389 823v-823h-207v823h-92v207h92v185q7 128 97 219q95 88 218 88q62 0 188 -43l-68 -196q-89 38 -121 38t-68 -34t-39 -80v-177h368v386h207v-386h408l261 -563l261 563h231l-554 -1162v2l-104 -215h-218l274 574l-284 594h-275v-823h-207v823h-368z" />
    <glyph glyph-name="uniEED9" unicode="&#xeed9;" horiz-adv-x="1305" 
d="M970 0h-207v823h-281v-823h-208v823h-184v207h184v386h208v-386h488v-92q116 109 285 116v-214q-113 -6 -180 -73q-101 -99 -105 -238v-529z" />
    <glyph glyph-name="uniEEDA" unicode="&#xeeda;" horiz-adv-x="1374" 
d="M482 823v-823h-208v823h-184v207h184v386h208v-386h410v386h208v-386h184v-207h-184v-823h-208v823h-410z" />
    <glyph glyph-name="uniEEDB" unicode="&#xeedb;" horiz-adv-x="1718" 
d="M482 823v-823h-208v823h-184v207h184v386h208v-386h433v-54l236 -509l261 563h231l-554 -1162v2l-104 -215h-219l274 574l-283 594h-275z" />
    <glyph glyph-name="uniEEDC" unicode="&#xeedc;" horiz-adv-x="1693" 
d="M482 823v-823h-208v823h-184v207h184v386h208v-386h1070l-475 -821h464v-209h-823l474 823h-710z" />
    <glyph glyph-name="uniF001" unicode="&#xf001;" horiz-adv-x="1020" 
d="M895 1206q0 -60 -43 -102q-42 -42 -102 -42t-102 42t-43 102q1 60 43 103q42 42 102 42t102 -42q43 -43 43 -103zM853 1030v-1030h-207v1030h207zM389 0h-207v823h-92v207h92v185q7 128 97 219q95 88 218 88q62 0 188 -43l-68 -196q-89 38 -121 38t-68 -34t-39 -80v-1207
z" />
    <glyph glyph-name="uniF002" unicode="&#xf002;" horiz-adv-x="985" 
d="M540 1321q-76 0 -112 -34t-39 -80v-1207h-207v823h-92v207h92v185q7 128 97 219q95 88 255 88t301 -76v-1446h-207v1317q-12 4 -88 4z" />
    <glyph glyph-name="uniFB00" unicode="&#xfb00;" horiz-adv-x="1108" 
d="M389 823v-823h-207v823h-92v207h92v185q7 128 97 219q95 88 218 88q62 0 188 -43l-68 -196q-89 38 -121 38t-68 -34t-39 -80v-177h275v185q7 128 98 219q94 88 217 88q62 0 188 -43l-68 -196q-89 38 -121 38t-68 -34t-38 -80v-177h184v-207h-184v-823h-208v823h-275z" />
    <glyph glyph-name="uniFB01" unicode="&#xfb01;" horiz-adv-x="1020" 
d="M646 823h-257v-823h-207v823h-92v207h92v185q7 128 97 219q95 88 218 88q62 0 188 -43l-68 -196q-89 38 -121 38t-68 -34t-39 -80v-177h464v-1030h-207v823zM895 1206q0 -60 -43 -102q-42 -42 -102 -42t-102 42t-43 102q1 60 43 103q42 42 102 42t102 -42q43 -43 43 -103
z" />
    <glyph glyph-name="uniFB02" unicode="&#xfb02;" horiz-adv-x="985" 
d="M540 1321q-76 0 -112 -34t-39 -80v-177h185v-207h-185v-823h-207v823h-92v207h92v185q7 128 97 219q95 88 255 88t301 -76v-1446h-207v1317q-12 4 -88 4z" />
    <glyph glyph-name="uniFB03" unicode="&#xfb03;" horiz-adv-x="1502" 
d="M389 823v-823h-207v823h-92v207h92v185q7 128 97 219q95 88 218 88q62 0 188 -43l-68 -196q-89 38 -121 38t-68 -34t-39 -80v-177h275v185q7 128 98 219q94 88 217 88q62 0 188 -43l-68 -196q-89 38 -121 38t-68 -34t-38 -80v-177h464v-1030h-208v823h-256v-823h-208v823
h-275zM1377 1206q0 -60 -43 -102q-42 -42 -102 -42t-102 42t-43 102q1 60 43 103q42 42 102 42t102 -42q43 -43 43 -103z" />
    <glyph glyph-name="uniFB04" unicode="&#xfb04;" horiz-adv-x="1467" 
d="M389 823v-823h-207v823h-92v207h92v185q7 128 97 219q95 88 218 88q62 0 188 -43l-68 -196q-89 38 -121 38t-68 -34t-39 -80v-177h275v185q7 128 98 219q94 88 254 88t301 -76v-1446h-207v1317q-12 4 -88 4t-112 -34t-38 -80v-177h184v-207h-184v-823h-208v823h-275z" />
    <glyph glyph-name="uniFB05" unicode="&#xfb05;" horiz-adv-x="999" 
d="M558 823h-185v207h185v287q-12 4 -88 4t-112 -34t-39 -80v-1207h-207v823h-92v207h92v185q7 128 97 219q95 88 255 88t301 -76v-416h184v-207h-184v-823h-207v823z" />
    </font>
</defs>
</svg>
